<?xml version="1.0" encoding="utf-8"?>
<!-- Generator: Adobe Illustrator 16.0.4, SVG Export Plug-In . SVG Version: 6.00 Build 0)  -->
<!DOCTYPE svg PUBLIC "-//W3C//DTD SVG 1.1//EN" "http://www.w3.org/Graphics/SVG/1.1/DTD/svg11.dtd">
<svg version="1.1" id="Layer_1" xmlns="http://www.w3.org/2000/svg" xmlns:xlink="http://www.w3.org/1999/xlink" x="0px" y="0px"
	 width="760.201px" height="89.565px" viewBox="0 0 760.201 89.565" enable-background="new 0 0 760.201 89.565"
	 xml:space="preserve">
<metadata><?xpacket begin="﻿" id="W5M0MpCehiHzreSzNTczkc9d"?>
<x:xmpmeta xmlns:x="adobe:ns:meta/" x:xmptk="Adobe XMP Core 5.3-c011 66.145661, 2012/02/06-14:56:27        ">
   <rdf:RDF xmlns:rdf="http://www.w3.org/1999/02/22-rdf-syntax-ns#">
      <rdf:Description rdf:about=""
            xmlns:dc="http://purl.org/dc/elements/1.1/">
         <dc:format>image/svg+xml</dc:format>
         <dc:title>
            <rdf:Alt>
               <rdf:li xml:lang="x-default">Dare Northward-1line-black</rdf:li>
            </rdf:Alt>
         </dc:title>
      </rdf:Description>
      <rdf:Description rdf:about=""
            xmlns:xmp="http://ns.adobe.com/xap/1.0/"
            xmlns:xmpGImg="http://ns.adobe.com/xap/1.0/g/img/">
         <xmp:CreatorTool>Adobe Illustrator CS6 (Macintosh)</xmp:CreatorTool>
         <xmp:CreateDate>2017-09-27T17:08:02-04:00</xmp:CreateDate>
         <xmp:ModifyDate>2017-09-27T17:08:04-04:00</xmp:ModifyDate>
         <xmp:MetadataDate>2017-09-27T17:08:04-04:00</xmp:MetadataDate>
         <xmp:Thumbnails>
            <rdf:Alt>
               <rdf:li rdf:parseType="Resource">
                  <xmpGImg:width>256</xmpGImg:width>
                  <xmpGImg:height>32</xmpGImg:height>
                  <xmpGImg:format>JPEG</xmpGImg:format>
                  <xmpGImg:image>/9j/4AAQSkZJRgABAgEASABIAAD/7QAsUGhvdG9zaG9wIDMuMAA4QklNA+0AAAAAABAASAAAAAEA&#xA;AQBIAAAAAQAB/+4ADkFkb2JlAGTAAAAAAf/bAIQABgQEBAUEBgUFBgkGBQYJCwgGBggLDAoKCwoK&#xA;DBAMDAwMDAwQDA4PEA8ODBMTFBQTExwbGxscHx8fHx8fHx8fHwEHBwcNDA0YEBAYGhURFRofHx8f&#xA;Hx8fHx8fHx8fHx8fHx8fHx8fHx8fHx8fHx8fHx8fHx8fHx8fHx8fHx8fHx8f/8AAEQgAIAEAAwER&#xA;AAIRAQMRAf/EAaIAAAAHAQEBAQEAAAAAAAAAAAQFAwIGAQAHCAkKCwEAAgIDAQEBAQEAAAAAAAAA&#xA;AQACAwQFBgcICQoLEAACAQMDAgQCBgcDBAIGAnMBAgMRBAAFIRIxQVEGE2EicYEUMpGhBxWxQiPB&#xA;UtHhMxZi8CRygvElQzRTkqKyY3PCNUQnk6OzNhdUZHTD0uIIJoMJChgZhJRFRqS0VtNVKBry4/PE&#xA;1OT0ZXWFlaW1xdXl9WZ2hpamtsbW5vY3R1dnd4eXp7fH1+f3OEhYaHiImKi4yNjo+Ck5SVlpeYmZ&#xA;qbnJ2en5KjpKWmp6ipqqusra6voRAAICAQIDBQUEBQYECAMDbQEAAhEDBCESMUEFURNhIgZxgZEy&#xA;obHwFMHR4SNCFVJicvEzJDRDghaSUyWiY7LCB3PSNeJEgxdUkwgJChgZJjZFGidkdFU38qOzwygp&#xA;0+PzhJSktMTU5PRldYWVpbXF1eX1RlZmdoaWprbG1ub2R1dnd4eXp7fH1+f3OEhYaHiImKi4yNjo&#xA;+DlJWWl5iZmpucnZ6fkqOkpaanqKmqq6ytrq+v/aAAwDAQACEQMRAD8Aj/5NaPrv5k+bNSt9W80a&#xA;raXMFs16tzBcP6hkEipvyPQcx0+WKS9auNQ/On8sJDc6nIfPXkyLee6A46jbx93bqzcepLFx/lLi&#xA;r1Tyh5y8vebtGj1fQroXNq54uv2ZIpAATHKnVWFf4jbFDzf/AJyJ/NzWvI9ppWn+XpI49X1Fnlll&#xA;dFlMcEVAKI1VrI7UBIP2TikKn5A/m3rPnKPVNG8yhE8w6UwclY/RaSEng3OMbB45BRqAdRt1xUs3&#xA;/MT8xdA8h6Gur6wJZEllEFvb26hpJJSpag5FVAopJJOKGJ2//OQ/leKSAeYNG1ry5DcANFeajZMt&#xA;uVb7JDoXY18eNMU0zrXPNFpp/lG98z2arqVlaWb36CCRaSwxp6hZH3X7AJGKHlMn/OXH5erYpMmn&#xA;am94w3tfThAVveQy0p7gH5YppryZ/wA5RWHmXzTaaGvlu7hjvZUhiuopRcMpkbiHljEacUFfiYMa&#xA;DFae44oQes/WP0PffVn9K4+ry+jKNuL8Dxau/Q4q+ZvyG/PDzrqXnyz0DzJqhv8AT9SSSKIzpGHS&#xA;dELxlZEVWPPjxo1euKSHqf5x8bHzX+XOvMCVtdb/AEewXrTUEC9B1/ua4qyX81vN7eUfIGr63EwW&#xA;8hh9KxrQ/wCkTERxGh68WbkR4A4oeQfkFrf5hJe6FqfmHWbjUdC80fXbCygu5ZJTHLYr6qSKXJpz&#xA;9KVPo+VFJTz/AJyF07WdR82eQ9LttZuNNstVvJLORLYsjK7PFWbkrLyPFqKD0+k4qGDeWfPnmbyj&#xA;+d6+S49evNb8tvqKaXJHqUn1hiZaRkhmBKMkr/s0BpvirIvMnl3/AJyS8r67cw+TL6fU/LPqs+nJ&#xA;LJa3DxROeQgcXdZf3f2QQaU7jFUj8pfnF/zkTrmp3ujaVp1lqmpaYxF9HLHFEYyr+mQzetBH9vbb&#xA;FXpflrz1+eceowWvmzyHGba4kSM3mm3EQEKuaF3QzXPIL1PxrirWifnRqOr/AJ2XvkW00+KXRbMT&#xA;RSXy8vWjmtkPqu/xcOHqj0gONa0Ne2K0m+g/mwNV/NrWvIa2NIdLg9WPUAxqzoI/VV0I6cpaAg9v&#xA;fFD0LFXYqwv85fM1z5a/LXW9VtJjb3qRLFaSr9pZZ5FiVl9158voxVMfI9zqUPkHSLzzDffWb76h&#xA;HdaheyqsdOaeq3IKFH7tTxrTelTvirD/AMnvzxsfP+patps0KWV7bSPNpsA5VlsQQoZiaj1FJHID&#xA;x2GxxTSeeaPzW03QPNkPldNI1LWNUms/r/paZHFMyx82WhWSWI1+Anb28cUJlo35g+XdZ8sX3mGy&#xA;eT6tpqz/AKQtpkMVxBJbKXkiljbdXAGKsE0b/nKf8rb5K3r3mlScgpW4gMgoT9oNbmbbxqMU09Q0&#xA;LzDoWv2K3+i38GoWbGnrW7q4DUrxam6sK7qd8UPl3/nHonSvz41jTVoyvHqNmWJ7RXCvUbb/ANzi&#xA;kvrCURGJxNx9LifU5048ab8q7Upih8h/84seYLi0/MubS4XZNP1a2mD21arzgHqxMfdVDLX3xSUV&#xA;5+8xaLqf/OTEEnmC5SLQdFuYLdpJamNVtE9YqwHZrksD88VWxee/KGgf85EJ5k8uakt35e1pwmpy&#xA;KkkSxNd/BMG9VY6hZVWao2pt1rir0X/nLmzll/L7TblN1t9Uj9QeAkglAP8AwQA+nFQiPOX5weR7&#xA;D8nltRf219qup6NHaxaVBKs0ivc2wjPqha8BHyJbnStKdcVXfkNpWp6r+Qs2l3wPo6imoW1hzP8A&#xA;x7zBo/2q0HqF8VL5x/KDXPLuief9PvPMqQvofGaO/FxEZ0CtE3AmMLIWIkC9FxS+y/IXnfyB5otr&#xA;j/CFzDLHaFPrUMUD2zRmSpWqOkZ3o242xYsqxVZNEk0LxP8AYkUo1PBhQ4q+DZvL2oaB5V8p+ftL&#xA;ZkM1zMkkwNRFe2lwzw/LnGooP8k+OLJ7X+cn5jW9/wCVvy185WqB7P8AScWpXEKsDxntOJeHfqVY&#xA;OtfbFDf/ADlVrDarB5R8taZKJW1ac3axgkBuXGG2Y+zGV6YqGYecrPRvJOg/ltpFOcOn67Y20cg2&#xA;YkwTRyTEf5TyVYe+KsP/AOcmfOMmk+c/Jv6OUXOo6H9Y1V7bdhuUMTOF34j0HJ9vvxUMD/5x98pa&#xA;75u/M5PNV/HJLZWFxJqF/qDCiyXjkuig7AsZG5kDoB7jFS+xcUPnH/nEfne3/nPWJgPWuJLXf3ka&#xA;4kkH38cUl9GSyxwxPLKwSONS7segVRUnFD50/wCcVIE1PzF5z8zuP3s8qRxE/aAuZZJ5AT80TFJQ&#xA;35JW8vmz8yvzJ1iKeW2jvYri2iu4WaOeEXtwxhZHUhlZVgqKeGKllH/ONXmrWZItf8m+Y7iebX9F&#xA;u3kJupHlk9IkROgZyTSOVK9f2sVKX/nB/wA5J6h5V81t5f8ALVpaXjWPEanc3QkceqdzDGI3jpwF&#xA;OTVO+1NsVpB/n55y/wAV6H5I8qaapW982Gy1N0FSUiuRwgUjuGkkY/7DFQyX/nJHzpH5c8hxeV9O&#xA;YnU9eUWcUSbutogCymi/z7RgU3qfDFQwL8nvJsnlL8+YNDarXFtowlvzWoE01vHJKP8AVWR+IxVm&#xA;vl2WS/8A+cqfMrg1h03R44Q3UVZbU8e1Pikb7sVY9q2uWf8Ai385rbRZ0m0250FprkxENF9bSBYZ&#xA;eJG3I+q/L/K+WKt/84i6DY3GheZL67t4rhbi4gteMqK4pFGzsKNXr62+2KlOPzKtdO/KjzdoHnPy&#xA;3bpp+mapcnTvMWmw/u7WWNhzWQRj4UdFDEFR1Hu1VXm/lHV9I8vf85Oapd6ldQ2mnjUtWD3UjLHD&#xA;H6omKBmOw3IX54qz783v+clPLkWiXmieTpzqGp3aPbyaiqstvAjgq7IzcTI9D8PEce9dqFWmKf8A&#xA;OLXkPVBrc/nm+gaDSLG3mjspGBBmlccXaMd0ROQJ6VNB0NFSlX5JeXbX8xfza1nW9ashdaXS7v7q&#xA;CUcojLeOVjib3AkZl/1cVLNf+clPyq0608nadqvlfR7aztdGklOoraRpE5hnCKJH40MnBkANakVr&#xA;0rioTj82jeeYf+cbrDUbUPduLXTry6cAl+KqomcgfysSW8Nzirxvy35B0fQ7Hyx5y816fJrHkrWl&#xA;KX8kLSRtZTido1MojNWjIUHqK7jrQMpfZmlJpiaZaJpYiGmrCgshb8fR9HiPT9Pj8PHjSlMWL4Qu&#xA;o9N0783pY7kJBpdp5gZZlnWqJbx3vxeotGqoQbimLJ9eaL+bv5OBhp2ma9p1oiHikQH1WEdvhZ1j&#xA;j7djixZ4jo6K6MGRgGVlNQQdwQRiqhqV2LPTrq7JCi3hklLEVACKWqQPlir59/LfyQ/m7/nGi60d&#xA;Ywbyae6udMJoP9IhkrHQ9uRUofYnFL58n8wXg8p/4WukYLZ6g15AG2MbPEYp0YHcbohA8eWKXr13&#xA;Z3E/5s/lLe6ixNte6Rok1s/RRJEnL0wTX/dtGp/lYoZr54Z/P/596B5Ytaz6J5Tpe6w6Csazg+qy&#xA;ORtvwij8QSwxVDWtr+lv+cs9UjvrdZLey08qkUoDKYnso4zVWqGDeu23v88VZO+nT/lN5jOoWO35&#xA;ba1cD9KWx+zpN3KeKzx/y28jEKw/Z+7FXrcciSIskbB43AZHU1BB3BBGKHzh/wA4s29z5f8AOHnP&#xA;ypqMbRalEsDsjAja0kkjZhXs31hSD4YpL3fzqZB5N14xEiQadd8CNiG9B6YofOn5DflfoXmT8vNR&#xA;1i81LUoZY7yaOS0srpreBhDDG6iRFB5N8Z3r0OKSmn/OIXlvT3stZ8xSI5vop1s4HEjqgT0+bgxq&#xA;QjV5jdgadqb4qVP8+dU1L8uvzTsPOmgosdxrWm3FtcBh8Ek0a+nzanXhzhencqMVCWfkz+UY83fl&#xA;v5q1nUQZNW14SW2l3MxJPOB1nMvI7/vLlVVjWvwnxxUsd/IGG81f8zIdT1YTXSeVdMlnS3CF3C2s&#xA;Yt4YUQCvJTJyVRuWGKlkHkLyprf53eb9U85+Yr250ywsGSHTXsGEbxTIfUiigdw/EQg82NKlmr3x&#xA;VPvy30a40b/nJnXdLudUutXmtdMNb+/cyTyerHbSgFv8gScR7DFWJa7p/njVfNH5peYvLmpy2Nrp&#xA;d8LbV47eouZbSJ5EkMTVVv3SwcivJQy99qYq9Ji/L/yd5Q/IfzJd6FcNffpnSXnl1WageZXiJiVV&#xA;GyKOey9ancnFUF/zh/MD5Q12Gm6agrk/68Kj/jTFSt/5yv1GG6tPK/lWNi15qF+LkxKRUKqmBCa/&#xA;zNOQvyOKhOfMf/OLPkLWdcutVS7vdOF3IZZLO1MIhV23b0w8bFQx3p27bbYraYaB/wA4zflVpE6T&#xA;yWc+qyRkFBfzc0qP5o41ijb5MpGK29SighhhSCGNY4Y1CJEgCqqgUChRsAMUIPSdA0PRxcLpNhb2&#xA;C3UhnuVto1iDykULsFABOKo5lV1KOAysKMp3BB6gjFVskEMsLQSRq8DqUeJgCjIRQqVOxBHbFUCP&#xA;LugDRG0JdOtk0Z42hbTkiRIPTcksvpqAoqST88VYD5K/LHzZ5H81enoOspceQLgyPNot6ZGntnYE&#xA;r9WcBgfj61K7dQW+LFKI82/kD+XnmnzOPMWpwXC3T0+t29vKIoLgqOIaUBfUrQDdHWuK2nWmflJ+&#xA;WWmkNaeWdPDr9l5YEnYU22aUOa4oZYqqihEAVVFFUbAAdABiqG1XTrbU9LvNNuQTbX0EltOBsSkq&#xA;FG6ezYqkX5a+SI/JPk6x8uJd/XjaGZnu/T9H1DNK0lfT5ycaBwv2u1cVeF/nP/zjl5p1HzVfeYfK&#xA;MEF1aaiwnn08SrDMlw/98y+rwjKM3x/brUnbFIL2DVPyl8t+YvLXlrTtajmhufL0MC2k9rIIpo2j&#xA;iRGQSIDtVFPw9wKYoZP5c8r6B5b04afollHZWwPJwgq8jnq8jmryOf5mJOKqw0PSBrR1wWkQ1drf&#xA;6m18FAlMHMSemW7ryAOKoi8s7S9tJrO8hS4tbhGjngkUMjowoysp2IIxVD6FoemaFpNtpGlxGDT7&#xA;RSlvCzvKVUktx5SM7UFdhXYbDbFVf6hY/Xfr/wBXi+vemYPrXBfV9IsGMfqU5ceQrxrSuKqk0MU8&#xA;LwzIJIpVKSIwqGVhQgj3GKsY/L/8utE8j6RfaRpTyzWN7eS3pjuCr8PVRI/SBAFVVYh9rfFWvy9/&#xA;LvS/I9rqllpczvY6hfSX8Vu4AEHqIqekpH2lUIKE4qjfOnkfy75y0V9I1y39a3YhopUos0Tg15xO&#xA;QeJ7HxGxxVG+XdA03y/odloumR+lY2ESwwKd2ovVmO1WY1Zj3OKqNh5Q8tafr17r9lp8VvrGooEv&#xA;buMENIAa7ivGpO7ECp74qiNF0HRtDsjY6RZxWNoXeX0IFCJzkNWag8cVSd/y/wBGP5gRed4WeDVB&#xA;aPZXMaUEc6tTg0nfkgWn3eGKqvlvyB5a8u3ut3emQMh8wT/WdQhkYyRl6NyCq3RWLsSPfw2xVjj/&#xA;AJV3dv8Alz5h8k2Woq9hfev+g1mRgbRJj6gt3cM/NFk6NxrQ98UvNfyt/KT89fL+jahaWerW3lf6&#xA;zcBmikitr15AFA9RZE9bj4cT89sVZt5S/ISOy82R+bvNuvXHmjXoCr2rzJ6UUTpujcS8hb0zulCq&#xA;jrxritv/2Q==</xmpGImg:image>
               </rdf:li>
            </rdf:Alt>
         </xmp:Thumbnails>
      </rdf:Description>
      <rdf:Description rdf:about=""
            xmlns:xmpMM="http://ns.adobe.com/xap/1.0/mm/"
            xmlns:stRef="http://ns.adobe.com/xap/1.0/sType/ResourceRef#"
            xmlns:stEvt="http://ns.adobe.com/xap/1.0/sType/ResourceEvent#">
         <xmpMM:RenditionClass>proof:pdf</xmpMM:RenditionClass>
         <xmpMM:OriginalDocumentID>uuid:65E6390686CF11DBA6E2D887CEACB407</xmpMM:OriginalDocumentID>
         <xmpMM:DocumentID>xmp.did:E2C104490E2068118083D2E7312FE8C2</xmpMM:DocumentID>
         <xmpMM:InstanceID>xmp.iid:E2C104490E2068118083D2E7312FE8C2</xmpMM:InstanceID>
         <xmpMM:DerivedFrom rdf:parseType="Resource">
            <stRef:instanceID>uuid:9038c639-81b3-ab4f-8e1d-840b441a75fd</stRef:instanceID>
            <stRef:documentID>xmp.did:175c2678-1be6-45be-9d11-18123c32d093</stRef:documentID>
            <stRef:originalDocumentID>uuid:65E6390686CF11DBA6E2D887CEACB407</stRef:originalDocumentID>
            <stRef:renditionClass>proof:pdf</stRef:renditionClass>
         </xmpMM:DerivedFrom>
         <xmpMM:History>
            <rdf:Seq>
               <rdf:li rdf:parseType="Resource">
                  <stEvt:action>saved</stEvt:action>
                  <stEvt:instanceID>xmp.iid:175c2678-1be6-45be-9d11-18123c32d093</stEvt:instanceID>
                  <stEvt:when>2017-09-19T15:52:28-04:00</stEvt:when>
                  <stEvt:softwareAgent>Adobe Illustrator CC 2017 (Macintosh)</stEvt:softwareAgent>
                  <stEvt:changed>/</stEvt:changed>
               </rdf:li>
               <rdf:li rdf:parseType="Resource">
                  <stEvt:action>saved</stEvt:action>
                  <stEvt:instanceID>xmp.iid:E2C104490E2068118083D2E7312FE8C2</stEvt:instanceID>
                  <stEvt:when>2017-09-27T17:08:04-04:00</stEvt:when>
                  <stEvt:softwareAgent>Adobe Illustrator CS6 (Macintosh)</stEvt:softwareAgent>
                  <stEvt:changed>/</stEvt:changed>
               </rdf:li>
            </rdf:Seq>
         </xmpMM:History>
      </rdf:Description>
      <rdf:Description rdf:about=""
            xmlns:illustrator="http://ns.adobe.com/illustrator/1.0/">
         <illustrator:StartupProfile>Web</illustrator:StartupProfile>
      </rdf:Description>
      <rdf:Description rdf:about=""
            xmlns:xmpTPg="http://ns.adobe.com/xap/1.0/t/pg/"
            xmlns:stDim="http://ns.adobe.com/xap/1.0/sType/Dimensions#"
            xmlns:xmpG="http://ns.adobe.com/xap/1.0/g/">
         <xmpTPg:NPages>1</xmpTPg:NPages>
         <xmpTPg:HasVisibleTransparency>False</xmpTPg:HasVisibleTransparency>
         <xmpTPg:HasVisibleOverprint>False</xmpTPg:HasVisibleOverprint>
         <xmpTPg:MaxPageSize rdf:parseType="Resource">
            <stDim:w>760.201172</stDim:w>
            <stDim:h>89.564941</stDim:h>
            <stDim:unit>Points</stDim:unit>
         </xmpTPg:MaxPageSize>
         <xmpTPg:PlateNames>
            <rdf:Seq>
               <rdf:li>Cyan</rdf:li>
               <rdf:li>Magenta</rdf:li>
               <rdf:li>Yellow</rdf:li>
               <rdf:li>Black</rdf:li>
            </rdf:Seq>
         </xmpTPg:PlateNames>
         <xmpTPg:SwatchGroups>
            <rdf:Seq>
               <rdf:li rdf:parseType="Resource">
                  <xmpG:groupName>Default Swatch Group</xmpG:groupName>
                  <xmpG:groupType>0</xmpG:groupType>
               </rdf:li>
            </rdf:Seq>
         </xmpTPg:SwatchGroups>
      </rdf:Description>
      <rdf:Description rdf:about=""
            xmlns:pdf="http://ns.adobe.com/pdf/1.3/">
         <pdf:Producer>Adobe PDF library 15.00</pdf:Producer>
      </rdf:Description>
   </rdf:RDF>
</x:xmpmeta>
                                                                                                    
                                                                                                    
                                                                                                    
                                                                                                    
                                                                                                    
                                                                                                    
                                                                                                    
                                                                                                    
                                                                                                    
                                                                                                    
                                                                                                    
                                                                                                    
                                                                                                    
                                                                                                    
                                                                                                    
                                                                                                    
                                                                                                    
                                                                                                    
                                                                                                    
                                                                                                    
                           
<?xpacket end="w"?>
	</metadata>
<g>
	<defs>
		<rect id="SVGID_1_" width="760.201" height="89.565"/>
	</defs>
	<clipPath id="SVGID_2_">
		<use xlink:href="#SVGID_1_"  overflow="visible"/>
	</clipPath>
	<path clip-path="url(#SVGID_2_)" fill="#231F20" d="M1.104,72.795c-0.018-0.023,0-0.063,0.007-0.088
		c0.443-1.509,1.927-1.61,2.732-2.535c0.995-1.954,0.754-3.961,0.255-6.059c-0.374-1.575-0.371-3.239-0.545-4.863
		c-0.079-0.749-0.125-1.508-0.278-2.244c-0.459-2.207-0.407-4.426-0.289-6.654c0.057-1.074-0.687-1.387-0.054-3.225
		c0.285-0.828,0.062-1.478-0.052-3.1c-0.138-1.975-0.242-5.015-0.695-6.832c-0.704-2.829-1.087-5.811-1.064-8.721
		c0.015-1.825-0.364-6.383-0.445-6.856c-0.111-0.649-0.304-1.304-0.288-1.952c0.088-3.383-0.213-6.747-0.382-10.118
		c-0.038-0.732,0.125-1.071,0.21-2.111c0.087-1.039,1.166-3.034,1.37-3.362c0.539-0.864,3.546-1.363,4.553-1.769
		c0.746-0.3,1.502-0.823,2.252-0.818C10.198,1.5,11.988,1.153,13.823,1.5c2.391,0.452,6.472,0.866,6.809,0.815
		c0.338-0.051,1.193,0.035,1.709,0.38c0.213,0.141,0.566,0.298,1.171,0.493c2.371,0.764,4.449,0.964,6.69,2.189
		c2.387,1.304,4.908,2.366,7.364,3.547c0.43,0.207,0.846,0.45,1.247,0.711c2.456,1.6,4.953,3.145,7.346,4.835
		c2.325,1.642,4.551,3.428,6.805,5.169c1.351,1.045,2.813,1.994,3.979,3.22c2.146,2.256,3.933,4.776,5.136,7.711
		c0.978,2.383,1.128,4.908,1.666,7.365c0.621,2.835,0.341,5.696,0.327,8.556c-0.01,2.167-0.069,4.313-0.257,6.479
		c-0.177,2.041-0.832,3.873-1.643,5.663c-0.69,1.527-1.78,2.874-2.463,4.403c-0.569,1.274-1.509,2.057-2.545,2.864
		c-1.074,0.836-2.152,1.713-3.032,2.738c-1.823,2.129-4.304,3.3-6.585,4.75c-1.485,0.945-3.069,1.754-4.669,2.492
		c-1.403,0.647-2.833,1.223-4.402,1.484c-2.347,0.392-4.549,1.442-6.965,1.612c-1.793,0.126-3.584,0.313-5.367,0.541
		c-1.499,0.191-2.979,0.527-4.478,0.711c-1.144,0.141-2.305,0.186-3.459,0.198c-1.947,0.023-3.864,0.099-5.814,0.399
		c-1.513,0.233-3.21-0.288-4.734-0.766c-0.656-0.205-1.275-1.063-1.573-1.769c-0.657-1.553-1.498-2.828-3.019-3.684
		c-0.729-0.41-1.212-1.09-1.868-1.726C1.184,72.871,1.122,72.819,1.104,72.795 M15.214,33.737c0.148,1.431,0.501,2.842,0.622,4.274
		c0.169,2.02,0.118,4.061,0.325,6.076c0.21,2.038,0.673,4.034,0.537,6.121c-0.119,1.815,0.018,3.65,0.082,5.476
		c0.043,1.222,0.328,2.461,0.192,3.657c-0.158,1.39,0.029,2.708,0.242,4.048c0.119,0.746,0.257,1.491,0.387,2.236
		c0.221,1.272,0.44,2.547,1.332,3.4c2.018,0.194,6.119-1.371,6.255-1.393c2.193-0.328,3.762-1.13,5.683-2.194
		c0.764-0.425,1.64-0.647,2.472-0.945c0.383-0.137,0.822-0.16,1.167-0.356c3.737-2.112,6.89-4.887,9.372-8.402
		c0.435-0.616,0.903-1.224,1.243-1.893c1.687-3.314,2.136-6.97,2.663-10.569c0.417-2.849,0.597-5.751,0.633-8.633
		c0.051-4.169-0.145-8.336-2.551-11.94c-2.393-1.224-3.825-2.377-5.127-4.031c-1.03-0.622-1.798-1.234-2.671-1.588
		c-4.69-1.904-8.863-4.813-13.464-6.875c-1.671-0.748-3.373-1.306-5.35-0.863c-1.903,0.427-4.035,0.972-5.869,0.619
		c-0.49-0.094-0.621,0.525-0.594,0.615c0.337,1.141,0.737,1.882,0.873,2.904c0.16,1.198-0.127,2.506-0.036,3.717
		c0.233,3.083,0.523,6.162,0.755,9.246c0.042,0.547,0.038,0.678,0.001,1.272c-0.03,0.479-0.034,0.491,0.032,0.723
		C14.49,28.688,15.068,32.33,15.214,33.737"/>
	<path clip-path="url(#SVGID_2_)" fill="#231F20" d="M222.997,12.34c1.345-0.331,2.573-0.091,3.798,0.402
		c1.062,0.428,2.11,0.893,3.182,1.293c0.371,0.138,0.869,0.076,1.117,0.176c0.744,0.3,1.879,1.587,3.003,2.512
		c0.487,0.401,0.571,1.284,0.535,1.432c-0.261,1.047,0.001,1.789-0.693,2.714c-0.213,0.284-0.818,0.479-1.035,0.524
		c-0.993,0.209-1.421,0.77-2.396,0.979c-0.953,0.206-4.113,0.959-4.469,1.071c-2.996,0.937-6.05,0.904-9.109,1.446
		c-2.273,0.404-4.597,0.66-6.901,0.694c-1.305,0.018-2.617-0.47-4.136-0.81c-0.078-0.017-0.215,0.098-0.204,0.172
		c0.084,0.58,0.362,1.338,0.442,1.889c0.092,0.634,0.25,1.527,0.338,2.148c0.315,2.218,0.956,3.945,0.842,6.248
		c-0.046,0.941,0.38,1.351,0.692,2.297c0.469,1.418,0.707,3.285,0.339,4.919c-0.014,0.063,0.166,0.233,0.251,0.221
		c1.226-0.17,2.123-0.145,3.143-0.683c0.95-0.501,1.993-0.662,3.158-0.491c2.01,0.296,4.063,0.282,6.094,0.456
		c1.707,0.147,3.085,1.053,4.251,2.214c0.649,0.648,1.408,1.512,0.617,2.615c-0.02,0.026-0.13,0.206-0.39,0.136
		c-0.534-0.146-1.758,0.4-2.496,0.554c-0.222,0.046-1.107,0.107-1.337,0.122c-0.609,0.041-1.213,0.151-1.827,0.288
		c-0.703,0.157-1.434,0.504-1.782,0.587c-0.221,0.054-1.629,0.549-1.735,0.645c-0.027,0.023-1.009,0.124-1.127,0.124
		c-0.56,0-0.519-0.144-1.08-0.144c-0.681,0-0.973,0.083-1.676,0.083c-0.583,0-1.277-0.094-1.888-0.113
		c-0.123-0.005-0.217,0.146-0.185,0.325c0.666,3.778,1.56,7.402,0.546,10.678c-0.039,0.126-0.156,0.944-0.027,1.535
		c0.331,1.512-0.124,1.738-0.078,2.725c0.044,0.949,0.26,2.377,0.401,2.477c0.14,0.103,3.35,0.646,5.114,0.237
		c3.151-0.73,6.378-0.721,9.569-0.26c2.078,0.3,4.205,0.979,6.232,1.369c1.662,0.319,3.066,0.832,4.717,1.176
		c0.632,0.132,1.658,0.475,1.787,0.644c0.2,0.266,0.256,2.288-0.13,2.506c-0.425,0.242-3.236,0.64-4.968,0.68
		c-1.617,0.037-8.261,1.567-9,1.735c-0.739,0.168-4.843-0.563-7.067,0.526c-1.733,0.848-3.568,0.928-5.342,1.404
		c-1.548,0.415-3.048,0.883-4.105,2.001c-0.202,0.214-0.36,0.553-0.555,0.716c-0.195,0.164-0.7,0.291-1.062,0.38
		c-3.621,0.884-7.966-1.905-9.138-4.972c-1.081-2.832-1.408-2.815-3.49-4.477c-0.621-0.495-1.219-1.832-1.243-3.02
		c-0.015-0.746,0.888-6.731,0.706-8.652c-0.21-2.225-0.832-4.411-1.282-6.611c-0.369-1.807-0.834-3.599-1.101-5.422
		c-0.366-2.497-0.555-5.019-0.886-7.521c-0.097-0.727-0.556-1.412-0.617-2.135c-0.184-2.208-1.23-4.246-1.055-6.549
		c0.107-1.402-0.269-2.859-0.544-4.269c-0.444-2.277-0.374-4.565-0.336-6.86c0.008-0.468,0.075-1.117-0.476-1.543
		c-2.181-1.684-2.524-2.881-1.231-5.063c0.189-0.318,0.649-0.226,0.732-0.188c0.679,0.306,1.015,0.598,1.808,0.956
		c0.143,0.064,0.636,0.192,0.741,0.195c1.65,0.042,4.358,0.857,8.758,2.701c0.131,0.055,0.659,0.123,0.789,0.101
		c2.237-0.386,4.603-0.787,6.965-1.207c2.432-0.433,4.878-0.814,7.286-1.355C215.158,13.481,222.1,12.56,222.997,12.34"/>
	<path clip-path="url(#SVGID_2_)" fill="#231F20" d="M85.135,12.032c0.393-0.897,1.289-1.116,1.416-1.794
		c0.127-0.677,0.382-1.591,0.833-1.972c1.12-0.945,2.01-0.85,3.243-1.317c1.232-0.466,3.269-0.345,4.47-0.266
		c1.346,0.088,2.064,0.312,3.359,0.652c1.296,0.339,2.899,1.031,4.006,1.629c1.196,0.645,4.573,8.647,4.815,9.033
		c1.217,1.932,1.123,3.728,1.964,5.799c0.787,1.936,1.268,3.994,1.917,5.988c0.186,0.572,0.52,1.094,0.732,1.659
		c0.855,2.271,1.636,4.572,2.545,6.821c0.91,2.249,1.887,4.474,2.932,6.664c1.652,3.466,2.638,7.108,3.181,10.895
		c0.319,2.218,0.416,4.429,0.299,6.666c-0.045,0.87,0.317,1.687,0.578,2.532c0.42,1.36,1.455,3.772,1.347,4.297
		c-0.109,0.524-0.769,1.678-1.189,1.904c-0.421,0.226-4.544,0.187-5.021,0.141c-0.476-0.045-1.179-0.872-1.463-1.368
		c-0.736-1.286-0.963-2.067-1.747-3.321c-0.417-0.666-0.388-1.341-1.039-1.811c-0.599-0.432-2.032-0.92-2.502-1.353
		c-0.831-0.767-1.169-2.641-1.532-4.848c-0.693-4.213-0.911-9.377-1.024-10.068c-0.056-0.35-1.39,0.364-2.087,0.532
		c-0.849,0.205-1.637,0.532-2.486,0.739c-2.584,0.632-4.982,1.252-7.585,1.794c-2.176,0.452-4.076,0.071-4.612-0.598
		s-0.57-1.633-0.819-1.869C89.417,48.958,88.567,49.4,88.538,50c-0.068,1.404-0.039,2.819-0.196,4.214
		c-0.082,0.722-0.506,1.398-0.726,2.112c-0.828,2.676-1.234,5.084-2.041,7.766c-0.351,1.169-0.653,2.573-1.039,3.729
		c-0.167,0.503-0.63,1.397-1.007,1.653s-1.685,0.914-1.998,1.558c-0.253,0.521-0.945,1.023-1.023,1.368
		c-0.079,0.348-0.009,1.492-0.331,1.969c-0.323,0.476-2.711,0.524-3.884,0.102c-1.028-0.37-2.14-0.776-2.961-1.707
		c-0.495-0.562-1.939-0.602-2.126-1.259c-0.186-0.658-0.242-1.233-0.237-1.948c0.008-1.089-0.009-2.179,0.046-3.265
		c0.042-0.813,0.064-1.657,0.299-2.425c0.72-2.354,1.476-4.699,2.348-6.999c0.345-0.91,0.663-1.75,0.649-2.753
		c-0.009-0.717,0.36-1.431,0.473-2.159c0.131-0.852,0.112-1.727,0.256-2.574c0.478-2.816,0.973-5.629,1.512-8.434
		c0.583-3.034,1.193-6.064,1.861-9.08c0.166-0.749,0.512-1.496,0.931-2.142c1.269-1.956,1.328-4.288,2.096-6.395
		c0.492-1.349,1.023-2.687,1.441-4.059C83.61,16.874,84.76,12.886,85.135,12.032 M104.307,41.693c0.61-0.798,0.225-1.931-0.24-2.929
		c-1.287-2.758-2.658-5.485-3.78-8.31c-1.074-2.706-2.286-5.373-2.853-8.272c-0.211-1.081-1.199-3.456-1.328-3.506
		c-0.128-0.05-0.668,1.101-0.869,1.544c-0.704,1.549-1.325,3.137-2.082,4.658c-1.924,3.864-3.127,7.936-3.616,12.215
		c-0.09,0.799,0.289,1.713,0.03,2.42c-0.595,1.628,0.022,4.594,0.554,4.593c0.274-0.001,3.724-0.743,7.192-1.401
		C101.045,41.997,104.011,42.082,104.307,41.693"/>
	<path clip-path="url(#SVGID_2_)" fill="#231F20" d="M181.701,79.334c0.952,0.582,2.689,3.234,2.839,3.687
		c0.151,0.452-0.092,1.722-0.352,1.947c-0.48,0.417-3.611,0.928-4.847,0.931c-1.236,0.003-3-1.39-5.642-3.378
		c-2.105-1.583-4.304-3.651-5.8-5.116c-3.064-2.999-6.055-6.098-9.349-8.827c-1.999-1.654-3.527-3.541-4.984-5.627
		c-1.699-2.434-4.741-6.654-5.485-7.033c-0.743-0.379-0.287,0.936-0.31,1.684c-0.01,0.306-0.43,4.958-0.64,8.179
		c-0.114,1.758-0.58,3.613,0.069,5.402c0.222,0.612,0.799,1.439,0.617,2.077c-0.436,1.525-1.695,1.104-2.47,1.031
		c-0.309-0.029-2.096-0.49-2.352-0.544c-0.587-0.119-0.826-0.071-1.05-0.359c-0.485-0.623-1.957-2.93-2.978-4.358
		c-0.352-0.494-0.898-0.847-1.258-1.336c-0.511-0.697-0.965-1.44-1.386-2.198c-1.042-1.872-1.553-3.751-1.086-6.007
		c0.271-1.31-0.149-5.211,0.038-6.286c0.192-1.099,0.006-2.729,0.061-3.7c0.239-4.152-1.152-8.111-1.618-12.184
		c-0.153-1.342-0.387-2.722-0.221-4.038c0.134-1.055,0.102-2.037-0.142-3.022c-0.472-1.916,0.006-3.784,0.246-5.651
		c0.178-1.377-0.397-2.585-0.422-4.422c-0.024-1.838,1.965-3.132,2.498-3.376c0.532-0.244,2.794-0.982,4.275-1.902
		c0.6-0.372,1.438-0.623,2.126-0.548c1.824,0.199,3.974,0.215,5.819,0.325c2.526,0.152,4.747,0.388,7.235,0.667
		c2.823,0.316,5.804,0.644,8.143,2.752c0.843,0.761,1.975,1.198,2.965,1.8c1.599,0.973,2.94,2.237,3.988,3.78
		c0.796,1.17,1.581,2.373,2.29,3.599c0.233,0.402,0.523,0.975,0.583,1.432c0.398,3.042,0.873,5.987,0.991,9.042
		c0.095,2.444-0.721,4.841-2.176,6.907c-1.336,1.898-2.553,3.904-4.078,5.639c-1.45,1.649-3.477,2.627-5.488,3.508
		c-1.292,0.566-5.531,1.101-6.242,0.893c-1.047-0.306-1.836,0.033-1.877,0.223c-0.064,0.301,0.85,0.716,1.857,1.234
		c0.899,0.465,1.092,1.145,1.743,1.553c2.478,1.555,4.263,3.655,5.698,6.194c1.822,3.222,4.495,5.785,7.301,8.131
		c1.818,1.521,3.95,2.662,5.935,3.984C177.047,76.21,180.749,78.752,181.701,79.334 M144.372,40.118
		c0.115,0.458,0.249,4.116,0.589,5.405c2.977,0.431,2.977,0.431,5.75-0.324c0.132-0.037,0.268-0.06,0.401-0.093
		c3.646-0.907,7.198-2.064,9.609-5.177c1.287-1.662,2.623-3.418,3.337-5.353c0.701-1.902,0.286-6.985,0.302-7.391
		c0.052-1.313-0.514-2.371-1.191-3.454c-0.88-1.406-8.532-2.619-10.963-2.731c-0.933-0.043-2.086,0.054-2.735-0.442
		c-0.933-0.712-1.711-0.566-2.62-0.607c-0.553-0.026-0.614-0.117-1.226,0.153c-0.118,0.052-2.02,0.839-2.27,1.025
		c-0.134,0.1-0.174,0.378-0.171,0.423C143.432,25.771,144.117,39.099,144.372,40.118"/>
	<path clip-path="url(#SVGID_2_)" fill="#231F20" d="M392.835,12.045c-0.098-0.15-1.238-1.029-1.893-1.384
		c-0.729-0.395-1.06-1.049-0.957-1.652c0.104-0.603,1.256-2.314,2.321-3.161c0.945-0.753,0.721-2.089,0.796-3.025
		c0.073-0.935,0.965-1.435,1.962-0.993c0.17,0.076,0.665,0.018,0.863,0.012c1.289-0.038,2.292-0.065,3.574,0.005
		c1.182,0.065,2.35,0.357,3.525,0.528c0.538,0.077,4.316,0.453,4.706,0.431c2.037-0.116,3.911,0.364,5.731,1.29
		c1.199,0.61,2.513,1.002,3.787,1.46c1.239,0.446,2.385,1.041,3.202,1.818c0.923,1.744,1.783,3.307,2.577,4.905
		c0.327,0.657,0.669,1.373,0.728,2.085c0.194,2.397,1.027,4.781,0.215,7.216c-0.139,0.416-0.145,0.891-0.14,1.338
		c0.021,2.052-0.433,4.035-0.868,6.018c-0.202,0.92-0.449,1.834-0.741,2.729c-0.152,0.463-0.448,0.877-0.514,1.002
		c-0.648,2.581-1.039,4.883-2.521,6.808c-0.604,0.785-1.072,1.677-1.706,2.433c-0.702,0.839-1.536,1.566-2.288,2.365
		c-0.729,0.775-1.479,1.387-2.613,1.611c-0.726,0.143-1.349,0.816-2.002,1.241c-0.131,1.166,0.733,1.812,1.286,2.472
		c1.056,1.255,2.066,2.54,3,3.877c0.582,0.833,1.157,1.649,2.016,2.199c1.259,0.807,2.133,1.939,2.926,3.176
		c0.619,0.968,1.372,1.85,1.989,2.818c0.851,1.337,1.65,2.708,2.432,4.089c0.642,1.14,1.396,2.046,2.567,2.8
		c1.604,1.034,3.09,2.345,4.099,4.07c0.296,0.506,0.759,0.911,1.127,1.379c0.386,0.493,1.183,1.047,1.183,1.589
		c0,0.543-0.948,1.375-1.38,1.499c-0.431,0.124-1.324,0.124-1.465,0.124c-0.14,0-0.332-0.162-0.445-0.254
		c-1.522-1.252-3.093-2.443-4.647-3.653c-0.939-0.728-1.632-1.58-2.081-2.688c-0.59-1.453-1.509-2.694-2.705-3.729
		c-0.29-0.25-0.49-0.61-0.706-0.937c-0.854-1.285-1.78-2.497-3.128-3.323c-0.244-0.148-0.413-0.417-0.617-0.631
		c-1.54-1.629-3.099-3.241-4.614-4.892c-1.309-1.428-2.573-2.894-3.846-4.354c-0.555-0.639-0.991-1.419-1.643-1.926
		c-0.649-0.505-1.47-0.87-2.271-1.073c-1.124-0.287-1.893-0.778-2.57-1.805c-0.706-1.069-1.474-2.089-2.048-3.25
		c-0.33-0.669-0.997-0.689-1.187-0.601c-0.19,0.089-0.174,0.768-0.164,1.157c0.006,0.248,0.09,0.503,0.048,0.742
		c-0.406,2.295-0.835,4.586-1.247,6.88c-0.051,0.291-0.106,0.61-0.041,0.887c0.371,1.546,0.159,3.064-0.087,4.598
		c-0.154,0.97-0.291,1.96-0.271,2.937c0.044,2.414-0.529,4.728-0.956,7.07c-0.141,0.767-0.272,1.571-0.192,2.336
		c0.107,1.034-0.186,1.979-0.375,2.949c-0.091,0.462-0.185,1.148-0.488,1.383c-0.302,0.233-2.714,0.238-3.051,0
		s-1.371-1.591-1.743-1.655c-0.231-0.041-1.696-2.401-1.761-2.499c-0.126-0.345-0.196-0.883-0.242-1.013
		c-0.464-1.317-0.783-2.278-1.158-3.663c-0.281-1.047-0.521-2.181-0.418-3.241c0.188-1.899,0.532-3.782,1.009-5.657
		c0.555-2.189,0.665-4.492,0.962-6.747c0.136-1.034,0.212-2.077,0.395-3.103c0.249-1.395,0.706-2.704,1.753-3.746
		c0.837-0.833,1.327-1.844,1.472-3.039c0.096-0.788,0.36-1.554,0.479-2.341c0.175-1.179,0.3-2.366,0.426-3.552
		c0.208-1.965,0.451-3.928,0.581-5.898c0.086-1.287-0.021-2.585-0.001-3.877c0.022-1.283,0.206-2.571,0.123-3.844
		c-0.167-2.615,0.596-5.206,0.137-7.82C392.97,12.952,392.932,12.195,392.835,12.045 M399.797,27.199
		c0.126,0.326,0.016,0.996,0.005,1.394c-0.065,2.269-0.485,4.486-0.486,6.873c0,0.487-0.022,1.163,0.124,1.221
		c0.147,0.059,0.502-0.243,0.725-0.46c0.543-0.526,0.924-0.941,1.321-1.421c1.296-1.563,2.379-3.342,3.852-4.707
		c1.156-1.072,1.522-2.285,1.707-3.663c0.547-4.103,1.767-8.049,2.806-12.032c0.433-1.665-0.298-2.982-0.819-4.392
		c-0.093-0.252-0.386-0.476-0.64-0.614c-0.652-0.352-1.492-0.764-1.869-0.796c-0.377-0.031-3.431,1.099-5.043,1.75
		c-0.713,0.288-1.578,0.471-1.788,1.352c0,1.162-0.061,2.263,0.016,3.355C399.784,16.169,399.671,26.874,399.797,27.199"/>
	<path clip-path="url(#SVGID_2_)" fill="#231F20" d="M506.966,80.678c-0.289,0.336-2.163,0.434-2.612,0.337
		c-0.45-0.096-0.663-0.252-1-0.348c-0.886-0.252-1.462-0.822-1.828-1.655c-0.178-0.405-0.425-0.782-0.66-1.16
		c-0.567-0.918-1.236-1.729-2.047-2.47c-0.547-0.5-0.941-1.296-1.13-2.03c-0.326-1.263-0.559-2.537-0.299-3.905
		c0.217-1.143,0.041-2.362,0.018-3.547c-0.021-1.238,0.001-2.481-0.122-3.709c-0.177-1.786-0.193-3.561,0.022-5.34
		c0.012-0.099-0.006-0.201-0.017-0.301c-0.305-3.185,0.287-6.29,0.711-9.428c0.319-2.371,0.896-4.654,1.488-6.957
		c0.452-1.752,0.683-3.562,1.007-5.346c0.027-0.147,0.183-3.694,0.422-5.288c0.262-1.743,0.584-3.489,0.858-5.226
		c0.45-2.862,1.308-5.596,2.153-8.332c0.433-1.402,1.255-2.707,2.038-3.97c0.513-0.829,1.056-2.375,1.836-2.393
		c0.78-0.019,1.896-0.282,2.517-0.282s1.308,0.319,1.838,0.557c0.44,0.196,2.066,1.27,2.324,1.477
		c0.34,0.273,0.263,0.509,0.555,0.834c0.195,0.216,1.741,2.686,1.543,3.947c-0.203,1.301-0.59,2.51-1.413,3.568
		c-0.271,0.346-0.425,0.786-0.622,1.187c-0.287,0.581-0.595,1.154-0.843,1.75c-0.209,0.501-0.307,1.049-0.521,1.546
		c-1.295,2.992-1.55,6.244-2.223,9.376c-0.549,2.549-1.135,5.111-1.511,7.703c-0.035,0.243-0.037,0.507,0.021,0.743
		c0.275,1.145,0.005,2.269-0.153,3.384c-0.207,1.463-0.801,4.177-0.766,4.454c0.034,0.275,0.717,0.808,0.976,0.829
		c0.258,0.019,3.284-0.519,4.987-0.855c1.118-0.22,6.97-0.851,8.27-0.98c0.82-0.396,1.014-1.051,0.951-1.698
		c-0.312-3.272,0.611-6.347,1.462-9.424c0.52-1.872,0.759-3.786,1.1-5.686c0.253-1.418,0.464-2.843,0.682-4.266
		c0.291-1.9,0.757-3.776,0.508-5.736c-0.099-0.773-0.048-2.224,0.103-2.564c0.132-0.296,1.658-3.998,2.178-6.915
		c0.074-0.423,0.079-0.644,0.152-1.205c0.075-0.561,1.01-0.963,1.64-0.942c0.356,0.013,0.726,0.167,1.112,0.286
		c0.606,0.188,1.598,0.343,2,0.646c0.401,0.304,3.33,3.927,3.46,4.251c0.129,0.323,0.256,3.119-0.218,4.793
		c-0.157,0.561-0.404,1.106-0.481,1.676c-0.353,2.587-0.934,5.131-1.027,7.768c-0.083,2.305,0.105,4.641-0.444,6.927
		c-0.532,2.211-1.029,4.432-1.488,6.659c-0.248,1.203-0.428,2.425-0.547,3.648c-0.046,0.471,0.082,1.448,0.375,1.488
		c0.265,0.036,2.127,0.35,3.527,1.102c0.822,0.44,1.494,1.283,1.724,1.79s-0.722,1.06-1.474,1.153
		c-0.999,0.123-1.996,0.268-2.998,0.34c-0.748,0.053-1.647,0.542-1.776,1.01c-0.128,0.467-0.331,2.149-0.446,3.285
		c-0.205,2.009-0.431,4.02-0.569,6.035c-0.141,2.073-0.115,4.158-0.3,6.226c-0.118,1.315-0.8,3.713-0.796,4.216
		c0.002,0.283,0.635,4.354,0.922,6.745c0.006,0.058,0.062,0.53-0.285,0.714c-0.933,0.498-1.352,0.54-1.934,0.564
		c-0.626,0.026-1.404-0.409-2.762-0.811c-0.07-0.021-0.29-0.088-0.439-0.398c-0.635-1.319-1.438-4.049-2.111-4.324
		c-0.673-0.273-1.632-1.416-2.249-2.543c-0.262-0.477-0.224-1.151-0.217-1.735c0.015-0.982,0.385-2.046,0.119-2.93
		c-0.501-1.665-0.133-3.305-0.297-4.924c-0.15-1.481,0.226-2.854,0.281-4.277c0.052-1.372,0.804-4.066,0.744-4.285
		c-0.059-0.221-0.599-0.719-1.001-0.809c-0.606-0.137-1.368-0.202-1.896,0.053c-1.411,0.678-2.932,0.394-4.379,0.68
		c-0.506,0.1-1.044,0.09-1.576,0.238c-1.201,0.333-2.36,0.118-3.499-0.397c-0.722-0.327-1.463-0.746-2.365-0.486
		c-0.105,0.031-0.273,0.2-0.403,0.381c-0.131,0.182-0.871,1.673-0.721,2.926c0.092,0.75-0.207,1.553-0.358,2.325
		c-0.237,1.203,0.149,2.4,0.086,3.57c-0.182,3.289,0.682,6.471,0.785,9.716c0.048,1.521-0.202,3.052-0.346,4.574
		C507.217,79.051,507.256,80.343,506.966,80.678"/>
	<path clip-path="url(#SVGID_2_)" fill="#231F20" d="M711.525,17.2c0.065-0.537-0.585-1.268,0.4-2.477
		c0.982-1.209,3.635,0.068,5.225-0.175c1.59-0.243,7.684,2.744,9.027,2.959c0.482,0.078,0.993,0.141,1.471,0.064
		c3.051-0.49,5.924,0.293,8.705,1.435c2.421,0.996,4.792,2.091,7.303,2.863c2.598,0.797,4.654,2.606,6.623,4.524
		c1.448,1.409,3.048,4.347,3.336,4.901c0.287,0.552,2.212,3.479,3.449,4.796c0.339,0.362,0.688,0.822,0.798,1.297
		c0.607,2.585,1.353,5.164,1.632,7.795c0.218,2.03,0.883,4.266,0.662,5.747c-0.219,1.48-1.083,8.487-1.277,12.877
		c-0.037,0.822-0.606,4.523-0.612,4.742c-0.048,1.708-1.106,2.821-1.798,4.381c-0.42,0.942-0.961,1.991-1.57,2.806
		c-0.708,0.952-1.646,1.926-2.582,2.598c-2.592,1.862-5.009,3.083-7.986,4.141c-1.072,0.381-7.402,1.234-8.396,1.355
		c-1.262,0.153-2.546,0.146-3.79,0.386c-1.057,0.203-2.063,0.203-3.118,0.034c-1.787-0.286-3.587-0.502-5.39-0.661
		c-0.433-0.038-0.946,0.209-1.081,0.51c-0.134,0.301,0.115,2.633-0.203,3.147c-0.137,0.221-1.049,0.977-1.193,1.01
		c-0.144,0.032-2.922,0.583-3.191,0.583c-0.271,0-2.323,0.299-3.421-0.351c-0.153-0.09-4.239-2.35-5.281-5.089
		c-0.157-0.413-0.509-2.329-0.478-3.761c0.028-1.205-0.55-4.465-0.511-4.858c0.236-2.383,0.575-4.758,0.722-7.146
		c0.152-2.512,0.108-5.036,0.193-7.554c0.047-1.361,0.166-2.722,0.291-4.079c0.1-1.095-0.277-2.123-0.142-3.269
		c0.242-2.042,0.088-4.134,0.106-6.205c0.024-2.531-0.021-5.065,0.112-7.591c0.088-1.658,0.209-6.574,0.141-7.367
		c-0.133-1.561,0.258-3.097,0.251-4.62c-0.011-2.867,0.81-5.549,1.247-8.313C711.234,18.409,711.462,17.737,711.525,17.2
		 M723.837,30.235c-0.04,0.352-0.64,4.136-0.887,5.534c-0.309,1.753-0.498,3.531-0.7,5.302c-0.178,1.544-0.47,3.102-0.414,4.641
		c0.122,3.439-0.031,6.874-0.008,10.311c0.011,1.428,0.054,2.882,0.315,4.277c0.598,3.196,0.85,6.394,0.51,9.634
		c-0.124,1.188-0.137,2.27-0.264,3.456c-0.092,0.853-0.109,2.344-0.144,2.696c-0.035,0.354-0.062,2.51,0.154,2.629
		c0.218,0.118,2.868-0.145,4.238-0.238c1.043-0.073,2.173,0.047,3.1-0.344c1.082-0.456,2.149-0.292,3.193-0.49
		c2.163-0.409,4.345-0.677,6.468-1.476c3.291-1.239,5.84-3.322,7.656-6.358c1.408-2.356,2.36-4.924,2.937-7.688
		c0.659-3.158,1.063-6.331,1.303-9.538c0.105-1.427,0.322-2.876,0.185-4.282c-0.323-3.282-0.815-6.547-1.269-9.815
		c-0.19-1.37-0.619-2.643-1.176-3.932c-0.746-1.731-1.946-3.066-2.917-4.597c-0.656-1.038-5.342-3.283-4.413-2.867
		s-3.444-0.852-4.662-1.531c-1.18-0.657-2.427-1.013-3.79-1.124c-2.566-0.207-8.385-1.329-8.39-0.337
		C724.861,24.52,724.062,28.231,723.837,30.235"/>
	<path clip-path="url(#SVGID_2_)" fill="#231F20" d="M375.048,34.265c-0.317,1.054-0.083,2.202,0.549,3.172
		c0.498,0.766,0.943,1.527,0.891,2.491c-0.036,0.654,0.351,1.044,0.78,1.375c0.107,0.082,0.557,0.663,0.569,0.894
		c0.066,1.31-0.699,2.983-0.558,3.759c0.097,0.542,0.574,1.425,0.669,1.671c0.096,0.247-0.123,1.751-0.087,2.669
		c0.047,1.223-0.482,2.501-0.915,3.699c-0.611,1.688-1.357,3.326-2.055,4.981c-0.561,1.331-1.02,2.682-1.393,4.087
		c-0.444,1.671-1.243,3.247-1.895,4.861c-0.035,0.086-0.122,0.157-0.197,0.22c-1.002,0.836-4.723,3.481-4.961,3.567
		c-1.398,0.504-2.579,1.34-3.772,2.159c-2.059,1.414-4.074,2.932-6.349,3.962c-1.579,0.715-3.343,0.975-5.089,1.086
		c-0.746,0.048-1.496,0.027-2.266,0.016c-0.737-0.011-1.034-0.567-1.232-0.854c-1.231-1.774-2.269-3.655-3.133-5.618
		c-0.913-2.076-1.675-4.223-2.425-6.366c-0.307-0.879-0.364-1.828-0.629-2.744c-0.58-2.002-0.94-4.084-1.197-6.157
		c-0.131-1.05,0.12-2.155,0.265-3.227c0.165-1.229,1.208-4.943,1.405-5.606c0.379-1.285,0.781-2.566,1.249-3.821
		c0.169-0.453,0.818-2.419,1.067-2.893c0.359-0.679,0.529-1.305,0.547-2.104c0.028-1.26,0.395-2.512,0.61-3.77
		c0.076-0.438,0.109-0.885,0.196-1.321c0.323-1.63,0.638-3.263,1.01-4.883c0.097-0.424,0.418-0.791,0.58-1.206
		c0.534-1.373,1.344-3.981,1.36-4.219c0.016-0.238,0.875-2.056,0.983-2.32c0.112-0.274,0.498-0.648,0.57-0.976
		c0.287-1.31,1.167-4.278,1.222-4.357c0.144-0.205,1.29-3.663,1.731-4.997c0.092-0.281,0.337-0.53,0.368-0.81
		c0.16-1.444,1.17-2.526,1.592-3.853c0.394-1.242,2.151-3.963,2.698-4.008c0.588-0.049,1.387,0.903,1.484,0.867
		c1.464-0.537,5.844,0.665,6.012,0.627c0.17-0.038,1.048-0.64,1.5-0.767c0.788-0.221,1.591,0.113,1.895,0.854
		c0.7,1.708,1.591,3.302,2.489,4.911c0.637,1.14,0.824,2.527,1.25,3.79c0.304,0.904,0.891,5.195,1.02,5.923
		c0.25,1.405,0.685,2.777,1.038,4.164c0.061,0.242,0.434,0.915,0.429,1.159C374.887,25.731,375.377,33.171,375.048,34.265
		 M354.906,74.208c0.148-0.048,0.288-0.099,0.421-0.16c3.465-1.62,6.164-4.067,7.809-7.542c0.678-1.432,1.438-2.82,2.012-4.321
		c0.608-1.59,1.183-3.144,1.419-4.831c0.067-0.479,0.303-0.943,0.498-1.398c0.395-0.919,0.934-1.793,1.201-2.746
		c0.624-2.228,1.403-4.392,2.335-6.558c0.05-0.112,0.189-0.406,0.148-0.758c-0.063-0.544,0.044-1.109,0.262-1.712
		c0.371-1.027,0.777-5.402,0.751-6.567c-0.005-0.249,0.083-1.424,0.127-1.549c0.22-0.626,0.013-1.132,0.22-1.734
		c0.223-0.646-0.095-5.391-0.237-5.801c-0.185-0.539-0.453-3.221-0.763-4.311c-0.405-1.424-1.118-5.122-1.113-5.3
		c0.017-0.553-0.013-1.105-0.093-1.65c-0.079-0.531-0.274-1.044-0.414-1.566c-0.102-0.378-0.191-0.761-0.3-1.137
		c-0.494-1.712-3.112-2.831-3.363-2.798c-0.25,0.033-0.759,0.456-0.891,0.791c-0.728,1.844-1.45,3.695-2.061,5.581
		c-0.457,1.409-0.726,2.878-1.109,4.311c-0.332,1.242-0.617,2.509-1.092,3.697c-0.352,0.879-0.371,1.911-0.816,2.651
		c-1.581,2.629-2.192,5.667-3.759,8.315c-0.942,1.59-1.366,3.521-1.83,5.348c-0.459,1.811-0.673,3.684-0.999,5.529
		c-0.121,0.684-1.621,10.126-1.847,10.861c-0.503,1.641-0.406,3.244-0.221,4.89c0.082,0.727,0.87,4.944,1.05,6.354
		c0.189,1.473,0.934,2.605,1.702,3.791C354.33,74.468,354.714,74.269,354.906,74.208"/>
	<path clip-path="url(#SVGID_2_)" fill="#231F20" d="M429.646,5.634c-0.984-1.361-3.065-2.938-2.688-3.791s2.178,0.154,3.121,0.493
		c0.687,0.247,1.322,0.718,1.889,1.197c0.897,0.758,1.86,1.334,3.02,1.554c0.338,0.064,0.683,0.101,1.027,0.132
		c0.489,0.044,0.983,0.068,1.475,0.106c0.836,0.065,2.52,0.108,2.838,0.227c0.317,0.119,4.158,0.598,4.71,0.772
		c1.079,0.333,6.341,0.902,6.549,0.893c0.207-0.009,4.335,0.556,6.211,0.355c0.27-0.028,1.241,0.291,1.64,0.345
		c0.398,0.053,2.562,0.388,3.095,0.527c0.435,0.114,4.946,0.198,5.265,0.224c0.32,0.026,2.505,0.406,3.964,0.142
		c0.557-0.1,4.032,0.27,4.189,0.28c0.267,0.019,5.554,0.386,5.959,0.528c0.866,0.303,1.616,0.488,2.462,0.533
		c0.352,0.018,1.815,0.63,2.246,0.857c0.244,0.128,3.306,1.215,3.643,1.32s4.903,1.345,5.151,1.579
		c0.343,0.326,1.244,1.146,1.294,1.702c0.049,0.555-0.447,2.11-0.707,2.369c-0.262,0.259-1.957,1.072-2.768,1.075
		c-0.812,0.004-2.95-0.605-3.971-0.815c-1.308-0.123-3.268-0.393-3.501-0.331c-0.23,0.062-1.697-0.063-2.216-0.09
		c-0.958-0.052-3.638-0.305-4.045-0.343c-0.705-0.067-3.877,0.116-4.417,0.056c-0.348-0.039-0.701-0.049-1.069-0.035
		c-0.825,0.031-1.411-0.126-2.198,0.155c-0.154,0.055-1.355,0.191-1.7,0.18c-1.135-0.037-2.271-0.12-3.402-0.074
		c-0.523,0.022-1.215,0.432-1.609,0.482c-0.396,0.051-0.797,1.436-0.656,1.715c0.14,0.279-0.078,2.109-0.149,3.034
		c-0.034,0.439-0.097,0.895-0.251,1.305c-0.373,0.993-0.488,2.003-0.488,3.056c0,0.467-0.212,2.446-0.286,2.973
		c-0.175,1.22-0.18,2.496-0.292,3.763c-0.118,1.316,0.033,2.63-0.331,3.97c-0.49,1.801-0.75,3.675-0.488,5.605
		c0.261,1.927,0.214,3.894,0.39,5.835c0.149,1.634,0.1,3.253-0.03,4.881c-0.03,0.382,0.502,3.564,0.504,3.813
		c0.001,0.248,0.829,3.782,1.104,5.146c0.108,0.532,0.27,1.058,0.437,1.577c0.762,2.362,1.803,6.376,1.543,7.231
		c-0.262,0.855-1.768,1.312-2.287,1.468c-0.521,0.156-3.303-1.587-4.783-2.688c-0.483-0.358-2.225-1.117-2.425-1.397
		c-0.694-0.977-1.371-1.966-2.082-2.93c-1.137-1.542-1.959-3.191-2.251-5.127c-0.244-1.614-0.373-3.241-0.505-4.856
		c-0.123-1.515,0.156-3.062,0.262-4.596c0.013-0.196,0.071-0.395,0.059-0.589c-0.148-2.347-0.188-4.71-0.503-7.035
		c-0.245-1.813,0.143-3.563,0.139-5.344c-0.003-0.876,0.149-1.754,0.246-2.629c0.103-0.932,0.179-1.868,0.341-2.788
		c0.274-1.562,0.701-3.102,0.891-4.672c0.141-1.173,0.015-2.368,0.334-3.54c0.372-1.37,0.346-2.812,0.764-4.193
		c0.27-0.892,0.648-1.989-0.077-2.942c-0.154-0.202-0.955,0.07-1.44,0.144c-0.849,0.13-1.653,0.111-2.514-0.123
		c-0.876-0.238-3.662-0.037-4.088-0.102c-1.314-0.2-2.61-0.607-3.929-0.678c-1.299-0.07-2.523-0.44-3.78-0.597
		c-1.177-0.147-2.061-0.638-2.909-1.327c-0.691-0.562-1.369-1.146-2.002-1.772c-1.81-1.788-2.997-3.899-3.361-6.457
		C430.106,6.698,429.785,6.056,429.646,5.634"/>
	<path clip-path="url(#SVGID_2_)" fill="#231F20" d="M649.849,10.369c2.225,1.013,2.461,6.463,2.673,6.747
		c0.211,0.284,1.356,1.326,2.374,1.655c0.47,0.151,0.935,0.689,1.157,1.166c0.912,1.966,1.302,4.057,1.302,6.232
		c0,1.368,0.104,2.736,0.141,3.582c-0.142,2.104-0.274,3.698-0.351,5.294c-0.061,1.252-0.052,2.508-0.069,3.762
		c-0.021,1.568-0.026,3.137-0.058,4.705c-0.028,1.352-0.145,2.705-0.117,4.055c0.039,1.969-0.316,3.912-0.166,5.896
		c0.14,1.865,0.02,3.756-0.083,5.63c-0.098,1.748-0.327,3.488-0.493,5.231c-0.019,0.201-0.017,0.408,0.004,0.611
		c0.157,1.47,0.546,2.96,0.419,4.404c-0.131,1.502,0.531,2.895,0.283,4.368c-0.029,0.174,0.099,0.37,0.137,0.56
		c0.111,0.562,0.214,1.127,0.301,1.7c0.137,0.68,0.484,1.402,0.36,2.03c-0.17,0.86,0.693,2.062-0.238,2.479
		c-0.932,0.418-1.803,0.661-2.113,0.661c-0.312,0-1.82-0.304-2.36-0.49c-0.539-0.187-0.556-2.827-1.797-4.417
		c-0.766-1.44-2.546-1.967-2.842-2.332c-0.459-0.563-0.231-1.083-0.162-1.472c0.068-0.391-0.356-5.778-0.312-5.989
		c0.323-1.56-0.415-2.945,0.096-4.543c0.36-1.131,0.341-2.39,0.438-3.595c0.028-0.338-0.062-0.993-0.214-1.135
		c-0.151-0.143-0.839,0.047-1.233,0.061c-0.702,0.023-1.42,0.143-2.104,0.043c-2.614-0.382-5.217-0.83-7.822-1.268
		c-0.343-0.059-0.667-0.224-1.005-0.312c-0.805-0.213-1.905,0.095-2.125,0.81c-0.384,1.256-1.454,1.95-2.145,2.942
		c-0.444,0.639-0.739,1.314-1.094,1.984c-1.188,2.254-2.541,4.423-3.763,6.66c-0.854,1.562-1.832,3.073-2.314,4.812
		c-0.23,0.833-0.143,2.711-0.644,2.653c-0.501-0.059-3.685-0.112-4.25-0.617c-0.565-0.504-1.544-2.543-1.605-2.981
		c-0.061-0.438-0.286-3.232-0.516-3.694c-0.228-0.462-2.604-1.216-2.496-1.746c0.11-0.531,0.521-0.531,0.742-0.8
		c0.325-0.395,0.72-0.766,0.923-1.218c0.479-1.067,0.846-2.184,1.284-3.269c0.533-1.318,0.999-2.648,2.129-3.663
		c0.532-0.477,2.029-1.91,2.157-1.943c0.331-0.089,2.412-2.74,3.424-4.29c2.238-3.426,4.005-7.096,5.845-10.733
		c1.49-2.948,3.099-5.837,4.519-8.817c1.053-2.209,1.878-4.526,2.822-6.788c0.647-1.552,1.351-3.084,1.985-4.642
		c0.673-1.651,1.263-3.336,1.954-4.979c0.474-1.121,1.589-3.143,1.627-3.354c0.039-0.21,0.684-1.431,1.393-1.788
		C646.554,9.871,648.555,9.78,649.849,10.369 M648.597,50.502c0.142-0.207,0.009-22.758,0-22.946
		c-0.009-0.187-0.11-0.253-0.308-0.07c-0.195,0.183-1.131,2.086-1.654,3.15c-0.539,1.097-1.06,2.206-1.525,3.335
		c-0.467,1.131-0.809,2.315-1.296,3.436c-0.456,1.049-1.054,2.036-1.55,3.07c-0.525,1.096-0.979,2.229-1.513,3.322
		c-0.536,1.1-1.165,2.156-1.688,3.262c-0.506,1.063-1.406,3.017-1.239,3.243c0.168,0.225,2.815,0.879,4.24,1.123
		c1.942,0.333,3.873,0.392,5.706-0.467C648.047,50.83,648.455,50.71,648.597,50.502"/>
	<path clip-path="url(#SVGID_2_)" fill="#231F20" d="M685.97,60.155c-0.025,0.22,2.106,2.21,2.371,2.515
		c0.267,0.303,0.588,0.983,0.714,1.271c0.632,1.438,1.591,2.689,2.192,4.165c0.736,1.804,1.856,3.449,2.751,5.192
		c1.068,2.083,2.034,4.221,3.128,6.289c0.397,0.75,1.431,1.721,1.722,1.936c0.531,0.388-0.062,0.539-0.085,1.081
		c-0.013,0.352,0.296,0.867,0.015,1.123c-0.716,0.65-1.409-0.186-2.042-0.424c-3.143-1.183-4.814-3.762-6.158-6.662
		c-0.617-1.328-1.432-2.565-2.16-3.841c-0.133-0.235-0.29-0.459-0.413-0.699c-1.332-2.61-2.624-5.239-4.006-7.821
		c-0.464-0.866-1.042-1.736-1.768-2.379c-0.806-0.714-2.373-1.595-3.116-1.772c-0.743-0.179-1.177-1.124-1.709-1.27
		c-0.533-0.146-0.965,0.972-0.928,1.607c0.184,3.15-0.64,6.194-0.865,9.298c-0.151,2.056,0.199,5.854,0.164,6.338
		c-0.06,0.796-0.73,3.103-1.087,3.18c-0.357,0.079-1.178,0.43-1.823,0.191c-0.647-0.239-2.823-3.432-4.136-3.669
		c-0.825-0.149-0.827-0.909-0.819-1.033s0.338-4.986,0.513-7.477c0.013-0.163,0.034-0.332,0.087-0.484
		c0.554-1.561,0.722-3.166,0.787-4.82c0.08-2.011,0.371-4.015,0.58-6.021c0.17-1.624,0.572-3.26,0.477-4.866
		c-0.105-1.783,0.246-3.472,0.455-5.197c0.274-2.262,0.62-4.518,0.833-6.786c0.136-1.451,0.273-5.575,0.405-6.154
		c0.611-2.651,0.757-5.383,1.304-8.028c0.562-2.722,0.83-5.5,1.577-8.179c0.202-0.726,0.655-1.877,0.988-2.118
		s2.302-0.446,2.792-0.446c0.491,0,1.348,1.159,1.742,1.248c0.394,0.089,3.187-0.431,4.871-0.402
		c1.428,0.024,5.38,0.761,5.882,0.958c1.373,0.538,2.642,1.171,3.648,2.379c1.266,1.523,4.071,5.523,4.3,5.833
		c0.456,0.62,1.702,5.142,2.32,6.586c0.447,1.042,0.521,2.247,0.737,3.383c0.229,1.193,0.493,2.385,0.622,3.589
		c0.131,1.244,0.127,2.503,0.169,3.756c0.023,0.71,0.158,1.454-0.001,2.125c-0.572,2.42-1.104,4.813-2.59,6.963
		c-1.338,1.936-3.004,3.353-4.869,4.694c-1.646,1.184-3.498,1.959-5.216,2.989c-0.865,0.519-1.948,0.664-2.916,1.022
		C686.871,59.516,685.997,59.937,685.97,60.155 M677.938,53.717c0.274,0.389,1.363,0.217,2.17,0.015
		c1.883-0.47,4.687-1.685,6.837-3.362c0.562-0.438,1.132-0.886,1.751-1.233c2.513-1.409,4.382-3.378,5.97-5.809
		c1.896-2.902,1.941-5.963,1.471-9.115c-0.32-2.152-0.638-4.309-1.387-6.411c-0.565-1.594-1.055-3.192-1.973-4.619
		c-0.38-0.591-1.015-1.059-1.259-1.69c-0.834-2.14-2.613-2.402-4.553-2.351c-0.845,0.022-1.734-0.351-2.114-0.465
		c-0.307-0.092-2.808,0.114-3.29,0.351c-0.484,0.237-0.6,0.639-0.591,0.972c0.429,1.883-0.393,3.764-0.489,5.653
		c-0.048,0.92-0.187,1.838-0.19,2.758c-0.008,1.68,0.262,3.388,0.032,5.031c-0.308,2.196-0.219,4.416-0.733,6.612
		c-0.542,2.314-0.558,4.747-0.932,7.105c-0.212,1.336-0.276,2.695-0.861,3.995C677.429,51.971,677.43,53,677.938,53.717"/>
	<path clip-path="url(#SVGID_2_)" fill="#231F20" d="M335.177,57.286c-0.129-0.729-0.4-1.433-0.496-2.162
		c-0.172-1.309-0.324-7.246-0.729-8.171c-0.572-1.308-0.887-3.561-0.997-3.899c-0.11-0.338-2.687-6.877-3.043-8.371
		c0.049-1.164-0.053-2.792-0.553-4.378c-0.427-1.354-0.594-2.722-0.369-4.137c0.21-1.319,0.681-2.651,0.606-3.959
		c-0.07-1.231,0.409-2.406,0.203-3.66c-0.015-0.092,0-0.505-0.022-0.596c-0.144-0.598-0.682-1.611-1.025-2.015
		c-0.342-0.403-1.275-5.533-1.315-7.871c-0.011-0.642-0.107-2.522-0.11-2.677c-0.006-0.349,0.019-0.922,0.035-1.267
		c0.011-0.248-0.138-1.416,0.322-1.733c0.074-0.05-0.048-0.499-0.115-0.576c-1.158-1.334-1.728-1.636-3.349-1.762
		c-0.931-0.073-2.01-0.173-2.956,0.517c-0.06,0.044-0.158,0.236-0.159,0.27c-0.012,0.511-0.108,1.092,0.025,1.614
		c0.382,1.501,1.869,9.45,1.753,11.206c-0.039,0.585,0.673,3.689,0.67,3.822c-0.002,0.133,0.039,0.226,0.077,0.326
		c0.165,0.435,0.342,0.814,0.356,1.199c0.036,0.983-0.06,1.971-0.097,2.831c-0.131,0.989-0.169,1.877-0.377,2.723
		c-0.606,2.465-1.076,4.937-0.906,7.495c0.019,0.282-0.167,0.574-0.165,0.862c0.009,1.733-0.819,3.405-0.406,5.161
		c0.242,1.026,0.369,5.164,0.404,5.301c0.034,0.136,0.06,3.75,0.11,4.584c0.09,1.539,0.359,3.045,0.263,4.627
		c-0.155,2.572,0.113,5.168,0.183,7.754c0.028,1.049,0.035,3.059,0.004,3.151c-0.03,0.089-0.264,0.142-0.344,0.123
		c-0.107-0.024-0.443-0.505-0.595-0.806c-0.643-1.282-1.291-2.564-1.879-3.872c-0.731-1.626-1.424-3.269-2.097-4.919
		c-0.503-1.233-0.911-2.506-1.428-3.731c-0.939-2.235-2.34-4.235-3.096-6.591c-0.405-1.265-1.298-2.419-1.89-3.681
		c-0.41-0.873-0.827-1.541-0.947-2.283c-0.018-0.112,0.069-0.87-0.266-1.129c-0.398-0.308-0.724-0.841-0.989-1.397
		c-0.271-0.574-0.328-1.275-0.678-1.784c-1.164-1.698-1.798-3.648-2.696-5.469c-1.008-2.044-1.82-4.181-2.443-6.382
		c-0.524-1.851-0.971-3.731-1.619-5.538c-0.359-1.001-0.43-2-0.575-3.016c-0.119-0.83-0.511-1.622-0.63-2.452
		c-0.249-1.735-1.522-2.357-2.682-3.261c-0.108-0.084-1.753-1.035-2.326-1.28c-0.203-0.087-0.468-0.087-0.602-0.104
		c-1.865-0.235-3.685-0.951-5.51-0.53c-0.149,0.035-3.557-0.217-4.186-0.566c-0.303-0.168-0.251-0.557-1.043-0.455
		c-0.792,0.101-1.07,0.853-0.936,1.834c0.182,1.342-0.325,2.793,0.62,4.02c0.038,0.05-0.054,0.186-0.049,0.28
		c0.124,2.249,0.237,4.499,0.385,6.746c0.161,2.442,0.501,9.394,0.551,10.283c0.05,0.886,0.004,1.777-0.001,2.666
		c-0.006,0.984,0.32,1.969,0.258,2.912c-0.053,0.803-0.1,1.577,0.021,2.37c0.037,0.243,0.02,0.497,0.018,0.745
		c-0.006,0.691-0.094,1.391-0.008,2.069c0.136,1.072,0.202,2.154,0.297,3.224c0.127,1.412-0.139,2.855-0.1,4.281
		c0.055,2.035-0.094,6.945-0.137,7.397c-0.191,1.966-0.779,3.877-0.627,5.897c0.084,1.115-0.212,2.255-0.175,3.379
		c0.033,1.003-0.062,1.96-0.224,2.945c-0.201,1.215-0.179,2.464-0.291,3.695c-0.137,1.51,0.007,3.105-1.241,4.302
		c-0.55,0.527-0.493,1.16-0.306,1.744c0.506,0.34,0.955,0.641,1.33,0.893c0.333,1.539,0.674,2.94,0.928,4.357
		c0.159,0.888,0.381,1.711,1.09,2.25c1.322,0.749,2.68,0.634,4.019,0.245c0.723-0.952,1.006-1.964,0.94-3.119
		c-0.051-0.882,0.047-1.773,0.095-2.659c0.013-0.242,0.159-0.496,0.116-0.72c-0.299-1.535-0.001-3.051,0.123-4.569
		c0.209-2.556,0.401-5.115,0.694-7.661c0.232-2.013,0.72-4.003,0.266-6.044c-0.031-0.138,0.024-0.295,0.037-0.443
		c0.124-1.376,0.393-2.763,0.061-4.131c-0.28-1.147-0.357-5.193-0.378-5.83c-0.013-0.383-0.087-0.761-0.106-1.142
		c-0.078-1.539-0.123-3.079-0.226-4.616c-0.074-1.103-0.43-2.231-0.276-3.292c0.158-1.091-0.099-2.075-0.175-3.109
		c-0.084-1.123-0.357-2.238-0.031-3.388c0.181-0.636,0.282-1.196,0.215-2.156c-0.002-0.03,0.037-0.127,0.054-0.145
		c0.336-0.352,0.468-0.543,0.744-0.865c0.019-0.022,0.082-0.018,0.095,0.006c0.895,1.679,1.756,3.262,2.582,4.864
		c0.361,0.7,0.663,1.434,0.964,2.164c0.488,1.187,0.727,2.447,1.32,3.622c0.954,1.888,1.419,4.033,3.049,5.554
		c0.103,0.097,0.146,0.258,0.191,0.341c-0.024,0.366-0.045,0.707-0.059,0.927c-0.005,0.077-0.027,0.122-0.012,0.183
		c0.015,0.062,0.053,0.094,0.079,0.14c0.469,0.802,0.966,1.378,1.095,2.026c0.393,1.968,1.866,3.493,2.135,5.49
		c0.013,0.093,0.079,0.191,0.146,0.261c0.667,0.688,2.26,6.094,2.46,6.358c1.241,1.631,1.465,3.777,2.798,5.373
		c0.593,0.709,1.19,1.542,1.405,2.412c0.351,1.428,1.353,2.546,1.646,3.979c0.086,0.419,0.39,0.793,0.594,1.188
		c0.658,1.271,1.369,2.518,1.957,3.819c0.431,0.956,0.834,1.902,1.509,2.725c0.237,0.289,0.366,0.696,0.462,1.071
		c0.287,1.119,1.406,3.788,1.931,3.866c0.883,0.129,1.765,0.433,2.642,0.414c1.578-0.033,2.869,0.692,4.173,1.366
		c0.927,0.479,1.728,1.195,2.635,1.721c0.402,0.233,1.147,0.476,1.429,0.582c0.039,0.015,1.736,0.182,2.269,0.037
		c0.489-0.133,0.985-0.169,1.099-0.229c0.238-0.128,1.503-1.964,1.281-2.242c-0.222-0.278-0.654-1.597-0.455-2.242
		c0.269-0.872,1.031-7.818,1.207-9.54c0.135-1.332,0.078-2.689,0.299-4.004c0.205-1.216-0.103-2.38-0.074-3.568
		c0.032-1.242,0.192-2.492,0.096-3.723c-0.132-1.705-0.059-3.369,0.279-5.043C335.385,58.398,335.272,57.821,335.177,57.286"/>
	<path clip-path="url(#SVGID_2_)" fill="#231F20" d="M595.634,65.805c-0.01-0.023-0.019-0.048-0.027-0.071
		c-0.004,0.011-0.007,0.021-0.012,0.032C595.607,65.78,595.62,65.792,595.634,65.805"/>
	<path clip-path="url(#SVGID_2_)" fill="#231F20" d="M622.446,7.297c-0.192-0.053-3.001-1.633-3.746-2.157
		c-1.418-0.997-3.78-0.908-4.02-0.017c-0.205,0.768-1.251,7.319-1.423,8.317c-0.17,0.998-1.581,6.788-1.623,6.984
		c-0.32,1.484-0.595,2.978-0.91,4.464c-0.419,1.983-0.837,3.967-1.3,5.941c-0.264,1.127-0.551,2.259-0.949,3.343
		c-0.4,1.093-1.028,2.102-1.421,3.196c-0.877,2.446-2.246,4.028-2.362,4.299c-0.118,0.271-0.443,1.368-0.601,1.755
		c-0.159,0.386-0.746,2.503-1.41,4.524c-0.158,0.482-0.317,0.984-0.589,1.405c-0.532,0.827-1.858,3.329-2.021,3.523
		s-0.146,0.459-0.183,0.689c-0.185,1.157-0.342,2.639-0.711,2.684c-0.187,0.022-0.595-0.378-0.714-0.684
		c-0.129-0.329-0.099-0.725-0.246-1.04c-0.942-2.043-1.09-4.274-1.333-6.437c-0.206-1.841-0.157-3.726-0.39-5.582
		c-0.146-1.154-1.437-6.638-1.72-7.222c-0.226-0.461-1.19-1.373-1.446-1.492c-1.833-0.855-3.5-1.024-5.491-1.229
		c-1.728-0.178-3.237,0.3-4.598,1.256c-1.321,0.929-2.494,2.052-3.587,3.243c-0.334,0.365-0.594,0.841-0.762,1.311
		c-0.691,1.941-1.649,3.725-2.835,5.414c-1.027,1.466-1.925,3.024-2.876,4.545c-0.594,0.952-1.038,2.048-1.802,2.833
		c-1.387,1.424-2.224,3.125-3.043,4.876c-0.663,1.418-1.771,4.128-2.195,4.128c-0.251,0-0.979-1.396-1.311-2.165
		c-0.5-1.163-1.377-2.172-1.512-3.477c-0.11-1.062-0.659-1.905-1.151-2.798c-0.659-1.191-1.359-2.365-1.659-3.728
		c-0.318-1.441-0.693-2.872-1.081-4.298c-0.089-0.33-0.332-0.618-0.501-0.927c-0.489-0.892-1.19-1.733-1.42-2.688
		c-0.491-2.044-1.796-3.746-2.203-5.821c-0.279-1.433-0.825-2.814-1.233-4.223c-0.069-0.238-0.136-0.53-0.06-0.748
		c0.185-0.529,0.155-0.966-0.004-1.35c-0.182-0.434-0.601-1.382-1.146-1.281c-0.547,0.101-2.893-0.093-4.438-0.153
		c-1.649-0.065-4.581,0.236-4.929,0.62c-0.35,0.385-0.395,0.463-0.283,0.789c0.11,0.325,0.966,1.982,1.395,2.958
		c0.264,0.597,0.545,1.211,0.651,1.846c0.366,2.179,1.046,4.243,1.985,6.24c0.245,0.524,2.565,5.393,3.322,6.764
		c0.687,1.242,1.104,2.625,2.065,3.729c0.388,0.445,0.626,1.049,0.835,1.618c0.561,1.521,1.076,3.058,1.898,4.469
		c0.127,0.217,0.268,0.434,0.35,0.668c0.68,1.935,1.005,3.947,1.389,5.953c0.308,1.593,0.387,3.23,1.104,4.763
		c0.369,0.786,0.596,1.784,0.204,2.703c-0.244,0.571-0.208,1.039,0.003,1.435c0.129,0.24,0.482,0.635,0.788,0.684
		s0.784,0.146,1.248,0.296c1.333,0.434,2.404,1.208,3.042,2.552c0.817,1.725,1.953,3.103,3.479,4.173
		c0.331,0.232,0.7,0.623,1.046,0.651c0.348,0.03,0.861-0.094,1.301-0.083c1.026,0.027,2.041,0.128,2.709-0.665
		c1.531-2.938,4.254-8.795,4.284-8.944c0.282-1.384,0.704-2.586,1.176-3.916c0.39-1.101,0.925-2.147,1.382-3.225
		c0.115-0.271,0.609-2.806,1.16-3.521c0.56-0.729,0.965-2.713,1.144-2.982c2.003-3.024,3.739-6.146,5.227-9.538
		c0.085-0.192,0.172-0.574,0.253-0.582c0.157-0.013,0.661,0.848,0.767,1.221c0.397,1.414,0.798,2.835,1.065,4.277
		c0.339,1.821,1,3.515,1.878,5.118c0.3,0.549,0.515,1.074,0.669,1.677c0.229,0.898,1.354,2.894,1.448,3.138
		c0.39,0.988,0.898,1.935,1.252,2.935c0.576,1.628,1.212,3.732,0.973,4.299c-0.155,0.369-0.025,1.042,0.213,1.077
		c0.237,0.035,0.465,0.082,0.681,0.141c2.225,0.594,3.405,2.348,4.334,4.208c0.123,0.244,0.334,0.882,1.079,1.135
		c0.909,0.309,1.471,1.66,3.241,1.59c1.23-0.05,2.127-0.909,2.732-1.816c0.605-0.904,0.663-2.937,0.975-4.421
		c0.051-0.242,0.001-0.515-0.046-0.765c-0.238-1.273,0-2.531,0.219-3.761c0.318-1.79,0.79-3.555,1.235-5.32
		c0.282-1.126,0.811-2.217,0.921-3.354c0.231-2.381,1.509-4.416,1.999-6.719c0.462-2.172,1.47-4.222,2.089-6.369
		c1.033-3.584,1.959-7.199,2.903-10.809c0.213-0.816,0.316-1.662,0.472-2.494c0.074-0.494,0.354-0.963,0.397-1.453
		c0.14-1.564,0.188-3.136,0.279-4.704c0.023-0.406,0.054-0.814,0.126-1.213c0.265-1.491,0.618-2.97,0.803-4.47
		c0.192-1.536,0.239-3.081,0.551-4.614c0.226-1.112,0.629-2.139,0.999-3.188c0.305-0.861,0.646-1.701,1.638-2.077
		c0.26-0.098,0.552-0.42,0.552-0.816C623.092,8.021,622.637,7.35,622.446,7.297"/>
	<path clip-path="url(#SVGID_2_)" fill="#231F20" d="M592.487,60.536c0,0.004-0.001,0.009-0.001,0.013
		c0.016,0.007,0.023,0.02,0.04,0.026C592.54,60.534,592.514,60.508,592.487,60.536"/>
</g>
</svg>
