<?xml version="1.0" encoding="utf-8"?>
<!-- Generator: Adobe Illustrator 16.0.4, SVG Export Plug-In . SVG Version: 6.00 Build 0)  -->
<!DOCTYPE svg PUBLIC "-//W3C//DTD SVG 1.1//EN" "http://www.w3.org/Graphics/SVG/1.1/DTD/svg11.dtd">
<svg version="1.1" id="Layer_1" xmlns="http://www.w3.org/2000/svg" xmlns:xlink="http://www.w3.org/1999/xlink" x="0px" y="0px"
	 width="261.3px" height="244.734px" viewBox="0 0 261.3 244.734" enable-background="new 0 0 261.3 244.734" xml:space="preserve">
<metadata><?xpacket begin="﻿" id="W5M0MpCehiHzreSzNTczkc9d"?>
<x:xmpmeta xmlns:x="adobe:ns:meta/" x:xmptk="Adobe XMP Core 5.3-c011 66.145661, 2012/02/06-14:56:27        ">
   <rdf:RDF xmlns:rdf="http://www.w3.org/1999/02/22-rdf-syntax-ns#">
      <rdf:Description rdf:about=""
            xmlns:dc="http://purl.org/dc/elements/1.1/">
         <dc:format>image/svg+xml</dc:format>
         <dc:title>
            <rdf:Alt>
               <rdf:li xml:lang="x-default">Dare Northward-Primary Logo-blackai</rdf:li>
            </rdf:Alt>
         </dc:title>
      </rdf:Description>
      <rdf:Description rdf:about=""
            xmlns:xmp="http://ns.adobe.com/xap/1.0/"
            xmlns:xmpGImg="http://ns.adobe.com/xap/1.0/g/img/">
         <xmp:CreatorTool>Adobe Illustrator CS6 (Macintosh)</xmp:CreatorTool>
         <xmp:CreateDate>2017-09-27T17:09:26-04:00</xmp:CreateDate>
         <xmp:ModifyDate>2017-09-27T17:09:27-04:00</xmp:ModifyDate>
         <xmp:MetadataDate>2017-09-27T17:09:27-04:00</xmp:MetadataDate>
         <xmp:Thumbnails>
            <rdf:Alt>
               <rdf:li rdf:parseType="Resource">
                  <xmpGImg:width>256</xmpGImg:width>
                  <xmpGImg:height>240</xmpGImg:height>
                  <xmpGImg:format>JPEG</xmpGImg:format>
                  <xmpGImg:image>/9j/4AAQSkZJRgABAgEASABIAAD/7QAsUGhvdG9zaG9wIDMuMAA4QklNA+0AAAAAABAASAAAAAEA&#xA;AQBIAAAAAQAB/+4ADkFkb2JlAGTAAAAAAf/bAIQABgQEBAUEBgUFBgkGBQYJCwgGBggLDAoKCwoK&#xA;DBAMDAwMDAwQDA4PEA8ODBMTFBQTExwbGxscHx8fHx8fHx8fHwEHBwcNDA0YEBAYGhURFRofHx8f&#xA;Hx8fHx8fHx8fHx8fHx8fHx8fHx8fHx8fHx8fHx8fHx8fHx8fHx8fHx8fHx8f/8AAEQgA8AEAAwER&#xA;AAIRAQMRAf/EAaIAAAAHAQEBAQEAAAAAAAAAAAQFAwIGAQAHCAkKCwEAAgIDAQEBAQEAAAAAAAAA&#xA;AQACAwQFBgcICQoLEAACAQMDAgQCBgcDBAIGAnMBAgMRBAAFIRIxQVEGE2EicYEUMpGhBxWxQiPB&#xA;UtHhMxZi8CRygvElQzRTkqKyY3PCNUQnk6OzNhdUZHTD0uIIJoMJChgZhJRFRqS0VtNVKBry4/PE&#xA;1OT0ZXWFlaW1xdXl9WZ2hpamtsbW5vY3R1dnd4eXp7fH1+f3OEhYaHiImKi4yNjo+Ck5SVlpeYmZ&#xA;qbnJ2en5KjpKWmp6ipqqusra6voRAAICAQIDBQUEBQYECAMDbQEAAhEDBCESMUEFURNhIgZxgZEy&#xA;obHwFMHR4SNCFVJicvEzJDRDghaSUyWiY7LCB3PSNeJEgxdUkwgJChgZJjZFGidkdFU38qOzwygp&#xA;0+PzhJSktMTU5PRldYWVpbXF1eX1RlZmdoaWprbG1ub2R1dnd4eXp7fH1+f3OEhYaHiImKi4yNjo&#xA;+DlJWWl5iZmpucnZ6fkqOkpaanqKmqq6ytrq+v/aAAwDAQACEQMRAD8A9U4q7FXYq7FXYq7FXwn+&#xA;bn5geavMXm7Wba/v7j9GW17PDa6bzZYI44pGRB6Yopai7sRWuLJZ5J/LH81Nes49R8sWU/1KYsq3&#xA;kdxHboShKtu0iHYimKsrP5i/n9+WN7Da6+1xLag8Ug1MC6glA7R3SksaDssu3cYoe1flz/zkf5L8&#xA;2TQ6dfg6HrMtFSG4YG3lc/sxT/CKn+VwvgK4rT1rFDsVdirsVeB+ev8AnKyw0PzDd6RoujrqsVlI&#xA;YZb97j043ddmEYVJKqG25V3xTSf/AJWf85F6D531ePQ7rT5NI1eZWa3UyrNBKUHIqslI2D8QSFKd&#xA;uuK09dxQ7FXYq7FXYq7FXYq7FXYq7FXYqteWJGVXdVZzRASASfAeOKrsVdirsVdirsVdirsVdirs&#xA;Vdir8+PzFt2tvzA8zQMCDHqt6u4oSPrD0P0jFk+of+cUJkk/K+VF6xalcI+5O5jifv02YYoL13Ut&#xA;L07VLKWw1K1ivLKccZredFkjYe6sCMUPn78z/wDnFjTpLS41TyMXhu0Bc6JK/KKQd1gkc8kbwDkg&#xA;+IxTbEvyt/P7zL5Ivh5a86RXFzpVu/oMJwwvbErtSj/E6L/I24H2enEq0+q9I1jS9Z02DU9LuY7y&#xA;wuV5wXER5Kw6feDsQdwcUIzFWL/md5pXyv5C1rWufCe3tmW0NaH6xL+6hp/z0cH5Yq+BrGyu9Qvr&#xA;eytIzNd3cqQ28S/aeSRgqKPcscWSYSprXlHzW6Bvq+saFeFea7hZ7aSlRWlV5L9IxV98eTPMkXmb&#xA;yppWvRKIxqNtHO8QNQkhFJEr34uCuLFOcVQmsah+jtJvdQ9Iz/U7eW49FTRn9JC/EHfdqUxV8bal&#xA;+d/5wedfMFrY6XqL6fLdzLDYadpzC2XnIeKq0rEM3zd6fLFlTMbjS/8AnLnRpA0dzdXiKBSSOWzu&#xA;gaf5EnJvvXfFCL8tf85E/mF5W1GOw/M7Rrg2s2y3htfqlyviwSkcUq+IUA+56YrT6M0bWdL1rS7b&#xA;VdLuEu9PvEElvcRmqsp2+YIIoQdwdjihGYq+V/8AnJZNd8pfmBbeY9D1q9sptfhDzxQTPEEeyVIR&#xA;TgVqjIR8Ld+XjikMTt/+cmvzbg01bP8ASEEsq9L6S2iaenYHb0zTxKV8cU0xzWPzi/NDV+QvfMt9&#xA;xb7SQSfVkPzW3ES/hirErm6urqUy3MzzynrJIxdvHqxJxV9F/wDOMd3+aq64LW8jvn8nGBub3wk9&#xA;GNlWsQtWl6Esd1TanXtigvpnFDsVdirsVdirsVdirsVdir4M/Oq3+r/mt5nShFb55KN1/eAPX5fF&#xA;tiyD3b/nD++D+UddsamsGoLOV7ATQqtf+SOKC99xQ7FXyH/zlppdta/mNZ3kICyahp0UlxQfakjk&#xA;kiDE/wCoqj6MUhG/84p+fbyx80SeT7iRn07VUkms4yaiO6hQuxXwEkSNy9wMVL6vxQ+dv+cvPNoh&#xA;0zSPKkVfUupP0jdNX/dcXKKJffk7Mf8AYjFIYP8A84r+UotY8/y6vcxh7fQYPXjBFR9ZmPpxfcvN&#xA;h7gYqV//ADlT5NbSPPUWvwJSy16IO7AbC6gAjkH+yTg3uScVD0T/AJxJ82Le+VNQ8tTPW40mf6xb&#xA;qf8AlnudyF/1ZVYn/WGKl71ihKfNyyt5U1pYm4StYXIjc9mMLUP34q+EfyyuPq/5jeVpi3BV1ax5&#xA;t4KbhA3/AAuLJ+gmLF5F/wA5S2tnN+VE8s4HrW15bSWh7+ozGM0/55u2KQwv/nEDzLeyJrvlyaUv&#xA;aQCK9s4j+wXYpNTvRvg28fnipfSOKHzj/wA5jWIaz8r3wQ1jku4GcdPjWJlB/wCANPpxSHzJil9f&#xA;fkr+X35b+ZPy20LWL/y9ZXGoem8FzK8Qq728rxcnA+FiQoNSN++KC9V0zyh5T0oo2maLY2LJQo1v&#xA;bQxEEV3BRQe5xQm2KuxV2KuxV2KuxV2KuxV2KuxV8X/85P2CWv5tXsqLx+u2ttOx7EiP0qj/AJFY&#xA;sgzL/nDm446n5nt+VPUgtJOHj6byiv0ep+OKC+nsUOxV8j/85cXiS/mJp1stCbbS4uZ7hnnman/A&#xA;0OKQwH8mriW3/NTyvJE3FjqEMZP+TKfTYfSrHFJfe2LF8V/85M6z+kfza1CENyj0yC3s4z22j9Zg&#xA;Pk8zYsgyP/nGr8xfJPk3TfMcnmLUFsZLqS1MC+nLJJIsay1CiJHJoW+iuKCmP54/nf8Alr508mz6&#xA;Jp8F7camk0U+nXjwpHDG6OBIWLSCSjQs6/Y64qA80/I/zsPKP5i6bfTyenp12TY6iSaKIZyAHb2j&#xA;kCufYYpL7rxYqV5ax3dpPayf3c8bRP8A6rqVP68VfnjprTaH5rtWn+CbS7+My9Nmt5hy67bFcWT7&#xA;z138wfI+gwGfVtcsrVQvMI0yNIw/yIkLSP8A7FTixfJ/58fnQvn2+g07SVkh8uae5ki9QcXuJyCv&#xA;rMu/FVUkIOu5J60CyAZh/wA4f6HfnWNd10xldPS3SyWQg0eZ5FlIU9+CoOX+sMUF9QYoeR/85R6V&#xA;He/lPc3TCraZd21yh8C7/Vz+E+KQ+MsUvevyV/Pzy35F8iy6NrEF7eXgvpZbWK2SMokEiR7F3dKf&#xA;vA52BxQQ9Q8rf85P/l7r2r2mlNBf6dc3siwwy3McRg9RzxRS8cjsORIFStPE4rT1/FDsVdirsVdi&#xA;rsVdirsVdirsVfHf/OVycfzRQ1J56bbtuagfHKNvAbYpCZ/84gso886wtRyOmEhe5AuIqmn04qX1&#xA;jihbJJHFG0kjBI0BZ3YgKqgVJJPQDFXwZ+cPnCDzb+Ymr6zasWsGkWCxbehhgURq4B6B+Jf6cWTf&#xA;5LWk13+avliKEcnW+jmI6/DDWVz9CocVL70xYvz3/MPVl1fz35h1JH9SK61C5eB+tYvVYR/8JTFk&#xA;9D/K/wD5x+fz95KGtx6k2l3S308A9WL1opbdI4ijIAyFSshkB3Nfam6i3qHl/wD5xH8lWZV9a1O8&#xA;1WRescYW0hb5qvqyfdJitvlnXLEWGtahYgEC0uZoAD1HpyFd6/LFL7p/J3X5de/LHy7qczF5ntRB&#xA;M56s9qzW7sf9ZoicWLMsVfnl56/5TfzD/wBtO8/6iHxZJMkUjvGgFDIQELEKDU0+01BSvfFXrHlb&#xA;/nGT8y9YuoDqEEOj6bJRnvJZopj6Z7xxQO5Y06cioPjitvrbyj5V0jyp5es9C0mP07OzTiGP25HO&#xA;7yOR1Z23P9MWKcYqxX81dEOt/lx5i01RyklsZXhUd5YV9WMfS6DFXwBiyeo/84++RvKvnXzVf6N5&#xA;gilkjjsWurZopTEQ0csaMNutRLX6MVL6j0D8mPyw0IRGx8vWrzQkOlxdL9ZlDqahw0xehrvtSnbF&#xA;jbNcVdirsVdirsVdirsVdirsVdir5U/5zBsCnmzQb/alxYPB7/uJmf8A5n4pCS/84palBafmi8Er&#xA;BX1DTri2hBNKurxz0HvxgbFS+nfNv5neRfKcUja1q9vDPH/x5IwluSfAQpyf6SKYofNP5wf85G6h&#xA;5us5dC8vQyaZoMw43cspAublf5G4FljjPdQTy7mm2KaeKYpfU/8AzjF+Ul7pEb+c9ctzDeXcXp6R&#xA;bSbOkEm7zMp+yZBQL/k18cUF6v8Amtr0+g/lz5g1W2YpcwWbrBIvVZJqRI4/1WcHFD4BxZPvz8pv&#xA;Lp8vflx5f0p14TR2iS3C9xNcVmkB+TyEYsWW4q+L/wDnIP8AK/V/K/mu81+iSaHrt5NNbTR1/dyy&#xA;kyvDIKfCaluFOoH0Ysg9z/5xa1K2uvypgtomrLYXdzDcL3DO/rL9BWUYoL13FD4A/NHQtT0T8wde&#xA;stRQrOb2adHIoJIp3Mkci+zK38MWT2qT8mh5t/IHy1eaXCv+JdNtZZ7ULsbiGWeSZ4GJ/a+Pkn+V&#xA;t0auKLSv/nHL83L7RdbHkjzLcumnTsYdOa6JBtLpTT0Dz3VH+zxP2Xp4nFS+qcUOxVCaxcLbaRfX&#xA;DDksNvLIVoDUKhNKHY9MVfnDiyezf84t675d0Xzvqd1rWoW2mo+mvFBPeTJBGSZ4mZA8hVeRC1p1&#xA;2+eKC+kX/OT8rEn9A+aNPL9KrMrJ/wAGKp+OKGS6Xrei6tD6+lX9tfw/79tZo5l/4KMsMVRuKuxV&#xA;2KuxV2KuxV2KuxV2KvlH/nKvyt5wh1+DzFfXf17y7Mfq2noqhPqbceRicAb8ypYPWp6HoMUh4PFL&#xA;LE4kido5BWjqSpFRQ7j2xS5I5JXCIrPI3RVBJP0DFWXeXPyh/MnzC0f6N0C69GQ7XVwn1eGnj6k3&#xA;BSPlXFX0R+V3/OMeh+XpYdV80yR6xq8ZDxWig/UoWHQ0YBpmHiwC/wCT3xRb3DFCUebfLGn+aPLl&#xA;9oGotItnfxiOV4iFkWjB1ZSQwqGUHcYq8Z8jf84r2Wheb01TWr+HWdIteT2lk0TIWlqPTMykspC7&#xA;mldzTttim3vuKHYqlPmnyroPmnRpdH1y1F3YTFWaMkqwZTVWR1IZWHiDiqD8lfl/5W8lWM9j5etD&#xA;awXMvrT8pHlZn4hR8UhY0AHTFWRYq86/OL8m9N/MWytT9ZGnavYki3v/AE/V5RNu0MihkJXlQg1+&#xA;HfxOKWSfl95cv/LXkzStBv7pL2506EwNcxqUVlDt6YCsSfhQhfoxQ86/PP8AIe18228mv+XYkt/N&#xA;EK8pYloiXqr+y52AlH7Lnr0bsVUgsE/K/wD5yR1Py9Ivlj8wYZ5EtHNv+k3DG7gKniUuY2+KTj/N&#xA;9oeDYrT6X0vVdN1bT4dR0y5jvLG4XnBcQsHRh02I8DsfDFCJZVZSrAFSKEHcEHFXxZ+fn5TN5K8y&#xA;G80m1kXyxqAD2sm7pBL0eBn3pv8AEnLsab0OLIMR8o/ln5683hn8v6RNeW6MUe6JWKAMBUr6spRK&#xA;gHoDXFXpdh/ziP5/nt45LrUtNtJH3aAvNIyDwJWPjX5Gnvii2X6H/wA4ix2bx3Nz5ruI7tdw1jAI&#xA;Sh/yZGkZvpoMVt9A2Fr9Usbe09V5/q8SRetKxeR+CheTsd2Y0qTihXxV2KuxV2KuxV2KuxV2Koe/&#xA;0+w1G0ks9Qtory0lAEttcIssbAGo5I4KncYqk1v+XP5fWylYPLOlRg/a42VuCaeJ4b9cVTmy07T7&#xA;GL0rG1itYth6cKLGu3TZQBiqIxV2KuxV2KuxV2KuxV2KuxV2KuxV2KuxV5l+bP5FeXfPsbX0TDTP&#xA;MSqAmootVlCigS4QU5imwYfEPcbYpt35IflVr/5e2GoWmpawl/BetHJFZwowihkUESOrOakuOIPw&#xA;jpipem4oWTQQzxNDPGssTji8bgMrA9iDscVatrW2tYVgtokghWvGKNQiipqaKtBiqpirsVdirsVd&#xA;irsVdirsVdirsVdirsVdirsVdirsVdirsVdirsVdirsVdirsVdirsVdirsVdirsVdirsVdirsVdi&#xA;rsVdirsVdirsVdiqF1LVNM0uze+1O7hsbOKnqXNzIsUa1NBV3IUVOKofQvM3l7X7d7jRNSttSgib&#xA;hK9rKkoRutG4k8T88VTLFXYq7FXYq7FXYq7FXYq7FXYq7FXYq7FXYq7FXYq7FXYq7FXYq7FXYq7F&#xA;XYq7FXYq+cPMv/OVetaF5v1vR20G2urTTb64s4HE0kUhFvIYuTmkiksUJ2A6/eppG+XP+cvdAurm&#xA;OHX9Em02JjRru3lF0i/5TIUien+ryOK0950zU9P1TT4NR064S6sbpBJb3ER5I6nuDihE4qwP89tH&#xA;/Sv5TeY4APigtvrinw+qOs5/4WMjFQ8c/wCcOlH6U8zt3EFoBv2Ly9voxSX0/ih2KuxV8+f85F/n&#xA;Vr/lrXrDy95WvRa3lsq3epzKqSGr/wB1AyuGFOPxsO9VxSA8yT/nKD821gaM3tq7sQRObWLmADUg&#xA;AAJQ9DVcU0+o/wArPPdv538lWOuLwW8K+jqUCbCO6jAEigEkhW2dd/skYsWW4qx7z9510zyZ5WvN&#xA;f1CrR24CwQr9qWZ9o4x8z1PYVOKvhG985+br67lu7rWr2W4nYvI5uJdyf9lsPAYsk10v8yPzUghk&#xA;ksPMOrvBbANLS4nljjWuxYMXVQT9+Ksu8o/85O/mRokvHU5o9fsz1hu1CSrvvwmjAap/yw3yxWn0&#xA;p+Vn5taB+YenXE9hFJZ31kUF7YzFWZPUrxZHX7aHid6D5YsXmv5+P5r/AC+12x89+WNXuYbfUbj0&#xA;NR0uV3ls2nEfJT6THhSRI2qNiCKqR2UhJrH/AJzGvlRRf+V4pnoA7wXbRCvchHil+7l9OK0ynSv+&#xA;cuPINwAuo6dqFhIepVYp4x/sg6v/AMJitMjt/wDnJX8nJU5Sa09udvgktLsnf/jHE42+eK0n+n/n&#xA;B+V1/H6kHmnTUXwuLhLZv+BnMbfhihNIvPnkeYKYvMWmSB/sFLy3atfCj74qmdpqmmXn+8l3Dcdf&#xA;7qRH6dfsk4qicVdirsVaDoWKhgWWnJQdxXpXFW8VdirsVfCv59Wy2/5u+ZY1UoGuEkodt5YI5Cfp&#xA;5VxZBgGKvr7/AJxO1367+XVxpjuDLpN9IiR13WGdRMp+mRpMUF7XihAeYLA6joOpaeFDG8tZ7cKd&#xA;gfVjZKfjir5T/wCcTtdgsPzCu9MncJ+lbJ0gB25TQOsgXf8A4rEhxSX13ih2KqV1dW9pazXVy4it&#xA;7dGlmkboqICzMfkBir89POPmKfzJ5q1XXZqhtRuZJ1U/sozfu0/2CUX6MWT0L8hvybsPzBfWLjVp&#xA;Z7fTrGNYbeW3KqxupakH4lYMI1WpX3GKkvQf+cZ4r/yz5985eRbyT1Gtf3ykCisbWX0TKoJ2EizI&#xA;flTFBfRuKEt8x+XNG8yaNc6NrNst1p90oWWJiQag1VlYUKspFQRir4N8s6HYXP5kaToV0PrGnz6x&#xA;b2M6hiPUhe6WJhyWh+JT1GLJ98aboukaXYrp+nWUFnYqOItoI1jjpSh+FQBvixfnn5iGnDzBqY0w&#xA;U0363P8AUh1pB6jel/wlMWTM/wAgvM91oP5paKYnIt9TmGm3cdaB0uSESv8Aqy8G+jFS+w/zA8k6&#xA;b508q3mgX7GNLgBoLhRVoZk3jkAqK0PUdxUYsXxF50/LPzl5P1Gez1fTpRDESY7+JGe2lQdHSUDj&#xA;SnY0I7gYsmK4q7FXYq7FXYqzPyn+cP5jeVmVdL1qdrVaf6FdH6xBQdgknLh/sKHFX0H+Tv8Azkbf&#xA;ec/Mdt5a1jSEgvrmOV4r6zZvS5RIZCHifkUBVT8XM70FN8UUy/8APb8wpvJPkSe7sn4avqDiy05u&#xA;pR3Ul5af8VopI/yqYoD4t0TzLr+h6smraTfzWmoo3P6xG5DMSakP2cN+0GqD3xZPvnyL5jfzL5O0&#xA;fXpIvQl1C1jmliHRZCKOF/yeQNPbFixf8/vN9z5X/LPULuxuns9Tu3is7CeM8ZA8j8nKt1BEKPQj&#xA;cYpDxr8gPzy8xp5mtfLHmS8n1Wx1R1t7K5nYyzQTnZAXarMj/ZNTtsfHFSGIf85KwrH+cWtOCSZY&#xA;7R2r2ItIk2/4HFIeX4q9u/5xP8zLp3n660aaTjDrdqVjX+a4tj6if8kzLigvrvFDsVfEH5Rqmofn&#xA;rpL2g/dSalPcRgf77RZJe3+SuLJ9v4sXYq8s/wCckPOC+Xvy0vLWM/6Zrp/R0IBoRHIpM7fL0wV+&#xA;bDFIfFOKX21/zjf5e/Q35UaY7pwuNUeXUJhTr6rcYj9MMaHFBYHqUz+Vv+csreeSotfMcMSUFSSL&#xA;iH0F/wCni3GKvovFDsVfAX5fypN+avluVPsSa7ZOtfBrxCMWT7V/NHXW0H8u/MOqIeM0FlKsDDtL&#xA;KPSiP0O4xYvz+xZMo/K+y+u/mP5ZtqsofU7UsVFSAkyuafQvXFX6A4sXYqll95X8s6hN61/pFldz&#xA;f79nt4pW3/ynUnFXzd/zljo3lfR/8OW2j6XZ6fc3Ju5rtrSCKBnVfSVPU9NV5blqV98Uh5h+S2jx&#xA;av8Aml5dspoFuYDdCaWFxyQrAjTHkNwR8HQ7YpL7ri07T4mVorWKNk+yVRQR8qDFirSRxyIUkUOj&#xA;dVYAg/QcVSy78p+Vb1WW80axuVf7azW0MgbtvyU1xVDaD5D8l+X7qW70TRbPT7qYUeeCFVfieqhq&#xA;VVf8kbYq+cv+cvddefzVouiKx9Kxs2unUdPUuZCu/uFgH34pDyHyF5Vn82ecNK8vxFlF9OqTSKKl&#xA;IV+OZx/qxqxxS/QHTdOstM0+206xiEFnZxJBbQr0SONQqqK+AGLF87f85kXEyweU7ZZCIZGv5JIq&#xA;7FkFuEYj2DtT54pDyr8gNGOq/m1oEZr6drK95Iw7fVo2kX73VRikp5/zlPG6/mtKzCgksbZkPiKM&#xA;v61OKAwr8wPy/wBS8m3mmxXTerBqlhb31tOBQEyxgyxmhIrHJUdelD3xSkWjavfaPq1nqthIYryx&#xA;mS4t3HZ42DCviNtxir9BvKfmXT/M3lvT9e09g1tfwrKorUo3R42/ykcFT7jFis86XbWfk7XbtG4N&#xA;baddyq5NOJSB2Br7UxV8a/8AOPmqx6b+bmgySiqXDy2vWlGnheNP+HYYsi+48WLsVfIv/OWPmaS/&#xA;8+WuhK3+jaLbKWTwnugJHP8AyLEeKQ8q8meWLvzR5p0zy/abTahOsReleEf2pJKeCRqzfRil+hGn&#xA;2Ntp9hbWFqnp2tpEkEEY/ZjjUIo+gDFi8I/PS3EX51fljeIeMk17bwMRUHjHfRGlfD98cUh79ihT&#xA;uJ0t7eWeT+7hRpHp4KKnrir8/fy4tnufzB8swISGk1WyHICpA+sJVqew3xZPd/8AnKL81rI2cvkD&#xA;TCJppGik1mcGqx+mwljgHi/JVZvDp1rRQHzLil61/wA4xeXJNV/NK1vSnK20aGa7mJ6cmQwxD585&#xA;OQ/1cVL7PxYuxV2KvkX/AJy21OK4/MOxsoySbHToxLvsHllkelP9TicUhAf84r2gn/NaOWlfqtjc&#xA;zDrtXjF/zMxUvsnFDsVdirsVfEP/ADkbfSXf5wa4G+xbfV4IweyrbRk/ezE4sgyz/nEXRhc+dtV1&#xA;Z15Lp1j6aH+WS5kAB/4CJxigvrLFD5M/5y71UT+eNK01W5LZaeJGH8sk8r1H/AxqcUhC/wDOJMMc&#xA;n5mXrsKtDpM7x+zG4t0/UxxUrP8AnLOJ0/M62Zukul27p8hNMv61OKh6T+cHlb/E/wCQWiazAnr3&#xA;2j2FnqMcgHxGB7dBcfIcCJD/AKuKvk3FL6S/5xI880k1HybeT7MPrukxse42uEWviOL8fZj44oL2&#xA;v824p5fyw81LA/Bxpd0xb/ISJmcf7JARih8JeXtZudE13TtYtv8AejTrmK6iHYtE4eh9jSmLJ+h+&#xA;k6naarpdnqdm/O0voY7i3fxjlUOv4HFiisVfA35wawur/md5kvlf1IzfSQxuOhS3pAhH+xjGLJ7B&#xA;/wA4j+SYpZdT85XK8mgY6dp4PZiqvO/z4sqg+7YoL6ZxQ+af+cnfMkui/mT5Nv4lEsukIuoJCwHF&#xA;iLkGn+y9GmKQ+jNJ1Sx1bTLTU7CUTWV7Ek9vKP2kkUMp/HFCSfmXqqaT+X3mO/Y0MOn3Ppn/AIse&#xA;MpGN/F2GKvgfSNWv9I1O21TT5PRvrORZraWgbhIu6tRqjY+OLJD3FxPczyXFxI008zNJNK5LO7sa&#xA;szMdySTUnFVPFX2B/wA4u+Qbzy95Rudc1GP0rzzA0UsETD4ltIgfRJ8DIZGanhx+hQXtOKHYq7FX&#xA;w9/zkRdtc/nD5gJ+zE1vEgrWgS1iH4mpxZBmf/OIGnSSectb1IH93bacLdl97idHH/UOcUF9XYod&#xA;irsVdir8+vzH1lNa8/eYNUiblDc39w0DDvEJCsZ2/wAgDFk+jf8AnEPR0t/Jer6sVpLf3/o18Y7a&#xA;JSv/AA8z4oL3jFD4T/PXX11z81fMFzGaw28/1KLwpaKIWI9mdGb6cWQem/8AOHuiM+q+YdcZaLBB&#xA;DZRNTqZnMsgB/wAn0Ur88UFJf+cuv/Jk6b/2xoP+oq5xUPoX8pfQv/ym8txzL60EmmQwSxyCoZVT&#xA;02Ug9V2p8sUPjj81fJh8nee9U0REZLOOT1dP5NzJtpfii+LuQPhPuMWST+VPMV55b8yabrtnvcad&#xA;Ok6pWgdVPxxk+DrVT7HFX3P5j1TTvMX5VavqVk/q2Gp6LdSxMOvCW1fY+DCtCOxxYvgLFk+0v+cY&#xA;tdbVPyotIH3fSbmexZj3AInT7knC/Rigsx/MvzR/hbyHrWuK3Ge1tmFqdv8AeiWkUPX/AIsdcUPz&#xA;9ZmZizEliakncknFk+4f+ceNJ/Rv5RaEpXjLdrNdyGlK+tM7If8AkXxxQXo+KHxR/wA5JeY4Na/N&#xA;W/SB/Uh0qKPTg3bnDyeUD/VlkdfmMWQfT35HS20v5TeWWtozFGLTgymm8iOyyNt/M4ZvpxYl5N/z&#xA;l15w1GE6T5TtpTHZ3URvtQRT/e0k4Qq3+SrRs1PGnhikPKfyc/LNPP8AqWtac0hgktdNknsp9+K3&#xA;fqxrCJP8hgWr7YpYbrWh6xomoS6dq9nLY3sJIeGZCjbGlRXqp7EbHFXuv/OPf5I+WPMNlaecNW1B&#xA;NRW3nYfoSNfgjmiaqi6LbtUUfgBQgipIqMUEvqUAAUHTFDsVdirsVfDP/OQNotr+cPmOJejSwy7V&#xA;6zW0Up6+74sg9B/5w8uOPmHzFb8h+8tIZOPc+nKRUew9TFBfUuKHYq7FUm866s2keT9c1VG4SWNh&#xA;c3EbDrzjhZlp78gKYq/O/Fk+zf8AnGyG00j8nrG8u544Ir65ublnlcIq0kMIqWNOkNcUFmOo/mv+&#xA;WmnqzXPmfTaoCWjjuYpX2/yI2du/hih8Faldm81G6u2JY3E0kpYgAkuxapA+eLJ9O/8AOKfmfyhZ&#xA;eVZ9Em1KCDzBe6hJKLOZhHJIpjjSMR8qB/snYb9cUF5z/wA5UX4ufzWkhFf9CsbaA1NftcptvD++&#xA;xUPon8gZp5vyg8tvMAHEMqAD+RLiREO3iqjFBYB/zlv5PW78vab5qt4gZ9Nl+qXsg6/V5zWMt7JL&#xA;sP8AXxSHyril9O/845ec1vvyz8x+Vbh/9J0i3ubi0Unra3CMWAH+RNyr/rDFBfMWKX1Z/wA4f36P&#xA;5S13TwxMlvfpcMnYCeFUB+n0Digo/wD5y21Ce3/LuwtIzRLzUo1mNeqRxSuFp/rBT9GKh8iYpfor&#xA;5U0kaP5Y0jSgoX6hZW9sQPGKJUP4jFipecvMtv5Y8q6pr9wvOPTrd5lj6c3ApGlf8tyF+nFX59E3&#xA;+raoSA1zqGoT7KN2kmmfoPdmbFk/QPyR5bj8s+UdI0FCCdPto4pWHRpaVlcf60hY4sXyh/zlNqa3&#xA;n5rS26tX9HWNtbMPAsGuKf8AJfFIZp/zhtCpfzbMV+NRYIr+zfWSw/4UYqXuP5gfl/oPnjy/NpGq&#xA;xgMRytLxVBlt5R9mRCf+GHcbYofJ/lnXPN35HfmLPZ6nAZLV+MeoWyE+ldWxNY54GIoSu5U/NTTf&#xA;Fk+w/LfmPR/Mmi2us6PcLc6fdryikGxBGzKw6qynZgehxYplirsVdir4e/5yKkeT85PMRdChVrVQ&#xA;p8Fs4QD/ALLriyDLv+cQpUHnzV4ifjfS2ZR4hbiEH/iQxQX1nih2KuxVgv55yPH+UvmZlIBNpxqx&#xA;4ijSKpHzIO2Kh8IYsnsjf84t/mbLY2NxbTWM8dzEkphMzo8JkUMVcOnHatDxJxRavd/84qedtP0e&#xA;/wBU1LVtMgisbaS6KRvPISIkLsrExIF2XqK4rbxTFL6e/Jj/AJx68map5S0fzRrjXVzf3n+krbpL&#xA;6UKKsh9MfuxzJISpPPv2xQS8r/5yMuBP+cevlTVY/qsY2p9m0iDf8NXFIfUf5EWBsfyj8tQEU52z&#xA;XHj/AL0SvP4n/fmLEso80+XrHzH5d1HQr6ottRgeB2H2kLD4XWv7SNRh7jFX5869ot/oetXuj6hG&#xA;Y7ywmeCdT/MhpUeIPUHuMWSaeQPONx5S8yRaqiGW2eOS1v7YGnq206lJF+Y2ZfcDFWOYq+n/APnD&#xA;lYf0X5nYKfXM9oHbahQJLxHjsS2KCzP/AJyd0M6n+VF5cKKyaTcwXyqOpHIwP9yTlvoxUPjrRJbe&#xA;LWbCW4p9XjuYWmr04CQFq19sUv0cxYvBf+csvOsVj5Ys/KcEn+matItxdoD0tYGqvL/XmAp/qHFI&#xA;eU/84zeVBrn5mW17NHzs9Dia+kJFV9UfBAK/zB25j/VxSX2hixfBH5xz3M35p+aHuQRINRnReW59&#xA;ONuEf0emq0xZPd/+cPbQp5Y8wXnGgmvY4Q++/pRcqeG3q/jigvoDFDDPzS/K/RfzA0A2F5S31CCr&#xA;6bqQXk8LnqD05I9KMtffqBirwj8mPMmu/lf+Y1x+X/mn9zYajKqKxasSXLgCG4jY0HpzCin6K04k&#xA;YpL6qxQ7FXYq+PP+cqfLd1p/5kfphoz9U1q2ieObsZbdBC6fNVRD9OKQkH/OPevjRvzY0VnfhBfs&#xA;9hLvSv1lSsQ/5HcMUl9xYsXYq7FWCfnrCs35SeZUYkAWofbxSVHH/EcVD4RxZP0oVVRQiAKqiiqN&#xA;gAOgAxYsQ/OGWWL8rfNLRfaOnTqd+PwunFt/9Unbvir4GxZP0B/K22Ft+WvlaEAqRpVmzKwoQzwI&#xA;7Ajb9pjixfFP5qa3aa3+YvmHVLOT1bS4vJPq8u/xxp+7VhXejBaj2xZPuDyBafU/Inly0pQ2+mWc&#xA;ZBpWq26A1pixT7FXzR/zlt5EjR9P86WcVDKRY6qVHUgEwSNT2BQn/VGKQ+bcUuxV9Sf84eCX9AeY&#xA;ySPSN1AFXuGEbcj9Ipigveda0m01jSL3SrxeVpfwSW0478JUKNT3ocUPzz8xaFfaBrt/ot+vG70+&#xA;d7eXagJQ0DL/AJLD4h7Ysn2Bb/8AOQXkPT/y70zXLzUFuNTmtUVtJhZWumuUULIrIP7teYPxvQU3&#xA;Fdhiing1n5P/ADJ/O3zXdeYzbi1sJ5AjX89VtYIk2WGHblKUXso6/aIril9Q/lp+V/l38v8AR3sd&#xA;K5zXNyVbUL+X+8ndAeOw+FVXkeKjp7nfFizDFXyZ/wA5U+Qb+w81jzdbQFtK1VI47qZBUR3US8KP&#xA;T7IkjVSp7kHFIes/84u2LW35TWsrR8Prt3czg/zgP6XL/klT6MVL1rFDsVeX/n7+Vo86+VWudNt1&#xA;fzLpf7zT3FFeWOtZLct35D4kr+14VOKQwL8h/wA9NYk1ePyP52kYXVfq2nX1yDHOJ0PH6tc8qVY0&#xA;orH4uXwmpIxUh9G4odirGvzB8g6J558uS6JqoZFLCW2uo6epBMvR0rt0JBHcHFXylr3/ADj/APmh&#xA;5Y80Wcek2L6wnro+n6laL+75I3JTOCf3FKblzx8GOLK32ihYopYcWIBZa1ofCuLFvFXYqw7847e5&#xA;uPyt8zxW0ZllNhKQgAY8VHJiAfBQT+rFXwPiyfot5WvHvfLGkXrij3NlbzMPeSJWP68WKTfm1bPc&#xA;/ll5oiSP1XOm3LKlKmqRlth4ilcVfAWLJ+jPlzTpNN8vaXp0hrJZWkFu58WijVD0/wBXFi+K/wA/&#xA;PKS+XPzP1O1tbUW2n3vp3mnxxqEQpMo5hFXYATB1oPDFkH2roEEtvoOmwTKUmitYUkQ9VZY1BB+R&#xA;xYo/FUp82eWtP8zeXNQ0HUFra6hC0TNSpRuqSL/lI4DD3GKvz81/RL7QtbvtGv1C3mnzvbzgbgtG&#xA;xWqnuD1HtiyS/FX13/ziTYmD8ub66YEG71OUqexSOGJB/wANyxQXt2KHkH5v/wDOPll581mHW7LU&#xA;F0nUvTEN6Wh9VJ1QUjc0ZCHUfDXeop4YptKvKH/OJ3lLSryO71/UJddMRDLaiP6rbk/8WKHkdwPD&#xA;mAe4ptitvcLa1trW3jtrWJILeFQkMMShERRsFVVoAB4DFCpirsVU7i2trmFoLmJJ4XpzikUOpoai&#xA;qtUHfFW4LeC3hWG3jSGFBRI41CqB7AUAxVfirsVdirDvNH5R+QvM+uWmuatpqyalasretGzR+twI&#xA;KicLT1AKd+23TFWY4q7FXYq7FXYq7FXYq0yq6lHAZWFGU7gg9QRir5S/Nf8A5xp8zQ+Z3u/JGni9&#xA;0a/YutossUTWsh+1H+9aMemTuhHQbHoCVNvp/QLA6doWnaeRQ2drDbkVrvFGqdfoxQjyAQQRUHYg&#xA;4q+Rvzv/ACL1+x84yXvlDQp7rQtQVJEhsYzIsE7fDJHwWrKtRzrTiOVO2KQX1XoLXraFpzX0ZivT&#xA;awm6iY1Ky+mvNSR4NXFCInsrO4eN54I5XiPKJnRWKnxUkbYqrYq7FXYq808+/wDOP3kTzprMutXz&#xA;XdlqU6qs01nIiiQovFWdZI5RXiANqdMU28B88/8AOMvn3Qr7/cHCfMGmSH93PAFSZP8AJlhZv+GU&#xA;kfLpitvob8hPLGt+W/y00/TdatxaX/qTzPbmnNFklJUSUqOVN/lQYoL0PFXYq7FXYq7FXYq8X89f&#xA;85J6f5Q/MC48s3ejvdWFmIhd38Ew9UNLGsp4wsoVuIelOYxTT1Pyv5p0LzRo0Os6HdC7sJ6hZACr&#xA;KymjI6sAysPA4oTXFXYq7FXYq7FXYq7FXYq7FXYq7FXYq7FXYq7FXYq7FXYq7FXYq7FXYq7FXYq7&#xA;FXYq7FXYq7FXYq+BPPt7J5o/NDWZrQ+odR1SSGzJ/aQy+jD/AMKFxZPuXyp5Z0ryx5fstD0uIRWd&#xA;lGEWgoXbq8jf5TtVjixTbFWEfnJ5+/wR5FvNWhI/SUxFppisKj6xKDRiD1CKrP8ARTFXzz+Rf5we&#xA;dj+Y2naZrOs3Wpabq8jW00N3K03GR1PpNGXJ4H1KCg2oenTFJfXuKHYq7FXYq7FXYq7FXYq7FXYq&#xA;7FXYq7FXYq7FXYq7FXYq7FXYq7FXYq7FXYq7FXYqkvnfWv0H5O1vVw3B7GxuJ4j/AMWJGTGB83oM&#xA;VfD/AOUelnVPzO8s2nUHUIZ3BPVLdvXcfSsZxZPvrFi7FXyP/wA5WedRq3nK28uWz8rTQoz69Dsb&#xA;q4AZ+nXhGEHseWKQ8QjkkikWSNikiEMjqSGVgaggjoRil9of843eetW81+RJBrFw11qOlXJtGuXN&#xA;ZJIuCvE0h7t8RWvelTvXFBer4oebf85A+d9S8o/l3NeaVMbbU724isrW4WhaMuGkdlrXf04mA+eK&#xA;Q8X/AC885/8AOSnm3Sp08tamtxBYPwmu7kWZl5OC4TlcKzN923jiqeS/nZ+dXkHUrKH8xtFinsLu&#xA;tJUESSsARyMcts7wFkr9givy64rT6J0bWNO1nSrXVdNnW4sLyNZbeZejK36iOhHY4oRmKvj/AP5y&#xA;J88+Yrf82L220nWL2yj02C3gVba4lhVXaNZn4iNl7uK+4xSEj8p/85E/mh5eZUk1L9M2latb6nyn&#xA;O/Wk1Vm+Xx09sU0ziy/5zD8wLclr3y7aS2pO0cM0kUgHf42EoP8AwOKKeq+T/wDnIz8s/MQSOa+O&#xA;i3rbG31GkS1/yZgTFT5sD7YrT02KWKaJJYXWSKQBkkQhlZTuCCNiDihdirsVdirsVdirsVY7+Ylh&#xA;r195J1i20C7lstZNuXsbiA8ZPUiIkCK3b1OPD6cVfEEX5pfmXFIJF816uWXoGvrhx9Ks5BxZPury&#xA;fraa75V0jWEk9T6/aQzs9APjdAXBA2BDVBGLFN8VdiqA1nX9D0O0+uazqFvp1rXiJrqVIlLdeILk&#xA;VPsMVQui+dPKGuOI9G1qx1CYgn0ba4ikkoOtUViw+7FU5xV5L/zlBrq6b+VVzaBuMur3MFog70Vv&#xA;Xf6OMND88Uh4H/zjPpsl5+b2lzKoaOwhurmYEV+H0HhU/Q8y4pL7WxYpV5r8x2Plry3qOvXxAttP&#xA;gaZlJpzYCiRg+LuQo9zir89tV1O81XVLvU71/Uu76aS4uH8ZJWLsfvOLJPfPvkufyjdaTYXXIX93&#xA;pkF/extt6ctw8h9OnbggVT/lVxV7/wD84e1/w55h8PrkND/zyOKC+gsUPnH/AJzF1UrZ+WtJU7Sy&#xA;XN1KPD01jjj+/wBR8UhP/wDnEeyji/LvULqg9W51SUFh14RwQhQfkSx+nFSz383PJNt5x8ianpbR&#xA;CS9jia40x6fElzEpZOJ/y/sH2OKHjH/OI/nW4+t6n5Pupi1uY/r+mxsdkZWCzov+tzVqexPc4pL6&#xA;ZxQ+A/zaufrH5n+apKk8dUuo/i6/upWj+74dsWSZfkR5etde/NPRLK8hS4skeW4uYZFDoywRO6hl&#xA;YEEFwo3xUvrq+/J/8rr4ET+V9OWooTBAlufvhEfjixeXecf+cSNBuY57jypqUthckForG7PrW5P8&#xA;gkAEqD3bmcU28+/LT8xvNn5TecW8p+aRImiLMIr+ykPMW3qbrcW5Ffh+IOQuzL74q+wI5I5Y1kjY&#xA;PG4DI6kFWUioII6g4oXYq7FXYq7FXYq7FXwR+b3k2Xyj+YGq6VwKWjym6049mtpyWjp48N0PupxZ&#xA;PoT/AJxR86jU/KFz5YuHH1vQ5C9sK/E1rcMX6d+EvIH2K4oL3PFCD1nV7HRtJvNVv5BFZ2ML3Fw5&#xA;7JGpY08TtsMVfA/n/wA/a9538wTavq0pIJK2loCfSt4a/DHGP1nqTucWSR6bqN9pmoW+oWEz295a&#xA;yLLBNGSrK6moIIxV+ieh6pFq2iafqsIpFqFtDdRj/JmjEg/BsWL5I/5yd8/R+YfOqaLYz+ppugK0&#xA;LcTVGu3P78inXhxVPYg4pDL/APnD3y9v5g8xyJ/vrTraT/ktOP8Ak1ipfSuKHzH/AM5Y/mEZbq18&#xA;j2Mn7qDheauVPWRhWCE/6qnmR7r4YpDzP8jPI8nm78w9Otnj5adp7C/1IkfD6ULAiM/8ZH4p8iT2&#xA;xSWS/wDOV/8A5NCL/tmW/wDyclxQHpf/ADiD/wAoRrP/AG0z/wBQ8eKl7xih8kf85dXbyfmHplsH&#xA;5RwaVG3DsryXE/L71VcUh6p/zinamH8rDIa/6TqFxKOvZY4+/wDxj7YqXseKHxL+Xt5H5f8A+cg7&#xA;RYSVhXWrjT1A/kuJJLVQf+RgxZPtrFi/Pn8yJUl/MTzTKhqkmr37KemzXMhGLJ6l/wA4i6YJ/Peq&#xA;agwqtlpzIh8HnmQA/wDAowxQX1pih2Kvnf8A5y+8sWraRo3meOMC7iuDp1w4G7RyI8sfL/UaNqf6&#xA;2KQjv+cVPzB1DWNGvfK2pSeq+ipHJp0jGrm2csrRn2iYLx9mp2xUvesUOxV2KuxV2KuxV4r/AM5Q&#xA;/l8de8oJ5isouep6ByeYKPieyf8AvR7+mQH9hy8cUh8//kR5lPl/80tEuXlMVrdymxut6KyXI9Ne&#xA;XsshRvoxSX3VixfMX/OU/wCaBnuV8iaXN+4gKza26HZpNmit6+CbO3vTuDikPCvKflnUfM/mPT9B&#xA;04VutQlESsQSqL1eRqfsogLH2GKUDqen3Gnald6fcjjc2c0lvOvg8TFGH3jFX2b5N84W+gf8486d&#xA;5imdR+j9JIhB2DTRVhij37tIFXFD4sllkmleWVi8sjF3dtyWY1JPzOKX3R+RXlU+Wvyx0e0lThd3&#xA;cZv7sdD6lz8ag+6x8FPyxYlknnTzXp/lPyxqGv35/cWMRdY60Mkh+GOJT4u5C4q/P/XdZv8AW9Zv&#xA;dX1B/Uvb+Z5537cnNaDwA6AdhiyfX3/ONPkJPLfkKPVp1pqfmIJdyk/s24B+rIPmjF/9lTtigvGP&#xA;+cr/APyaEX/bMt/+TkuKh6j/AM4hxIPy91WYV5vq8qHwoltbkf8AEzipe5YofFX/ADk1qP1z83dT&#xA;iB5LYwWtsDWo/uVlIG56NKcWQfS/5Daetj+UfluILxMlu1w3ubiV5a/c+LEr/wA3PzU0jyD5elnk&#xA;kSXW7pGXSrCtWeQigkde0aHdj36DfFXyJ+VFrf6x+bHlsqTNdNqsF5O53JEEouJWP+xRjiyfe2LF&#xA;+eXnr/lN/MP/AG07z/qIfFk93/5w2RC/m5yBzUaeA3cA/WSR+AxQX0tih2KvK/8AnJqxS5/KDVJm&#xA;pWyntJ0r4tcJDt9EpxSHg/8Azi3qn1P82Le2rT9JWdzbU8eKi4/5kYqX2Zih2KuxV2KuxV2KrZI4&#xA;5Y2jkUPG4KujCoIIoQRir4B/MzyfJ5O886roNSYbaXnZvvvbygSQmviEYA+4OLJ9K2/53xW35BQ+&#xA;aTcCbzAkY0oK9Cx1ILxDuO/wD1z4jFFPka6urm7uZbq5laa5ndpJpnJZndzVmYnqSTil9Q/84p/l&#xA;wlnpcvni+Wt1qAe20pCPsW6vxlk3/akdOI/yR/lYoLyz/nJDyhN5f/Mu9uwv+ha5/uQtn7c32nU+&#xA;4lBb5EYpDHNU/MK9vfyz0XyUC6QaZeXVxNSgSSOQq8A2NSUkkmqCKfZ+hVL/AMv/AC4PMvnXRdDa&#xA;oivrqOOcjciIHlKRT/IU4q/QK6urLT7KW5uZY7WytYy8srkJHHGgqSSaAAAYsXxt+fP5zHz3qcem&#xA;6SXj8tae5aAOOLXE26+uy9lA2QHehJO5oFkAw/yF+W3mrz1fz2egW6yG1QSXM8z+nFGGNFDNQ/Ex&#xA;GwHv4YqzEflX/wA5D+VkePTIdTt7cd9Kvqqw67JBLz+9cVeeeabHzTZ6xInmeO7TV5FWSb6+XNww&#xA;b7LOZCW3p3xV9S/84jkn8tb+qgAavPQgUqPq1vufHwxQXtuKHwf+d96l5+bHmaVOi3hhPzgVYj+K&#xA;Ysg9Duf+cqLvT/KWnaF5W0VbK4s7OG0F7dOJVj9KMR1jiAAJ+GoLt81OKKeMTTeZfNeumSQ3Osa1&#xA;fv2DTTSMewAqaDsBsB7YpfVf5A/kdP5NV/MPmAI3mG5j9OC2UhhaRNuwLDYyP0NOg2BNTigl7Tih&#xA;+eHnaRJPOevSIeSPqN2ynxBncjFk95/5w2dA/m6Mn42GnsF8Qv1kE/8ADDFBfS2KHYq8h/5ym1Bb&#xA;X8qJoD1v722t1+alp/HwhxSHi3/OKtj9Z/NQTUr9SsLmf5cikPj/AMXYqX2Pih2KuxV2KuxV2Kux&#xA;V8of85e6MYPOOj6uqER31iYC3YyW0pJ+njMuKQ8J9ef0Pq/qN6Bb1DFU8OYFOXHpWm1cUonRtJvN&#xA;Y1ey0myXnd388dtAp6c5WCLX2qd8VfoZ5d0W10LQdO0a1H+j6dbxW0Z6VESBeR92pU4sXm//ADkt&#xA;5LTzD+XM+oRJW/0Am+ham5hpS4X5cPj/ANiMUh8XYpe3/wDOJmgLffmBd6tItU0iycxnwmuGES/8&#xA;k/UxQXoH/OV3nyCw8t2/lC0m/wBP1R0nvkX9m0iJKhv+Mkqinsp8cVD5WtLW5vLqG0tY2mubh1ig&#xA;hQVZ5HIVVUdySaDFL7z/ACo8g23kfyXZaMoU3xHr6nOtP3lzIAX37hNkX2AxYswxV8Vf85MzXD/n&#xA;Bqqy04RQ2iQU68Dboxr782bFkHu3/OK8Mcf5UxurVaa+uXkHgw4pTp4KDigvX8UPgO9hi8w/mvPC&#xA;xM0Wr686Ejq63N4RtxPcP2xZPUvz0/5x5sfLmmXHmnyq0n6NhcNf6W55+gjmnqQufiKKxFVapHWt&#xA;OigF6p/zjrfeSNT8kx3mgaRbaVqUFLTV0iHKVpEAIZpWrKySD4l5HY1HbFS9WxQ7FX5z+YpUl8wa&#xA;nLGapJdzsh6VBkYjriye1f8AOIEjjznrcYPwNpwZh7rOgH/Ejigvq7FDsVfLv/OXPnG3utU0rypb&#xA;OHbTw15qAG4WWYBYUP8AlLHyY+zDFIUP+cPrAv5o1/UKClvYx25NN/38wfr/AM8MVL6pxQ7FXYq7&#xA;FXYq7FXYq8v/AD6/KrVvzA0TT4tJuIIb/TJZJUS4LKsiyIAVDqG4mqjqPpGKQ+MdV0u/0nUrrTNQ&#xA;ha3vrOVoLmFqVV0NGFRUH5jril7B/wA4seS5dX88v5hlWljoCFgT0e5uEaONf9ivJ/YgeOKC+vsU&#xA;IbVNOt9T0y7025r9WvYZLefiaNwlQo1DvvRsVfF353/kzN+XupW9xYyy3nl6/qLa4lA5xSruYZWU&#xA;BSeO6tQct9tsWQelf84cWdwtv5qvCKW8r2UKNTq8YmZhX2Ei/figs5/5yV8oya/+W891aWq3GoaR&#xA;Kl3GyqDMIRVZlQ05U4tzYd+PtioeRf8AOKnkWDVfNl95hv46p5fCLbRONvrU/MBjXvEqH5Eg9sVL&#xA;60xQ7FXxr/zlHpV9bfmjc38sMi2l9b27W85RhGxjiEbqr9GKld8Uh69/ziTdLL+W19DsHg1WYEd6&#xA;NBCwP4kfRipexatcm10q9uRWsEEsg4/a+BC23vtih8Jfk4kD/mn5XE/2BqEDD/XVqp/w4GLJ94X9&#xA;jaahY3FjeRia0uo3huIW6PHIpVlPzBxYvlDyHe3n5N/nVdeXtVcjRNSdbZ522VoJGJtLrsPhJ4v/&#xA;AC1fwxS+tsULJhKYXEJAlKn0y3QNTav04q/NuQOHYSAhwSHDda961xZPb/8AnFfzB5c0TzBrtzre&#xA;pWmmrJZxpDLeTRwBv3nJlQyMtTsNhigve9S/Pj8pNPVjN5kt5SBstsstwTsNh6KOO+KKebeeP+ct&#xA;dHitJbbydYy3N64KrqF6ojhjr+0sQJeQ+zcfp6Ypp84xxeYvNnmEiNJtV1zVJizBRykllc1JNNgP&#xA;HsB4DFL7W/Jb8tU8heTo7GcI2s3jfWNVmTcGQ7JGrd1jXb51PfFiWfYq7FXYq7FXYq7FXYq7FXlX&#xA;5p/84++XfPmqx6wl4+kasQqXc8UYlSdEFF5oWT41AADV6bEHaim2Xflz+X2j+RPLaaHpjPMvqPPc&#xA;3UoUSSyvQFm4gDZVCgeAxQyfFXYqhdT0vTdVsJtP1K1ivLK4XjNbToHjYdd1ao67jFVPRdC0bQ9P&#xA;TTtHsobCxjJK28CBEq3ViB1J7k4qjsVaCqCWAFT1Pc0xVvFXYqxD81/Iw86+R9Q0OMRC+cLLp002&#xA;yx3EbclPIBivIVQkDoTirFP+ce/yw8z+Q9L1eHXng5388TwQwSGQKIlZWZjxUfFyHTwxSXrWKHmZ&#xA;/IPyhF+ZFl51sa2RtnM8ulRov1d7jiQsq7j06MQxAFCR23xTb0zFDyT/AJyF/KS5876HBqOjxq3m&#xA;DSQ3oxEhTcQNu0PI/tAjklduo74pCd/kj5m8wa15Kjt/MNhc2Gs6O40+7+tI0bzekilJaOFapVgG&#xA;9wT3xQXoGKvhz82vyh80+UfMd44s5brRLmZ5bC/gRpE4OxZY5CK8HUGhDdeoriyR35N/klc+e7nU&#xA;P0m93pVjaRK0N0ICVkldqcQ0nEGgBJAxW3oq/wDOG9t6pLebHMPZBYgN/wAF9YI/4XFFp/pn/OI/&#xA;kC34tf6jqN846qHihjP0LGz/APD4rb1Dyj+X3k7yjbmHy/pcNkXFJZwC87j/AC5nLSEe1aYoZDir&#xA;sVf/2Q==</xmpGImg:image>
               </rdf:li>
            </rdf:Alt>
         </xmp:Thumbnails>
      </rdf:Description>
      <rdf:Description rdf:about=""
            xmlns:xmpMM="http://ns.adobe.com/xap/1.0/mm/"
            xmlns:stRef="http://ns.adobe.com/xap/1.0/sType/ResourceRef#"
            xmlns:stEvt="http://ns.adobe.com/xap/1.0/sType/ResourceEvent#">
         <xmpMM:RenditionClass>proof:pdf</xmpMM:RenditionClass>
         <xmpMM:OriginalDocumentID>uuid:65E6390686CF11DBA6E2D887CEACB407</xmpMM:OriginalDocumentID>
         <xmpMM:DocumentID>xmp.did:E4C104490E2068118083D2E7312FE8C2</xmpMM:DocumentID>
         <xmpMM:InstanceID>xmp.iid:E4C104490E2068118083D2E7312FE8C2</xmpMM:InstanceID>
         <xmpMM:DerivedFrom rdf:parseType="Resource">
            <stRef:instanceID>uuid:fc213720-6988-a94a-86b4-71f4674bd6c5</stRef:instanceID>
            <stRef:documentID>xmp.did:4c9e4637-67c5-4c36-97fe-13d7b1bde424</stRef:documentID>
            <stRef:originalDocumentID>uuid:65E6390686CF11DBA6E2D887CEACB407</stRef:originalDocumentID>
            <stRef:renditionClass>proof:pdf</stRef:renditionClass>
         </xmpMM:DerivedFrom>
         <xmpMM:History>
            <rdf:Seq>
               <rdf:li rdf:parseType="Resource">
                  <stEvt:action>saved</stEvt:action>
                  <stEvt:instanceID>xmp.iid:4c9e4637-67c5-4c36-97fe-13d7b1bde424</stEvt:instanceID>
                  <stEvt:when>2017-09-19T15:51:02-04:00</stEvt:when>
                  <stEvt:softwareAgent>Adobe Illustrator CC 2017 (Macintosh)</stEvt:softwareAgent>
                  <stEvt:changed>/</stEvt:changed>
               </rdf:li>
               <rdf:li rdf:parseType="Resource">
                  <stEvt:action>saved</stEvt:action>
                  <stEvt:instanceID>xmp.iid:E4C104490E2068118083D2E7312FE8C2</stEvt:instanceID>
                  <stEvt:when>2017-09-27T17:09:27-04:00</stEvt:when>
                  <stEvt:softwareAgent>Adobe Illustrator CS6 (Macintosh)</stEvt:softwareAgent>
                  <stEvt:changed>/</stEvt:changed>
               </rdf:li>
            </rdf:Seq>
         </xmpMM:History>
      </rdf:Description>
      <rdf:Description rdf:about=""
            xmlns:illustrator="http://ns.adobe.com/illustrator/1.0/">
         <illustrator:StartupProfile>Web</illustrator:StartupProfile>
      </rdf:Description>
      <rdf:Description rdf:about=""
            xmlns:xmpTPg="http://ns.adobe.com/xap/1.0/t/pg/"
            xmlns:stDim="http://ns.adobe.com/xap/1.0/sType/Dimensions#"
            xmlns:xmpG="http://ns.adobe.com/xap/1.0/g/">
         <xmpTPg:NPages>1</xmpTPg:NPages>
         <xmpTPg:HasVisibleTransparency>False</xmpTPg:HasVisibleTransparency>
         <xmpTPg:HasVisibleOverprint>False</xmpTPg:HasVisibleOverprint>
         <xmpTPg:MaxPageSize rdf:parseType="Resource">
            <stDim:w>261.299805</stDim:w>
            <stDim:h>244.733887</stDim:h>
            <stDim:unit>Points</stDim:unit>
         </xmpTPg:MaxPageSize>
         <xmpTPg:PlateNames>
            <rdf:Seq>
               <rdf:li>Cyan</rdf:li>
               <rdf:li>Magenta</rdf:li>
               <rdf:li>Yellow</rdf:li>
               <rdf:li>Black</rdf:li>
            </rdf:Seq>
         </xmpTPg:PlateNames>
         <xmpTPg:SwatchGroups>
            <rdf:Seq>
               <rdf:li rdf:parseType="Resource">
                  <xmpG:groupName>Default Swatch Group</xmpG:groupName>
                  <xmpG:groupType>0</xmpG:groupType>
               </rdf:li>
            </rdf:Seq>
         </xmpTPg:SwatchGroups>
      </rdf:Description>
      <rdf:Description rdf:about=""
            xmlns:pdf="http://ns.adobe.com/pdf/1.3/">
         <pdf:Producer>Adobe PDF library 15.00</pdf:Producer>
      </rdf:Description>
   </rdf:RDF>
</x:xmpmeta>
                                                                                                    
                                                                                                    
                                                                                                    
                                                                                                    
                                                                                                    
                                                                                                    
                                                                                                    
                                                                                                    
                                                                                                    
                                                                                                    
                                                                                                    
                                                                                                    
                                                                                                    
                                                                                                    
                                                                                                    
                                                                                                    
                                                                                                    
                                                                                                    
                                                                                                    
                                                                                                    
                           
<?xpacket end="w"?>
	</metadata>
<g>
	<defs>
		<rect id="SVGID_1_" width="261.3" height="244.734"/>
	</defs>
	<clipPath id="SVGID_2_">
		<use xlink:href="#SVGID_1_"  overflow="visible"/>
	</clipPath>
	<path clip-path="url(#SVGID_2_)" fill="#231F20" d="M114.55,92.445c-0.097-0.151-1.238-1.029-1.892-1.384
		c-0.729-0.396-1.06-1.049-0.957-1.652c0.104-0.603,1.256-2.314,2.321-3.162c0.946-0.752,0.722-2.088,0.796-3.024
		c0.073-0.935,0.965-1.435,1.962-0.993c0.17,0.076,0.665,0.017,0.863,0.012c1.289-0.039,2.291-0.065,3.575,0.005
		c1.181,0.064,2.349,0.357,3.525,0.527c0.538,0.078,4.316,0.453,4.706,0.431c2.037-0.115,3.911,0.364,5.731,1.29
		c1.199,0.611,2.514,1.003,3.786,1.461c1.24,0.446,2.386,1.04,3.203,1.818c0.924,1.743,1.784,3.307,2.578,4.905
		c0.326,0.657,0.668,1.373,0.728,2.085c0.194,2.397,1.026,4.781,0.214,7.216c-0.139,0.416-0.145,0.89-0.139,1.337
		c0.02,2.052-0.434,4.035-0.869,6.019c-0.202,0.92-0.448,1.834-0.741,2.729c-0.152,0.462-0.448,0.877-0.514,1.002
		c-0.648,2.581-1.039,4.883-2.521,6.808c-0.604,0.784-1.072,1.677-1.706,2.433c-0.702,0.839-1.536,1.566-2.288,2.365
		c-0.728,0.774-1.479,1.386-2.612,1.609c-0.727,0.145-1.35,0.816-2.003,1.241c-0.131,1.166,0.733,1.814,1.287,2.474
		c1.055,1.255,2.065,2.54,2.999,3.877c0.582,0.833,1.157,1.647,2.016,2.197c1.259,0.808,2.134,1.94,2.926,3.178
		c0.619,0.967,1.373,1.849,1.989,2.816c0.851,1.338,1.651,2.708,2.432,4.089c0.643,1.141,1.396,2.048,2.567,2.802
		c1.604,1.033,3.09,2.345,4.099,4.068c0.296,0.506,0.76,0.912,1.127,1.379c0.387,0.493,1.183,1.048,1.183,1.591
		s-0.948,1.375-1.38,1.498c-0.43,0.123-1.324,0.123-1.465,0.123c-0.14,0-0.332-0.16-0.445-0.254
		c-1.521-1.251-3.093-2.442-4.647-3.65c-0.939-0.73-1.631-1.582-2.081-2.691c-0.59-1.453-1.509-2.691-2.705-3.727
		c-0.29-0.25-0.489-0.612-0.705-0.938c-0.855-1.285-1.781-2.497-3.129-3.322c-0.244-0.148-0.413-0.417-0.616-0.632
		c-1.541-1.628-3.1-3.238-4.615-4.891c-1.308-1.427-2.573-2.895-3.845-4.354c-0.556-0.639-0.991-1.419-1.644-1.926
		c-0.648-0.504-1.469-0.87-2.271-1.073c-1.124-0.285-1.893-0.777-2.57-1.805c-0.707-1.069-1.474-2.088-2.047-3.25
		c-0.331-0.669-0.998-0.688-1.188-0.6c-0.19,0.089-0.174,0.767-0.164,1.155c0.006,0.248,0.091,0.507,0.049,0.742
		c-0.406,2.295-0.836,4.586-1.247,6.88c-0.052,0.291-0.108,0.61-0.041,0.889c0.37,1.545,0.158,3.063-0.087,4.597
		c-0.155,0.97-0.291,1.959-0.273,2.938c0.044,2.411-0.529,4.727-0.956,7.067c-0.139,0.769-0.272,1.572-0.192,2.337
		c0.107,1.033-0.185,1.979-0.375,2.949c-0.091,0.462-0.185,1.149-0.488,1.382c-0.302,0.234-2.714,0.24-3.051,0
		c-0.337-0.237-1.371-1.59-1.742-1.653c-0.234-0.041-1.697-2.402-1.762-2.499c-0.127-0.347-0.196-0.885-0.242-1.015
		c-0.464-1.314-0.783-2.276-1.157-3.662c-0.283-1.047-0.523-2.181-0.419-3.24c0.186-1.899,0.532-3.783,1.008-5.658
		c0.555-2.19,0.665-4.492,0.962-6.747c0.136-1.033,0.212-2.077,0.395-3.104c0.25-1.394,0.706-2.704,1.754-3.746
		c0.837-0.832,1.326-1.844,1.471-3.039c0.095-0.788,0.361-1.554,0.479-2.34c0.176-1.179,0.3-2.366,0.426-3.552
		c0.209-1.965,0.451-3.928,0.582-5.899c0.086-1.286-0.022-2.584-0.001-3.876c0.021-1.283,0.205-2.571,0.123-3.844
		c-0.168-2.615,0.596-5.207,0.136-7.821C114.685,93.35,114.647,92.595,114.55,92.445 M121.512,107.598
		c0.126,0.325,0.016,0.996,0.005,1.394c-0.064,2.268-0.485,4.485-0.486,6.873c-0.001,0.487-0.022,1.163,0.124,1.221
		c0.147,0.059,0.502-0.244,0.726-0.46c0.542-0.526,0.923-0.941,1.32-1.422c1.296-1.563,2.38-3.341,3.852-4.706
		c1.156-1.072,1.523-2.285,1.707-3.663c0.545-4.103,1.766-8.049,2.805-12.033c0.434-1.665-0.298-2.981-0.819-4.391
		c-0.093-0.252-0.386-0.476-0.64-0.614c-0.651-0.353-1.492-0.764-1.869-0.796c-0.377-0.032-3.431,1.099-5.043,1.75
		c-0.713,0.288-1.578,0.471-1.788,1.352c0,1.161-0.061,2.263,0.016,3.355C121.501,96.569,121.386,107.272,121.512,107.598"/>
	<path clip-path="url(#SVGID_2_)" fill="#231F20" d="M228.683,161.079c-0.29,0.335-2.164,0.433-2.613,0.337
		c-0.45-0.098-0.663-0.253-1-0.35c-0.886-0.252-1.462-0.821-1.828-1.654c-0.178-0.405-0.425-0.782-0.66-1.16
		c-0.567-0.917-1.237-1.729-2.047-2.47c-0.547-0.5-0.942-1.297-1.13-2.03c-0.326-1.264-0.56-2.537-0.299-3.905
		c0.217-1.143,0.041-2.363,0.019-3.547c-0.022-1.238,0-2.481-0.122-3.709c-0.177-1.786-0.194-3.562,0.021-5.34
		c0.013-0.099-0.006-0.2-0.016-0.302c-0.306-3.184,0.286-6.289,0.709-9.427c0.32-2.371,0.896-4.653,1.489-6.956
		c0.453-1.753,0.683-3.563,1.007-5.347c0.027-0.146,0.183-3.693,0.421-5.288c0.263-1.743,0.585-3.489,0.859-5.226
		c0.451-2.862,1.307-5.596,2.153-8.332c0.434-1.402,1.255-2.707,2.038-3.97c0.513-0.828,1.056-2.374,1.836-2.393
		c0.779-0.018,1.896-0.281,2.517-0.281c0.622,0,1.308,0.318,1.839,0.556c0.439,0.197,2.065,1.27,2.323,1.477
		c0.34,0.273,0.263,0.51,0.555,0.835c0.195,0.216,1.741,2.685,1.543,3.946c-0.204,1.301-0.589,2.511-1.414,3.568
		c-0.27,0.347-0.424,0.786-0.622,1.188c-0.286,0.58-0.593,1.153-0.842,1.749c-0.209,0.501-0.307,1.049-0.521,1.546
		c-1.295,2.992-1.549,6.244-2.224,9.376c-0.548,2.549-1.134,5.112-1.51,7.704c-0.035,0.242-0.036,0.507,0.021,0.743
		c0.275,1.144,0.005,2.268-0.152,3.383c-0.208,1.463-0.801,4.177-0.767,4.454c0.033,0.274,0.717,0.808,0.976,0.829
		c0.258,0.019,3.284-0.52,4.987-0.855c1.118-0.22,6.97-0.851,8.27-0.98c0.82-0.395,1.013-1.051,0.951-1.698
		c-0.313-3.272,0.611-6.346,1.463-9.424c0.519-1.872,0.759-3.786,1.098-5.686c0.254-1.417,0.465-2.842,0.683-4.266
		c0.291-1.9,0.757-3.776,0.508-5.736c-0.099-0.772-0.048-2.224,0.104-2.564c0.131-0.296,1.658-3.998,2.177-6.915
		c0.075-0.422,0.079-0.644,0.153-1.205c0.074-0.561,1.009-0.963,1.639-0.941c0.357,0.012,0.727,0.166,1.111,0.286
		c0.608,0.187,1.6,0.342,2.001,0.646c0.401,0.303,3.33,3.926,3.459,4.25c0.13,0.323,0.257,3.119-0.217,4.793
		c-0.158,0.561-0.404,1.106-0.481,1.676c-0.352,2.587-0.934,5.132-1.027,7.768c-0.083,2.306,0.105,4.641-0.445,6.927
		c-0.531,2.212-1.028,4.432-1.487,6.659c-0.248,1.203-0.429,2.425-0.547,3.648c-0.047,0.471,0.081,1.448,0.375,1.488
		c0.265,0.035,2.127,0.35,3.528,1.103c0.821,0.439,1.493,1.282,1.723,1.79c0.229,0.506-0.722,1.059-1.474,1.152
		c-0.998,0.123-1.996,0.269-2.998,0.34c-0.747,0.053-1.647,0.542-1.775,1.01c-0.129,0.466-0.332,2.149-0.447,3.285
		c-0.205,2.009-0.431,4.02-0.569,6.035c-0.141,2.072-0.116,4.158-0.3,6.226c-0.118,1.316-0.8,3.712-0.796,4.215
		c0.002,0.284,0.635,4.355,0.922,6.747c0.006,0.057,0.062,0.529-0.285,0.713c-0.933,0.497-1.352,0.54-1.934,0.564
		c-0.626,0.026-1.404-0.409-2.762-0.812c-0.069-0.02-0.289-0.087-0.439-0.397c-0.635-1.319-1.438-4.049-2.11-4.324
		c-0.673-0.273-1.633-1.416-2.25-2.543c-0.262-0.477-0.224-1.152-0.217-1.736c0.014-0.981,0.385-2.046,0.119-2.929
		c-0.5-1.664-0.133-3.305-0.297-4.924c-0.15-1.482,0.226-2.854,0.281-4.278c0.052-1.372,0.804-4.064,0.743-4.285
		c-0.058-0.22-0.598-0.718-1.001-0.808c-0.605-0.137-1.367-0.201-1.896,0.052c-1.411,0.679-2.932,0.395-4.379,0.681
		c-0.506,0.1-1.044,0.09-1.576,0.237c-1.2,0.333-2.359,0.12-3.499-0.396c-0.722-0.326-1.463-0.746-2.365-0.486
		c-0.105,0.032-0.273,0.2-0.403,0.381c-0.131,0.182-0.871,1.672-0.721,2.925c0.092,0.75-0.207,1.554-0.358,2.325
		c-0.237,1.204,0.149,2.401,0.086,3.572c-0.182,3.288,0.682,6.47,0.785,9.715c0.048,1.521-0.202,3.051-0.346,4.575
		C228.934,159.45,228.971,160.742,228.683,161.079"/>
	<path clip-path="url(#SVGID_2_)" fill="#231F20" d="M206.95,182.962c0.058-0.463-0.528-1.093,0.36-2.134
		c0.889-1.042,3.282,0.058,4.719-0.151c1.436-0.21,6.937,2.364,8.149,2.549c0.438,0.067,0.898,0.121,1.328,0.056
		c2.755-0.422,5.351,0.253,7.861,1.236c2.186,0.858,4.326,1.802,6.594,2.466c2.345,0.687,4.203,2.244,5.981,3.896
		c1.306,1.215,2.752,3.746,3.012,4.222c0.259,0.478,1.998,2.997,3.114,4.134c0.307,0.311,0.62,0.708,0.721,1.116
		c0.547,2.228,1.22,4.449,1.473,6.716c0.197,1.749,0.796,3.675,0.599,4.95c-0.198,1.276-0.979,7.312-1.154,11.094
		c-0.034,0.708-0.548,3.896-0.553,4.085c-0.044,1.472-0.998,2.431-1.624,3.772c-0.378,0.813-0.867,1.716-1.416,2.419
		c-0.642,0.819-1.488,1.658-2.332,2.237c-2.341,1.605-4.523,2.656-7.211,3.566c-0.97,0.327-6.686,1.062-7.582,1.168
		c-1.14,0.133-2.299,0.127-3.423,0.333c-0.953,0.175-1.862,0.175-2.813,0.028c-1.615-0.247-3.241-0.432-4.869-0.568
		c-0.389-0.033-0.854,0.18-0.975,0.438c-0.121,0.259,0.103,2.27-0.186,2.712c-0.123,0.19-0.945,0.842-1.075,0.869
		c-0.131,0.029-2.639,0.503-2.883,0.503c-0.245,0-2.098,0.257-3.089-0.3c-0.139-0.079-3.828-2.026-4.769-4.386
		c-0.143-0.356-0.459-2.005-0.431-3.239c0.025-1.038-0.495-3.847-0.461-4.185c0.212-2.054,0.519-4.101,0.651-6.157
		c0.138-2.164,0.097-4.339,0.175-6.507c0.042-1.174,0.15-2.346,0.263-3.516c0.09-0.94-0.25-1.829-0.129-2.814
		c0.22-1.76,0.079-3.562,0.098-5.346c0.021-2.18-0.021-4.364,0.1-6.54c0.08-1.429,0.189-5.661,0.128-6.347
		c-0.12-1.343,0.232-2.668,0.228-3.979c-0.011-2.471,0.729-4.78,1.126-7.161C206.688,184.003,206.892,183.424,206.95,182.962
		 M218.066,194.192c-0.036,0.303-0.577,3.562-0.801,4.768c-0.278,1.509-0.448,3.041-0.633,4.567
		c-0.159,1.33-0.422,2.671-0.374,3.998c0.11,2.963-0.027,5.922-0.005,8.882c0.008,1.229,0.046,2.482,0.283,3.684
		c0.541,2.753,0.768,5.509,0.462,8.3c-0.113,1.023-0.125,1.954-0.24,2.978c-0.083,0.733-0.097,2.019-0.13,2.323
		c-0.032,0.304-0.055,2.161,0.141,2.265c0.196,0.101,2.59-0.124,3.825-0.205c0.943-0.063,1.962,0.04,2.801-0.297
		c0.978-0.394,1.94-0.251,2.884-0.422c1.952-0.354,3.923-0.583,5.84-1.272c2.971-1.066,5.272-2.86,6.912-5.477
		c1.271-2.029,2.131-4.241,2.651-6.623c0.597-2.721,0.959-5.454,1.177-8.217c0.096-1.229,0.291-2.479,0.167-3.688
		c-0.291-2.829-0.735-5.641-1.146-8.456c-0.171-1.18-0.559-2.276-1.061-3.387c-0.674-1.491-1.759-2.643-2.634-3.96
		c-0.594-0.896-4.823-2.828-3.985-2.471s-3.11-0.733-4.209-1.318c-1.065-0.567-2.192-0.873-3.423-0.968
		c-2.316-0.181-7.57-1.147-7.574-0.291C218.992,189.267,218.269,192.464,218.066,194.192"/>
	<path clip-path="url(#SVGID_2_)" fill="#231F20" d="M50.533,52.28c-0.013-0.017,0-0.047,0.005-0.064
		c0.324-1.104,1.41-1.178,1.999-1.855c0.728-1.43,0.551-2.898,0.187-4.433c-0.274-1.153-0.272-2.371-0.399-3.559
		c-0.058-0.548-0.092-1.103-0.204-1.642c-0.336-1.613-0.297-3.238-0.211-4.869c0.042-0.786-0.502-1.014-0.039-2.359
		c0.208-0.606,0.045-1.082-0.038-2.268c-0.101-1.445-0.178-3.669-0.509-4.999c-0.515-2.07-0.796-4.252-0.779-6.381
		c0.011-1.336-0.266-4.67-0.325-5.016c-0.082-0.475-0.223-0.954-0.211-1.428c0.064-2.476-0.156-4.937-0.28-7.404
		c-0.027-0.536,0.091-0.783,0.155-1.544c0.063-0.761,0.852-2.22,1.002-2.46C51.279,1.367,53.479,1,54.216,0.704
		c0.546-0.22,1.099-0.602,1.648-0.598c1.322,0.008,2.632-0.247,3.974,0.008c1.749,0.331,4.735,0.633,4.982,0.596
		c0.247-0.037,0.873,0.026,1.251,0.278c0.156,0.104,0.414,0.218,0.857,0.361c1.735,0.559,3.255,0.705,4.895,1.601
		c1.747,0.955,3.591,1.731,5.387,2.596c0.315,0.151,0.62,0.329,0.913,0.52c1.797,1.171,3.624,2.301,5.375,3.538
		c1.701,1.201,3.33,2.508,4.979,3.782c0.989,0.764,2.058,1.459,2.912,2.356c1.57,1.65,2.877,3.495,3.758,5.643
		c0.715,1.743,0.825,3.59,1.219,5.388c0.454,2.074,0.249,4.167,0.239,6.26c-0.007,1.586-0.051,3.157-0.188,4.742
		c-0.129,1.493-0.609,2.834-1.202,4.143c-0.505,1.117-1.303,2.103-1.802,3.221c-0.416,0.933-1.104,1.506-1.863,2.096
		c-0.785,0.612-1.574,1.253-2.218,2.005c-1.334,1.557-3.149,2.413-4.818,3.475c-1.087,0.692-2.246,1.282-3.416,1.822
		c-1.027,0.475-2.074,0.895-3.221,1.087c-1.718,0.286-3.329,1.056-5.096,1.18c-1.312,0.092-2.623,0.229-3.928,0.396
		c-1.096,0.139-2.179,0.385-3.276,0.52c-0.837,0.103-1.686,0.135-2.531,0.145c-1.424,0.017-2.827,0.072-4.254,0.293
		c-1.107,0.17-2.349-0.212-3.464-0.561c-0.48-0.15-0.932-0.779-1.151-1.294c-0.48-1.137-1.096-2.07-2.209-2.695
		c-0.533-0.301-0.887-0.798-1.366-1.262C50.59,52.334,50.545,52.297,50.533,52.28 M60.856,23.701
		c0.109,1.047,0.367,2.08,0.455,3.127c0.124,1.478,0.087,2.972,0.238,4.446c0.153,1.491,0.492,2.952,0.392,4.478
		c-0.086,1.329,0.015,2.672,0.061,4.007c0.032,0.894,0.24,1.801,0.14,2.676c-0.116,1.017,0.022,1.982,0.177,2.962
		c0.087,0.547,0.189,1.091,0.284,1.636c0.161,0.931,0.321,1.864,0.974,2.488c1.477,0.143,4.478-1.003,4.577-1.018
		c1.604-0.24,2.752-0.827,4.158-1.607c0.559-0.31,1.2-0.473,1.809-0.691c0.28-0.1,0.601-0.117,0.854-0.26
		c2.735-1.547,5.041-3.577,6.857-6.149c0.318-0.451,0.661-0.895,0.91-1.384c1.234-2.426,1.562-5.1,1.948-7.733
		c0.305-2.085,0.437-4.208,0.463-6.317c0.037-3.051-0.106-6.099-1.866-8.736c-1.751-0.896-2.799-1.739-3.751-2.95
		c-0.754-0.455-1.316-0.903-1.954-1.162c-3.433-1.393-6.486-3.521-9.853-5.03c-1.222-0.548-2.468-0.955-3.914-0.632
		c-1.393,0.312-2.953,0.712-4.294,0.453c-0.359-0.069-0.455,0.384-0.435,0.45c0.247,0.835,0.54,1.378,0.639,2.125
		c0.117,0.877-0.093,1.834-0.026,2.72c0.17,2.256,0.383,4.509,0.553,6.765c0.029,0.4,0.027,0.496,0,0.93
		c-0.022,0.351-0.025,0.36,0.023,0.53C60.328,20.008,60.75,22.672,60.856,23.701"/>
	<path clip-path="url(#SVGID_2_)" fill="#231F20" d="M96.765,114.665c-0.318,1.055-0.083,2.202,0.549,3.173
		c0.498,0.765,0.942,1.527,0.891,2.49c-0.036,0.654,0.35,1.044,0.78,1.375c0.107,0.082,0.557,0.664,0.569,0.894
		c0.065,1.31-0.7,2.983-0.559,3.76c0.098,0.541,0.574,1.424,0.67,1.67c0.096,0.247-0.123,1.752-0.087,2.67
		c0.047,1.222-0.482,2.5-0.916,3.697c-0.611,1.688-1.357,3.326-2.054,4.983c-0.561,1.33-1.021,2.68-1.394,4.086
		c-0.443,1.671-1.243,3.247-1.895,4.862c-0.034,0.086-0.121,0.156-0.196,0.219c-1.002,0.836-4.723,3.481-4.962,3.567
		c-1.397,0.504-2.578,1.34-3.771,2.158c-2.059,1.414-4.074,2.933-6.35,3.963c-1.578,0.715-3.342,0.975-5.089,1.086
		c-0.745,0.048-1.495,0.027-2.265,0.017c-0.738-0.012-1.035-0.569-1.233-0.854c-1.23-1.773-2.268-3.654-3.132-5.618
		c-0.914-2.076-1.675-4.224-2.425-6.366c-0.307-0.879-0.364-1.828-0.629-2.744c-0.58-2.002-0.94-4.084-1.198-6.157
		c-0.13-1.05,0.121-2.155,0.265-3.227c0.166-1.229,1.209-4.943,1.405-5.607c0.38-1.284,0.781-2.565,1.249-3.819
		c0.169-0.454,0.818-2.42,1.068-2.895c0.358-0.679,0.529-1.305,0.546-2.104c0.028-1.26,0.396-2.512,0.611-3.769
		c0.076-0.439,0.109-0.886,0.195-1.322c0.324-1.63,0.639-3.263,1.01-4.883c0.098-0.424,0.419-0.791,0.58-1.206
		c0.534-1.373,1.344-3.981,1.36-4.219c0.016-0.238,0.876-2.056,0.984-2.32c0.112-0.274,0.498-0.648,0.57-0.975
		c0.287-1.311,1.166-4.278,1.222-4.357c0.144-0.206,1.289-3.663,1.731-4.997c0.092-0.282,0.337-0.531,0.368-0.811
		c0.16-1.444,1.17-2.526,1.591-3.853c0.395-1.242,2.152-3.963,2.698-4.008c0.588-0.049,1.388,0.903,1.485,0.867
		c1.463-0.536,5.844,0.665,6.012,0.627c0.169-0.038,1.048-0.64,1.5-0.767c0.787-0.221,1.591,0.113,1.895,0.854
		c0.7,1.709,1.591,3.302,2.489,4.911c0.637,1.141,0.824,2.527,1.25,3.79c0.304,0.905,0.891,5.195,1.02,5.923
		c0.249,1.406,0.685,2.777,1.038,4.164c0.061,0.242,0.434,0.915,0.428,1.159C96.604,106.13,97.094,113.57,96.765,114.665
		 M76.623,154.607c0.148-0.049,0.287-0.099,0.421-0.16c3.464-1.62,6.163-4.067,7.809-7.542c0.678-1.433,1.438-2.819,2.012-4.321
		c0.607-1.59,1.183-3.143,1.419-4.831c0.067-0.479,0.302-0.943,0.498-1.399c0.394-0.919,0.933-1.793,1.2-2.744
		c0.625-2.229,1.403-4.393,2.336-6.558c0.049-0.114,0.188-0.408,0.147-0.759c-0.063-0.543,0.045-1.109,0.262-1.711
		c0.372-1.028,0.777-5.403,0.752-6.568c-0.005-0.249,0.083-1.424,0.127-1.549c0.22-0.626,0.013-1.131,0.22-1.734
		c0.223-0.646-0.095-5.39-0.237-5.801c-0.186-0.539-0.454-3.221-0.763-4.31c-0.405-1.425-1.119-5.123-1.113-5.301
		c0.016-0.553-0.013-1.105-0.094-1.65c-0.078-0.53-0.273-1.044-0.413-1.565c-0.103-0.379-0.192-0.761-0.3-1.138
		c-0.495-1.712-3.112-2.831-3.363-2.797c-0.25,0.032-0.759,0.455-0.891,0.79c-0.728,1.845-1.45,3.696-2.062,5.582
		c-0.456,1.408-0.725,2.877-1.108,4.31c-0.332,1.243-0.618,2.509-1.093,3.697c-0.351,0.879-0.37,1.911-0.815,2.651
		c-1.582,2.629-2.192,5.667-3.76,8.315c-0.941,1.59-1.365,3.522-1.829,5.349c-0.459,1.81-0.673,3.683-0.999,5.527
		c-0.121,0.685-1.621,10.126-1.847,10.862c-0.503,1.64-0.406,3.244-0.221,4.889c0.081,0.728,0.87,4.945,1.05,6.355
		c0.188,1.473,0.933,2.605,1.702,3.791C76.044,154.868,76.43,154.668,76.623,154.607"/>
	<path clip-path="url(#SVGID_2_)" fill="#231F20" d="M151.361,86.034c-0.984-1.362-3.065-2.938-2.688-3.792
		c0.377-0.852,2.178,0.155,3.121,0.494c0.686,0.247,1.322,0.718,1.889,1.197c0.897,0.758,1.861,1.334,3.02,1.554
		c0.339,0.064,0.683,0.101,1.026,0.132c0.491,0.044,0.984,0.068,1.477,0.106c0.835,0.065,2.519,0.108,2.837,0.227
		c0.317,0.119,4.159,0.598,4.71,0.772c1.08,0.333,6.341,0.902,6.549,0.893c0.207-0.009,4.335,0.555,6.212,0.355
		c0.269-0.028,1.24,0.291,1.64,0.344c0.397,0.053,2.561,0.389,3.095,0.528c0.434,0.113,4.944,0.198,5.264,0.224
		c0.32,0.026,2.505,0.405,3.964,0.142c0.557-0.1,4.033,0.269,4.189,0.28c0.268,0.018,5.554,0.386,5.96,0.528
		c0.866,0.303,1.616,0.488,2.462,0.533c0.351,0.018,1.814,0.629,2.245,0.857c0.244,0.128,3.306,1.214,3.643,1.32
		c0.337,0.105,4.903,1.345,5.151,1.579c0.343,0.326,1.244,1.146,1.294,1.702c0.05,0.555-0.447,2.11-0.707,2.369
		c-0.262,0.259-1.957,1.071-2.768,1.075c-0.812,0.004-2.95-0.606-3.971-0.815c-1.307-0.124-3.268-0.393-3.5-0.331
		c-0.231,0.062-1.698-0.063-2.217-0.091c-0.958-0.052-3.638-0.304-4.044-0.343c-0.705-0.067-3.878,0.117-4.418,0.057
		c-0.348-0.04-0.701-0.049-1.069-0.035c-0.825,0.03-1.411-0.126-2.198,0.155c-0.153,0.054-1.354,0.191-1.7,0.18
		c-1.134-0.037-2.271-0.121-3.402-0.074c-0.523,0.022-1.215,0.431-1.61,0.482c-0.395,0.05-0.795,1.436-0.655,1.715
		c0.14,0.279-0.078,2.109-0.149,3.034c-0.034,0.439-0.097,0.895-0.251,1.305c-0.373,0.993-0.487,2.003-0.488,3.056
		c-0.001,0.467-0.212,2.446-0.286,2.972c-0.175,1.221-0.18,2.497-0.293,3.763c-0.116,1.317,0.034,2.631-0.33,3.971
		c-0.49,1.801-0.75,3.674-0.488,5.605c0.261,1.927,0.214,3.893,0.39,5.835c0.149,1.635,0.1,3.253-0.031,4.881
		c-0.029,0.383,0.503,3.563,0.505,3.812c0.002,0.248,0.828,3.783,1.104,5.147c0.108,0.533,0.27,1.058,0.437,1.577
		c0.762,2.361,1.803,6.377,1.543,7.231c-0.261,0.856-1.768,1.312-2.287,1.468c-0.521,0.156-3.304-1.588-4.783-2.688
		c-0.483-0.359-2.226-1.118-2.424-1.398c-0.695-0.976-1.372-1.966-2.083-2.93c-1.138-1.542-1.959-3.19-2.251-5.127
		c-0.243-1.614-0.373-3.241-0.504-4.855c-0.123-1.516,0.155-3.062,0.262-4.597c0.012-0.195,0.07-0.394,0.058-0.589
		c-0.148-2.346-0.187-4.709-0.502-7.034c-0.246-1.812,0.142-3.562,0.138-5.345c-0.004-0.876,0.149-1.753,0.245-2.629
		c0.104-0.931,0.18-1.867,0.342-2.788c0.275-1.561,0.7-3.101,0.891-4.672c0.141-1.172,0.015-2.368,0.334-3.539
		c0.372-1.371,0.347-2.812,0.764-4.194c0.271-0.892,0.648-1.988-0.078-2.941c-0.153-0.202-0.954,0.07-1.438,0.144
		c-0.85,0.129-1.654,0.111-2.515-0.124c-0.876-0.237-3.662-0.036-4.088-0.101c-1.314-0.2-2.61-0.607-3.929-0.678
		c-1.299-0.071-2.523-0.44-3.781-0.597c-1.175-0.147-2.06-0.639-2.908-1.328c-0.691-0.561-1.368-1.145-2.001-1.771
		c-1.81-1.788-2.998-3.899-3.362-6.458C151.822,87.098,151.501,86.456,151.361,86.034"/>
	<path clip-path="url(#SVGID_2_)" fill="#231F20" d="M143.08,173.142c2.176,0.989,2.407,6.319,2.614,6.598s1.328,1.296,2.321,1.618
		c0.459,0.147,0.915,0.674,1.133,1.14c0.892,1.923,1.271,3.968,1.271,6.095c0,1.339,0.104,2.677,0.139,3.503
		c-0.14,2.059-0.269,3.616-0.344,5.179c-0.058,1.224-0.05,2.452-0.066,3.678c-0.021,1.534-0.025,3.068-0.058,4.601
		c-0.028,1.322-0.14,2.646-0.114,3.968c0.038,1.924-0.309,3.824-0.162,5.765c0.138,1.823,0.021,3.672-0.081,5.505
		c-0.097,1.709-0.32,3.411-0.481,5.117c-0.019,0.197-0.017,0.399,0.004,0.596c0.153,1.439,0.534,2.896,0.41,4.309
		c-0.13,1.469,0.517,2.831,0.276,4.271c-0.029,0.17,0.097,0.363,0.134,0.547c0.107,0.551,0.208,1.104,0.293,1.663
		c0.134,0.665,0.474,1.371,0.353,1.986c-0.167,0.842,0.679,2.017-0.232,2.425c-0.911,0.409-1.764,0.646-2.067,0.646
		s-1.78-0.298-2.307-0.479c-0.528-0.182-0.545-2.764-1.759-4.319c-0.749-1.408-2.489-1.924-2.778-2.279
		c-0.45-0.554-0.228-1.061-0.159-1.441c0.066-0.381-0.348-5.648-0.305-5.855c0.315-1.525-0.406-2.882,0.093-4.443
		c0.353-1.107,0.333-2.337,0.429-3.516c0.028-0.33-0.061-0.972-0.21-1.109c-0.147-0.139-0.819,0.046-1.206,0.058
		c-0.686,0.024-1.388,0.141-2.057,0.042c-2.557-0.373-5.104-0.81-7.65-1.238c-0.336-0.058-0.652-0.218-0.984-0.306
		c-0.787-0.209-1.862,0.092-2.076,0.791c-0.377,1.229-1.422,1.908-2.099,2.878c-0.435,0.624-0.722,1.285-1.068,1.941
		c-1.164,2.204-2.485,4.324-3.681,6.512c-0.834,1.528-1.791,3.006-2.263,4.707c-0.226,0.814-0.14,2.652-0.63,2.595
		c-0.49-0.058-3.604-0.109-4.156-0.603c-0.554-0.494-1.51-2.488-1.57-2.916c-0.06-0.429-0.28-3.162-0.504-3.614
		c-0.223-0.452-2.547-1.188-2.44-1.707c0.107-0.518,0.507-0.518,0.725-0.781c0.318-0.386,0.704-0.748,0.902-1.19
		c0.468-1.044,0.827-2.136,1.255-3.198c0.522-1.289,0.978-2.59,2.083-3.582c0.52-0.467,1.984-1.867,2.109-1.899
		c0.324-0.086,2.359-2.681,3.35-4.196c2.187-3.348,3.916-6.939,5.715-10.496c1.457-2.882,3.029-5.708,4.418-8.622
		c1.03-2.161,1.836-4.426,2.761-6.638c0.634-1.52,1.319-3.018,1.94-4.54c0.659-1.615,1.235-3.263,1.911-4.869
		c0.463-1.097,1.555-3.075,1.592-3.281c0.036-0.205,0.668-1.398,1.361-1.749C139.858,172.655,141.815,172.566,143.08,173.142
		 M141.856,212.39c0.139-0.203,0.009-22.258,0-22.44s-0.107-0.248-0.301-0.069c-0.191,0.18-1.106,2.04-1.619,3.081
		c-0.526,1.073-1.034,2.157-1.49,3.263c-0.457,1.104-0.791,2.263-1.269,3.358c-0.445,1.027-1.029,1.992-1.515,3.002
		c-0.515,1.073-0.958,2.181-1.479,3.249c-0.523,1.077-1.14,2.109-1.651,3.19c-0.494,1.04-1.375,2.95-1.212,3.171
		c0.164,0.221,2.754,0.859,4.146,1.099c1.901,0.325,3.787,0.383,5.579-0.457C141.319,212.708,141.718,212.592,141.856,212.39"/>
	<path clip-path="url(#SVGID_2_)" fill="#231F20" d="M225.951,8.045c0.983-0.242,1.882-0.066,2.778,0.294
		c0.777,0.313,1.543,0.654,2.328,0.947c0.271,0.101,0.635,0.055,0.818,0.128c0.544,0.22,1.374,1.161,2.195,1.838
		c0.358,0.293,0.418,0.939,0.393,1.047c-0.191,0.767,0.001,1.309-0.507,1.987c-0.155,0.207-0.6,0.35-0.758,0.383
		c-0.728,0.153-1.039,0.563-1.753,0.717c-0.697,0.15-3.01,0.701-3.27,0.783c-2.193,0.685-4.427,0.661-6.665,1.058
		c-1.664,0.295-3.364,0.484-5.05,0.507c-0.954,0.014-1.914-0.343-3.026-0.592c-0.057-0.013-0.157,0.072-0.148,0.127
		c0.06,0.423,0.265,0.978,0.322,1.381c0.067,0.464,0.184,1.117,0.247,1.572c0.231,1.623,0.7,2.886,0.616,4.572
		c-0.034,0.688,0.279,0.988,0.507,1.681c0.343,1.036,0.519,2.403,0.247,3.598c-0.009,0.046,0.122,0.171,0.185,0.162
		c0.896-0.125,1.554-0.107,2.3-0.5c0.694-0.366,1.459-0.484,2.31-0.359c1.471,0.216,2.975,0.206,4.459,0.334
		c1.249,0.107,2.258,0.77,3.111,1.62c0.475,0.473,1.031,1.106,0.452,1.913c-0.016,0.02-0.097,0.151-0.285,0.099
		c-0.393-0.107-1.287,0.293-1.828,0.406c-0.161,0.033-0.809,0.078-0.977,0.089c-0.445,0.03-0.889,0.11-1.338,0.211
		c-0.515,0.115-1.049,0.369-1.304,0.43c-0.162,0.038-1.19,0.401-1.269,0.47c-0.021,0.018-0.738,0.091-0.825,0.091
		c-0.41,0-0.379-0.104-0.79-0.104c-0.498,0-0.712,0.061-1.227,0.061c-0.427,0-0.935-0.07-1.383-0.084
		c-0.089-0.003-0.157,0.107-0.135,0.239c0.488,2.764,1.143,5.415,0.4,7.811c-0.029,0.093-0.114,0.692-0.021,1.125
		c0.242,1.105-0.09,1.271-0.056,1.993c0.032,0.694,0.188,1.738,0.293,1.813c0.102,0.073,2.451,0.471,3.742,0.173
		c2.305-0.535,4.666-0.528,7.001-0.191c1.52,0.22,3.077,0.717,4.56,1.002c1.216,0.234,2.243,0.609,3.451,0.86
		c0.463,0.097,1.213,0.348,1.308,0.472c0.147,0.194,0.188,1.673-0.095,1.834c-0.311,0.176-2.368,0.467-3.635,0.496
		c-1.184,0.027-6.044,1.148-6.585,1.271c-0.541,0.122-3.544-0.413-5.171,0.384c-1.269,0.621-2.612,0.679-3.909,1.027
		c-1.132,0.304-2.23,0.647-3.003,1.465c-0.149,0.156-0.264,0.404-0.407,0.524c-0.142,0.119-0.511,0.212-0.777,0.277
		c-2.648,0.646-5.828-1.393-6.685-3.637c-0.791-2.073-1.031-2.06-2.554-3.275c-0.455-0.362-0.894-1.341-0.91-2.21
		c-0.011-0.547,0.649-4.925,0.517-6.331c-0.153-1.628-0.608-3.227-0.938-4.837c-0.271-1.322-0.611-2.634-0.807-3.967
		c-0.267-1.827-0.405-3.673-0.647-5.504c-0.072-0.532-0.408-1.033-0.452-1.562c-0.134-1.616-0.9-3.107-0.772-4.792
		c0.078-1.026-0.195-2.092-0.396-3.123c-0.326-1.667-0.275-3.34-0.247-5.019c0.006-0.344,0.055-0.818-0.348-1.129
		c-1.597-1.233-1.848-2.109-0.901-3.705c0.138-0.233,0.475-0.165,0.536-0.138c0.497,0.224,0.743,0.437,1.323,0.699
		c0.104,0.047,0.465,0.141,0.542,0.143c1.208,0.031,3.188,0.628,6.407,1.976c0.098,0.04,0.481,0.091,0.577,0.074
		c1.639-0.282,3.368-0.575,5.098-0.883c1.778-0.317,3.567-0.596,5.331-0.991C220.215,8.88,225.294,8.206,225.951,8.045"/>
	<path clip-path="url(#SVGID_2_)" fill="#231F20" d="M114.823,7.82c0.287-0.657,0.943-0.818,1.036-1.313
		c0.093-0.496,0.28-1.164,0.61-1.443c0.819-0.691,1.47-0.622,2.372-0.964c0.902-0.341,2.392-0.252,3.27-0.195
		c0.986,0.065,1.511,0.229,2.459,0.477c0.948,0.249,2.121,0.755,2.93,1.192c0.875,0.472,3.347,6.328,3.524,6.61
		c0.892,1.414,0.822,2.728,1.438,4.243c0.575,1.416,0.928,2.923,1.401,4.382c0.138,0.418,0.381,0.8,0.536,1.213
		c0.626,1.663,1.197,3.346,1.863,4.991c0.665,1.645,1.381,3.274,2.144,4.876c1.21,2.536,1.932,5.201,2.328,7.972
		c0.233,1.622,0.304,3.24,0.219,4.878c-0.032,0.636,0.232,1.233,0.424,1.852c0.308,0.995,1.063,2.76,0.984,3.143
		c-0.079,0.384-0.562,1.228-0.87,1.394c-0.307,0.165-3.323,0.137-3.673,0.103c-0.348-0.033-0.862-0.638-1.07-1.001
		c-0.538-0.941-0.705-1.513-1.278-2.43c-0.305-0.488-0.285-0.981-0.76-1.324c-0.439-0.317-1.487-0.673-1.831-0.991
		c-0.608-0.561-0.855-1.932-1.12-3.546c-0.508-3.083-0.668-6.862-0.75-7.368c-0.041-0.255-1.018,0.266-1.527,0.389
		c-0.622,0.151-1.198,0.39-1.819,0.542c-1.891,0.462-3.645,0.916-5.551,1.312c-1.591,0.332-2.981,0.052-3.373-0.437
		c-0.392-0.489-0.417-1.195-0.599-1.367c-0.183-0.172-0.805,0.151-0.826,0.591c-0.05,1.027-0.028,2.063-0.144,3.083
		c-0.059,0.528-0.37,1.024-0.531,1.545c-0.605,1.958-0.903,3.72-1.493,5.683c-0.257,0.854-0.478,1.882-0.76,2.729
		c-0.123,0.367-0.461,1.022-0.737,1.209c-0.276,0.187-1.233,0.669-1.463,1.14c-0.185,0.38-0.69,0.748-0.748,1.001
		c-0.058,0.254-0.006,1.092-0.242,1.44c-0.236,0.348-1.984,0.384-2.842,0.074c-0.752-0.271-1.565-0.567-2.166-1.249
		c-0.362-0.411-1.419-0.44-1.555-0.921c-0.137-0.481-0.178-0.902-0.174-1.425c0.006-0.797-0.007-1.595,0.034-2.389
		c0.03-0.595,0.046-1.212,0.218-1.774c0.527-1.722,1.08-3.439,1.718-5.121c0.253-0.666,0.485-1.281,0.475-2.014
		c-0.006-0.525,0.263-1.048,0.346-1.581c0.096-0.622,0.082-1.262,0.187-1.883c0.35-2.061,0.712-4.119,1.106-6.171
		c0.427-2.22,0.873-4.437,1.362-6.644c0.122-0.547,0.375-1.094,0.682-1.567c0.928-1.431,0.971-3.138,1.534-4.679
		c0.359-0.987,0.748-1.966,1.053-2.97C113.707,11.362,114.547,8.444,114.823,7.82 M128.851,29.522
		c0.446-0.583,0.165-1.413-0.176-2.143c-0.942-2.018-1.945-4.013-2.765-6.081c-0.787-1.979-1.673-3.931-2.088-6.052
		c-0.155-0.791-0.877-2.529-0.971-2.565c-0.095-0.036-0.489,0.805-0.637,1.13c-0.515,1.132-0.969,2.295-1.523,3.407
		c-1.408,2.828-2.288,5.807-2.645,8.938c-0.067,0.585,0.211,1.254,0.021,1.771c-0.436,1.191,0.016,3.361,0.406,3.36
		c0.2,0,2.724-0.543,5.262-1.024C126.463,29.745,128.634,29.808,128.851,29.522"/>
	<path clip-path="url(#SVGID_2_)" fill="#231F20" d="M179.346,222.947c-0.022,0.199,1.918,2.013,2.16,2.288
		c0.242,0.277,0.536,0.897,0.65,1.158c0.574,1.31,1.447,2.449,1.995,3.794c0.671,1.642,1.691,3.14,2.506,4.729
		c0.973,1.896,1.853,3.843,2.85,5.727c0.361,0.683,1.301,1.567,1.568,1.762c0.482,0.355-0.06,0.491-0.078,0.985
		c-0.013,0.32,0.268,0.79,0.013,1.021c-0.652,0.594-1.284-0.168-1.86-0.385c-2.86-1.077-4.384-3.426-5.607-6.066
		c-0.562-1.21-1.304-2.335-1.966-3.498c-0.122-0.214-0.266-0.418-0.377-0.638c-1.214-2.376-2.391-4.771-3.648-7.122
		c-0.422-0.788-0.95-1.582-1.61-2.167c-0.732-0.649-2.162-1.451-2.839-1.613c-0.676-0.161-1.07-1.025-1.555-1.156
		c-0.486-0.133-0.879,0.884-0.846,1.464c0.168,2.87-0.581,5.642-0.787,8.467c-0.138,1.872,0.181,5.332,0.147,5.772
		c-0.052,0.724-0.663,2.825-0.988,2.896c-0.326,0.072-1.071,0.392-1.66,0.173c-0.589-0.217-2.57-3.123-3.768-3.34
		c-0.751-0.135-0.753-0.829-0.746-0.94c0.009-0.113,0.309-4.54,0.469-6.811c0.011-0.147,0.029-0.301,0.079-0.439
		c0.504-1.421,0.656-2.884,0.717-4.39c0.072-1.832,0.338-3.656,0.527-5.483c0.155-1.479,0.521-2.968,0.435-4.433
		c-0.098-1.624,0.223-3.16,0.414-4.73c0.25-2.062,0.564-4.116,0.759-6.181c0.123-1.321,0.248-5.077,0.37-5.604
		c0.555-2.414,0.688-4.903,1.186-7.312c0.512-2.479,0.756-5.01,1.438-7.448c0.184-0.66,0.595-1.709,0.898-1.93
		c0.305-0.219,2.098-0.404,2.543-0.404c0.446,0,1.229,1.055,1.586,1.136c0.359,0.081,2.902-0.393,4.437-0.367
		c1.3,0.023,4.9,0.695,5.357,0.873c1.25,0.491,2.405,1.067,3.321,2.167c1.153,1.386,3.708,5.03,3.916,5.312
		c0.415,0.564,1.55,4.683,2.114,5.998c0.407,0.948,0.474,2.046,0.671,3.081c0.208,1.087,0.449,2.172,0.566,3.269
		c0.121,1.132,0.116,2.28,0.153,3.42c0.022,0.647,0.145,1.325-0.001,1.936c-0.52,2.203-1.006,4.384-2.357,6.341
		c-1.22,1.764-2.736,3.054-4.436,4.274c-1.498,1.079-3.185,1.784-4.75,2.724c-0.787,0.473-1.772,0.604-2.654,0.931
		C180.167,222.364,179.371,222.749,179.346,222.947 M172.032,217.083c0.25,0.354,1.241,0.196,1.977,0.014
		c1.713-0.428,4.268-1.535,6.225-3.062c0.514-0.399,1.03-0.807,1.596-1.124c2.288-1.282,3.989-3.075,5.436-5.29
		c1.728-2.642,1.769-5.431,1.34-8.301c-0.292-1.96-0.581-3.924-1.261-5.838c-0.517-1.452-0.962-2.907-1.798-4.207
		c-0.347-0.538-0.923-0.964-1.147-1.538c-0.76-1.95-2.38-2.188-4.145-2.142c-0.771,0.02-1.58-0.32-1.926-0.423
		c-0.279-0.084-2.558,0.103-2.997,0.318c-0.441,0.217-0.544,0.583-0.536,0.887c0.389,1.714-0.36,3.428-0.448,5.146
		c-0.043,0.839-0.169,1.675-0.172,2.513c-0.008,1.528,0.239,3.086,0.029,4.581c-0.28,2-0.199,4.022-0.668,6.022
		c-0.493,2.107-0.509,4.322-0.85,6.471c-0.192,1.216-0.25,2.454-0.783,3.638C171.568,215.493,171.569,216.43,172.032,217.083"/>
	<path clip-path="url(#SVGID_2_)" fill="#231F20" d="M190.021,57.064c0.697,0.426,1.968,2.367,2.078,2.698s-0.068,1.259-0.258,1.424
		c-0.353,0.306-2.643,0.679-3.546,0.681c-0.904,0.002-2.195-1.017-4.129-2.471c-1.54-1.158-3.148-2.672-4.243-3.744
		c-2.242-2.195-4.432-4.461-6.841-6.458c-1.464-1.211-2.581-2.591-3.646-4.118c-1.244-1.78-3.47-4.869-4.014-5.145
		c-0.544-0.278-0.21,0.684-0.228,1.231c-0.007,0.224-0.313,3.627-0.467,5.984c-0.084,1.287-0.425,2.644,0.049,3.953
		c0.162,0.448,0.585,1.054,0.452,1.52c-0.319,1.116-1.241,0.808-1.807,0.754c-0.228-0.021-1.534-0.358-1.723-0.397
		c-0.429-0.087-0.603-0.053-0.767-0.264c-0.356-0.455-1.433-2.143-2.179-3.189c-0.259-0.361-0.658-0.619-0.921-0.977
		c-0.374-0.509-0.706-1.054-1.016-1.608c-0.761-1.369-1.135-2.744-0.794-4.395c0.199-0.959-0.108-3.813,0.028-4.6
		c0.14-0.803,0.004-1.997,0.045-2.708c0.174-3.037-0.844-5.934-1.185-8.914c-0.111-0.982-0.282-1.991-0.161-2.955
		c0.098-0.771,0.073-1.49-0.104-2.21c-0.345-1.402,0.004-2.769,0.18-4.136c0.131-1.007-0.29-1.89-0.308-3.235
		c-0.019-1.345,1.438-2.292,1.827-2.47c0.389-0.178,2.045-0.718,3.129-1.392c0.438-0.272,1.051-0.456,1.554-0.401
		c1.335,0.146,2.908,0.158,4.258,0.238c1.85,0.111,3.475,0.284,5.295,0.488c2.064,0.231,4.246,0.471,5.958,2.014
		c0.616,0.556,1.444,0.877,2.17,1.317c1.17,0.712,2.149,1.637,2.918,2.766c0.582,0.856,1.155,1.736,1.676,2.633
		c0.17,0.294,0.382,0.713,0.426,1.048c0.291,2.225,0.638,4.381,0.725,6.615c0.069,1.789-0.527,3.542-1.592,5.054
		c-0.977,1.389-1.869,2.857-2.983,4.127c-1.062,1.207-2.544,1.922-4.017,2.566c-0.944,0.415-4.047,0.806-4.566,0.654
		c-0.767-0.225-1.344,0.023-1.373,0.162c-0.047,0.22,0.622,0.524,1.357,0.904c0.658,0.339,0.799,0.837,1.276,1.136
		c1.812,1.137,3.119,2.674,4.17,4.531c1.333,2.358,3.288,4.234,5.341,5.951c1.33,1.112,2.892,1.947,4.342,2.914
		C186.615,54.778,189.324,56.638,190.021,57.064 M162.708,28.37c0.084,0.335,0.183,3.012,0.431,3.955
		c2.178,0.316,2.178,0.316,4.208-0.238c0.096-0.026,0.195-0.043,0.293-0.067c2.668-0.665,5.267-1.51,7.031-3.789
		c0.94-1.215,1.918-2.501,2.439-3.916c0.515-1.392,0.21-5.111,0.223-5.408c0.037-0.961-0.376-1.735-0.872-2.527
		c-0.645-1.029-6.242-1.917-8.021-1.999c-0.682-0.031-1.525,0.04-2.002-0.323c-0.682-0.521-1.251-0.415-1.916-0.444
		c-0.405-0.019-0.45-0.085-0.896,0.112c-0.088,0.038-1.479,0.614-1.661,0.75c-0.1,0.073-0.127,0.276-0.125,0.309
		C162.02,17.872,162.521,27.624,162.708,28.37"/>
	<path clip-path="url(#SVGID_2_)" fill="#231F20" d="M52.774,137.685c-0.129-0.729-0.4-1.434-0.496-2.162
		c-0.172-1.31-0.324-7.246-0.728-8.171c-0.572-1.309-0.887-3.562-0.997-3.899c-0.11-0.338-2.687-6.877-3.043-8.371
		c0.049-1.163-0.053-2.792-0.553-4.377c-0.427-1.354-0.594-2.723-0.369-4.138c0.21-1.318,0.681-2.651,0.606-3.959
		c-0.07-1.231,0.409-2.405,0.203-3.66c-0.015-0.091,0-0.504-0.022-0.596c-0.144-0.598-0.682-1.611-1.025-2.015
		c-0.342-0.403-1.275-5.533-1.315-7.871c-0.011-0.642-0.107-2.522-0.11-2.677c-0.006-0.349,0.019-0.921,0.035-1.267
		c0.011-0.247-0.138-1.416,0.322-1.733c0.074-0.05-0.048-0.499-0.115-0.576c-1.158-1.333-1.728-1.635-3.349-1.762
		c-0.931-0.073-2.01-0.172-2.956,0.518c-0.06,0.043-0.158,0.235-0.159,0.269c-0.012,0.511-0.109,1.092,0.025,1.614
		c0.382,1.501,1.868,9.45,1.753,11.206c-0.039,0.585,0.673,3.689,0.67,3.822c-0.002,0.133,0.039,0.226,0.077,0.326
		c0.165,0.435,0.342,0.814,0.356,1.199c0.036,0.984-0.06,1.972-0.097,2.831c-0.131,0.989-0.169,1.877-0.377,2.723
		c-0.606,2.465-1.076,4.937-0.906,7.495c0.019,0.282-0.167,0.575-0.165,0.862c0.009,1.733-0.819,3.405-0.406,5.161
		c0.242,1.026,0.369,5.164,0.404,5.301c0.034,0.136,0.06,3.75,0.11,4.584c0.09,1.54,0.359,3.045,0.263,4.628
		c-0.155,2.571,0.113,5.167,0.183,7.753c0.028,1.049,0.035,3.058,0.004,3.151c-0.03,0.089-0.264,0.142-0.345,0.122
		c-0.106-0.023-0.442-0.504-0.594-0.806c-0.643-1.282-1.291-2.563-1.879-3.872c-0.731-1.625-1.424-3.268-2.097-4.919
		c-0.503-1.232-0.911-2.505-1.428-3.73c-0.939-2.235-2.34-4.235-3.096-6.592c-0.405-1.265-1.298-2.418-1.89-3.681
		c-0.41-0.873-0.827-1.541-0.947-2.283c-0.018-0.112,0.069-0.87-0.266-1.129c-0.398-0.308-0.724-0.841-0.989-1.397
		c-0.271-0.574-0.328-1.275-0.678-1.784c-1.164-1.698-1.798-3.647-2.696-5.469c-1.008-2.043-1.82-4.181-2.443-6.382
		c-0.524-1.851-0.971-3.731-1.619-5.538c-0.359-1.001-0.43-1.999-0.575-3.016c-0.119-0.83-0.511-1.621-0.63-2.451
		c-0.249-1.736-1.522-2.358-2.682-3.262c-0.108-0.084-1.753-1.035-2.326-1.28c-0.203-0.087-0.468-0.086-0.602-0.103
		c-1.865-0.236-3.685-0.952-5.51-0.531c-0.149,0.035-3.557-0.217-4.186-0.566c-0.303-0.168-0.251-0.557-1.043-0.455
		s-1.07,0.853-0.936,1.834c0.182,1.342-0.325,2.793,0.62,4.02c0.038,0.051-0.054,0.186-0.049,0.28
		c0.124,2.249,0.237,4.499,0.385,6.746c0.161,2.442,0.501,9.394,0.551,10.283c0.05,0.886,0.004,1.777-0.001,2.666
		c-0.006,0.985,0.32,1.969,0.258,2.913c-0.053,0.802-0.1,1.576,0.021,2.369c0.037,0.244,0.02,0.497,0.018,0.746
		c-0.006,0.69-0.094,1.39-0.008,2.068c0.136,1.072,0.202,2.154,0.297,3.224c0.127,1.412-0.139,2.855-0.1,4.281
		c0.055,2.036-0.094,6.945-0.138,7.397c-0.19,1.966-0.778,3.876-0.626,5.897c0.084,1.115-0.212,2.255-0.175,3.38
		c0.033,1.001-0.062,1.959-0.224,2.945c-0.201,1.214-0.179,2.464-0.291,3.693c-0.137,1.511,0.007,3.107-1.241,4.303
		c-0.55,0.526-0.493,1.16-0.306,1.744c0.506,0.34,0.955,0.641,1.33,0.893c0.333,1.54,0.674,2.941,0.928,4.357
		c0.159,0.889,0.381,1.712,1.09,2.25c1.322,0.749,2.68,0.634,4.019,0.244c0.723-0.951,1.006-1.963,0.94-3.118
		c-0.051-0.883,0.047-1.773,0.095-2.659c0.013-0.242,0.159-0.496,0.116-0.721c-0.299-1.534-0.001-3.051,0.123-4.568
		c0.209-2.557,0.401-5.115,0.694-7.66c0.232-2.014,0.72-4.004,0.266-6.045c-0.031-0.138,0.024-0.295,0.037-0.443
		c0.124-1.377,0.393-2.763,0.061-4.131c-0.28-1.147-0.357-5.194-0.378-5.831c-0.013-0.382-0.087-0.76-0.106-1.141
		c-0.078-1.538-0.123-3.079-0.226-4.616c-0.074-1.103-0.43-2.23-0.276-3.291c0.158-1.091-0.099-2.076-0.176-3.11
		c-0.083-1.123-0.356-2.238-0.03-3.387c0.181-0.637,0.282-1.197,0.215-2.157c-0.002-0.03,0.037-0.127,0.054-0.144
		c0.336-0.353,0.468-0.544,0.744-0.866c0.019-0.022,0.082-0.018,0.095,0.006c0.895,1.679,1.756,3.262,2.582,4.864
		c0.361,0.701,0.663,1.434,0.964,2.164c0.488,1.187,0.727,2.447,1.32,3.622c0.954,1.888,1.419,4.033,3.049,5.554
		c0.103,0.097,0.146,0.258,0.191,0.341c-0.024,0.368-0.045,0.707-0.059,0.928c-0.005,0.076-0.027,0.121-0.012,0.184
		c0.015,0.06,0.053,0.092,0.079,0.138c0.469,0.804,0.966,1.378,1.095,2.028c0.393,1.966,1.866,3.492,2.135,5.489
		c0.013,0.093,0.079,0.19,0.146,0.261c0.667,0.688,2.26,6.094,2.46,6.358c1.241,1.631,1.465,3.776,2.798,5.373
		c0.593,0.709,1.19,1.542,1.405,2.411c0.351,1.429,1.353,2.546,1.646,3.98c0.086,0.418,0.39,0.793,0.594,1.186
		c0.658,1.272,1.369,2.52,1.957,3.82c0.431,0.956,0.834,1.903,1.509,2.724c0.237,0.29,0.366,0.696,0.462,1.071
		c0.287,1.12,1.406,3.789,1.931,3.867c0.883,0.129,1.764,0.432,2.642,0.415c1.578-0.034,2.869,0.69,4.173,1.366
		c0.927,0.478,1.728,1.194,2.635,1.721c0.402,0.232,1.147,0.474,1.429,0.581c0.039,0.014,1.736,0.181,2.269,0.038
		c0.489-0.133,0.985-0.17,1.099-0.231c0.238-0.128,1.503-1.964,1.281-2.242c-0.222-0.277-0.654-1.597-0.455-2.241
		c0.269-0.872,1.031-7.818,1.207-9.54c0.135-1.332,0.078-2.69,0.299-4.003c0.205-1.218-0.103-2.381-0.074-3.569
		c0.032-1.242,0.192-2.492,0.096-3.723c-0.132-1.705-0.059-3.368,0.279-5.043C52.982,138.797,52.87,138.219,52.774,137.685"/>
	<path clip-path="url(#SVGID_2_)" fill="#231F20" d="M90.062,227.355c-0.009-0.023-0.018-0.048-0.027-0.07
		c-0.004,0.011-0.007,0.02-0.012,0.032C90.036,227.33,90.049,227.341,90.062,227.355"/>
	<path clip-path="url(#SVGID_2_)" fill="#231F20" d="M116.282,170.137c-0.188-0.054-2.935-1.599-3.663-2.109
		c-1.387-0.976-3.697-0.889-3.93-0.017c-0.2,0.75-1.223,7.156-1.391,8.133c-0.168,0.976-1.547,6.639-1.588,6.831
		c-0.313,1.451-0.583,2.912-0.889,4.364c-0.411,1.94-0.819,3.881-1.272,5.811c-0.259,1.102-0.539,2.209-0.929,3.269
		c-0.392,1.069-1.005,2.057-1.389,3.126c-0.857,2.392-2.197,3.939-2.311,4.203c-0.116,0.267-0.433,1.338-0.588,1.716
		c-0.154,0.38-0.728,2.449-1.378,4.427c-0.155,0.471-0.311,0.962-0.575,1.373c-0.52,0.81-1.819,3.256-1.978,3.445
		c-0.16,0.191-0.142,0.449-0.178,0.674c-0.181,1.133-0.335,2.581-0.695,2.624c-0.183,0.023-0.583-0.368-0.7-0.668
		c-0.125-0.32-0.096-0.708-0.239-1.017c-0.923-1.997-1.067-4.179-1.304-6.294c-0.201-1.801-0.153-3.644-0.381-5.459
		c-0.143-1.128-1.405-6.491-1.683-7.063c-0.219-0.449-1.163-1.342-1.413-1.459c-1.794-0.836-3.423-1.001-5.371-1.2
		c-1.69-0.175-3.165,0.293-4.496,1.228c-1.292,0.908-2.439,2.006-3.508,3.171c-0.327,0.357-0.579,0.823-0.743,1.282
		c-0.678,1.897-1.615,3.643-2.774,5.295c-1.006,1.433-1.883,2.958-2.812,4.445c-0.581,0.931-1.015,2.003-1.763,2.77
		c-1.356,1.393-2.174,3.057-2.975,4.769c-0.649,1.387-1.732,4.036-2.147,4.036c-0.246,0-0.958-1.363-1.283-2.116
		c-0.488-1.138-1.346-2.124-1.478-3.4c-0.107-1.038-0.644-1.863-1.126-2.736c-0.643-1.166-1.328-2.312-1.622-3.645
		c-0.312-1.411-0.678-2.809-1.056-4.203c-0.088-0.323-0.325-0.604-0.49-0.907c-0.479-0.872-1.166-1.694-1.39-2.629
		c-0.48-1.999-1.756-3.663-2.154-5.691c-0.274-1.401-0.806-2.752-1.207-4.131c-0.067-0.231-0.131-0.518-0.057-0.73
		c0.179-0.518,0.151-0.946-0.005-1.321c-0.177-0.423-0.587-1.351-1.121-1.253c-0.533,0.101-2.828-0.089-4.341-0.148
		c-1.612-0.063-4.479,0.229-4.82,0.605c-0.34,0.376-0.385,0.454-0.277,0.772c0.108,0.316,0.947,1.938,1.365,2.892
		c0.257,0.584,0.532,1.186,0.637,1.806c0.357,2.132,1.024,4.15,1.941,6.104c0.24,0.511,2.51,5.272,3.25,6.614
		c0.67,1.215,1.078,2.566,2.019,3.646c0.38,0.437,0.612,1.028,0.817,1.582c0.547,1.489,1.052,2.993,1.856,4.371
		c0.124,0.212,0.261,0.424,0.342,0.655c0.665,1.89,0.983,3.858,1.359,5.819c0.299,1.56,0.378,3.159,1.079,4.657
		c0.361,0.771,0.583,1.746,0.199,2.646c-0.238,0.558-0.203,1.017,0.003,1.401c0.127,0.236,0.473,0.62,0.771,0.669
		c0.299,0.048,0.767,0.144,1.22,0.289c1.304,0.424,2.353,1.183,2.976,2.495c0.8,1.688,1.91,3.035,3.403,4.081
		c0.322,0.228,0.683,0.61,1.022,0.638c0.339,0.028,0.841-0.093,1.272-0.081c1.003,0.026,1.996,0.125,2.648-0.649
		c1.498-2.875,4.161-8.602,4.191-8.748c0.275-1.354,0.688-2.53,1.149-3.829c0.381-1.076,0.905-2.101,1.352-3.154
		c0.113-0.265,0.597-2.744,1.134-3.443c0.547-0.713,0.944-2.653,1.118-2.916c1.959-2.958,3.657-6.013,5.113-9.327
		c0.083-0.19,0.167-0.564,0.247-0.57c0.153-0.012,0.646,0.829,0.749,1.194c0.389,1.383,0.78,2.771,1.042,4.182
		c0.331,1.782,0.978,3.438,1.836,5.005c0.294,0.537,0.504,1.051,0.654,1.642c0.225,0.878,1.324,2.829,1.417,3.066
		c0.38,0.969,0.878,1.893,1.225,2.87c0.563,1.592,1.184,3.651,0.951,4.204c-0.153,0.362-0.026,1.021,0.207,1.054
		c0.233,0.034,0.455,0.08,0.667,0.138c2.175,0.581,3.329,2.296,4.238,4.114c0.121,0.24,0.327,0.863,1.054,1.111
		c0.89,0.301,1.44,1.623,3.17,1.553c1.204-0.048,2.08-0.888,2.672-1.773c0.592-0.885,0.65-2.872,0.954-4.324
		c0.049-0.237,0.001-0.503-0.045-0.748c-0.233-1.245,0-2.475,0.214-3.678c0.311-1.751,0.773-3.478,1.207-5.203
		c0.277-1.102,0.793-2.168,0.901-3.28c0.227-2.329,1.476-4.317,1.956-6.571c0.451-2.123,1.437-4.129,2.042-6.228
		c1.01-3.505,1.916-7.04,2.839-10.571c0.209-0.799,0.31-1.625,0.462-2.438c0.072-0.483,0.346-0.942,0.389-1.421
		c0.136-1.529,0.183-3.066,0.272-4.602c0.023-0.396,0.054-0.795,0.123-1.185c0.26-1.458,0.605-2.905,0.787-4.371
		c0.187-1.502,0.233-3.013,0.538-4.513c0.22-1.088,0.614-2.094,0.977-3.117c0.297-0.842,0.631-1.665,1.601-2.031
		c0.254-0.097,0.539-0.412,0.539-0.799S116.469,170.189,116.282,170.137"/>
	<path clip-path="url(#SVGID_2_)" fill="#231F20" d="M86.984,222.202c0,0.004-0.001,0.008-0.001,0.012
		c0.016,0.007,0.023,0.019,0.04,0.025C87.037,222.199,87.01,222.174,86.984,222.202"/>
</g>
</svg>
