<?xml version="1.0" encoding="utf-8"?>
<!-- Generator: Adobe Illustrator 16.0.4, SVG Export Plug-In . SVG Version: 6.00 Build 0)  -->
<!DOCTYPE svg PUBLIC "-//W3C//DTD SVG 1.1//EN" "http://www.w3.org/Graphics/SVG/1.1/DTD/svg11.dtd">
<svg version="1.1" id="Layer_1" xmlns="http://www.w3.org/2000/svg" xmlns:xlink="http://www.w3.org/1999/xlink" x="0px" y="0px"
	 width="758.47px" height="89.254px" viewBox="0 0 758.47 89.254" enable-background="new 0 0 758.47 89.254" xml:space="preserve">

<g>
	<defs>
		<rect id="SVGID_1_" y="0" width="758.47" height="89.254"/>
	</defs>
	<clipPath id="SVGID_2_">
		<use xlink:href="#SVGID_1_"  overflow="visible"/>
	</clipPath>
	<path clip-path="url(#SVGID_2_)" fill="#001489" d="M1.089,73.315c-0.018-0.022,0-0.062,0.008-0.086
		c0.436-1.489,1.9-1.588,2.694-2.501c0.982-1.928,0.744-3.909,0.252-5.978c-0.369-1.555-0.366-3.196-0.537-4.798
		c-0.079-0.74-0.124-1.488-0.275-2.216c-0.453-2.175-0.401-4.366-0.285-6.564c0.056-1.061-0.678-1.368-0.054-3.182
		c0.282-0.817,0.061-1.459-0.051-3.059c-0.136-1.949-0.239-4.948-0.685-6.74c-0.695-2.791-1.073-5.734-1.05-8.605
		c0.014-1.801-0.71-3.563-0.193-5.379c0.116-0.405-0.167-0.919-0.246-1.386c-0.11-0.64-0.3-1.286-0.284-1.925
		c0.086-3.338-0.211-6.657-0.378-9.984c-0.036-0.722,0.141-1.455,0.209-2.082c0.914-1.453,2.22-0.886,3.547-1.317
		c0.096-0.031,0.56-0.142,0.547-0.349C4.285,6.769,3.934,6.693,3.389,6.676C2.317,6.641,1.363,5.837,1.565,5.514
		c0.531-0.853,1.062-0.406,1.513-0.546C4.097,4.65,5.063,4.169,6.056,3.769c0.737-0.297,1.483-0.812,2.223-0.808
		c1.782,0.011,3.549-0.332,5.36,0.011c2.358,0.446,6.384,0.854,6.717,0.804c0.333-0.05,1.178,0.035,1.687,0.374
		c0.21,0.141,0.558,0.295,1.155,0.488c2.339,0.754,4.389,0.95,6.601,2.159c2.355,1.287,4.841,2.335,7.265,3.5
		c0.425,0.204,0.835,0.444,1.23,0.702c2.424,1.578,4.887,3.103,7.248,4.77c2.295,1.621,4.49,3.381,6.714,5.1
		c1.334,1.03,2.776,1.967,3.926,3.177c2.118,2.226,3.88,4.713,5.068,7.608c0.965,2.351,1.113,4.843,1.644,7.266
		c0.613,2.798,0.336,5.621,0.323,8.441c-0.011,2.14-0.069,4.258-0.254,6.395c-0.175,2.014-0.822,3.821-1.621,5.588
		c-0.682,1.506-1.757,2.835-2.431,4.344c-0.561,1.256-1.488,2.029-2.511,2.825c-1.059,0.825-2.123,1.69-2.991,2.703
		c-1.799,2.099-4.246,3.255-6.498,4.686c-1.464,0.934-3.027,1.73-4.606,2.458c-1.384,0.64-2.795,1.206-4.343,1.464
		c-2.316,0.388-4.489,1.425-6.871,1.593c-1.77,0.124-3.537,0.309-5.297,0.532c-1.478,0.189-2.938,0.521-4.417,0.702
		c-1.129,0.14-2.274,0.184-3.413,0.196c-1.921,0.022-3.813,0.097-5.737,0.394c-1.492,0.231-3.167-0.284-4.67-0.756
		c-0.647-0.202-1.258-1.049-1.552-1.745c-0.648-1.531-1.479-2.79-2.979-3.634c-0.72-0.404-1.196-1.076-1.843-1.702
		C1.168,73.39,1.107,73.339,1.089,73.315 M14.806,30.524c-0.4,1.607,0.061,2.866,0.205,4.254c0.146,1.412,0.495,2.805,0.613,4.217
		c0.167,1.994,0.117,4.007,0.321,5.995c0.207,2.011,0.664,3.981,0.529,6.039c-0.116,1.792,0.019,3.603,0.082,5.403
		c0.042,1.206,0.323,2.428,0.189,3.608c-0.156,1.372,0.028,2.673,0.239,3.994c0.117,0.737,0.254,1.471,0.382,2.205
		c0.218,1.257,0.434,2.515,1.314,3.355c1.991,0.193,3.9,0.06,5.124-1.093c0.309-0.291,0.914-0.259,1.047-0.279
		c2.164-0.325,3.712-1.116,5.607-2.167c0.754-0.418,1.619-0.639,2.439-0.932c0.379-0.136,0.811-0.158,1.152-0.352
		c3.687-2.085,6.798-4.823,9.247-8.291c0.429-0.607,0.89-1.207,1.226-1.867c1.665-3.27,2.108-6.877,2.627-10.428
		c0.412-2.81,0.59-5.674,0.625-8.518c0.051-4.113-0.143-8.224-2.517-11.78c-2.361-1.208-3.773-2.346-5.058-3.977
		c-1.017-0.614-1.774-1.218-2.635-1.567c-4.628-1.878-8.745-4.748-13.285-6.783C22.63,10.823,20.951,10.273,19,10.71
		c-1.877,0.421-3.981,0.959-5.79,0.611c-0.484-0.093-0.613,0.517-0.586,0.607c0.332,1.125,0.727,1.857,0.861,2.865
		c0.158,1.183-0.125,2.473-0.034,3.667c0.229,3.042,0.515,6.081,0.744,9.123c0.041,0.539,0.038,0.669,0.001,1.254
		c-0.03,0.474-0.034,0.485,0.031,0.715C14.297,29.798,14.941,29.979,14.806,30.524 M38.514,70.835
		c-0.292-0.044-0.509,0.054-0.413,0.239c0.097,0.188,0.199,0.315,0.36,0.362c0.161,0.046,0.806,0.007,0.952-0.142
		C39.56,71.146,38.806,70.878,38.514,70.835"/>
	<path clip-path="url(#SVGID_2_)" fill="#001489" d="M218.422,13.923c0.502-0.341,2.325-0.038,3.21-0.256
		c1.327-0.326,2.539-0.089,3.748,0.397c1.048,0.422,2.081,0.881,3.139,1.276c0.366,0.137,0.857,0.075,1.102,0.174
		c0.734,0.296,1.854,1.566,2.962,2.477c0.482,0.396,0.564,1.268,0.528,1.413c-0.257,1.034,0.002,1.766-0.683,2.679
		c-0.209,0.279-0.807,0.472-1.021,0.517c-0.98,0.206-1.402,0.759-2.364,0.966c-0.941,0.202-2.423,0.057-3.31,0.388
		c-0.348,0.13-0.748,0.558-1.1,0.668c-2.955,0.924-5.969,0.892-8.988,1.427c-2.242,0.398-4.534,0.651-6.808,0.684
		c-1.287,0.019-2.582-0.463-4.08-0.799c-0.077-0.017-0.213,0.097-0.202,0.171c0.083,0.571,0.357,1.319,0.436,1.863
		c0.09,0.625,0.247,1.506,0.334,2.119c0.311,2.188,0.943,3.893,0.831,6.165c-0.047,0.928,0.374,1.333,0.683,2.267
		c0.462,1.398,0.697,3.24,0.334,4.852c-0.014,0.063,0.164,0.23,0.247,0.218c1.21-0.168,2.095-0.143,3.101-0.673
		c0.938-0.495,1.967-0.654,3.116-0.485c1.983,0.292,4.009,0.278,6.013,0.45c1.684,0.145,3.044,1.039,4.194,2.185
		c0.64,0.638,1.39,1.492,0.609,2.579c-0.02,0.027-0.128,0.204-0.384,0.134c-0.529-0.144-0.81-0.193-1.293-0.075
		c-0.239,0.059-0.443,0.472-1.171,0.623c-0.218,0.046-1.092,0.105-1.319,0.119c-0.601,0.04-1.196,0.15-1.802,0.285
		c-0.694,0.155-1.414,0.498-1.758,0.58c-0.219,0.051-0.552-0.157-0.589-0.21c-0.228-0.326-0.516-0.737-0.961-1.373
		c-0.021-0.031-0.069-0.094-0.079,0.08c-0.038,0.653,0.103,1.206,0.063,1.7c-0.011,0.134-0.041,0.344-0.146,0.437
		c-0.027,0.024-0.996,0.122-1.112,0.122c-0.553,0-0.512-0.139-1.066-0.139c-0.672,0-0.96,0.081-1.654,0.081
		c-0.574,0-1.26-0.093-1.863-0.112c-0.12-0.004-0.213,0.144-0.182,0.322c0.657,3.726,1.539,7.302,0.539,10.533
		c-0.038,0.124-0.154,0.933-0.027,1.516c0.326,1.491-0.122,1.714-0.076,2.688c0.043,0.937,0.255,2.345,0.395,2.443
		c0.138,0.102,3.305,0.638,5.046,0.234c3.109-0.72,6.293-0.711,9.441-0.256c2.05,0.296,4.149,0.966,6.149,1.351
		c1.64,0.315,3.025,0.821,4.654,1.16c0.624,0.13,1.635,0.468,1.763,0.636c0.197,0.262,0.252,2.256-0.128,2.473
		c-0.42,0.236-3.193,0.63-4.902,0.669c-1.596,0.037-3.327-0.502-4.886,0.609c-0.507,0.362-1.911,0.147-2.254,0.185
		c-0.342,0.037-1.01,0.754-1.74,0.92c-0.729,0.165-4.778-0.559-6.973,0.518c-1.709,0.836-3.52,0.916-5.27,1.385
		c-1.527,0.41-3.007,0.872-4.051,1.976c-0.199,0.211-0.355,0.545-0.547,0.706c-0.192,0.162-0.691,0.287-1.048,0.375
		c-3.573,0.871-7.86-1.879-9.015-4.905c-1.067-2.794-1.39-2.779-3.444-4.415c-0.613-0.49-0.31-0.962-0.474-1.266
		c-0.208-0.385-0.729-0.543-0.753-1.716c-0.014-0.736,0.241-0.754,0.365-0.869c0.606-0.566,0.251-1.41,0.21-1.918
		c-0.152-1.901,0.301-3.854,0.122-5.75c-0.207-2.194-0.822-4.351-1.265-6.521c-0.364-1.784-0.823-3.552-1.086-5.35
		c-0.361-2.463-0.548-4.953-0.875-7.422c-0.095-0.717-0.548-1.393-0.608-2.107c-0.182-2.178-1.214-4.189-1.041-6.461
		c0.105-1.384-0.265-2.821-0.536-4.212c-0.439-2.247-0.37-4.504-0.332-6.768c0.007-0.462,0.074-1.102-0.47-1.522
		c-2.152-1.662-2.49-2.843-1.215-4.995c0.187-0.315,0.641-0.223,0.722-0.187c0.67,0.302,1.002,0.591,1.785,0.943
		c0.14,0.064,0.626,0.19,0.73,0.193c1.629,0.042,4.301,0.846,8.641,2.664c0.13,0.055,0.65,0.122,0.779,0.1
		c2.207-0.38,4.541-0.776,6.872-1.19c2.4-0.428,4.813-0.804,7.189-1.337C213.897,14.794,217.157,14.785,218.422,13.923
		 M210.047,46.953c0.035,0.238,0.426,0.432,0.635,0.478c0.344,0.075,0.396-0.79,0.256-0.938c-0.227-0.239-0.553-0.181-0.489-0.35
		c0.095-0.252,0.088-0.688-0.169-0.903c-0.257-0.214-0.785,0.324-0.798,0.542c-0.04,0.699,0.748,0.455,0.862,0.595
		C210.458,46.514,210.011,46.703,210.047,46.953 M200.649,50.062c-0.04-0.035-0.52-0.239-0.71-0.012
		c-0.191,0.226-0.153,1.352,0.006,1.432c0.158,0.08,0.892,0.17,1.194,0.125C201.441,51.564,200.689,50.096,200.649,50.062
		 M196.119,53.555c0.779-0.197,1.027-1.476,0.67-1.565c-0.356-0.089-1.998,0.325-1.887,0.675
		C194.926,52.739,195.613,53.684,196.119,53.555 M212.475,45.054c-0.172,0.146-0.087,1.124,0.186,1.258
		c0.148,0.072,0.975-0.693,0.872-0.889C213.43,45.229,212.648,44.907,212.475,45.054 M192.957,21.291
		c-0.048,0.29,0.225,0.4,0.37,0.337c0.144-0.061,0.578-0.632,0.562-0.908c-0.016-0.275-0.502-0.308-0.676-0.139
		C193.04,20.75,193.005,21.001,192.957,21.291 M207.743,49.303c-0.144-0.086-0.478,0.071-0.365,0.296
		c0.113,0.223,0.447,0.619,0.579,0.666c0.132,0.047,0.326,0.006,0.237-0.166S207.885,49.389,207.743,49.303 M199.946,53.228
		c0.015-0.094-0.386-0.407-0.596-0.312c-0.139,0.062-0.25,0.465-0.25,0.569c0,0.152,0.36,0.423,0.483,0.438
		C199.707,53.936,199.93,53.32,199.946,53.228 M212.639,47.168c-0.245,0.011-0.247,0.234-0.175,0.406
		c0.071,0.173,0.261,0.22,0.366,0.239c0.106,0.02,0.12-0.159,0.091-0.253C212.893,47.465,212.884,47.156,212.639,47.168
		 M204.475,50.231c0.022,0.052,0.403-0.16,0.46-0.327c0.056-0.167-0.273-0.327-0.425-0.186
		C204.357,49.86,204.452,50.177,204.475,50.231 M193.639,52.303c0.073-0.225-0.251-0.426-0.484-0.297
		c-0.233,0.13-0.358,0.278-0.233,0.605C193.06,52.975,193.543,52.597,193.639,52.303 M200.829,47.459
		c-0.126-0.094-0.185,0.163-0.186,0.278c0,0.117-0.031,0.372,0.082,0.456c0.114,0.083,0.618,0.102,0.576-0.078
		C201.26,47.939,200.956,47.552,200.829,47.459 M205.791,45.054c-0.077-0.136-0.329-0.027-0.315,0.099
		c0.015,0.125-0.04,0.414,0.082,0.489c0.122,0.074,0.368,0.193,0.431,0.058C206.052,45.566,205.867,45.19,205.791,45.054
		 M196.89,53.378c0.021,0.078,0.023,0.08,0.095,0.073c0.072-0.008,0.119,0.002,0.017-0.116
		C196.899,53.218,196.869,53.301,196.89,53.378"/>
	<path clip-path="url(#SVGID_2_)" fill="#001489" d="M83.78,13.364c0.389-0.885,1.273-1.102,1.398-1.77s-0.291-1.096,0.154-1.472
		c1.105-0.932,1.637,0.818,2.327,0.217c0.286-0.248,0.325-1.53,1.54-1.99c1.217-0.461,3.226-0.34,4.411-0.263
		c1.328,0.087,2.036,0.309,3.314,0.643c1.279,0.335,2.86,1.018,3.952,1.608c1.18,0.636,2.504,6.343,3.515,6.673
		c1.485,0.485,0.997,1.859,1.237,2.239c1.2,1.906,1.107,3.678,1.938,5.721c0.776,1.91,1.25,3.942,1.891,5.909
		c0.183,0.564,0.512,1.08,0.722,1.637c0.844,2.241,1.614,4.511,2.511,6.729c0.898,2.219,1.861,4.415,2.892,6.576
		c1.631,3.419,2.603,7.014,3.139,10.749c0.314,2.188,0.411,4.369,0.295,6.578c-0.044,0.857,0.313,1.663,0.571,2.498
		c0.414,1.341,1.435,3.722,1.328,4.238s-0.758,1.656-1.173,1.879s-1.413-1.164-1.972-0.482c-0.473,0.579-2.511,0.666-2.981,0.621
		c-0.47-0.044-1.164-0.859-1.444-1.35c-0.727-1.27-0.951-2.04-1.724-3.277c-0.411-0.656-0.383-1.321-1.025-1.785
		c-0.591-0.426-2.005-0.906-2.468-1.336c-0.82-0.756-1.153-2.604-1.512-4.781c-0.684-4.157-0.899-9.252-1.01-9.935
		c-0.056-0.345-1.372,0.359-2.059,0.525c-0.838,0.202-1.616,0.523-2.454,0.729c-2.549,0.624-4.915,1.235-7.483,1.771
		c-2.147,0.447-4.021,0.069-4.55-0.59c-0.529-0.66-0.562-1.611-0.808-1.844c-0.246-0.231-1.084,0.204-1.113,0.797
		c-0.068,1.387-0.039,2.782-0.194,4.157c-0.081,0.712-0.499,1.38-0.717,2.084c-0.816,2.64-1.217,5.017-2.013,7.663
		c-0.347,1.152-0.644,2.538-1.024,3.68c-0.166,0.495-0.622,1.378-0.994,1.63c-0.372,0.253-0.958-0.113-1.367,0.109
		c-0.225,0.123-0.296,0.792-0.605,1.429c-0.25,0.513-0.932,1.009-1.009,1.351c-0.078,0.342-0.008,1.471-0.327,1.94
		c-0.318,0.471-2.675,0.519-3.832,0.101c-1.014-0.365-2.111-0.765-2.921-1.684c-0.488-0.555-1.914-0.595-2.097-1.242
		c-0.184-0.649-0.24-1.217-0.235-1.922c0.009-1.074-0.008-2.15,0.046-3.222c0.041-0.803,0.063-1.635,0.294-2.393
		c0.71-2.321,1.457-4.637,2.317-6.905c0.341-0.897,0.654-1.728,0.641-2.716c-0.009-0.707,0.355-1.412,0.466-2.131
		c0.13-0.84,0.111-1.703,0.253-2.54c0.471-2.778,0.959-5.554,1.491-8.321c0.576-2.994,1.177-5.983,1.837-8.959
		c0.163-0.739,0.505-1.475,0.919-2.114c1.251-1.929,1.31-4.23,2.067-6.309c0.486-1.331,1.01-2.651,1.422-4.006
		C82.277,18.141,83.411,14.207,83.78,13.364 M102.697,42.629c0.602-0.787,0.222-1.905-0.237-2.89
		c-1.269-2.721-2.622-5.412-3.729-8.199c-1.06-2.67-2.256-5.302-2.815-8.161c-0.209-1.067-1.183-3.411-1.31-3.46
		c-0.127-0.049-0.659,1.086-0.858,1.524c-0.695,1.527-1.307,3.095-2.054,4.595c-1.898,3.813-3.086,7.83-3.567,12.052
		c-0.09,0.789,0.284,1.69,0.029,2.388c-0.588,1.606,0.021,4.532,0.547,4.531c0.269,0,3.674-0.732,7.096-1.381
		C99.479,42.929,102.405,43.012,102.697,42.629"/>
	<path clip-path="url(#SVGID_2_)" fill="#001489" d="M180.183,79.767c0.939,0.575,2.652,3.192,2.801,3.639
		c0.149,0.445-0.091,1.696-0.348,1.921c-0.474,0.412-3.849,0.966-4.782,0.918c-0.519-0.027-2.96-1.371-5.567-3.332
		c-2.077-1.563-4.246-3.604-5.723-5.049c-3.022-2.959-5.974-6.017-9.224-8.708c-1.972-1.634-3.48-3.494-4.917-5.554
		c-1.676-2.4-4.678-6.564-5.411-6.938c-0.734-0.373-0.284,0.924-0.307,1.661c-0.009,0.302-0.424,4.892-0.631,8.069
		c-0.113,1.735-0.572,3.565,0.068,5.33c0.219,0.604,0.789,1.42,0.609,2.049c-0.43,1.507-1.673,1.09-2.437,1.019
		c-0.305-0.029-1.152,0.163-1.615,0.039c-0.278-0.075-0.453-0.524-0.706-0.575c-0.579-0.118-0.815-0.072-1.036-0.356
		c-0.478-0.613-1.931-2.89-2.938-4.3c-0.348-0.486-0.886-0.835-1.241-1.317c-0.505-0.687-0.952-1.422-1.368-2.168
		c-1.028-1.848-1.532-3.701-1.071-5.928c0.267-1.293-0.809-3.608-0.713-4.418c0.069-0.579,0.565-0.723,0.75-1.783
		c0.19-1.084,0.006-2.693,0.061-3.652c0.235-4.096-1.138-8.002-1.597-12.02c-0.151-1.324-0.382-2.686-0.218-3.985
		c0.132-1.04,0.1-2.009-0.14-2.981c-0.466-1.89,0.006-3.733,0.243-5.576c0.175-1.358-0.193-3.395-0.416-4.362
		c-0.059-0.251-0.205-0.411-0.2-0.552c0.003-0.077,0.117-0.265,0.301-0.46c0.507-0.535,1.837-2.079,2.362-2.32
		c0.526-0.24,2.757-0.968,4.219-1.876c0.591-0.367,1.418-0.615,2.097-0.541c1.8,0.197,3.922,0.212,5.742,0.321
		c2.492,0.15,4.684,0.383,7.138,0.658c2.785,0.312,5.727,0.635,8.034,2.716c0.832,0.75,1.949,1.181,2.926,1.776
		c1.578,0.96,2.901,2.207,3.935,3.729c0.785,1.154,1.559,2.341,2.259,3.551c0.23,0.397,0.516,0.962,0.575,1.413
		c0.393,3.001,0.861,5.907,0.978,8.92c0.093,2.413-0.712,4.777-2.146,6.815c-1.319,1.873-2.52,3.854-4.024,5.565
		c-1.431,1.629-3.431,2.592-5.415,3.461c-1.276,0.558-2.306,1.146-3.865,0.825c-0.524-0.108-1.592,0.262-2.294,0.056
		c-1.033-0.303-1.811,0.032-1.851,0.219c-0.064,0.296,0.838,0.706,1.832,1.22c0.886,0.457,1.076,1.128,1.719,1.53
		c2.445,1.534,4.206,3.607,5.622,6.111c1.798,3.179,4.435,5.709,7.204,8.024c1.793,1.499,3.897,2.625,5.855,3.93
		c0.279,0.185,0.548,0.404,0.771,0.652C177.243,78.445,179.243,79.194,180.183,79.767 M142.889,34.855
		c0.48,0.715,0.908,1.953,0.507,3.24c-0.321,1.029-0.296,1.974-0.045,2.979c0.114,0.453,0.211,0.96,0.119,1.403
		c-0.288,1.39,0.128,2.659,0.463,3.93c2.938,0.427,2.937,0.426,5.673-0.32c0.131-0.035,0.265-0.058,0.396-0.091
		c3.597-0.896,7.102-2.036,9.48-5.108c1.27-1.64,2.588-3.373,3.292-5.282c0.693-1.876,1.269-3.991,0.396-6.092
		c-0.147-0.353-0.112-0.799-0.097-1.2c0.05-1.296-0.507-2.339-1.176-3.408c-0.867-1.387-2.501-1.531-3.539-2.47
		c-2.478-0.072-4.879-0.114-7.276-0.224c-0.921-0.043-2.059,0.053-2.7-0.436c-0.92-0.703-1.688-0.559-2.584-0.6
		c-0.546-0.025-0.607-0.114-1.21,0.151c-0.116,0.052-0.597,0.611-0.711,0.663c-0.203,0.09-0.669-0.095-0.854,0.015
		c-0.285,0.17-0.428,0.151-0.674,0.334c-0.133,0.099-0.172,0.373-0.169,0.417C142.424,26.919,142.641,30.617,142.889,34.855
		 M164.81,28.138c0.18-0.051,0.269-0.281,0.039-0.279c-0.229,0.002-0.272,0.084-0.271,0.186
		C164.578,28.147,164.63,28.189,164.81,28.138 M144.768,17.471c0.119,0,0.214-0.186,0.241-0.252
		c0.027-0.066-0.089-0.091-0.245-0.105c-0.155-0.014-0.209,0.14-0.213,0.21C144.547,17.394,144.649,17.47,144.768,17.471"/>
	<path clip-path="url(#SVGID_2_)" fill="#001489" d="M97.884,7.423c0,0.185-0.116,0.334-0.26,0.334s-0.342-0.168-0.261-0.334
		c0.116-0.234,0.199-0.334,0.343-0.334C97.85,7.089,97.884,7.238,97.884,7.423"/>
	<path clip-path="url(#SVGID_2_)" fill="#001489" d="M1.586,70.512c0.088,0.162-0.1,0.301-0.227,0.369
		c-0.126,0.068-0.38,0.015-0.388-0.17c-0.01-0.262-0.129-0.513-0.002-0.581C1.096,70.062,1.499,70.349,1.586,70.512"/>
	<path clip-path="url(#SVGID_2_)" fill="#001489" d="M173.149,23.441c-0.373,0.326,0.34,0.773,0.526,0.588
		C173.86,23.843,173.892,22.792,173.149,23.441"/>
	<path clip-path="url(#SVGID_2_)" fill="#001489" d="M151.341,66.315c0.016,0.525,0.154,0.929,0.526,0.772
		c0.371-0.153,0.711-0.711,0.34-1.051S151.333,66.041,151.341,66.315"/>
	<path clip-path="url(#SVGID_2_)" fill="#001489" d="M390.597,12.046c-0.098-0.151-1.238-1.029-1.892-1.384
		c-0.73-0.395-1.061-1.049-0.957-1.652c0.103-0.603,1.256-2.314,2.32-3.161c0.945-0.753,0.722-2.089,0.795-3.025
		c0.074-0.935,0.967-1.435,1.963-0.993c0.171,0.076,0.665,0.018,0.863,0.012c1.289-0.039,2.291-0.065,3.574,0.005
		c1.181,0.064,2.349,0.357,3.525,0.527c0.539,0.078,1.089,0.182,1.623,0.135c0.662-0.06,1.277-0.027,1.911,0.196
		c0.359,0.126,0.782,0.123,1.173,0.1c2.035-0.115,3.91,0.364,5.73,1.29c1.199,0.611,2.513,1.003,3.786,1.461
		c1.24,0.446,2.386,1.04,3.204,1.818c0.922,1.743,1.783,3.307,2.577,4.905c0.327,0.657,0.669,1.373,0.727,2.085
		c0.195,2.397,1.027,4.781,0.215,7.216c-0.14,0.416-0.144,0.89-0.14,1.338c0.021,2.052-0.432,4.034-0.868,6.018
		c-0.203,0.92-0.449,1.834-0.742,2.729c-0.15,0.462-0.446,0.877-0.513,1.002c-0.648,2.581-1.039,4.883-2.521,6.808
		c-0.604,0.784-1.072,1.677-1.705,2.433c-0.702,0.839-1.537,1.566-2.288,2.365c-0.729,0.775-1.481,1.386-2.613,1.61
		c-0.728,0.144-1.349,0.815-2.003,1.24c-0.131,1.166,0.734,1.814,1.287,2.474c1.055,1.255,2.065,2.54,3,3.877
		c0.582,0.834,1.157,1.647,2.014,2.198c1.26,0.807,2.134,1.939,2.927,3.177c0.619,0.967,1.372,1.849,1.988,2.816
		c0.853,1.339,1.652,2.71,2.432,4.09c0.644,1.14,1.396,2.047,2.567,2.801c1.606,1.034,3.091,2.345,4.1,4.069
		c0.297,0.506,0.76,0.911,1.127,1.379c0.387,0.492,1.184,1.047,1.184,1.59s-0.949,1.375-1.381,1.499
		c-0.431,0.123-1.323,0.123-1.464,0.123c-0.142,0-0.332-0.16-0.446-0.254c-1.522-1.251-3.092-2.443-4.648-3.651
		c-0.938-0.73-1.631-1.582-2.081-2.69c-0.589-1.452-1.508-2.692-2.705-3.728c-0.288-0.25-0.488-0.612-0.704-0.938
		c-0.855-1.284-1.78-2.496-3.129-3.321c-0.243-0.149-0.412-0.417-0.616-0.632c-1.54-1.629-3.1-3.239-4.615-4.892
		c-1.308-1.426-2.573-2.894-3.845-4.354c-0.556-0.64-0.991-1.419-1.644-1.927c-0.648-0.504-1.469-0.869-2.271-1.072
		c-1.124-0.286-1.894-0.778-2.571-1.805c-0.707-1.069-1.473-2.089-2.047-3.25c-0.331-0.669-0.998-0.689-1.188-0.601
		c-0.19,0.088-0.175,0.767-0.165,1.157c0.008,0.248,0.092,0.504,0.05,0.742c-0.406,2.294-0.835,4.585-1.247,6.879
		c-0.052,0.291-0.107,0.609-0.041,0.888c0.371,1.545,0.158,3.063-0.087,4.597c-0.155,0.971-0.291,1.959-0.273,2.938
		c0.045,2.412-0.528,4.727-0.955,7.067c-0.14,0.769-0.271,1.572-0.192,2.338c0.107,1.032-0.186,1.979-0.375,2.948
		c-0.091,0.462-0.186,1.149-0.487,1.382c-0.302,0.235-2.715,0.24-3.051,0c-0.337-0.237-0.663-1.257-0.875-1.421
		c-0.212-0.165-0.496-0.169-0.868-0.232c-0.233-0.041-0.127-0.739-0.541-1.463c-0.169-0.294-0.346-0.483-0.659-0.665
		c-0.119-0.069-0.497-0.274-0.562-0.371c-0.127-0.347-0.196-0.884-0.242-1.015c-0.463-1.314-0.782-2.276-1.157-3.661
		c-0.283-1.048-0.522-2.181-0.418-3.24c0.186-1.9,0.531-3.784,1.007-5.659c0.556-2.19,0.665-4.492,0.962-6.747
		c0.137-1.033,0.213-2.077,0.396-3.103c0.249-1.395,0.706-2.704,1.753-3.746c0.837-0.833,1.327-1.844,1.471-3.04
		c0.096-0.788,0.361-1.553,0.479-2.34c0.177-1.179,0.302-2.366,0.427-3.552c0.209-1.965,0.452-3.928,0.582-5.899
		c0.086-1.286-0.022-2.584-0.001-3.876c0.021-1.283,0.206-2.571,0.123-3.844c-0.167-2.615,0.596-5.207,0.137-7.82
		C390.731,12.951,390.693,12.196,390.597,12.046 M397.559,27.199c0.125,0.326,0.016,0.996,0.004,1.394
		c-0.063,2.269-0.483,4.485-0.486,6.873c0,0.487-0.021,1.163,0.125,1.221c0.146,0.059,0.503-0.244,0.726-0.46
		c0.543-0.526,0.923-0.941,1.321-1.422c1.296-1.563,2.379-3.341,3.851-4.706c1.157-1.072,1.523-2.285,1.707-3.663
		c0.546-4.103,1.767-8.049,2.806-12.032c0.434-1.666-0.298-2.982-0.819-4.392c-0.093-0.252-0.386-0.476-0.641-0.614
		c-0.65-0.353-1.49-0.764-1.868-0.796c-0.377-0.032-3.432,1.099-5.043,1.75c-0.713,0.288-1.577,0.471-1.787,1.352
		c0,1.161-0.062,2.263,0.016,3.355c0.078,1.111,0.014,2.177-0.263,3.264c-0.67,2.639-0.072,5.304-0.037,7.957
		C397.174,26.652,397.433,26.873,397.559,27.199"/>
	<path clip-path="url(#SVGID_2_)" fill="#001489" d="M504.728,80.679c-0.29,0.336-2.163,0.433-2.612,0.337
		c-0.449-0.097-0.662-0.253-1-0.349c-0.886-0.253-1.462-0.822-1.827-1.655c-0.18-0.405-0.427-0.782-0.66-1.16
		c-0.568-0.917-1.238-1.729-2.048-2.469c-0.548-0.5-0.941-1.297-1.131-2.031c-0.324-1.263-0.558-2.536-0.299-3.905
		c0.217-1.143,0.041-2.362,0.02-3.547c-0.022-1.238,0-2.48-0.122-3.709c-0.177-1.786-0.194-3.561,0.021-5.34
		c0.013-0.098-0.006-0.2-0.016-0.301c-0.306-3.185,0.287-6.29,0.71-9.428c0.32-2.371,0.896-4.653,1.489-6.956
		c0.452-1.753,0.682-3.562,1.006-5.347c0.028-0.146,0.063-0.307,0.032-0.445c-0.379-1.654,0.15-3.248,0.39-4.843
		c0.261-1.742,0.584-3.489,0.858-5.226c0.45-2.861,1.308-5.596,2.153-8.332c0.434-1.401,1.254-2.707,2.037-3.97
		c0.515-0.828,1.058-2.374,1.837-2.393c0.78-0.018,1.063,0.34,1.351,0.318c0.287-0.021,0.545-0.599,1.166-0.599
		c0.622,0,1.308,0.318,1.839,0.556c0.439,0.197,1.009,0.295,1.218,0.734c0.247,0.518,0.848,0.536,1.106,0.743
		c0.339,0.273,0.263,0.51,0.555,0.835c0.195,0.216,0.306,0.523,0.528,0.696c1.098,0.857,1.213,1.989,1.015,3.25
		c-0.204,1.301-0.59,2.511-1.414,3.568c-0.27,0.347-0.424,0.786-0.623,1.188c-0.287,0.58-0.593,1.153-0.841,1.749
		c-0.209,0.501-0.308,1.049-0.523,1.547c-1.294,2.991-1.549,6.243-2.222,9.375c-0.549,2.549-1.134,5.112-1.511,7.704
		c-0.035,0.242-0.036,0.507,0.021,0.743c0.276,1.144,0.005,2.269-0.152,3.383c-0.207,1.463-0.802,4.177-0.768,4.454
		c0.035,0.275,0.718,0.809,0.978,0.829c0.258,0.019,3.282-0.52,4.985-0.855c1.119-0.22,2.319-0.023,3.357-0.688
		c0.188-0.12,0.505-0.118,0.741-0.068c1.462,0.311,2.872-0.094,4.173-0.224c0.818-0.395,1.012-1.05,0.951-1.698
		c-0.314-3.271,0.61-6.346,1.462-9.424c0.519-1.872,0.759-3.786,1.098-5.686c0.254-1.417,0.464-2.842,0.683-4.266
		c0.29-1.9,0.757-3.776,0.508-5.736c-0.099-0.772-0.048-2.224,0.103-2.564c0.132-0.296,1.659-3.998,2.177-6.915
		c0.075-0.422,0.079-0.644,0.154-1.205s1.009-0.963,1.639-0.941c0.357,0.012,0.727,0.166,1.112,0.286
		c0.607,0.187,1.598,0.342,2,0.646c0.402,0.303,3.331,3.926,3.46,4.25c0.129,0.323,0.256,3.12-0.218,4.794
		c-0.157,0.56-0.404,1.105-0.481,1.675c-0.352,2.587-0.933,5.132-1.026,7.768c-0.083,2.306,0.104,4.641-0.446,6.927
		c-0.531,2.212-1.029,4.432-1.488,6.66c-0.247,1.203-0.428,2.425-0.546,3.647c-0.046,0.472,0.082,1.448,0.375,1.488
		c0.266,0.036,2.126,0.35,3.528,1.103c0.821,0.44,1.494,1.282,1.723,1.79c0.23,0.506-0.721,1.06-1.474,1.152
		c-0.998,0.123-1.995,0.269-2.998,0.341c-0.747,0.052-1.647,0.541-1.776,1.009c-0.128,0.466-0.331,2.149-0.447,3.285
		c-0.204,2.01-0.431,4.021-0.567,6.036c-0.142,2.072-0.116,4.158-0.3,6.225c-0.118,1.316-0.802,3.712-0.798,4.216
		c0.004,0.283,0.637,4.354,0.924,6.746c0.006,0.057,0.061,0.529-0.285,0.714c-0.934,0.497-1.353,0.54-1.935,0.564
		c-0.627,0.025-1.403-0.41-2.762-0.811c-0.07-0.021-0.29-0.088-0.438-0.399c-0.636-1.319-1.438-4.049-2.111-4.324
		c-0.673-0.273-1.632-1.416-2.249-2.543c-0.262-0.477-0.225-1.151-0.217-1.735c0.014-0.982,0.384-2.046,0.119-2.93
		c-0.501-1.664-0.134-3.305-0.298-4.924c-0.15-1.481,0.227-2.854,0.28-4.278c0.053-1.371,0.804-4.064,0.745-4.284
		s-0.599-0.719-1.001-0.809c-0.606-0.137-1.368-0.201-1.896,0.054c-1.411,0.677-2.933,0.393-4.381,0.679
		c-0.506,0.1-1.043,0.09-1.575,0.238c-1.2,0.333-2.359,0.119-3.498-0.396c-0.723-0.327-1.463-0.747-2.366-0.487
		c-0.106,0.032-0.273,0.201-0.404,0.381c-0.13,0.182-0.87,1.673-0.719,2.926c0.091,0.75-0.207,1.553-0.359,2.326
		c-0.236,1.202,0.15,2.399,0.086,3.57c-0.182,3.289,0.683,6.47,0.785,9.715c0.048,1.521-0.203,3.052-0.346,4.575
		C504.979,79.051,505.018,80.343,504.728,80.679"/>
	<path clip-path="url(#SVGID_2_)" fill="#001489" d="M710.324,17.632c-0.285-1.081-0.463-2.038,0.51-3.258
		c0.971-1.221,3.296,0.686,5.16-0.177c0.374-0.544,0.396-1.593,1.586-1.593c1.188,0,0.927,1.005,0.659,1.264
		c-0.239,0.231-0.604,0.244-0.945,0.504c-0.04,0.031,0.015,0.237,0.093,0.31c0.425,0.395,1.053,0.891,1.457,1.351
		c0.617,0.701,0.897,1.314,1.072,1.329c0.307,0.027,0.755-0.779,1.106-0.882c0.354-0.103,2.561,0.487,3.887,0.704
		c0.478,0.079,0.981,0.142,1.452,0.065c3.016-0.495,5.853,0.295,8.6,1.449c2.391,1.004,4.731,2.11,7.213,2.889
		c2.564,0.805,4.596,2.63,6.541,4.566c1.429,1.423,2.398,3.145,3.295,4.947c0.077,0.154,0.257,0.407,0.37,0.497
		c1.439,1.145,1.815,3.015,3.037,4.345c0.336,0.366,0.678,0.83,0.787,1.31c0.6,2.609,1.335,5.213,1.612,7.867
		c0.215,2.051,0.453,4.097,0.653,5.802c-0.677,4.504-1.068,8.566-1.262,12.998c-0.037,0.83,0.23,2.52-0.492,3.38
		c-0.254,0.304-0.107,1.186-0.113,1.406c-0.047,1.724-1.091,2.848-1.775,4.423c-0.413,0.951-0.948,2.009-1.55,2.833
		c-0.7,0.96-1.628,1.943-2.551,2.621c-2.56,1.881-4.947,3.112-7.888,4.179c-1.06,0.385-3.528,0.618-3.694,0.538
		s-0.503-0.539-0.682-0.376c-0.182,0.163-0.178,0.473-0.991,0.687c-0.959,0.251-1.944,0.397-2.926,0.521
		c-1.247,0.154-2.516,0.148-3.744,0.39c-1.044,0.204-2.037,0.204-3.078,0.033c-1.766-0.289-3.545-0.506-5.324-0.667
		c-0.428-0.039-0.936,0.21-1.067,0.515c-0.133,0.304,0.112,2.657-0.202,3.178c-0.135,0.222-1.036,0.986-1.178,1.018
		c-0.142,0.034-0.853-0.253-1.134-0.194c-0.281,0.057-1.751,0.784-2.019,0.784s-2.295,0.302-3.379-0.353
		c-0.152-0.092-0.688-0.62-0.836-1.329c-0.152-0.722-0.424-1.29-0.515-1.344c-0.181-0.108-0.544-0.013-1.018-0.006
		c-0.427,0.007-0.216-0.844-0.793-1.281c-0.741-0.562-1.996-0.209-2.055-1.178c-0.027-0.447-0.503-2.351-0.471-3.797
		c0.026-1.217,0.136-2.521-0.451-3.709c-0.156-0.32-0.092-0.798-0.054-1.193c0.233-2.406,0.566-4.804,0.711-7.215
		c0.152-2.535,0.108-5.084,0.193-7.625c0.046-1.374,0.163-2.747,0.287-4.117c0.097-1.104-0.274-2.144-0.141-3.3
		c0.238-2.062,0.086-4.173,0.105-6.263c0.023-2.556-0.021-5.114,0.11-7.664c0.088-1.673-0.366-3.348,0.174-5.036
		c0.227-0.713,0.032-1.599-0.035-2.4c-0.131-1.575,0.255-3.126,0.249-4.663c-0.011-2.894,0.798-5.601,1.231-8.391
		C710.151,18.094,710.248,17.877,710.324,17.632 M724.311,25.336c0.009,0.444-1.491,2.672-1.713,4.695
		c-0.039,0.355,0.129,0.725,0.138,0.931c0.01,0.205-0.205,0.317-0.255,0.422c-0.631,1.332-0.514,2.822-0.758,4.233
		c-0.305,1.769-0.492,3.564-0.692,5.352c-0.175,1.559-0.463,3.13-0.409,4.684c0.12,3.474-0.031,6.938-0.007,10.408
		c0.011,1.441,0.053,2.909,0.311,4.317c0.591,3.227,0.84,6.455,0.505,9.725c-0.123,1.197-0.136,2.291-0.261,3.487
		c-0.092,0.861-0.108,2.367-0.143,2.724c-0.035,0.356-0.062,2.532,0.153,2.652s2.832-0.144,4.185-0.239
		c1.03-0.073,2.146,0.047,3.063-0.348c1.068-0.46,2.121-0.295,3.152-0.495c2.137-0.414,4.293-0.683,6.389-1.489
		c3.251-1.251,5.769-3.353,7.562-6.418c1.391-2.38,2.331-4.971,2.901-7.762c0.652-3.187,1.049-6.39,1.285-9.627
		c0.105-1.439,0.319-2.903,0.183-4.323c-0.317-3.312-0.804-6.608-1.253-9.907c-0.188-1.383-0.612-2.668-1.16-3.969
		c-0.736-1.748-1.924-3.095-2.881-4.64c-0.648-1.049-1.454-1.911-2.539-2.406c-0.619-0.123-1.22-0.306-1.82-0.489
		c-0.265-0.08-0.535-0.248-0.792-0.224c-1.453,0.137-2.61-0.636-3.812-1.321c-1.165-0.663-2.397-1.023-3.744-1.135
		c-2.534-0.209-5.121-0.124-7.553-1.159c-0.148-0.063-0.979-0.042-0.299,0.646C724.307,23.927,724.3,24.813,724.311,25.336
		 M735.893,81.431c-0.247,0.271-0.445,1.156-0.183,1.363c0.262,0.208,1.313-0.038,1.337-0.359
		C737.069,82.113,736.139,81.161,735.893,81.431 M711.457,29.566c0.382,0.204,1.113-0.478,1.294-0.829
		c0.118-0.23,0.062-0.594-0.218-0.703c-0.751-0.294-0.35,0.83-0.591,0.961C711.628,29.168,711.354,29.511,711.457,29.566
		 M716.155,87.687c0.213,0.484-0.195,0.444-0.032,0.673c0.233,0.327,0.916-0.035,0.97-0.316
		C717.146,87.76,715.943,87.205,716.155,87.687 M748.658,71.731c0.323-0.009,0.405-0.125,0.52-0.405
		c0.143-0.352,0.322-0.651-0.009-0.688C748.573,70.57,747.931,71.748,748.658,71.731 M756.695,57.883
		c-0.357-0.562-0.828,0.478-0.508,0.621C756.507,58.648,757.053,58.449,756.695,57.883 M745.701,76.516
		c-0.25,0.159-0.185,0.418-0.037,0.518c0.146,0.098,0.488-0.009,0.698-0.062c0.21-0.052,0.062-0.286-0.027-0.363
		C746.172,76.469,745.951,76.358,745.701,76.516 M755.62,51.47c-0.002,0.086,0.523,0.186,0.576,0.081
		c0.054-0.103-0.019-0.488-0.15-0.596C755.914,50.846,755.623,51.384,755.62,51.47 M710.834,79.385
		c0.027-0.127,0.222-0.179,0.013-0.439c-0.198-0.248-0.458,0.66-0.136,0.688C711.031,79.663,710.816,79.46,710.834,79.385
		 M727.598,82.557c-0.17-0.234-0.434-0.206-0.535-0.168c-0.075,0.029-0.101,0.416,0.006,0.479
		C727.431,83.079,727.768,82.794,727.598,82.557 M732.253,83.611c0.13,0.07,0.27-0.262,0.15-0.393
		c-0.12-0.129-0.389,0.075-0.341,0.23C732.083,83.508,732.121,83.54,732.253,83.611 M731,79.961
		c-0.12-0.109-0.236-0.046-0.178,0.128c0.059,0.173-0.076,0.258,0.164,0.27C731.131,80.366,731.101,80.054,731,79.961
		 M743.566,78.653c-0.104-0.239-0.329-0.177-0.303-0.031c0.027,0.146,0.006,0.204,0.133,0.273
		C743.522,78.964,743.671,78.89,743.566,78.653"/>
	<path clip-path="url(#SVGID_2_)" fill="#001489" d="M372.645,31.205c0.773,1.314,0.495,1.966,0.166,3.061
		c-0.318,1.054-0.083,2.201,0.549,3.172c0.498,0.766,0.942,1.527,0.891,2.49c-0.036,0.654,0.35,1.045,0.78,1.375
		c0.107,0.083,0.34,0.124,0.43,0.237c0.091,0.114,0.127,0.427,0.139,0.657c0.065,1.31-0.7,2.983-0.559,3.76
		c0.098,0.541,0.574,1.424,0.67,1.671c0.096,0.246-0.123,1.751-0.087,2.669c0.047,1.222-0.482,2.5-0.916,3.699
		c-0.611,1.687-1.357,3.325-2.054,4.981c-0.561,1.33-1.021,2.681-1.394,4.086c-0.443,1.671-1.243,3.247-1.894,4.862
		c-0.035,0.086-0.122,0.156-0.197,0.219c-1.002,0.836-1.9,1.829-3.141,2.312c-0.177,0.067-0.462,0.271-0.51,0.35
		c-0.133,0.214-0.338,0.598-0.478,0.686c-0.139,0.088-0.594,0.135-0.833,0.221c-1.397,0.504-2.578,1.34-3.771,2.159
		c-2.059,1.414-4.074,2.932-6.349,3.962c-1.579,0.715-3.343,0.975-5.09,1.087c-0.745,0.047-1.495,0.027-2.265,0.016
		c-0.738-0.012-1.035-0.568-1.233-0.854c-1.23-1.774-2.268-3.655-3.132-5.619c-0.914-2.076-1.675-4.223-2.425-6.366
		c-0.307-0.879-0.364-1.828-0.629-2.744c-0.58-2.002-0.94-4.084-1.198-6.156c-0.13-1.051,0.121-2.156,0.265-3.228
		c0.166-1.229,0.404-2.434,0.948-3.581c0.289-0.611,0.261-1.362,0.457-2.026c0.38-1.283,0.781-2.565,1.249-3.82
		c0.169-0.453,0.554-0.826,0.695-1.273c0.115-0.544,0.123-1.146,0.373-1.619c0.358-0.68,0.529-1.306,0.547-2.105
		c0.027-1.26,0.395-2.512,0.61-3.769c0.076-0.439,0.109-0.885,0.195-1.322c0.324-1.63,0.639-3.263,1.01-4.883
		c0.098-0.424,0.419-0.791,0.58-1.206c0.534-1.373,1.344-3.981,1.36-4.219c0.016-0.238,0.864-1.095,0.932-1.167
		c0.082-0.086,0.29-0.371,0.194-0.458c-0.114-0.103-0.25-0.431-0.142-0.694c0.112-0.275,0.498-0.648,0.57-0.976
		c0.287-1.311,1.232-2.314,1.015-3.77c-0.046-0.308,0.151-0.508,0.207-0.587c0.144-0.206,0.375-0.343,0.508-0.591
		c0.087-0.165,0.06-0.484,0.056-0.557c-0.084-1.499,0.725-2.515,1.167-3.849c0.092-0.282,0.337-0.531,0.368-0.81
		c0.16-1.444,1.17-2.526,1.591-3.853c0.395-1.242,0.814-2.308,1.995-3.032c0.136-0.083,0.157-0.931,0.703-0.977
		c0.588-0.049,0.514,0.268,0.6,0.406c0.096,0.154,0.179,0.242,0.311,0.351c0.094,0.078,0.477,0.146,0.574,0.11
		c1.463-0.536,2.834,0.098,4.226,0.358c0.674,0.126,1.618,0.307,1.786,0.269c0.169-0.038,1.048-0.64,1.5-0.767
		c0.787-0.221,1.591,0.113,1.895,0.854c0.7,1.709,1.591,3.302,2.489,4.911c0.637,1.141,0.824,2.527,1.25,3.791
		c0.304,0.904,0.627,1.777,0.353,2.768c-0.083,0.304,0.002,0.736,0.169,1.013c0.409,0.677,0.369,1.413,0.498,2.141
		c0.249,1.406,0.685,2.777,1.038,4.164c0.061,0.242,0.138,0.492,0.132,0.736c-0.035,1.379-0.1,2.757-0.136,4.136
		c-0.006,0.246-0.001,0.554,0.135,0.729c0.388,0.504,0.474,1.047,0.272,1.533C372.537,30.625,372.564,31.069,372.645,31.205
		 M352.668,74.208c0.148-0.048,0.287-0.099,0.421-0.16c3.464-1.62,6.163-4.067,7.809-7.542c0.678-1.432,1.438-2.819,2.012-4.321
		c0.607-1.59,1.183-3.143,1.419-4.831c0.067-0.479,0.302-0.942,0.498-1.398c0.394-0.918,0.933-1.793,1.2-2.745
		c0.625-2.229,1.403-4.393,2.336-6.558c0.049-0.113,0.188-0.407,0.147-0.759c-0.063-0.543,0.045-1.109,0.262-1.711
		c0.372-1.028,0.57-2.225,0.438-3.301c-0.147-1.206,0.339-2.102,0.314-3.267c-0.005-0.248-0.073-0.753-0.063-0.987
		c0.012-0.233,0.146-0.436,0.19-0.562c0.22-0.626,0.013-1.131,0.22-1.733c0.223-0.647,0.64-1.193,0.635-1.954
		c-0.003-0.603,0.157-1.206,0.288-1.845c0.025-0.123,0.061-0.496-0.226-0.671c-0.443-0.271-0.792-0.921-0.934-1.332
		c-0.186-0.539,0.356-1.145,0.334-1.36c-0.022-0.215-0.787-1.86-1.097-2.95c-0.405-1.425-0.643-2.597-0.976-4.042
		c-0.034-0.148-0.158-0.421-0.173-0.579c-0.011-0.116,0.03-0.501,0.036-0.68c0.016-0.553-0.013-1.105-0.094-1.65
		c-0.078-0.53-0.273-1.044-0.413-1.565c-0.103-0.379-0.192-0.761-0.3-1.138c-0.495-1.712-3.112-2.831-3.363-2.797
		c-0.25,0.033-0.759,0.455-0.891,0.79c-0.728,1.845-1.45,3.696-2.062,5.582c-0.456,1.408-0.725,2.877-1.108,4.311
		c-0.332,1.242-0.618,2.508-1.093,3.696c-0.351,0.879-0.37,1.912-0.815,2.651c-1.582,2.629-2.192,5.667-3.76,8.315
		c-0.941,1.59-1.365,3.522-1.829,5.349c-0.459,1.811-0.673,3.683-0.999,5.529c-0.121,0.683-0.403,1.374-0.357,2.044
		c0.144,2.106-0.867,4.073-0.657,6.177c0.013,0.137-0.066,0.297-0.139,0.425c-0.39,0.694-0.468,1.479-0.694,2.215
		c-0.503,1.641-0.406,3.244-0.221,4.89c0.081,0.727-0.098,1.647,0.014,2.077c0.111,0.432,0.856,2.867,1.036,4.277
		c0.188,1.473,0.933,2.606,1.702,3.792C352.091,74.468,352.476,74.269,352.668,74.208"/>
	<path clip-path="url(#SVGID_2_)" fill="#001489" d="M427.407,5.634c-0.983-1.361-3.064-2.938-2.688-3.791
		c0.377-0.853,2.177,0.154,3.12,0.493c0.687,0.247,1.322,0.718,1.889,1.197c0.896,0.758,1.861,1.334,3.019,1.554
		c0.339,0.064,0.684,0.101,1.027,0.132c0.491,0.044,0.985,0.068,1.476,0.106c0.836,0.065,2.521,0.108,2.839,0.227
		c0.316,0.119,0.671,0.361,0.86,0.214c0.657-0.508,1.332-0.319,2.169,0.097c0.51,0.254,1.128,0.287,1.681,0.461
		c1.078,0.333,3.073,0.927,3.337,0.928c0.262,0.001,1.743-0.496,2.089-0.501c0.345-0.006,0.915,0.475,1.122,0.466
		c0.208-0.009,1.153-0.577,1.953-0.337c0.698,0.21,2.383,0.892,4.259,0.692c0.269-0.028,0.598-0.221,0.931-0.191
		c0.333,0.03,0.311,0.482,0.708,0.535c0.398,0.054,0.71-0.161,0.941-0.19c0.273-0.033,0.531-0.086,0.863,0.061
		c0.373,0.164,0.758,0.518,1.29,0.657c0.435,0.113,0.861-0.294,1.293-0.07c0.432,0.225,2.116,0.252,2.531,0.039
		c0.664-0.341,1.122,0.229,1.441,0.255s1.165-0.415,1.866-0.355c0.698,0.061,0.638,0.761,2.098,0.497
		c0.556-0.1,1.62,0.35,1.976,0.264c0.356-0.086,0.685-0.628,1.155-0.66c0.471-0.031,0.901,0.665,1.058,0.676
		c0.268,0.018,0.524-0.279,1.003-0.335c0.174-0.02,0.729,0.11,1.277,0.397c0.729,0.379,1.059,0.478,1.623,0.215
		c0.144-0.066,0.297-0.331,0.656-0.362c0.359-0.032,0.995,0.471,1.399,0.613c0.866,0.303,1.616,0.488,2.463,0.533
		c0.352,0.018,0.645-0.145,1.12-0.019c0.477,0.125,0.693,0.648,1.125,0.876c0.243,0.128,0.52,0.209,0.851,0.199
		c0.282-0.01,0.653,0.304,0.847,0.569c0.35,0.477,0.753,0.682,1.211,0.687c0.231,0.003,0.398-0.241,0.735-0.135
		c0.337,0.105,0.74,0.736,0.927,0.809c0.188,0.074,0.524-0.021,0.635-0.079c0.51-0.266,0.878-0.056,1.18,0.24
		c0.492,0.483,1.024,0.588,1.584,0.549c0.205-0.015,0.577-0.174,0.824,0.06c0.344,0.326,1.244,1.146,1.296,1.702
		c0.049,0.555-0.447,2.11-0.708,2.369c-0.262,0.259-1.957,1.072-2.768,1.075c-0.811,0.004-2.95-0.605-3.97-0.815
		c-1.308-0.124-3.27-0.393-3.501-0.331s-0.463,0.376-0.731,0.362c-0.27-0.015-0.967-0.425-1.484-0.453
		c-0.958-0.051-2.239,0.041-2.577-0.275c-0.215-0.202-1.062-0.029-1.468-0.067c-0.705-0.068-1.412-0.207-2.066,0.02
		c-0.251,0.087-0.447,0.409-0.727,0.451c-0.281,0.042-1.085-0.355-1.624-0.415c-0.349-0.04-0.701-0.049-1.07-0.035
		c-0.825,0.03-1.411-0.126-2.198,0.155c-0.154,0.054-0.399,0.183-0.553,0.276c-0.241,0.147-0.802-0.085-1.148-0.096
		c-1.134-0.037-2.27-0.12-3.4-0.074c-0.525,0.022-1.215,0.431-1.611,0.482c-0.394,0.051-1.019-0.283-1.151-0.224
		s-0.21,0.454-0.154,0.59c0.228,0.551,0.511,1.07,0.65,1.349c0.141,0.279-0.078,2.109-0.149,3.034
		c-0.033,0.439-0.097,0.895-0.251,1.305c-0.372,0.993-0.487,2.003-0.488,3.056c0,0.467,0.201,0.937,0.165,1.416
		c-0.037,0.48-0.377,1.03-0.451,1.556c-0.174,1.221-0.179,2.497-0.292,3.763c-0.118,1.317,0.034,2.631-0.331,3.971
		c-0.49,1.801-0.75,3.674-0.488,5.604c0.261,1.928,0.215,3.894,0.39,5.836c0.148,1.635,0.099,3.253-0.03,4.881
		c-0.03,0.383,0.033,0.827,0.209,1.16c0.83,1.487,0.292,2.405,0.294,2.653c0.002,0.247,0.245,0.721,0.314,1.049
		c0.29,1.359,0.516,2.733,0.791,4.098c0.108,0.533,0.27,1.058,0.437,1.577c0.762,2.362,1.803,6.377,1.542,7.231
		c-0.26,0.856-1.766,1.312-2.286,1.469c-0.521,0.155-3.303-1.587-4.784-2.688c-0.481-0.359-1.576-0.456-1.81-0.567
		c-0.232-0.111-0.414-0.552-0.614-0.831c-0.693-0.977-1.372-1.967-2.083-2.931c-1.137-1.542-1.958-3.19-2.251-5.127
		c-0.243-1.614-0.372-3.24-0.504-4.854c-0.123-1.517,0.157-3.063,0.262-4.597c0.014-0.196,0.071-0.395,0.059-0.59
		c-0.148-2.346-0.188-4.709-0.502-7.034c-0.245-1.813,0.142-3.563,0.137-5.344c-0.002-0.877,0.15-1.754,0.247-2.63
		c0.103-0.931,0.178-1.867,0.341-2.787c0.275-1.562,0.701-3.102,0.892-4.673c0.141-1.172,0.015-2.368,0.333-3.539
		c0.372-1.37,0.347-2.812,0.764-4.194c0.27-0.892,0.649-1.988-0.077-2.941c-0.154-0.202-0.955,0.07-1.439,0.144
		c-0.851,0.129-1.653,0.111-2.516-0.124c-0.875-0.237-1.84-0.165-2.767-0.19c-0.439-0.011-0.895,0.154-1.32,0.089
		c-1.313-0.2-2.61-0.607-3.928-0.678c-1.299-0.07-2.524-0.44-3.781-0.597c-1.176-0.147-2.06-0.639-2.909-1.328
		c-0.69-0.561-1.369-1.145-2.002-1.771c-1.809-1.788-2.998-3.899-3.36-6.458C427.867,6.699,427.548,6.057,427.407,5.634"/>
	<path clip-path="url(#SVGID_2_)" fill="#001489" d="M648.163,10.77c2.231,1.016,2.469,6.483,2.681,6.768
		c0.212,0.285,1.361,1.329,2.382,1.66c0.471,0.151,0.938,0.69,1.16,1.169c0.915,1.972,1.306,4.069,1.306,6.251
		c0,1.372,0.106,2.744,0.142,3.592c-0.143,2.111-0.276,3.71-0.353,5.311c-0.059,1.256-0.052,2.515-0.068,3.773
		c-0.021,1.573-0.026,3.146-0.059,4.719c-0.028,1.356-0.143,2.714-0.117,4.068c0.039,1.975-0.315,3.923-0.166,5.912
		c0.141,1.871,0.021,3.769-0.084,5.648c-0.098,1.753-0.328,3.498-0.494,5.247c-0.02,0.202-0.017,0.41,0.005,0.611
		c0.156,1.477,0.548,2.971,0.421,4.418c-0.134,1.507,0.53,2.905,0.282,4.383c-0.028,0.174,0.1,0.37,0.139,0.561
		c0.11,0.564,0.213,1.131,0.3,1.706c0.138,0.681,0.486,1.406,0.363,2.036c-0.172,0.864,0.693,2.067-0.241,2.487
		c-0.935,0.418-1.808,0.661-2.119,0.661s-0.819-0.071-0.787-0.321c0.032-0.249,0.651-0.722,0.531-0.901
		c-0.118-0.181-1.57,0.92-2.11,0.732c-0.541-0.187-0.559-2.835-1.804-4.431c-0.769-1.444-3.33-2.371-3.627-2.735
		c-0.461-0.567,0.545-0.688,0.613-1.08c0.069-0.392-0.401-3.903,0.051-5.121c0.102-0.272-0.407-0.673-0.362-0.886
		c0.324-1.564-0.417-2.954,0.095-4.558c0.362-1.134,0.342-2.396,0.44-3.604c0.029-0.339-0.062-0.996-0.215-1.139
		c-0.152-0.142-0.842,0.048-1.237,0.061c-0.704,0.023-1.424,0.143-2.11,0.043c-2.622-0.382-5.233-0.831-7.846-1.271
		c-0.345-0.058-0.669-0.223-1.009-0.312c-0.808-0.214-1.91,0.095-2.13,0.811c-0.387,1.261-1.459,1.956-2.152,2.953
		c-0.446,0.64-0.741,1.317-1.096,1.99c-1.193,2.261-2.548,4.435-3.775,6.679c-0.854,1.567-1.838,3.083-2.321,4.829
		c-0.231,0.834-0.144,2.719-0.646,2.661c-0.503-0.059-3.696-0.114-4.264-0.619c-0.566-0.506-1.548-2.552-1.609-2.992
		c-0.061-0.438-0.288-3.241-0.516-3.706c-0.23-0.463-2.614-1.218-2.504-1.75c0.109-0.531,0.521-0.531,0.743-0.802
		c0.326-0.395,0.723-0.767,0.927-1.222c0.479-1.07,0.847-2.19,1.286-3.278c0.535-1.324,1.003-2.657,2.137-3.674
		c0.534-0.479,0.768-1.719,1.108-1.949c0.098-0.065,0.246-0.626,0.536-0.543c0.338,0.096,0.006,0.413,0.116,0.519
		c0.103,0.098,0.274,0.059,0.401,0.024c0.333-0.089,2.42-2.749,3.437-4.304c2.243-3.436,4.018-7.117,5.861-10.766
		c1.494-2.956,3.107-5.854,4.531-8.843c1.057-2.215,1.884-4.54,2.832-6.808c0.649-1.558,1.354-3.093,1.991-4.656
		c0.677-1.656,1.266-3.347,1.96-4.995c0.475-1.125,1.596-3.152,1.633-3.363c0.037-0.212-0.416-0.588-0.278-0.837
		s1.297-1.364,1.674-0.957c0.377,0.406,1.012,0.652,1.862,0.155C646.517,10.488,646.865,10.18,648.163,10.77 M646.907,51.025
		c0.143-0.208,0.009-22.827,0-23.015c-0.008-0.188-0.109-0.255-0.308-0.071c-0.196,0.184-1.135,2.093-1.66,3.16
		c-0.541,1.1-1.062,2.212-1.53,3.345c-0.468,1.134-0.811,2.321-1.3,3.446c-0.458,1.052-1.057,2.042-1.554,3.079
		c-0.528,1.1-0.982,2.235-1.517,3.333c-0.537,1.103-1.169,2.163-1.695,3.271c-0.506,1.066-1.41,3.025-1.242,3.253
		c0.168,0.227,2.823,0.881,4.253,1.126c1.949,0.333,3.885,0.395,5.723-0.468C646.356,51.353,646.766,51.233,646.907,51.025
		 M654.216,76.77c1.293,0.478,0.856-1.259,0.262-1.377c-0.244-0.049-0.307,0.283-0.342,0.465
		C654.102,76.038,653.281,76.424,654.216,76.77 M652.771,73.262c0.13,0.065,0.952-0.062,1.034-0.213
		c0.082-0.15,0.085-0.543-0.048-0.662c-0.134-0.118-1.116-0.18-1.181,0.236C652.529,72.927,652.642,73.196,652.771,73.262
		 M652.081,67.389c0.034,0.091,0.204,0.251,0.451,0.266s0.562-0.237,0.595-0.46c0.03-0.224-0.773-0.774-0.949-0.577
		C652.004,66.816,652.048,67.299,652.081,67.389 M653.489,78.931c0.394,0.17,1.16-0.124,0.851-0.576
		c-0.221-0.321-0.308,0.068-0.638,0.097C653.4,78.479,653.037,78.736,653.489,78.931 M643.863,14.337
		c0.043-0.276,0.033-0.684-0.142-0.815c-0.174-0.13-0.528-0.276-0.578,0.048C643.094,13.893,643.821,14.614,643.863,14.337
		 M630.193,54.055c0,0.143-0.002,0.238,0.159,0.172c0.161-0.068,0.136-0.296,0.018-0.36
		C630.097,53.716,630.193,53.889,630.193,54.055"/>
	<path clip-path="url(#SVGID_2_)" fill="#001489" d="M684.244,60.329c-0.025,0.218,2.098,2.201,2.361,2.503
		c0.265,0.303,0.586,0.979,0.711,1.266c0.629,1.434,1.584,2.679,2.184,4.149c0.733,1.798,1.849,3.436,2.74,5.173
		c1.064,2.075,2.026,4.204,3.117,6.265c0.396,0.747,1.424,1.713,1.715,1.927c0.529,0.389-0.062,0.537-0.085,1.077
		c-0.014,0.351,0.294,0.864,0.014,1.119c-0.712,0.648-1.403-0.185-2.032-0.422c-3.132-1.178-4.797-3.747-6.137-6.637
		c-0.612-1.323-1.426-2.555-2.15-3.825c-0.133-0.236-0.289-0.457-0.411-0.698c-1.327-2.598-2.614-5.218-3.991-7.791
		c-0.462-0.861-1.038-1.729-1.761-2.37c-0.801-0.711-2.364-1.588-3.104-1.764c-0.74-0.177-1.172-1.121-1.703-1.266
		c-0.53-0.146-0.961,0.969-0.924,1.602c0.184,3.139-0.637,6.172-0.861,9.261c-0.15,2.048,0.228,6.369-0.181,6.625
		c-0.408,0.259-0.383,2.78-0.739,2.858s-1.172,0.427-1.816,0.188c-0.644-0.236-2.812-3.418-4.12-3.653
		c-0.821-0.148-0.823-0.906-0.815-1.029c0.009-0.124,0.336-4.966,0.512-7.449c0.012-0.162,0.033-0.33,0.086-0.481
		c0.551-1.556,0.719-3.154,0.785-4.801c0.08-2.005,0.368-4,0.578-5.999c0.17-1.617,0.568-3.246,0.473-4.847
		c-0.105-1.776,0.245-3.458,0.453-5.176c0.273-2.255,0.62-4.502,0.831-6.762c0.135-1.445,0.56-2.874,0.205-4.368
		c-0.13-0.542,0.066-1.185,0.199-1.762c0.607-2.641,0.753-5.362,1.298-7.997c0.559-2.712,0.827-5.479,1.571-8.148
		c0.201-0.723,0.651-1.87,0.983-2.11c0.332-0.24,2.294-0.444,2.783-0.444c0.487,0,1.342,1.155,1.734,1.244
		c0.393,0.088,3.174-0.43,4.852-0.401c1.423,0.024,2.919-0.197,4.287,0.561c0.455,0.253,1.072,0.198,1.572,0.394
		c1.368,0.535,2.633,1.166,3.635,2.37c1.261,1.516,2.61,2.932,3.257,4.854c0.118,0.349,0.41,0.643,0.636,0.952
		c0.455,0.619,0.966,1.208,0.942,2.046c-0.001,0.054,0,0.127,0.031,0.16c1.198,1.199,1.112,2.92,1.729,4.358
		c0.445,1.039,0.519,2.239,0.734,3.371c0.227,1.188,0.49,2.375,0.618,3.575c0.132,1.239,0.128,2.493,0.169,3.741
		c0.023,0.708,0.157,1.449-0.001,2.117c-0.569,2.41-1.101,4.795-2.58,6.935c-1.333,1.931-2.992,3.342-4.851,4.679
		c-1.639,1.18-3.484,1.951-5.195,2.978c-0.86,0.517-1.94,0.661-2.904,1.018C685.141,59.69,684.271,60.109,684.244,60.329
		 M676.242,53.914c0.274,0.388,1.077-0.085,1.755-0.113c1.932-0.082,5.076-1.55,7.218-3.221c0.561-0.438,1.128-0.883,1.744-1.229
		c2.503-1.403,4.364-3.365,5.946-5.787c1.889-2.891,1.935-5.94,1.466-9.08c-0.318-2.143-0.636-4.292-1.38-6.385
		c-0.564-1.588-1.053-3.181-1.967-4.602c-0.379-0.589-1.01-1.056-1.254-1.683c-0.831-2.133-2.604-2.394-4.535-2.343
		c-0.842,0.022-1.728-0.349-2.106-0.463c-0.305-0.092-2.796,0.114-3.278,0.35c-0.481,0.236-0.595,0.637-0.587,0.968
		c0.427,1.875-0.392,3.749-0.488,5.631c-0.047,0.917-0.184,1.832-0.189,2.748c-0.008,1.672,0.262,3.375,0.032,5.011
		c-0.307,2.188-0.218,4.4-0.729,6.587c-0.541,2.305-0.558,4.728-0.93,7.08c-0.211,1.329-0.273,2.683-0.856,3.977
		C675.735,52.175,675.737,53.199,676.242,53.914"/>
	<path clip-path="url(#SVGID_2_)" fill="#001489" d="M610.123,17.846c0.292-2.266,0.92-6.801,1.318-6.801
		c0.397,0-0.258,2.365-0.283,3.303c-0.054,1.982-0.401,2.853-0.691,4.815c-0.026,0.178-0.093,1.107-0.251,1.075
		C609.933,20.18,610.021,18.628,610.123,17.846"/>
	<path clip-path="url(#SVGID_2_)" fill="#001489" d="M612.761,5.784c0.019,0.088,0.104,1.093-0.212,1.59
		c-0.718,1.13-0.79,3.007-0.839,3.067c-0.207,0.258-0.49-0.232-0.441-0.575c0.05-0.344,0.589-2.798,0.927-3.054
		c0.186-0.143-0.08-0.948,0.069-1.219C612.35,5.439,612.637,5.164,612.761,5.784"/>
	<path clip-path="url(#SVGID_2_)" fill="#001489" d="M621.808,53.572c-0.039,0.031-0.169,0.43-0.204,0.485
		c-0.163,0.268-0.315,0.479-0.582,0.361c-0.22-0.096-0.093-0.438,0.169-0.719c0.04-0.043,0.307-0.246,0.322-0.297
		c0.118-0.381,0.401-0.921,0.652-0.814C622.533,52.744,622.053,53.368,621.808,53.572"/>
	<path clip-path="url(#SVGID_2_)" fill="#001489" d="M635.544,25.858c0.477-0.082,0.98-1.572,0.69-1.651
		c-1.01-0.275-0.311,0.709-0.7,1.063C635.498,25.304,634.871,25.974,635.544,25.858"/>
	<path clip-path="url(#SVGID_2_)" fill="#001489" d="M611.45,6.475c0.07,0.208-0.072,0.677-0.331,0.73
		c-0.076,0.016-0.178,0.035-0.355-0.198c-0.179-0.234,0.211-0.53,0.357-0.651C611.267,6.235,611.381,6.267,611.45,6.475"/>
	<path clip-path="url(#SVGID_2_)" fill="#001489" d="M624.542,48.8c0.039-0.241,1.36-1.726,0.957-1.901
		c-0.296-0.13-1.416,1.88-1.542,2.178c-0.159,0.379-1.702,2.513-1.499,2.635C622.813,51.924,624.448,49.375,624.542,48.8"/>
	<path clip-path="url(#SVGID_2_)" fill="#001489" d="M603.236,40.981c0.062-0.425,0.354-0.484,0.33-0.212
		c-0.021,0.26-0.224,0.862-0.318,0.862C603.06,41.631,603.175,41.406,603.236,40.981"/>
	<path clip-path="url(#SVGID_2_)" fill="#001489" d="M318.659,1.772c0,0.297-0.217,0.538-0.485,0.538
		c-0.269,0-0.486-0.241-0.486-0.538c0-0.058,0-0.216,0.29-0.198c0.241,0.015-0.093-0.499,0.123-0.499
		c0.121,0,0.328,0.041,0.413,0.123C318.617,1.297,318.659,1.61,318.659,1.772"/>
	<path clip-path="url(#SVGID_2_)" fill="#001489" d="M547.309,14.628c0.052-0.219,0.828-1.004,0.843-1.208
		c0.014-0.204-0.302-0.512,0-0.632c0.303-0.119,1.502-0.105,1.643-0.042s0.155,0.183,0.231,0.351
		c0.078,0.169,0.33-0.028,0.499,0.014s0.436,0.492,0.177,0.674c-0.261,0.183-0.97,0.029-1.202,0.043
		c-0.231,0.013-1.34,0.505-1.544,0.765C547.751,14.853,547.146,15.309,547.309,14.628"/>
	<path clip-path="url(#SVGID_2_)" fill="#001489" d="M332.578,55.395c-0.124-0.703-0.387-1.387-0.479-2.092
		c-0.166-1.265,0.073-2.571-0.447-3.808c-0.12-0.285-0.014-0.662-0.029-0.996c-0.05-1.042,0.163-2.202-0.228-3.097
		c-0.553-1.265-0.858-3.443-0.964-3.77c-0.106-0.327-0.971-0.912-0.986-1.152c-0.054-0.89-0.355-1.395-0.763-2.227
		c-0.19-0.386-0.259-0.82-0.362-1.237c-0.251-1.015-0.488-2.034-0.832-3.478c0.047-1.126-0.052-2.7-0.535-4.234
		c-0.412-1.309-0.574-2.632-0.356-4.001c0.202-1.275,0.658-2.563,0.586-3.828c-0.068-1.19,0.395-2.326,0.195-3.54
		c-0.014-0.088,0.001-0.487-0.02-0.576c-0.14-0.578-0.69-1.457-0.652-0.964c0.023,0.309,0.14,1.025,0.007,1.202
		c-0.155,0.209-0.737-0.384-0.815-0.517c-0.104-0.18,0.301-0.387,0.477-0.605c0.139-0.175,0.454-0.379,0.459-0.488
		c0.028-0.533-0.429-0.573-0.467-0.576c-0.414-0.027-0.973-0.016-1.191-0.452c-0.062-0.124-0.239-0.34-0.244-0.364
		c-0.053-0.274-0.033-0.428-0.035-0.603c-0.003-0.287,0.019-0.391,0.004-0.677c-0.024-0.475-0.086-1.002-0.263-1.421
		c-0.154-0.364-0.189-0.448-0.206-0.715c-0.018-0.287,0.209-0.621,0.228-0.902c0.034-0.496-0.216-1.105-0.1-1.547
		c0.089-0.341,0.509-0.586,0.535-0.93c0.046-0.619-0.313-1.325-0.34-1.904c-0.007-0.151,0.237-0.535,0.234-0.685
		c-0.007-0.337,0.018-0.891,0.033-1.225c0.011-0.239-0.58-0.467-0.629-0.485c-0.356-0.128-0.538-0.2-0.501-0.495
		c0.017-0.133,0.311-0.225,0.311-0.225c0.859,0.033,0.686-0.165,1.131-0.471c0.071-0.049-0.047-0.482-0.111-0.556
		c-1.12-1.29-1.671-1.582-3.239-1.705c-0.9-0.07-1.943-0.167-2.859,0.5c-0.057,0.043-0.152,0.228-0.153,0.262
		c-0.012,0.494-0.105,1.055,0.024,1.56c0.37,1.452-0.548,3.144,0.796,4.405c0.061,0.058,0.045,0.159,0.038,0.218
		c-0.008,0.06-0.099,0.37-0.152,0.57c-0.027,0.098-0.069,0.264-0.055,0.361c0.013,0.098,0.141,0.214,0.214,0.357
		c0.804,1.565,0.966,3.227,0.854,4.925c-0.037,0.566-0.019,1.063,0.341,1.498c0.51,0.616,0.575,1.276,0.389,1.9
		c-0.031,0.106-0.079,0.169-0.082,0.298c-0.002,0.129,0.037,0.219,0.074,0.315c0.16,0.421,0.332,0.787,0.345,1.16
		c0.034,0.951-0.059,1.906-0.094,2.737c-0.127,0.956-0.163,1.815-0.365,2.634c-0.586,2.383-1.041,4.773-0.876,7.247
		c0.019,0.273-0.161,0.555-0.16,0.833c0.009,1.676-0.791,3.293-0.391,4.99c0.233,0.994-0.021,1.906-0.331,2.825
		c-0.091,0.267-0.242,0.452-0.215,0.705c0.026,0.252,0.902,1.465,0.935,1.597c0.033,0.132-0.792,0.664-0.811,0.853
		c-0.01,0.091-0.067,1.063,0.173,1.292c0.68,0.653,0.697,1.481,0.745,2.288c0.088,1.488,0.347,2.944,0.255,4.475
		c-0.15,2.485,0.109,4.997,0.176,7.498c0.028,1.015,0.035,2.957,0.005,3.047c-0.029,0.086-0.257,0.137-0.334,0.119
		c-0.103-0.023-0.428-0.488-0.574-0.779c-0.623-1.24-1.249-2.48-1.818-3.744c-0.707-1.572-1.376-3.161-2.027-4.757
		c-0.487-1.192-0.882-2.422-1.381-3.608c-0.908-2.162-2.263-4.096-2.994-6.374c-0.392-1.223-1.256-2.338-1.828-3.559
		c-0.396-0.844-0.799-1.49-0.915-2.208c-0.018-0.108,0.066-0.84-0.258-1.091c-0.385-0.298-0.7-0.813-0.956-1.351
		c-0.262-0.556-0.318-1.233-0.656-1.726c-1.125-1.641-1.738-3.526-2.606-5.287c-0.975-1.977-1.761-4.044-2.363-6.173
		c-0.507-1.79-0.939-3.607-1.565-5.354c-0.347-0.968-0.416-1.934-0.557-2.917c-0.115-0.803-0.493-1.567-0.609-2.371
		c-0.24-1.677-1.471-2.279-2.593-3.153c-0.104-0.081-0.179-0.309-0.761-0.322c-0.583-0.012-0.934-0.679-1.488-0.916
		c-0.197-0.084-0.453-0.084-0.583-0.1c-1.803-0.227-3.563-0.92-5.328-0.513c-0.144,0.034-0.478,0.123-0.886,0.038
		c-0.468-0.097-0.902-0.199-1.328-0.175c-0.717,0.039-1.225-0.073-1.833-0.41c-0.293-0.163-0.244-0.538-1.009-0.44
		c-0.766,0.098-1.034,0.825-0.906,1.773c0.176,1.298-0.314,2.701,0.6,3.888c0.038,0.048-0.052,0.18-0.047,0.27
		c0.12,2.175,0.229,4.35,0.372,6.524c0.156,2.361,0.344,4.72,0.517,7.081c0.007,0.096,0.037,0.208,0.001,0.286
		c-0.399,0.865-0.033,1.716,0.015,2.576c0.048,0.857,0.004,1.718-0.001,2.578c-0.006,0.952,0.31,1.904,0.249,2.816
		c-0.051,0.777-0.096,1.525,0.021,2.292c0.036,0.236,0.019,0.48,0.017,0.721c-0.006,0.667-0.091,1.344-0.008,1.999
		c0.132,1.037,0.196,2.083,0.288,3.119c0.122,1.365-0.134,2.76-0.097,4.139c0.053,1.968-0.199,3.893-0.533,5.641
		c0.17,0.607,0.442,1.075,0.4,1.514c-0.184,1.899-0.753,3.748-0.606,5.701c0.081,1.078-0.205,2.183-0.169,3.27
		c0.032,0.968-0.06,1.895-0.217,2.846c-0.194,1.176-0.173,2.384-0.281,3.574c-0.133,1.46,0.007,3.003-1.2,4.159
		c-0.532,0.511-0.476,1.122-0.296,1.686c0.49,0.329,0.924,0.62,1.286,0.865c0.322,1.488,0.652,2.843,0.897,4.213
		c0.154,0.859,0.369,1.655,1.055,2.175c1.278,0.726,2.591,0.613,3.886,0.238c0.699-0.921,0.973-1.898,0.909-3.017
		c-0.049-0.854,0.045-1.715,0.092-2.571c0.013-0.235,0.154-0.479,0.112-0.697c-0.289-1.483-0.002-2.948,0.118-4.418
		c0.202-2.471,0.389-4.944,0.672-7.407c0.224-1.946,0.696-3.871,0.257-5.846c-0.03-0.132,0.023-0.285,0.036-0.427
		c0.119-1.331,0.38-2.672,0.058-3.994c-0.27-1.112,0.216-2.293-0.377-3.363c-0.057-0.104,0.028-0.282,0.028-0.426
		c0-0.618,0.005-1.233-0.016-1.85c-0.012-0.369-0.083-0.735-0.102-1.105c-0.076-1.487-0.119-2.977-0.219-4.462
		c-0.071-1.066-0.415-2.158-0.267-3.184c0.153-1.054-0.096-2.006-0.17-3.006c-0.08-1.086-0.344-2.164-0.029-3.276
		c0.175-0.615,0.273-1.157,0.208-2.085c-0.002-0.029,0.036-0.123,0.053-0.14c0.324-0.341,0.451-0.525,0.719-0.837
		c0.018-0.021,0.079-0.017,0.092,0.006c0.865,1.624,1.698,3.155,2.496,4.703c0.349,0.678,0.641,1.387,0.932,2.092
		c0.473,1.148,0.703,2.368,1.277,3.503c0.923,1.827,1.372,3.9,2.948,5.371c0.1,0.094,0.141,0.25,0.185,0.33
		c-0.023,0.356-0.044,0.683-0.058,0.896c-0.004,0.074-0.025,0.118-0.011,0.177c0.015,0.059,0.051,0.091,0.077,0.135
		c0.454,0.774,0.934,1.332,1.059,1.96c0.379,1.901,1.804,3.377,2.064,5.309c0.012,0.089,0.076,0.185,0.142,0.252
		c0.645,0.666,0.857,1.483,0.9,2.314c0.006,0.104-0.011,0.237,0.009,0.31c0.02,0.071,0.231,0.284,0.323,0.404
		c0.541,0.702,0.607,0.987,0.801,2.179c0.053,0.326,0.151,0.686,0.345,0.941c1.2,1.577,1.416,3.652,2.706,5.194
		c0.573,0.687,1.151,1.492,1.358,2.333c0.34,1.382,1.309,2.462,1.592,3.849c0.083,0.403,0.377,0.767,0.575,1.146
		c0.636,1.23,1.323,2.437,1.892,3.695c0.417,0.923,0.806,1.839,1.459,2.634c0.23,0.28,0.354,0.673,0.447,1.036
		c0.278,1.082,0.589,1.986,0.371,3.139c-0.014,0.074-0.056,0.579,0.009,0.584c0.582,0.056,0.979-0.06,1.487,0.016
		c0.854,0.126,1.707,0.419,2.554,0.4c1.527-0.031,2.776,0.669,4.036,1.321c0.896,0.464,1.671,1.156,2.548,1.664
		c0.389,0.225,1.109,0.46,1.382,0.562c0.038,0.016,0.615,0.47,0.936,0.517c0.32,0.046,0.743-0.34,1.258-0.48
		c0.473-0.128,0.953-0.163,1.063-0.222c0.23-0.123,1.453-1.899,1.238-2.167c-0.215-0.27-0.632-1.545-0.44-2.169
		c0.26-0.843,0.267-1.649,0.173-2.414c-0.021-0.168-0.05-0.402-0.034-0.517c0.016-0.115,0.056-0.25,0.105-0.375
		c0.13-0.332,0.252-0.627,0.296-0.933c0.238-1.659,0.458-3.32,0.627-4.987c0.132-1.287,0.076-2.601,0.29-3.871
		c0.198-1.177-0.1-2.303-0.071-3.45c0.03-1.201,0.185-2.41,0.092-3.602c-0.128-1.647-0.057-3.256,0.27-4.876
		C332.78,56.47,332.67,55.913,332.578,55.395 M322.493,49.631c-0.271-0.001-0.204-0.234-0.018-0.345
		c0.187-0.112,0.246,0.104,0.262,0.192C322.753,49.567,322.652,49.632,322.493,49.631 M327.93,86.492
		c-0.339,0.065-0.643,0.083-0.76,0.057c-0.117-0.023-0.222-0.028-0.163-0.17c0.05-0.122,0.008-0.359-0.142-0.41
		c-0.15-0.049-0.485-0.225-0.564-0.463c-0.079-0.237-0.263-0.567,0.025-0.79c0.288-0.22,0.589-0.116,0.785,0.063
		c0.197,0.18,0.255,0.376,0.13,0.479c-0.126,0.105-0.238,0.414-0.084,0.436c0.155,0.021,0.163-0.097,0.255-0.134
		s0.321-0.025,0.468,0.188C328.026,85.96,328.268,86.423,327.93,86.492 M328.563,83.652c-0.494,0.189-0.94-0.014-0.693-0.585
		C328.117,82.495,329.057,83.461,328.563,83.652"/>
	<path clip-path="url(#SVGID_2_)" fill="#001489" d="M475.308,66.258c-0.091,0.083-0.034,0.685,0.353,0.513
		C476.045,66.598,475.74,65.861,475.308,66.258"/>
	<path clip-path="url(#SVGID_2_)" fill="#001489" d="M493.939,45.312c-0.117,0.184,0.21,0.6,0.525,0.427
		c0.314-0.174,0.43-0.15,0.246-0.397C494.526,45.093,494.111,45.042,493.939,45.312"/>
	<path clip-path="url(#SVGID_2_)" fill="#001489" d="M511.082,81.058c-0.032,0.204,0.104,0.466,0.368,0.368
		c0.266-0.098,0.444-0.461,0.266-0.604S511.116,80.839,511.082,81.058"/>
	<path clip-path="url(#SVGID_2_)" fill="#001489" d="M540.878,31.344c-0.058,0.122,0.438,0.414,0.531,0.189
		C541.503,31.309,541.149,30.765,540.878,31.344"/>
	<path clip-path="url(#SVGID_2_)" fill="#001489" d="M543.357,37.604c0.021,0.125,0.248,0.248,0.354,0.13
		c0.106-0.118,0.225-0.425,0.083-0.508S543.322,37.368,543.357,37.604"/>
	<path clip-path="url(#SVGID_2_)" fill="#001489" d="M555.771,36.646c-0.024,0.132,0.106,0.508,0.283,0.414
		c0.177-0.095,0.295-0.296,0.26-0.497C556.278,36.364,555.817,36.399,555.771,36.646"/>
	<path clip-path="url(#SVGID_2_)" fill="#001489" d="M593.784,66.375c-0.009-0.024-0.018-0.049-0.026-0.072
		c-0.004,0.011-0.008,0.021-0.013,0.032C593.759,66.348,593.771,66.36,593.784,66.375"/>
	<path clip-path="url(#SVGID_2_)" fill="#001489" d="M620.678,7.688c-0.192-0.053-0.666,0.271-0.937,0.177
		c-0.178-0.062-0.225-0.4-0.372-0.753c-0.148-0.353-1.7-1.062-2.448-1.588c-1.422-1-3.203-0.884-3.958-0.348
		c-0.223,0.158-0.055,0.496,0.033,0.548c0.238,0.141,0.334,0.397,0.275,0.714c-0.145,0.796-0.292,1.609-0.587,2.357
		c-0.509,1.29-0.646,2.653-0.919,3.988c-0.138,0.679-0.127,1.389-0.211,2.434c0.007,0.141,0.127,0.663,0.038,1.145
		c-0.329,1.785-0.719,3.559-1.109,5.332c-0.045,0.201-0.443,2.952-0.74,2.919c-0.335-0.039,0.82-4.204,0.423-4.305
		c-0.239-0.05-0.288,0.35-0.331,0.547c-0.322,1.489-0.598,2.987-0.913,4.477c-0.419,1.99-0.839,3.979-1.304,5.959
		c-0.266,1.131-0.554,2.265-0.952,3.354c-0.402,1.095-1.032,2.108-1.426,3.205c-0.879,2.453-1.669,4.937-2.507,7.404
		c-0.098,0.288-0.336,0.771-0.401,0.826c-0.066,0.056-0.17,0.015-0.206-0.089c-0.036-0.104,1.085-3.788,1.04-4.077
		c-0.047-0.29-0.178-0.024-0.295,0.248c-0.118,0.271-0.445,1.371-0.604,1.76c-0.158,0.388-0.747,2.511-1.413,4.538
		c-0.159,0.484-0.319,0.987-0.591,1.409c-0.533,0.83-0.931,1.687-1.05,2.679c-0.041,0.341-0.16,0.779-0.307,0.881
		c-0.146,0.103-0.509-0.221-0.672-0.025c-0.163,0.194-0.146,0.461-0.183,0.691c-0.186,1.161-0.343,2.647-0.713,2.691
		c-0.188,0.021-0.598-0.379-0.716-0.687c-0.13-0.328-0.101-0.725-0.246-1.043c-0.947-2.048-1.096-4.285-1.337-6.456
		c-0.207-1.846-0.158-3.735-0.393-5.598c-0.146-1.157-0.652-2.283-0.3-3.487c0.039-0.134,0.006-0.338-0.076-0.45
		c-0.997-1.361-1.099-4.333-1.543-4.593c-0.442-0.259-1-0.09-1.257-0.21c-1.839-0.857-3.511-1.027-5.508-1.233
		c-1.733-0.178-3.246,0.301-4.611,1.26c-1.325,0.931-2.502,2.058-3.598,3.253c-0.336,0.366-0.594,0.843-0.763,1.315
		c-0.695,1.946-1.656,3.736-2.845,5.43c-1.031,1.471-1.931,3.034-2.884,4.558c-0.596,0.956-1.042,2.056-1.808,2.843
		c-1.393,1.428-2.231,3.134-3.053,4.891c-0.665,1.422-1.776,4.14-2.201,4.14c-0.252,0-0.983-1.399-1.316-2.171
		c-0.501-1.165-1.381-2.179-1.516-3.488c-0.11-1.063-0.66-1.909-1.155-2.805c-0.659-1.196-1.362-2.373-1.664-3.74
		c-0.319-1.445-0.694-2.88-1.083-4.31c-0.09-0.331-0.333-0.62-0.503-0.93c-0.49-0.895-1.194-1.739-1.424-2.696
		c-0.493-2.05-1.802-3.757-2.209-5.838c-0.282-1.438-0.828-2.823-1.239-4.236c-0.069-0.239-0.134-0.532-0.059-0.75
		c0.185-0.531,0.155-0.97-0.005-1.354c-0.182-0.436-0.602-1.387-1.149-1.285c-0.547,0.101-2.9-0.093-4.452-0.154
		c-1.654-0.065-4.594,0.236-4.944,0.622c-0.349,0.386-0.395,0.465-0.283,0.791c0.11,0.326,0.97,1.988,1.399,2.967
		c0.264,0.599,0.546,1.215,0.652,1.852c0.368,2.186,1.051,4.256,1.991,6.259c0.246,0.525,0.221,1.631,0.454,1.946
		c0.234,0.314,0.522,0.316,0.708,0.654c0.759,1.376,1.413,2.809,2.172,4.184c0.687,1.246,1.105,2.633,2.07,3.739
		c0.391,0.447,0.628,1.054,0.838,1.623c0.562,1.526,1.079,3.068,1.903,4.482c0.128,0.219,0.269,0.435,0.352,0.672
		c0.682,1.938,1.009,3.958,1.394,5.969c0.307,1.6,0.387,3.241,1.106,4.777c0.37,0.79,0.599,1.79,0.204,2.713
		c-0.244,0.572-0.208,1.043,0.004,1.438c0.131,0.24,0.485,0.637,0.791,0.687s0.786,0.146,1.251,0.297
		c1.339,0.435,2.413,1.212,3.053,2.559c0.819,1.73,1.959,3.111,3.489,4.187c0.331,0.232,0.7,0.625,1.049,0.653
		c0.347,0.028,0.862-0.096,1.304-0.083c1.03,0.025,2.047,0.128,2.717-0.667c1.536-2.948,4.212-7.919,4.305-8.119
		c0.18-0.392-0.038-0.702-0.007-0.854c0.282-1.387,0.706-2.594,1.18-3.927c0.39-1.104,0.927-2.155,1.386-3.234
		c0.116-0.272,0.261-0.57,0.251-0.852c-0.034-1.019,0.36-1.963,0.912-2.681c0.562-0.731,0.772-1.617,0.733-1.962
		c-0.038-0.346,0.234-0.761,0.413-1.029c2.01-3.034,3.75-6.166,5.244-9.567c0.085-0.193,0.171-0.577,0.253-0.585
		c0.157-0.012,0.663,0.851,0.77,1.226c0.398,1.418,0.799,2.843,1.067,4.29c0.34,1.827,1.003,3.524,1.883,5.134
		c0.303,0.551,0.518,1.077,0.673,1.682c0.229,0.9,0.868,1.809,1.14,1.972c0.271,0.161,0.217,0.931,0.312,1.175
		c0.39,0.993,0.9,1.939,1.257,2.942c0.577,1.634,1.214,3.744,0.975,4.313c-0.156,0.37-0.026,1.046,0.213,1.081
		c0.238,0.034,0.466,0.082,0.685,0.14c2.229,0.597,3.414,2.355,4.347,4.221c0.123,0.246,0.335,0.886,1.08,1.139
		c0.913,0.31,1.478,1.665,3.251,1.595c1.235-0.05,2.134-0.912,2.742-1.821c0.606-0.907,0.666-2.945,0.977-4.435
		c0.051-0.242,0.001-0.517-0.046-0.768c-0.239-1.275,0-2.538,0.22-3.771c0.318-1.796,0.792-3.566,1.238-5.337
		c0.284-1.129,0.813-2.224,0.924-3.363c0.233-2.389,1.514-4.43,2.006-6.739c0.463-2.179,1.475-4.235,2.096-6.389
		c1.035-3.595,1.964-7.222,2.911-10.842c0.215-0.819,0.318-1.667,0.474-2.502c0.074-0.495,0.355-0.965,0.398-1.457
		c0.141-1.569,0.188-3.146,0.28-4.719c0.024-0.406,0.055-0.815,0.126-1.216c0.266-1.495,0.62-2.978,0.807-4.483
		c0.191-1.541,0.239-3.09,0.552-4.629c0.226-1.115,0.63-2.146,1.002-3.197c0.305-0.863,0.646-1.707,1.642-2.083
		c0.262-0.098,0.554-0.422,0.554-0.819S620.871,7.742,620.678,7.688 M543.205,30.127c-0.225,0.134-0.512,0.149-0.615-0.13
		c-0.105-0.283,0.243-0.686,0.579-0.519C543.393,29.589,543.428,29.994,543.205,30.127 M543.963,33.213
		c-0.057-0.067-0.138-0.261-0.229-0.452c-0.092-0.192,0.125-0.248,0.247-0.112c0.122,0.136,0.215,0.301,0.193,0.468
		C544.153,33.286,544.019,33.282,543.963,33.213 M546.693,28.753c-0.117,0.143-0.406,0.041-0.619,0.146
		c-0.343,0.169-0.624,0.475-0.679,0.199c-0.047-0.236-0.146-0.948,0.289-0.99c0.435-0.043,0.328,0.043,0.578,0.141
		C546.514,28.348,547.126,28.227,546.693,28.753 M549.039,32.631c-0.15,0.479-0.91,0.047-1.441,0.402
		c-0.314,0.209-0.86-0.267-0.697-0.52c0.164-0.253,0.417-0.607,0.645-0.541c0.229,0.066,0.442,0.554,0.703,0.553
		c0.142-0.001,0.279-0.61,0.554-0.473C548.968,32.135,549.154,32.258,549.039,32.631 M551.419,31.361
		c-0.402-0.136-0.645-0.053-0.721,0.177c-0.081,0.244,0.194,0.307,0.165,0.609c-0.025,0.259-0.232,0.289-0.537,0.195
		c-0.145-0.045-0.3-0.205-0.124-0.42c0.176-0.214,0.28-0.019,0.248-0.301c-0.03-0.254-0.207-0.277,0.053-0.549
		c0.35-0.365,0.983-0.01,1.195,0.054S551.651,31.44,551.419,31.361 M557.316,66.626c-0.056-0.019-0.136-0.136-0.076-0.256
		s0.483-0.194,0.608-0.112s0.16,0.216,0.083,0.288C557.854,66.618,557.448,66.672,557.316,66.626 M561.927,72.076
		c-0.091,0.071-0.408,0.212-0.786,0.018c-0.387-0.2,0.03-0.338,0.264-0.338C561.637,71.755,562.017,72.004,561.927,72.076
		 M570.356,51.316c0.192-0.111,0.358,0.185,0.33,0.28s0.153,0.416-0.026,0.46c-0.18,0.043-0.395-0.277-0.451-0.373
		C570.149,51.589,570.165,51.428,570.356,51.316 M570.784,54.661c-0.262,0.107-0.452,0.232-0.709,0.169
		c-0.255-0.066,0.303-0.167,0.275-0.275c-0.045-0.177,0.211-0.447,0.451-0.354C571.043,54.293,571.042,54.554,570.784,54.661
		 M573.188,47.107c0.331,0.001,0.328,0.21,0.104,0.28c-0.227,0.073-0.16,0.666-0.44,0.673
		C572.571,48.069,572.856,47.104,573.188,47.107 M574.07,55.458c-0.114,0-0.155-0.146-0.069-0.231
		c0.168-0.169,0.237,0.054,0.237,0.054C574.285,55.406,574.257,55.458,574.07,55.458 M574.779,52.969
		c-0.142,0.15-0.536-0.32-0.895-0.416c-0.665-0.178-0.126,0.955-0.833,0.903c-0.239-0.018-0.232-0.385-0.123-0.695
		c0.067-0.188,0.365-0.112,0.442-0.227c0.229-0.339,0.062-0.638,0.461-0.797c0.158-0.063,0.1-0.924,0.444-0.521
		c0.433,0.503-0.356,0.503-0.1,0.742S575.086,52.643,574.779,52.969 M575.162,51.027c-0.325,0.111-0.918-0.807-0.933-1.069
		c-0.014-0.263,0.487-0.449,0.656-0.248C575.054,49.91,575.487,50.914,575.162,51.027 M577.537,40.083
		c0.162-0.457,0.901-0.554,0.803-0.082c-0.099,0.471,0.244,0.796-0.094,1.122C577.907,41.449,577.343,40.631,577.537,40.083
		 M577.785,41.902c0.134,0.054,0.252,0.157,0.26,0.319c0.009,0.194-0.263,0.487-0.201,0.72c0.097,0.364,0.752,0.655,0.33,1.009
		c-0.625,0.527-0.921-0.324-0.672-0.359c0.349-0.05-0.212-0.521-0.131-1.039C577.443,42.097,577.498,41.788,577.785,41.902
		 M578.208,48.336c-0.298,0.118-0.333,0.097-0.604-0.062c-0.062-0.038-0.108-0.232,0.08-0.372c0.189-0.141,0.347-0.198,0.505-0.045
		C578.482,48.141,578.321,48.291,578.208,48.336 M577.085,45.62c-0.008-0.414,0.981-0.485,1.205-0.331
		C578.907,45.714,577.092,46.034,577.085,45.62 M578.721,45.874c-0.195-0.203-0.013-0.24,0.228-0.29
		c0.241-0.05,0.12,0.197,0.349,0.29c0.345,0.142,0.298,0.318-0.027,0.293C578.944,46.14,578.887,46.047,578.721,45.874
		 M579.545,53.2c-0.126,0.012-0.25-0.567,0.006-0.598c0.255-0.028,0.348,0.143,0.295,0.308
		C579.794,53.076,579.671,53.187,579.545,53.2 M579.887,44.407c-0.35,0-0.141-0.216-0.318-0.602
		c-0.104-0.226-0.501-0.286-0.449-0.485c0.142-0.541,0.638-0.342,0.874,0.107C580.32,44.046,579.993,44.407,579.887,44.407
		 M580.237,42.521c-0.189-0.111-0.339-0.536-0.391-0.795c-0.052-0.259,0.135-0.379,0.386-0.115c0.251,0.264,0.28,0.556,0.611,0.804
		C581.004,42.535,580.69,42.789,580.237,42.521 M582.154,37.699c-0.084-0.058-0.097-0.338,0.083-0.497
		c0.181-0.158,0.227,0.071,0.225,0.189C582.461,37.508,582.378,37.851,582.154,37.699 M586.631,41.454
		c-0.383,0.06-0.033,0.262-0.473,0.331c-0.439,0.069-0.165-0.378,0.095-0.437c0.129-0.029,0.034-0.305,0.354-0.531
		C586.95,40.574,586.698,41.443,586.631,41.454 M588.391,41.17c-0.118,0.177-0.242,0.148-0.378,0.154
		c-0.113,0.003-0.216-0.078-0.236-0.296c-0.021-0.211,0.203-0.332,0.401-0.307C588.272,40.733,588.479,41.037,588.391,41.17
		 M589.006,56.107c-0.153-0.004-0.21-0.298-0.167-0.47c0.083-0.331,0.471-0.041,0.461,0.06
		C589.291,55.797,589.158,56.111,589.006,56.107 M588.782,41.116c-0.294-0.386,0.187-0.642,0.399-0.335
		c0.319,0.46,0.535,0.031,0.508,0.307C589.636,41.63,589.075,41.5,588.782,41.116 M591.284,59.512
		c-0.188-0.002-0.232-0.128-0.236-0.271c-0.003-0.145,0.095-0.319,0.202-0.331c0.211-0.023,0.259,0.095,0.259,0.283
		C591.509,59.351,591.471,59.512,591.284,59.512 M592.754,40.534c-0.392-0.009-0.32,0.545-0.702,0.519
		c-0.382-0.027-0.695-0.527-0.461-0.756c0.235-0.229,0.473-0.071,0.579,0.059c0.062,0.076,0.358-0.17,0.473-0.142
		C592.977,40.295,593.046,40.54,592.754,40.534 M593.585,65.034c0.585-0.055,0.818,1.16,0.273,1.16
		c-0.188,0,0.104-0.562-0.159-0.576C593.371,65.599,593.003,65.086,593.585,65.034 M595.606,55.177
		c-0.102,0.077-0.134,0.137-0.354,0.024c-0.221-0.112-0.116-0.428,0.105-0.484C595.581,54.66,595.709,55.1,595.606,55.177
		 M596.386,58.754c-0.215-0.042-0.076-0.15,0.012-0.329c0.089-0.18,0.08-0.156,0.26-0.023
		C596.838,58.534,596.602,58.796,596.386,58.754 M613.47,10.284c0.718,0.452,0.132,1.589,0.026,1.782
		c-0.106,0.193-0.816,0.134-0.845-0.104c-0.041-0.341,0.333-0.423,0.474-0.823C613.29,10.667,613.229,10.132,613.47,10.284
		 M612.877,12.878c0.476,0.038-0.188,4.035-0.393,3.876C612.186,16.52,612.4,12.841,612.877,12.878 M609.616,25.182
		c0.244,0.051-0.083,1.354-0.309,1.348C609.166,26.525,609.351,25.125,609.616,25.182 M609.107,27.099
		c0.426,0.068-0.245,2.556-0.422,2.556C608.51,29.654,608.812,27.051,609.107,27.099 M608.155,31.498
		c0.088-0.138,0.297-0.169,0.297-0.029c0,0.139-0.145,0.984-0.308,0.951C607.934,32.376,608.067,31.637,608.155,31.498
		 M599.208,59.681c-0.074-0.136,0.148-0.205,0.226-0.192c0.082,0.012,0.156,0.082,0.153,0.224
		C599.585,59.854,599.279,59.819,599.208,59.681 M600.14,71.346c-0.17-0.046-0.228-0.173-0.149-0.349
		c0.079-0.176,0.316-0.27,0.66-0.127c0.272,0.112,0.854,0.009,0.87,0.229c0.01,0.127-0.562,0.072-0.912,0.107
		C600.301,71.238,600.22,71.369,600.14,71.346 M601.584,54.846c-0.415-0.169,0.248-1.322,0.507-1.228
		C602.39,53.726,602.044,55.036,601.584,54.846 M602.232,53.371c-0.379-0.171,0.559-2.298,0.992-2.138
		C603.448,51.316,602.61,53.542,602.232,53.371 M603.555,50.015c-0.366-0.093-0.076-1.114,0.354-0.99
		C604.405,49.167,603.874,50.098,603.555,50.015 M604.197,43.01c0.088-0.18,0.649-2.206,0.93-3.34
		c0.06-0.248,0.896-2.109,1.003-2.339c0.785-1.705,1.09-3.85,1.724-3.625c0.279,0.098-0.367,1.534-0.482,1.795
		c-0.605,1.346-0.993,2.267-1.419,3.094c-0.508,1.76-1.24,3.472-1.322,3.874C604.41,43.539,604.11,43.189,604.197,43.01
		 M604.687,47.649c-0.495-0.099,0.03-1.599,0.416-1.507C605.351,46.202,604.948,47.702,604.687,47.649 M606.001,43.993
		c-0.107,0.473-0.322,0.937-0.687,0.831c-0.364-0.106,0.548-1.748,0.744-2.543c0.251-1.012,0.66-2.473,0.556-3
		c-0.105-0.527,0.813-1.001,0.956-0.567C607.713,39.148,606.271,42.789,606.001,43.993 M608.309,37.479
		c-0.192,0.172-0.649,0.03-0.703-0.177c-0.041-0.161,0.065-0.665,0.532-0.679C608.533,36.611,608.634,37.19,608.309,37.479
		 M608.468,36.075c-0.378-0.065,0.243-1.943,0.42-1.902C608.986,34.196,608.837,36.138,608.468,36.075 M609.42,31.061
		c0.201-0.838,0.666-1.471,0.791-1.441c0.125,0.031-0.128,0.774-0.331,1.612c-0.203,0.839-0.304,2.109-0.646,2.047
		C608.987,33.233,609.216,31.899,609.42,31.061 M609.613,39.209c-0.155,0.083-0.425,0.048-0.427-0.164
		c-0.003-0.212,0.463-0.473,0.58-0.64s0.36,0.096,0.331,0.308C610.069,38.926,609.771,39.127,609.613,39.209 M610.307,28.986
		c-0.406,0-0.747-2.043-0.047-1.967C610.989,27.099,610.714,28.986,610.307,28.986 M610.641,38.696
		c-0.017-0.004-0.055-0.029-0.054-0.092c0.002-0.063,0.185-0.08,0.151,0.026C610.706,38.737,610.658,38.701,610.641,38.696
		 M612.283,38.418c-0.219,0.114-0.184,0.644-0.638,0.39c-0.284-0.158-0.078-0.727,0.33-0.886c0.357-0.139,0.986-0.177,1.033,0.118
		C613.049,38.289,612.493,38.309,612.283,38.418 M613.487,28.247c-0.124,0.054-0.344-0.029-0.467-0.173
		c-0.1-0.119-0.033-0.343,0.128-0.343c0.162,0,0.469,0.197,0.469,0.278C613.617,28.089,613.612,28.193,613.487,28.247
		 M613.922,25.438c-0.138,0.013-0.23-0.031-0.23-0.203c0-0.172,0.217-0.479,0.416-0.204
		C614.307,25.307,614.059,25.426,613.922,25.438 M614.231,9.159c-0.133,0.074-0.694,0.027-0.744-0.399
		c-0.05-0.425,0.416-1.036,0.966-1.205c0.19-0.058,0.186,0.488-0.123,0.842C614.092,8.667,614.515,8.999,614.231,9.159"/>
	<path clip-path="url(#SVGID_2_)" fill="#001489" d="M590.629,61.088c-0.001,0.004-0.001,0.008-0.002,0.012
		c0.018,0.008,0.024,0.02,0.041,0.027C590.682,61.086,590.655,61.061,590.629,61.088"/>
	<path clip-path="url(#SVGID_2_)" fill="#001489" d="M632.045,33.429c0.114,0.279,0.549,0.417,0.69,0.106
		c0.142-0.31-0.035-0.504-0.204-0.593C632.363,32.853,631.858,32.977,632.045,33.429"/>
	<path clip-path="url(#SVGID_2_)" fill="#001489" d="M620.231,55.107c-0.014,0.1,0.206,0.295,0.342,0.159
		c0.138-0.137,0.195-0.318,0.096-0.396C620.567,54.793,620.272,54.798,620.231,55.107"/>
	<path clip-path="url(#SVGID_2_)" fill="#001489" d="M679.3,84.283c0,0.205,0.177,0.579,0.466,0.491
		c0.29-0.09,0.542-0.402,0.403-0.743S679.3,83.853,679.3,84.283"/>
</g>
</svg>
