<svg version="1.1" id="Layer_1" xmlns="http://www.w3.org/2000/svg" xmlns:xlink="http://www.w3.org/1999/xlink" x="0px" y="0px"
	 width="476.924px" height="166.143px" viewBox="0 0 476.924 166.143" enable-background="new 0 0 476.924 166.143"
	 xml:space="preserve">
<g>
	<defs>
		<rect id="SVGID_1_" width="476.924" height="166.143"/>
	</defs>
	<clipPath id="SVGID_2_">
		<use xlink:href="#SVGID_1_"  overflow="visible"/>
	</clipPath>
	<path clip-path="url(#SVGID_2_)" fill="#FFFFFF" d="M145.394,52.279c-0.014-0.017,0-0.047,0.005-0.064
		c0.324-1.104,1.41-1.178,1.999-1.855c0.728-1.429,0.551-2.898,0.187-4.433c-0.274-1.153-0.272-2.37-0.399-3.558
		c-0.058-0.549-0.092-1.104-0.204-1.642c-0.335-1.614-0.297-3.239-0.211-4.87c0.042-0.786-0.502-1.014-0.04-2.358
		c0.209-0.607,0.045-1.082-0.038-2.269c-0.101-1.445-0.177-3.669-0.508-4.999c-0.516-2.069-0.795-4.251-0.778-6.381
		c0.01-1.335-0.527-2.641-0.143-3.989c0.085-0.3-0.124-0.681-0.183-1.027c-0.081-0.475-0.223-0.954-0.21-1.428
		c0.063-2.475-0.157-4.937-0.281-7.404c-0.027-0.536,0.104-1.079,0.155-1.544c0.677-1.077,1.646-0.657,2.631-0.977
		c0.07-0.022,0.415-0.105,0.406-0.259c-0.018-0.293-0.278-0.349-0.683-0.363c-0.794-0.025-1.502-0.621-1.352-0.861
		c0.394-0.632,0.788-0.301,1.122-0.405c0.756-0.236,1.472-0.592,2.209-0.889c0.546-0.221,1.099-0.602,1.648-0.599
		c1.322,0.008,2.632-0.247,3.974,0.008c1.749,0.331,4.736,0.634,4.982,0.596c0.247-0.037,0.874,0.026,1.251,0.278
		c0.156,0.104,0.414,0.219,0.857,0.361c1.735,0.559,3.255,0.705,4.895,1.601c1.747,0.955,3.59,1.732,5.387,2.596
		c0.315,0.151,0.62,0.33,0.913,0.52c1.797,1.171,3.624,2.301,5.375,3.538c1.702,1.202,3.33,2.508,4.979,3.782
		c0.989,0.764,2.059,1.459,2.912,2.356c1.57,1.651,2.877,3.495,3.758,5.643c0.715,1.743,0.825,3.59,1.219,5.388
		c0.454,2.075,0.249,4.168,0.239,6.26c-0.007,1.586-0.051,3.158-0.188,4.742c-0.13,1.493-0.609,2.834-1.202,4.144
		c-0.505,1.117-1.303,2.102-1.803,3.221c-0.416,0.932-1.104,1.505-1.862,2.095c-0.785,0.612-1.574,1.253-2.218,2.005
		c-1.334,1.557-3.149,2.413-4.818,3.475c-1.087,0.692-2.246,1.283-3.416,1.823c-1.027,0.474-2.074,0.895-3.221,1.086
		c-1.718,0.287-3.329,1.056-5.096,1.18c-1.312,0.093-2.623,0.229-3.928,0.396c-1.096,0.139-2.179,0.386-3.276,0.52
		c-0.837,0.103-1.686,0.136-2.531,0.145c-1.425,0.017-2.827,0.073-4.254,0.293c-1.107,0.17-2.348-0.212-3.464-0.561
		c-0.479-0.15-0.933-0.779-1.151-1.294c-0.48-1.136-1.096-2.07-2.209-2.695c-0.534-0.3-0.887-0.798-1.366-1.262
		C145.452,52.334,145.407,52.296,145.394,52.279 M155.566,20.545c-0.296,1.192,0.045,2.126,0.152,3.155
		c0.109,1.047,0.367,2.08,0.455,3.128c0.124,1.478,0.086,2.971,0.238,4.445c0.154,1.491,0.492,2.952,0.393,4.479
		c-0.087,1.329,0.013,2.671,0.06,4.006c0.032,0.894,0.24,1.801,0.14,2.676c-0.115,1.017,0.021,1.982,0.177,2.963
		c0.087,0.546,0.189,1.09,0.283,1.635c0.163,0.931,0.323,1.864,0.976,2.488c1.476,0.143,2.892,0.044,3.799-0.81
		c0.229-0.217,0.678-0.193,0.777-0.208c1.605-0.24,2.753-0.827,4.158-1.606c0.559-0.311,1.2-0.474,1.808-0.691
		c0.281-0.101,0.602-0.118,0.855-0.261c2.734-1.547,5.041-3.576,6.857-6.149c0.319-0.451,0.661-0.895,0.91-1.384
		c1.234-2.426,1.563-5.1,1.948-7.733c0.305-2.085,0.437-4.208,0.463-6.317c0.037-3.05-0.106-6.099-1.867-8.736
		c-1.75-0.896-2.798-1.739-3.75-2.95c-0.754-0.455-1.316-0.902-1.955-1.162c-3.432-1.392-6.485-3.521-9.852-5.03
		c-1.222-0.547-2.467-0.955-3.914-0.631c-1.392,0.312-2.952,0.711-4.294,0.453c-0.359-0.069-0.455,0.384-0.435,0.449
		c0.246,0.835,0.539,1.378,0.639,2.125c0.117,0.877-0.093,1.834-0.026,2.72c0.17,2.256,0.382,4.509,0.552,6.765
		c0.031,0.4,0.028,0.496,0.001,0.93c-0.022,0.352-0.025,0.36,0.023,0.53C155.189,20.007,155.667,20.141,155.566,20.545
		 M173.148,50.439c-0.216-0.032-0.377,0.041-0.306,0.179c0.071,0.138,0.147,0.233,0.267,0.268c0.119,0.034,0.597,0.006,0.706-0.105
		C173.924,50.67,173.365,50.471,173.148,50.439"/>
	<path clip-path="url(#SVGID_2_)" fill="#FFFFFF" d="M318.432,8.235c0.372-0.254,1.724-0.029,2.381-0.19
		c0.983-0.242,1.882-0.067,2.778,0.294c0.777,0.313,1.544,0.654,2.328,0.947c0.272,0.101,0.636,0.055,0.817,0.128
		c0.544,0.22,1.374,1.161,2.197,1.837c0.356,0.294,0.419,0.94,0.391,1.048c-0.189,0.767,0.001,1.309-0.507,1.987
		c-0.155,0.207-0.598,0.35-0.756,0.383c-0.729,0.153-1.04,0.563-1.753,0.717c-0.699,0.15-1.797,0.042-2.455,0.287
		c-0.258,0.096-0.556,0.414-0.816,0.495c-2.19,0.686-4.427,0.662-6.665,1.059c-1.663,0.295-3.362,0.483-5.05,0.507
		c-0.954,0.014-1.914-0.343-3.025-0.592c-0.058-0.013-0.156,0.072-0.148,0.126c0.061,0.424,0.264,0.978,0.323,1.382
		c0.066,0.464,0.182,1.117,0.247,1.572c0.229,1.623,0.699,2.886,0.615,4.571c-0.034,0.689,0.278,0.989,0.507,1.681
		c0.344,1.037,0.519,2.403,0.248,3.599c-0.011,0.046,0.121,0.171,0.185,0.162c0.896-0.125,1.552-0.107,2.298-0.5
		c0.697-0.366,1.459-0.484,2.312-0.359c1.472,0.216,2.974,0.206,4.459,0.333c1.248,0.108,2.258,0.77,3.11,1.62
		c0.476,0.474,1.031,1.107,0.451,1.914c-0.014,0.02-0.094,0.15-0.285,0.099c-0.391-0.107-0.6-0.144-0.959-0.056
		c-0.176,0.043-0.328,0.349-0.867,0.461c-0.162,0.034-0.81,0.079-0.978,0.09c-0.446,0.03-0.889,0.11-1.337,0.211
		c-0.516,0.114-1.049,0.369-1.305,0.429c-0.161,0.039-0.408-0.115-0.437-0.155c-0.169-0.241-0.381-0.546-0.712-1.018
		c-0.017-0.023-0.051-0.07-0.06,0.059c-0.026,0.485,0.077,0.894,0.048,1.261c-0.01,0.099-0.03,0.255-0.109,0.324
		c-0.019,0.018-0.738,0.091-0.824,0.091c-0.41,0-0.38-0.104-0.791-0.104c-0.498,0-0.712,0.06-1.225,0.06
		c-0.427,0-0.936-0.069-1.382-0.083c-0.091-0.003-0.158,0.106-0.137,0.239c0.487,2.763,1.143,5.415,0.4,7.811
		c-0.029,0.093-0.115,0.692-0.021,1.125c0.242,1.105-0.09,1.271-0.057,1.992c0.033,0.695,0.191,1.739,0.293,1.813
		c0.104,0.074,2.451,0.472,3.742,0.173c2.306-0.534,4.666-0.527,7.001-0.19c1.521,0.22,3.078,0.717,4.561,1.002
		c1.217,0.234,2.243,0.609,3.451,0.86c0.463,0.096,1.213,0.347,1.309,0.472c0.146,0.194,0.186,1.673-0.096,1.833
		c-0.312,0.177-2.367,0.468-3.636,0.497c-1.182,0.027-2.467-0.373-3.623,0.453c-0.376,0.268-1.417,0.108-1.671,0.135
		c-0.254,0.028-0.75,0.559-1.291,0.682s-3.543-0.413-5.171,0.385c-1.267,0.62-2.61,0.679-3.909,1.027
		c-1.132,0.304-2.229,0.647-3.003,1.464c-0.147,0.157-0.263,0.405-0.406,0.524c-0.143,0.12-0.512,0.213-0.776,0.278
		c-2.65,0.646-5.828-1.393-6.687-3.638c-0.791-2.072-1.03-2.06-2.554-3.274c-0.455-0.362-0.229-0.713-0.352-0.938
		c-0.153-0.286-0.54-0.403-0.558-1.272c-0.011-0.547,0.179-0.559,0.271-0.645c0.448-0.421,0.185-1.046,0.154-1.423
		c-0.112-1.409,0.225-2.858,0.092-4.263c-0.154-1.628-0.609-3.227-0.939-4.837c-0.271-1.323-0.61-2.634-0.805-3.967
		c-0.269-1.827-0.407-3.673-0.649-5.504c-0.07-0.532-0.406-1.033-0.451-1.563c-0.135-1.615-0.899-3.107-0.771-4.791
		c0.078-1.026-0.197-2.092-0.398-3.124c-0.325-1.666-0.273-3.339-0.246-5.019c0.006-0.343,0.056-0.818-0.349-1.129
		c-1.595-1.232-1.845-2.108-0.9-3.704c0.14-0.234,0.476-0.166,0.535-0.138c0.497,0.223,0.743,0.437,1.324,0.699
		c0.104,0.047,0.464,0.141,0.541,0.143c1.208,0.031,3.189,0.627,6.409,1.976c0.096,0.04,0.481,0.09,0.577,0.074
		c1.638-0.282,3.367-0.575,5.097-0.883c1.78-0.317,3.569-0.596,5.331-0.991C315.075,8.88,317.492,8.874,318.432,8.235
		 M312.221,32.728c0.025,0.178,0.315,0.321,0.471,0.354c0.255,0.057,0.293-0.586,0.189-0.694c-0.169-0.178-0.409-0.135-0.361-0.26
		c0.069-0.186,0.063-0.51-0.126-0.669c-0.191-0.159-0.582,0.24-0.591,0.402c-0.03,0.518,0.554,0.337,0.639,0.44
		C312.525,32.404,312.193,32.542,312.221,32.728 M305.251,35.035c-0.029-0.026-0.386-0.177-0.526-0.009
		c-0.142,0.168-0.114,1.003,0.005,1.062c0.117,0.059,0.661,0.126,0.885,0.093S305.28,35.06,305.251,35.035 M301.893,37.625
		c0.578-0.146,0.76-1.095,0.497-1.16c-0.266-0.066-1.483,0.24-1.401,0.5C301.007,37.02,301.517,37.72,301.893,37.625
		 M314.021,31.321c-0.128,0.109-0.065,0.833,0.138,0.932c0.11,0.054,0.722-0.514,0.646-0.658
		C314.729,31.451,314.149,31.211,314.021,31.321 M299.547,13.699c-0.035,0.214,0.166,0.295,0.273,0.25
		c0.107-0.046,0.429-0.47,0.417-0.674c-0.011-0.204-0.372-0.229-0.501-0.103C299.609,13.297,299.582,13.483,299.547,13.699
		 M310.512,34.472c-0.106-0.064-0.354,0.052-0.271,0.219c0.083,0.166,0.331,0.459,0.429,0.494c0.099,0.035,0.242,0.004,0.177-0.123
		C310.78,34.934,310.617,34.536,310.512,34.472 M304.729,37.382c0.011-0.069-0.286-0.301-0.441-0.232
		c-0.103,0.046-0.186,0.345-0.186,0.424c0,0.112,0.267,0.314,0.358,0.323C304.553,37.907,304.719,37.452,304.729,37.382
		 M314.143,32.889c-0.183,0.008-0.184,0.174-0.13,0.302c0.053,0.127,0.193,0.162,0.271,0.177c0.078,0.014,0.089-0.118,0.068-0.188
		C314.33,33.109,314.324,32.88,314.143,32.889 M308.088,35.16c0.018,0.039,0.3-0.119,0.342-0.242
		c0.042-0.124-0.202-0.244-0.316-0.138C308.001,34.885,308.071,35.12,308.088,35.16 M300.053,36.697
		c0.054-0.167-0.187-0.316-0.359-0.221c-0.172,0.097-0.265,0.206-0.172,0.45C299.623,37.195,299.982,36.914,300.053,36.697
		 M305.386,33.104c-0.095-0.068-0.139,0.121-0.14,0.207c0,0.087-0.022,0.276,0.062,0.338c0.084,0.062,0.457,0.075,0.426-0.057
		C305.703,33.459,305.479,33.173,305.386,33.104 M309.064,31.321c-0.058-0.101-0.245-0.02-0.234,0.073
		c0.011,0.094-0.029,0.308,0.062,0.363c0.091,0.055,0.271,0.143,0.318,0.043S309.12,31.422,309.064,31.321 M302.463,37.494
		c0.017,0.058,0.019,0.059,0.07,0.054c0.053-0.005,0.089,0.002,0.013-0.086C302.471,37.375,302.447,37.436,302.463,37.494"/>
	<path clip-path="url(#SVGID_2_)" fill="#FFFFFF" d="M209.684,7.82c0.287-0.657,0.944-0.818,1.036-1.313
		c0.093-0.496-0.216-0.813,0.114-1.091c0.819-0.692,1.214,0.606,1.726,0.161c0.212-0.185,0.241-1.135,1.142-1.477
		c0.902-0.341,2.392-0.252,3.271-0.195c0.985,0.065,1.51,0.229,2.458,0.477c0.948,0.249,2.121,0.756,2.931,1.192
		c0.875,0.472,1.856,4.705,2.606,4.949c1.101,0.36,0.74,1.379,0.917,1.661c0.89,1.414,0.822,2.728,1.437,4.243
		c0.576,1.416,0.928,2.923,1.403,4.382c0.136,0.418,0.38,0.8,0.536,1.213c0.625,1.663,1.196,3.346,1.862,4.991
		c0.665,1.645,1.38,3.274,2.144,4.876c1.21,2.536,1.931,5.201,2.329,7.972c0.232,1.622,0.304,3.24,0.218,4.878
		c-0.033,0.636,0.232,1.233,0.423,1.852c0.308,0.995,1.065,2.76,0.986,3.143c-0.08,0.384-0.563,1.228-0.87,1.394
		c-0.308,0.165-1.048-0.864-1.463-0.357c-0.351,0.429-1.862,0.494-2.211,0.46c-0.348-0.033-0.863-0.638-1.071-1.001
		c-0.539-0.941-0.705-1.513-1.278-2.43c-0.305-0.488-0.284-0.981-0.76-1.324c-0.439-0.317-1.487-0.673-1.831-0.991
		c-0.608-0.561-0.855-1.932-1.121-3.547c-0.507-3.082-0.667-6.861-0.749-7.367c-0.041-0.255-1.017,0.266-1.527,0.389
		c-0.621,0.151-1.198,0.39-1.819,0.542c-1.891,0.462-3.645,0.916-5.55,1.312c-1.592,0.332-2.982,0.052-3.374-0.437
		c-0.392-0.489-0.417-1.195-0.599-1.367c-0.183-0.172-0.805,0.151-0.826,0.591c-0.05,1.027-0.028,2.063-0.144,3.083
		c-0.059,0.528-0.37,1.024-0.531,1.545c-0.605,1.958-0.902,3.72-1.493,5.683c-0.257,0.855-0.478,1.882-0.76,2.729
		c-0.122,0.367-0.461,1.022-0.737,1.209s-0.711-0.085-1.013,0.08c-0.168,0.091-0.22,0.589-0.45,1.06
		c-0.185,0.38-0.69,0.748-0.748,1.001c-0.057,0.254-0.005,1.092-0.242,1.44c-0.236,0.348-1.984,0.384-2.842,0.074
		c-0.752-0.271-1.565-0.567-2.166-1.249c-0.362-0.411-1.419-0.44-1.555-0.921c-0.136-0.481-0.178-0.902-0.174-1.425
		c0.006-0.797-0.006-1.595,0.034-2.389c0.03-0.595,0.047-1.212,0.218-1.774c0.527-1.722,1.08-3.439,1.719-5.121
		c0.252-0.666,0.484-1.281,0.475-2.014c-0.007-0.525,0.262-1.048,0.345-1.581c0.097-0.622,0.082-1.262,0.187-1.883
		c0.35-2.061,0.712-4.119,1.106-6.171c0.427-2.22,0.873-4.437,1.363-6.644c0.121-0.547,0.374-1.094,0.681-1.567
		c0.928-1.431,0.972-3.138,1.534-4.679c0.359-0.987,0.748-1.966,1.054-2.97C208.568,11.362,209.41,8.444,209.684,7.82
		 M223.712,29.522c0.446-0.583,0.165-1.413-0.176-2.143c-0.941-2.018-1.944-4.013-2.765-6.081c-0.787-1.979-1.673-3.931-2.088-6.052
		c-0.155-0.791-0.877-2.529-0.971-2.565c-0.095-0.036-0.489,0.805-0.637,1.13c-0.515,1.132-0.969,2.295-1.523,3.407
		c-1.407,2.828-2.288,5.807-2.645,8.938c-0.067,0.585,0.211,1.254,0.022,1.771c-0.437,1.191,0.015,3.361,0.405,3.36
		c0.2,0,2.725-0.543,5.262-1.024C221.325,29.744,223.495,29.807,223.712,29.522"/>
	<path clip-path="url(#SVGID_2_)" fill="#FFFFFF" d="M284.883,57.064c0.697,0.425,1.967,2.366,2.078,2.697
		c0.109,0.331-0.069,1.259-0.26,1.425c-0.351,0.305-2.854,0.716-3.546,0.68c-0.385-0.02-2.194-1.017-4.129-2.471
		c-1.54-1.158-3.147-2.671-4.243-3.743c-2.24-2.195-4.431-4.462-6.841-6.458c-1.463-1.211-2.581-2.592-3.646-4.119
		c-1.243-1.78-3.47-4.868-4.014-5.145s-0.21,0.684-0.227,1.231c-0.007,0.224-0.315,3.628-0.468,5.985
		c-0.084,1.286-0.425,2.643,0.05,3.953c0.162,0.447,0.585,1.053,0.452,1.519c-0.32,1.117-1.242,0.808-1.809,0.755
		c-0.226-0.021-0.854,0.121-1.196,0.029c-0.206-0.056-0.337-0.388-0.525-0.426c-0.429-0.088-0.603-0.053-0.767-0.264
		c-0.355-0.456-1.434-2.144-2.18-3.189c-0.258-0.361-0.656-0.619-0.921-0.977c-0.374-0.51-0.706-1.055-1.013-1.608
		c-0.763-1.37-1.137-2.745-0.795-4.396c0.198-0.958-0.601-2.676-0.529-3.276c0.051-0.429,0.419-0.537,0.558-1.323
		c0.14-0.804,0.004-1.997,0.044-2.708c0.175-3.038-0.845-5.934-1.185-8.914c-0.112-0.982-0.283-1.992-0.161-2.956
		c0.098-0.771,0.073-1.49-0.104-2.21c-0.347-1.402,0.004-2.769,0.18-4.135c0.129-1.008-0.143-2.518-0.309-3.236
		c-0.043-0.186-0.152-0.304-0.148-0.409c0.002-0.057,0.086-0.196,0.225-0.341c0.375-0.397,1.36-1.542,1.751-1.72
		c0.39-0.178,2.045-0.718,3.129-1.391c0.438-0.273,1.052-0.456,1.555-0.401c1.334,0.146,2.908,0.157,4.257,0.238
		c1.849,0.11,3.474,0.284,5.294,0.487c2.066,0.232,4.247,0.472,5.958,2.014c0.617,0.557,1.446,0.877,2.17,1.317
		c1.17,0.712,2.152,1.638,2.918,2.766c0.582,0.856,1.156,1.736,1.677,2.633c0.17,0.295,0.382,0.714,0.426,1.048
		c0.292,2.226,0.638,4.381,0.725,6.616c0.07,1.788-0.528,3.542-1.591,5.054c-0.979,1.389-1.87,2.857-2.985,4.126
		c-1.06,1.208-2.544,1.922-4.015,2.566c-0.946,0.415-1.709,0.852-2.866,0.613c-0.388-0.08-1.181,0.194-1.702,0.041
		c-0.765-0.224-1.343,0.024-1.373,0.163c-0.047,0.219,0.622,0.524,1.359,0.904c0.658,0.339,0.798,0.836,1.275,1.135
		c1.812,1.138,3.118,2.675,4.17,4.532c1.333,2.358,3.289,4.233,5.342,5.95c1.33,1.112,2.89,1.948,4.341,2.914
		c0.207,0.138,0.408,0.3,0.574,0.485C282.702,56.082,284.186,56.637,284.883,57.064 M257.226,23.757
		c0.356,0.53,0.673,1.449,0.376,2.402c-0.238,0.764-0.219,1.465-0.033,2.21c0.084,0.335,0.156,0.712,0.088,1.04
		c-0.214,1.032,0.096,1.972,0.345,2.915c2.178,0.316,2.178,0.316,4.207-0.237c0.097-0.027,0.195-0.044,0.293-0.068
		c2.668-0.664,5.267-1.51,7.03-3.788c0.942-1.216,1.919-2.501,2.442-3.917c0.512-1.391,0.94-2.96,0.292-4.517
		c-0.109-0.263-0.083-0.594-0.072-0.89c0.038-0.961-0.376-1.735-0.871-2.528c-0.643-1.029-1.854-1.136-2.625-1.832
		c-1.838-0.053-3.617-0.084-5.396-0.166c-0.684-0.032-1.527,0.039-2.001-0.324c-0.684-0.521-1.253-0.414-1.917-0.444
		c-0.406-0.019-0.451-0.085-0.898,0.112c-0.086,0.038-0.441,0.453-0.526,0.491c-0.151,0.067-0.496-0.07-0.634,0.012
		c-0.212,0.125-0.316,0.111-0.5,0.247c-0.099,0.074-0.128,0.277-0.126,0.309C256.882,17.872,257.042,20.615,257.226,23.757
		 M273.482,18.776c0.133-0.038,0.199-0.208,0.029-0.207s-0.203,0.062-0.202,0.138C273.31,18.783,273.349,18.814,273.482,18.776
		 M258.619,10.865c0.089,0,0.158-0.138,0.18-0.187c0.019-0.049-0.067-0.067-0.183-0.078c-0.114-0.01-0.154,0.104-0.157,0.156
		C258.456,10.807,258.531,10.865,258.619,10.865"/>
	<path clip-path="url(#SVGID_2_)" fill="#FFFFFF" d="M220.143,3.414c0,0.137-0.086,0.248-0.193,0.248
		c-0.107,0-0.253-0.125-0.193-0.248c0.085-0.173,0.147-0.248,0.254-0.248C220.117,3.166,220.143,3.277,220.143,3.414"/>
	<path clip-path="url(#SVGID_2_)" fill="#FFFFFF" d="M145.763,50.2c0.065,0.12-0.074,0.223-0.167,0.274
		c-0.094,0.051-0.283,0.011-0.289-0.126c-0.008-0.193-0.095-0.38-0.002-0.431C145.398,49.866,145.698,50.079,145.763,50.2"/>
	<path clip-path="url(#SVGID_2_)" fill="#FFFFFF" d="M279.666,15.292c-0.275,0.242,0.254,0.573,0.392,0.436
		C280.194,15.59,280.218,14.811,279.666,15.292"/>
	<path clip-path="url(#SVGID_2_)" fill="#FFFFFF" d="M263.493,47.087c0.013,0.391,0.115,0.688,0.392,0.573
		c0.274-0.115,0.526-0.527,0.252-0.78C263.86,46.628,263.487,46.883,263.493,47.087"/>
	<path clip-path="url(#SVGID_2_)" fill="#FFFFFF" d="M109.05,88.934c-0.097-0.15-1.238-1.028-1.892-1.384
		c-0.729-0.396-1.06-1.049-0.957-1.651c0.104-0.604,1.256-2.314,2.321-3.162c0.946-0.753,0.722-2.089,0.796-3.025
		c0.073-0.935,0.965-1.435,1.962-0.993c0.17,0.076,0.665,0.018,0.863,0.012c1.289-0.038,2.292-0.065,3.575,0.005
		c1.181,0.065,2.349,0.357,3.525,0.528c0.538,0.077,1.089,0.182,1.622,0.134c0.663-0.06,1.278-0.027,1.913,0.196
		c0.359,0.126,0.781,0.123,1.171,0.101c2.037-0.116,3.911,0.364,5.731,1.29c1.2,0.61,2.513,1.002,3.787,1.46
		c1.24,0.446,2.385,1.042,3.204,1.818c0.922,1.744,1.783,3.308,2.577,4.905c0.326,0.657,0.668,1.373,0.726,2.085
		c0.196,2.397,1.028,4.781,0.215,7.216c-0.139,0.416-0.144,0.891-0.139,1.338c0.02,2.053-0.432,4.035-0.869,6.019
		c-0.202,0.92-0.449,1.834-0.741,2.729c-0.152,0.463-0.448,0.878-0.513,1.003c-0.649,2.58-1.04,4.883-2.522,6.808
		c-0.604,0.785-1.072,1.677-1.705,2.434c-0.702,0.838-1.537,1.564-2.288,2.364c-0.73,0.774-1.481,1.387-2.613,1.611
		c-0.727,0.143-1.35,0.815-2.003,1.24c-0.131,1.166,0.733,1.812,1.287,2.473c1.054,1.255,2.065,2.54,3,3.877
		c0.582,0.833,1.156,1.648,2.014,2.198c1.259,0.807,2.134,1.939,2.926,3.177c0.619,0.967,1.372,1.849,1.989,2.817
		c0.851,1.337,1.652,2.708,2.432,4.089c0.643,1.14,1.396,2.047,2.567,2.801c1.605,1.033,3.09,2.344,4.099,4.069
		c0.296,0.506,0.76,0.911,1.127,1.379c0.387,0.493,1.184,1.048,1.184,1.59c0,0.543-0.95,1.375-1.381,1.499
		c-0.431,0.124-1.323,0.124-1.464,0.124s-0.333-0.162-0.446-0.255c-1.523-1.252-3.093-2.443-4.648-3.652
		c-0.939-0.729-1.632-1.581-2.081-2.689c-0.59-1.453-1.509-2.693-2.705-3.728c-0.29-0.25-0.489-0.611-0.706-0.938
		c-0.854-1.285-1.779-2.497-3.128-3.322c-0.243-0.149-0.413-0.417-0.616-0.632c-1.541-1.629-3.1-3.24-4.615-4.892
		c-1.308-1.427-2.574-2.893-3.845-4.354c-0.556-0.639-0.991-1.419-1.643-1.926c-0.649-0.505-1.47-0.87-2.272-1.072
		c-1.124-0.287-1.893-0.779-2.57-1.806c-0.707-1.068-1.474-2.089-2.047-3.25c-0.331-0.669-0.998-0.689-1.188-0.601
		c-0.19,0.088-0.174,0.768-0.164,1.157c0.006,0.247,0.091,0.504,0.049,0.741c-0.406,2.295-0.836,4.586-1.247,6.88
		c-0.052,0.291-0.108,0.61-0.041,0.888c0.37,1.545,0.158,3.064-0.087,4.597c-0.155,0.97-0.291,1.96-0.273,2.938
		c0.044,2.414-0.529,4.727-0.956,7.069c-0.139,0.768-0.272,1.571-0.192,2.336c0.107,1.034-0.185,1.979-0.375,2.949
		c-0.091,0.462-0.185,1.149-0.488,1.383c-0.302,0.233-2.714,0.238-3.051,0c-0.337-0.237-0.663-1.257-0.874-1.421
		c-0.212-0.165-0.497-0.17-0.868-0.233c-0.233-0.041-0.127-0.739-0.541-1.463c-0.169-0.294-0.346-0.483-0.659-0.666
		c-0.119-0.069-0.497-0.273-0.562-0.37c-0.126-0.346-0.196-0.884-0.242-1.014c-0.464-1.316-0.783-2.277-1.157-3.663
		c-0.283-1.047-0.522-2.181-0.419-3.24c0.187-1.9,0.532-3.783,1.008-5.658c0.555-2.189,0.665-4.492,0.962-6.747
		c0.136-1.034,0.212-2.077,0.395-3.103c0.25-1.395,0.706-2.703,1.754-3.745c0.837-0.832,1.326-1.845,1.471-3.039
		c0.095-0.789,0.361-1.555,0.479-2.341c0.176-1.18,0.3-2.366,0.426-3.553c0.209-1.965,0.451-3.928,0.582-5.898
		c0.086-1.286-0.022-2.583-0.001-3.876c0.021-1.283,0.205-2.571,0.123-3.845c-0.168-2.614,0.596-5.206,0.136-7.819
		C109.185,89.84,109.147,89.084,109.05,88.934 M116.012,104.087c0.126,0.326,0.016,0.996,0.005,1.396
		c-0.064,2.268-0.485,4.484-0.486,6.873c0,0.486-0.022,1.161,0.124,1.22c0.147,0.059,0.502-0.244,0.726-0.46
		c0.543-0.526,0.923-0.941,1.321-1.422c1.295-1.562,2.379-3.341,3.851-4.706c1.156-1.072,1.523-2.285,1.707-3.663
		c0.546-4.104,1.766-8.049,2.805-12.032c0.434-1.666-0.298-2.982-0.819-4.393c-0.093-0.251-0.386-0.476-0.64-0.613
		c-0.651-0.353-1.492-0.763-1.869-0.796c-0.377-0.032-3.431,1.099-5.043,1.75c-0.712,0.288-1.577,0.471-1.788,1.353
		c0,1.16-0.061,2.264,0.017,3.354c0.078,1.111,0.013,2.177-0.263,3.264c-0.67,2.639-0.072,5.304-0.037,7.957
		C115.628,103.541,115.887,103.762,116.012,104.087"/>
	<path clip-path="url(#SVGID_2_)" fill="#FFFFFF" d="M223.182,157.567c-0.29,0.336-2.164,0.434-2.613,0.337
		c-0.449-0.096-0.662-0.252-0.999-0.348c-0.887-0.252-1.462-0.822-1.828-1.655c-0.179-0.405-0.426-0.782-0.66-1.16
		c-0.568-0.918-1.237-1.729-2.048-2.47c-0.547-0.5-0.941-1.296-1.13-2.03c-0.325-1.263-0.558-2.537-0.299-3.904
		c0.217-1.144,0.041-2.363,0.019-3.548c-0.022-1.237,0.001-2.481-0.122-3.709c-0.177-1.785-0.194-3.561,0.022-5.34
		c0.012-0.099-0.006-0.201-0.016-0.301c-0.306-3.184,0.287-6.29,0.71-9.427c0.32-2.372,0.896-4.655,1.489-6.957
		c0.452-1.752,0.682-3.562,1.007-5.347c0.026-0.146,0.063-0.307,0.031-0.445c-0.38-1.654,0.15-3.248,0.39-4.842
		c0.261-1.743,0.584-3.49,0.858-5.227c0.451-2.862,1.308-5.597,2.154-8.332c0.433-1.401,1.254-2.707,2.037-3.971
		c0.514-0.828,1.056-2.374,1.837-2.393c0.78-0.019,1.063,0.34,1.35,0.318s0.546-0.6,1.167-0.6s1.307,0.318,1.838,0.557
		c0.44,0.196,1.009,0.295,1.218,0.733c0.247,0.519,0.848,0.537,1.106,0.744c0.34,0.272,0.263,0.509,0.555,0.835
		c0.195,0.215,0.306,0.522,0.528,0.695c1.099,0.857,1.213,1.989,1.015,3.25c-0.204,1.301-0.589,2.512-1.414,3.567
		c-0.271,0.348-0.424,0.787-0.622,1.188c-0.288,0.58-0.594,1.152-0.842,1.749c-0.209,0.501-0.307,1.05-0.523,1.546
		c-1.294,2.992-1.548,6.244-2.222,9.377c-0.548,2.549-1.134,5.111-1.51,7.703c-0.035,0.242-0.037,0.508,0.02,0.743
		c0.277,1.145,0.006,2.269-0.152,3.383c-0.207,1.464-0.801,4.178-0.767,4.454c0.035,0.275,0.718,0.809,0.977,0.829
		c0.258,0.02,3.283-0.519,4.986-0.854c1.119-0.221,2.32-0.024,3.358-0.689c0.187-0.12,0.504-0.118,0.74-0.067
		c1.462,0.31,2.872-0.095,4.173-0.225c0.818-0.395,1.013-1.05,0.949-1.698c-0.312-3.271,0.611-6.347,1.465-9.424
		c0.518-1.872,0.759-3.786,1.098-5.686c0.253-1.418,0.463-2.842,0.681-4.267c0.291-1.899,0.757-3.775,0.508-5.735
		c-0.099-0.772-0.048-2.225,0.104-2.564c0.13-0.296,1.659-3.998,2.176-6.915c0.076-0.423,0.079-0.644,0.155-1.205
		c0.075-0.562,1.007-0.963,1.637-0.941c0.359,0.013,0.729,0.166,1.114,0.286c0.605,0.188,1.597,0.342,2,0.646
		c0.402,0.304,3.33,3.927,3.459,4.25c0.128,0.324,0.255,3.12-0.217,4.795c-0.158,0.56-0.405,1.105-0.483,1.675
		c-0.35,2.587-0.932,5.133-1.027,7.768c-0.082,2.307,0.105,4.642-0.443,6.928c-0.533,2.211-1.03,4.432-1.489,6.659
		c-0.248,1.203-0.427,2.425-0.546,3.647c-0.046,0.472,0.082,1.448,0.375,1.488c0.264,0.036,2.126,0.351,3.529,1.103
		c0.819,0.439,1.491,1.282,1.721,1.79c0.229,0.507-0.719,1.059-1.472,1.152c-0.998,0.123-1.996,0.269-2.998,0.34
		c-0.747,0.054-1.649,0.542-1.777,1.011c-0.128,0.466-0.331,2.148-0.447,3.284c-0.205,2.01-0.431,4.02-0.567,6.035
		c-0.142,2.073-0.116,4.158-0.301,6.227c-0.116,1.315-0.801,3.712-0.797,4.215c0.002,0.284,0.637,4.354,0.923,6.746
		c0.008,0.057,0.062,0.529-0.284,0.713c-0.934,0.498-1.354,0.54-1.936,0.564c-0.626,0.026-1.402-0.408-2.761-0.811
		c-0.07-0.021-0.29-0.088-0.44-0.398c-0.635-1.318-1.436-4.049-2.108-4.323s-1.633-1.416-2.25-2.543
		c-0.263-0.478-0.226-1.152-0.217-1.736c0.014-0.982,0.384-2.046,0.118-2.929c-0.5-1.665-0.133-3.306-0.297-4.925
		c-0.149-1.481,0.227-2.854,0.28-4.277c0.053-1.372,0.804-4.066,0.745-4.285c-0.06-0.22-0.598-0.718-1.001-0.808
		c-0.606-0.138-1.368-0.202-1.897,0.052c-1.411,0.678-2.931,0.394-4.379,0.68c-0.506,0.101-1.043,0.09-1.576,0.238
		c-1.2,0.333-2.359,0.119-3.498-0.397c-0.722-0.327-1.463-0.746-2.365-0.485c-0.107,0.03-0.275,0.199-0.405,0.381
		c-0.13,0.181-0.87,1.672-0.719,2.925c0.091,0.75-0.207,1.553-0.359,2.325c-0.237,1.204,0.15,2.4,0.085,3.57
		c-0.181,3.289,0.683,6.472,0.786,9.717c0.048,1.52-0.203,3.051-0.345,4.573C223.433,155.94,223.472,157.232,223.182,157.567"/>
	<path clip-path="url(#SVGID_2_)" fill="#FFFFFF" d="M428.779,94.52c-0.287-1.08-0.464-2.037,0.508-3.258
		c0.971-1.221,3.296,0.687,5.161-0.177c0.374-0.545,0.396-1.593,1.586-1.593c1.188,0,0.927,1.005,0.659,1.264
		c-0.239,0.231-0.604,0.244-0.945,0.504c-0.04,0.03,0.014,0.237,0.093,0.311c0.425,0.395,1.052,0.891,1.456,1.351
		c0.618,0.7,0.899,1.313,1.072,1.329c0.308,0.027,0.755-0.779,1.107-0.882c0.354-0.104,2.56,0.486,3.887,0.704
		c0.477,0.078,0.981,0.142,1.453,0.063c3.014-0.494,5.851,0.296,8.598,1.45c2.391,1.004,4.732,2.11,7.214,2.889
		c2.564,0.805,4.596,2.63,6.541,4.566c1.429,1.423,2.399,3.146,3.294,4.947c0.078,0.153,0.257,0.406,0.371,0.496
		c1.439,1.146,1.815,3.016,3.036,4.346c0.336,0.365,0.678,0.83,0.789,1.309c0.599,2.61,1.335,5.214,1.611,7.868
		c0.215,2.05,0.453,4.097,0.653,5.802c-0.678,4.504-1.068,8.566-1.262,12.998c-0.037,0.829,0.23,2.52-0.492,3.38
		c-0.254,0.304-0.107,1.186-0.113,1.406c-0.048,1.725-1.092,2.849-1.775,4.422c-0.414,0.951-0.948,2.011-1.549,2.834
		c-0.7,0.96-1.629,1.943-2.552,2.621c-2.561,1.88-4.946,3.112-7.889,4.179c-1.059,0.385-3.528,0.618-3.694,0.539
		c-0.166-0.08-0.502-0.54-0.682-0.376c-0.18,0.162-0.176,0.472-0.991,0.685c-0.958,0.252-1.943,0.398-2.926,0.521
		c-1.246,0.155-2.514,0.149-3.744,0.391c-1.043,0.204-2.037,0.205-3.078,0.034c-1.765-0.289-3.544-0.506-5.324-0.668
		c-0.427-0.038-0.936,0.211-1.066,0.515c-0.133,0.304,0.113,2.658-0.202,3.178c-0.135,0.223-1.036,0.985-1.177,1.019
		c-0.144,0.032-0.854-0.253-1.134-0.195c-0.282,0.057-1.753,0.784-2.021,0.784c-0.266,0-2.295,0.302-3.378-0.353
		c-0.152-0.092-0.689-0.619-0.837-1.329c-0.152-0.722-0.423-1.29-0.513-1.345c-0.182-0.106-0.545-0.012-1.019-0.005
		c-0.428,0.007-0.216-0.844-0.794-1.281c-0.741-0.562-1.996-0.21-2.054-1.179c-0.028-0.447-0.503-2.35-0.472-3.796
		c0.027-1.216,0.138-2.521-0.449-3.71c-0.158-0.319-0.094-0.797-0.056-1.193c0.233-2.404,0.567-4.803,0.712-7.214
		c0.152-2.535,0.107-5.084,0.192-7.625c0.047-1.374,0.164-2.747,0.287-4.117c0.098-1.104-0.274-2.144-0.14-3.3
		c0.238-2.061,0.087-4.173,0.104-6.263c0.024-2.556-0.02-5.114,0.112-7.663c0.086-1.674-0.367-3.349,0.173-5.036
		c0.227-0.714,0.032-1.599-0.035-2.4c-0.131-1.575,0.254-3.126,0.248-4.662c-0.01-2.895,0.799-5.602,1.233-8.392
		C428.605,94.983,428.703,94.766,428.779,94.52 M442.764,102.225c0.01,0.444-1.489,2.672-1.713,4.694
		c-0.039,0.355,0.13,0.727,0.14,0.933c0.009,0.204-0.206,0.316-0.257,0.422c-0.631,1.331-0.514,2.821-0.758,4.232
		c-0.305,1.77-0.491,3.563-0.69,5.353c-0.176,1.559-0.464,3.13-0.409,4.684c0.12,3.473-0.032,6.939-0.007,10.407
		c0.01,1.442,0.052,2.91,0.309,4.319c0.592,3.225,0.841,6.454,0.506,9.724c-0.123,1.198-0.136,2.291-0.262,3.488
		c-0.09,0.86-0.107,2.366-0.142,2.723c-0.035,0.355-0.062,2.533,0.153,2.652c0.214,0.121,2.831-0.145,4.186-0.24
		c1.029-0.072,2.145,0.048,3.062-0.347c1.07-0.461,2.122-0.295,3.154-0.494c2.136-0.414,4.292-0.685,6.387-1.49
		c3.252-1.251,5.771-3.354,7.562-6.418c1.39-2.379,2.331-4.97,2.9-7.762c0.652-3.187,1.05-6.39,1.286-9.626
		c0.105-1.44,0.319-2.904,0.183-4.323c-0.317-3.313-0.805-6.609-1.253-9.907c-0.188-1.384-0.611-2.669-1.16-3.97
		c-0.736-1.747-1.925-3.095-2.882-4.64c-0.648-1.049-1.452-1.91-2.539-2.406c-0.617-0.123-1.219-0.306-1.819-0.488
		c-0.265-0.08-0.536-0.249-0.791-0.225c-1.454,0.138-2.611-0.636-3.814-1.321c-1.164-0.663-2.396-1.022-3.744-1.134
		c-2.533-0.21-5.119-0.124-7.552-1.159c-0.147-0.063-0.979-0.042-0.3,0.646C442.76,100.815,442.754,101.702,442.764,102.225
		 M454.346,158.32c-0.247,0.271-0.443,1.155-0.182,1.363s1.313-0.038,1.336-0.359C455.524,159.001,454.593,158.049,454.346,158.32
		 M429.911,106.455c0.382,0.204,1.113-0.477,1.294-0.828c0.119-0.23,0.062-0.594-0.217-0.703c-0.752-0.294-0.351,0.83-0.592,0.961
		C430.081,106.057,429.807,106.4,429.911,106.455 M434.61,164.575c0.213,0.486-0.196,0.445-0.032,0.674
		c0.231,0.327,0.915-0.035,0.969-0.317C435.601,164.65,434.396,164.092,434.61,164.575 M467.112,148.619
		c0.322-0.007,0.405-0.124,0.519-0.404c0.144-0.351,0.322-0.65-0.008-0.688C467.028,147.458,466.384,148.636,467.112,148.619
		 M475.15,134.773c-0.358-0.564-0.828,0.477-0.51,0.621C474.961,135.537,475.506,135.337,475.15,134.773 M464.155,153.406
		c-0.25,0.159-0.185,0.417-0.037,0.516c0.146,0.1,0.489-0.008,0.699-0.061c0.209-0.053,0.062-0.287-0.028-0.364
		C464.626,153.359,464.406,153.246,464.155,153.406 M474.075,128.36c-0.003,0.086,0.522,0.185,0.576,0.081
		c0.053-0.104-0.02-0.489-0.152-0.597C474.368,127.736,474.077,128.274,474.075,128.36 M429.287,156.274
		c0.028-0.126,0.223-0.179,0.014-0.439c-0.198-0.248-0.459,0.659-0.136,0.688C429.486,156.55,429.27,156.348,429.287,156.274
		 M446.052,159.447c-0.17-0.236-0.435-0.207-0.535-0.169c-0.075,0.029-0.102,0.417,0.007,0.479
		C445.884,159.966,446.222,159.683,446.052,159.447 M450.707,160.5c0.13,0.071,0.27-0.261,0.15-0.392
		c-0.119-0.13-0.389,0.074-0.341,0.229C450.536,160.398,450.575,160.428,450.707,160.5 M449.453,156.849
		c-0.119-0.108-0.235-0.045-0.176,0.129c0.057,0.173-0.076,0.259,0.163,0.27C449.585,157.254,449.555,156.944,449.453,156.849
		 M462.02,155.541c-0.104-0.238-0.327-0.176-0.302-0.03c0.026,0.146,0.006,0.204,0.132,0.273
		C461.977,155.853,462.124,155.78,462.02,155.541"/>
	<path clip-path="url(#SVGID_2_)" fill="#FFFFFF" d="M91.099,108.094c0.773,1.314,0.495,1.966,0.166,3.06
		c-0.318,1.055-0.083,2.202,0.549,3.173c0.498,0.766,0.942,1.527,0.891,2.49c-0.036,0.654,0.35,1.045,0.78,1.375
		c0.107,0.082,0.34,0.124,0.43,0.237c0.091,0.114,0.127,0.427,0.139,0.656c0.065,1.311-0.699,2.983-0.559,3.76
		c0.098,0.542,0.575,1.425,0.67,1.671c0.096,0.247-0.123,1.751-0.087,2.669c0.047,1.224-0.482,2.501-0.916,3.699
		c-0.611,1.688-1.357,3.326-2.054,4.983c-0.561,1.33-1.021,2.68-1.394,4.086c-0.443,1.671-1.242,3.247-1.894,4.86
		c-0.035,0.086-0.122,0.157-0.197,0.221c-1.002,0.836-1.9,1.827-3.141,2.31c-0.177,0.069-0.462,0.273-0.51,0.351
		c-0.133,0.215-0.338,0.598-0.478,0.686c-0.139,0.087-0.594,0.135-0.833,0.221c-1.397,0.504-2.578,1.34-3.771,2.159
		c-2.059,1.414-4.074,2.932-6.349,3.962c-1.579,0.715-3.343,0.976-5.089,1.086c-0.746,0.048-1.496,0.027-2.266,0.018
		c-0.737-0.013-1.035-0.569-1.232-0.855c-1.231-1.774-2.269-3.655-3.133-5.618c-0.914-2.076-1.675-4.223-2.425-6.366
		c-0.307-0.879-0.364-1.827-0.629-2.743c-0.58-2.002-0.94-4.084-1.198-6.158c-0.13-1.049,0.121-2.155,0.265-3.227
		c0.166-1.229,0.404-2.434,0.948-3.582c0.289-0.609,0.261-1.36,0.457-2.024c0.38-1.285,0.781-2.566,1.249-3.821
		c0.169-0.453,0.554-0.826,0.695-1.272c0.115-0.545,0.123-1.146,0.373-1.62c0.358-0.68,0.529-1.306,0.547-2.104
		c0.027-1.26,0.395-2.513,0.61-3.77c0.076-0.438,0.109-0.885,0.195-1.321c0.324-1.631,0.639-3.264,1.01-4.883
		c0.098-0.424,0.419-0.791,0.58-1.207c0.535-1.372,1.344-3.98,1.36-4.219s0.864-1.095,0.932-1.166
		c0.082-0.086,0.29-0.371,0.194-0.458c-0.114-0.104-0.25-0.432-0.142-0.695c0.112-0.274,0.498-0.647,0.57-0.975
		c0.287-1.312,1.232-2.314,1.015-3.771c-0.046-0.307,0.151-0.508,0.207-0.587c0.144-0.205,0.375-0.343,0.508-0.591
		c0.088-0.165,0.06-0.483,0.056-0.557c-0.084-1.499,0.725-2.516,1.167-3.85c0.092-0.281,0.337-0.53,0.368-0.809
		c0.16-1.445,1.17-2.527,1.591-3.854c0.395-1.242,0.814-2.308,1.995-3.031c0.136-0.084,0.157-0.932,0.703-0.977
		c0.588-0.049,0.514,0.268,0.6,0.406c0.096,0.154,0.179,0.241,0.311,0.351c0.094,0.078,0.477,0.146,0.574,0.11
		c1.463-0.537,2.834,0.097,4.227,0.358c0.673,0.126,1.617,0.307,1.785,0.269c0.169-0.038,1.048-0.64,1.5-0.767
		c0.787-0.221,1.591,0.113,1.895,0.854c0.7,1.708,1.591,3.302,2.489,4.91c0.637,1.141,0.824,2.527,1.25,3.791
		c0.304,0.904,0.627,1.777,0.354,2.769c-0.084,0.304,0.001,0.736,0.168,1.013c0.409,0.677,0.369,1.413,0.498,2.142
		c0.249,1.406,0.685,2.776,1.038,4.164c0.061,0.242,0.138,0.492,0.132,0.735c-0.035,1.38-0.1,2.758-0.136,4.137
		c-0.006,0.246-0.001,0.554,0.135,0.729c0.388,0.504,0.474,1.047,0.272,1.533C90.991,107.513,91.019,107.958,91.099,108.094
		 M71.123,151.096c0.148-0.048,0.287-0.098,0.421-0.16c3.464-1.62,6.163-4.066,7.809-7.542c0.678-1.432,1.438-2.819,2.012-4.32
		c0.607-1.591,1.183-3.145,1.419-4.831c0.067-0.48,0.302-0.944,0.498-1.399c0.394-0.919,0.933-1.793,1.2-2.746
		c0.625-2.227,1.403-4.391,2.336-6.557c0.049-0.113,0.188-0.407,0.147-0.758c-0.063-0.543,0.045-1.109,0.262-1.712
		c0.372-1.028,0.57-2.226,0.438-3.301c-0.146-1.206,0.339-2.103,0.314-3.268c-0.005-0.248-0.073-0.752-0.063-0.986
		c0.012-0.232,0.146-0.437,0.19-0.562c0.22-0.626,0.013-1.131,0.22-1.734c0.223-0.646,0.64-1.192,0.635-1.953
		c-0.003-0.603,0.157-1.206,0.288-1.846c0.025-0.123,0.061-0.495-0.226-0.67c-0.442-0.271-0.792-0.922-0.934-1.332
		c-0.186-0.539,0.356-1.146,0.334-1.36c-0.022-0.216-0.787-1.859-1.097-2.95c-0.405-1.425-0.643-2.597-0.975-4.042
		c-0.035-0.147-0.158-0.421-0.174-0.579c-0.011-0.116,0.03-0.502,0.036-0.68c0.016-0.553-0.013-1.105-0.094-1.649
		c-0.078-0.531-0.273-1.044-0.413-1.566c-0.103-0.379-0.191-0.761-0.3-1.137c-0.495-1.712-3.112-2.831-3.363-2.797
		c-0.25,0.032-0.759,0.454-0.891,0.79c-0.728,1.844-1.45,3.695-2.062,5.581c-0.456,1.408-0.725,2.878-1.108,4.311
		c-0.332,1.242-0.618,2.509-1.093,3.697c-0.351,0.879-0.37,1.912-0.815,2.65c-1.582,2.629-2.192,5.667-3.76,8.314
		c-0.941,1.591-1.365,3.522-1.829,5.35c-0.459,1.811-0.673,3.684-0.999,5.528c-0.121,0.684-0.403,1.375-0.357,2.045
		c0.144,2.106-0.867,4.074-0.657,6.177c0.013,0.138-0.066,0.296-0.139,0.425c-0.39,0.693-0.468,1.479-0.694,2.216
		c-0.503,1.64-0.406,3.243-0.221,4.889c0.081,0.727-0.098,1.646,0.014,2.077c0.111,0.432,0.856,2.868,1.036,4.277
		c0.189,1.473,0.934,2.605,1.702,3.791C70.545,151.357,70.931,151.159,71.123,151.096"/>
	<path clip-path="url(#SVGID_2_)" fill="#FFFFFF" d="M145.861,82.523c-0.985-1.361-3.065-2.938-2.688-3.791s2.178,0.154,3.12,0.493
		c0.687,0.247,1.322,0.718,1.89,1.197c0.896,0.758,1.86,1.334,3.018,1.554c0.339,0.064,0.684,0.101,1.028,0.132
		c0.49,0.044,0.983,0.069,1.475,0.106c0.836,0.065,2.52,0.108,2.837,0.227c0.318,0.119,0.672,0.361,0.862,0.214
		c0.658-0.508,1.333-0.319,2.169,0.098c0.509,0.253,1.128,0.286,1.68,0.46c1.079,0.333,3.073,0.926,3.336,0.927
		c0.263,0.002,1.745-0.495,2.09-0.5c0.345-0.006,0.915,0.475,1.123,0.466c0.207-0.009,1.152-0.577,1.952-0.337
		c0.699,0.21,2.383,0.893,4.259,0.692c0.268-0.028,0.599-0.222,0.931-0.191c0.333,0.03,0.31,0.482,0.709,0.535
		c0.398,0.054,0.709-0.161,0.94-0.189c0.273-0.034,0.532-0.086,0.864,0.061c0.373,0.164,0.756,0.518,1.29,0.657
		c0.435,0.113,0.861-0.295,1.293-0.07c0.431,0.225,2.116,0.252,2.531,0.039c0.664-0.341,1.122,0.229,1.441,0.255
		c0.32,0.025,1.166-0.415,1.866-0.354c0.699,0.061,0.639,0.76,2.098,0.497c0.556-0.101,1.62,0.35,1.976,0.264
		s0.685-0.628,1.155-0.66c0.471-0.031,0.901,0.665,1.058,0.676c0.268,0.019,0.524-0.279,1.002-0.335
		c0.174-0.021,0.729,0.11,1.278,0.396c0.728,0.38,1.058,0.479,1.624,0.216c0.142-0.065,0.296-0.331,0.656-0.362
		c0.359-0.032,0.994,0.471,1.399,0.613c0.866,0.303,1.616,0.488,2.462,0.532c0.352,0.019,0.646-0.145,1.121-0.019
		c0.476,0.125,0.694,0.648,1.124,0.876c0.244,0.128,0.52,0.209,0.851,0.198c0.281-0.009,0.653,0.305,0.847,0.57
		c0.349,0.477,0.753,0.682,1.211,0.687c0.232,0.003,0.398-0.24,0.735-0.135c0.337,0.105,0.74,0.735,0.927,0.809
		c0.187,0.074,0.524-0.021,0.635-0.078c0.509-0.267,0.878-0.057,1.179,0.239c0.492,0.483,1.025,0.589,1.584,0.549
		c0.205-0.015,0.577-0.174,0.825,0.061c0.344,0.325,1.244,1.146,1.295,1.701c0.049,0.556-0.447,2.11-0.708,2.369
		c-0.262,0.259-1.957,1.072-2.767,1.076c-0.811,0.004-2.951-0.606-3.97-0.815c-1.308-0.124-3.269-0.394-3.501-0.331
		c-0.232,0.062-0.463,0.376-0.732,0.361c-0.268-0.015-0.966-0.425-1.484-0.452c-0.958-0.052-2.239,0.04-2.576-0.276
		c-0.216-0.201-1.063-0.027-1.469-0.066c-0.705-0.067-1.412-0.207-2.066,0.021c-0.251,0.087-0.447,0.408-0.727,0.45
		c-0.28,0.042-1.085-0.354-1.625-0.414c-0.347-0.04-0.7-0.049-1.068-0.035c-0.826,0.03-1.412-0.126-2.199,0.154
		c-0.154,0.055-0.4,0.184-0.553,0.276c-0.241,0.147-0.802-0.085-1.148-0.096c-1.134-0.037-2.27-0.121-3.401-0.074
		c-0.524,0.021-1.215,0.432-1.61,0.482s-1.02-0.283-1.153-0.225c-0.132,0.059-0.209,0.455-0.153,0.591
		c0.227,0.551,0.51,1.069,0.65,1.349c0.14,0.278-0.078,2.108-0.149,3.033c-0.034,0.44-0.097,0.896-0.251,1.306
		c-0.373,0.993-0.488,2.003-0.489,3.056c0,0.467,0.201,0.938,0.165,1.417c-0.036,0.479-0.376,1.029-0.451,1.557
		c-0.174,1.22-0.179,2.495-0.292,3.762c-0.118,1.317,0.034,2.631-0.331,3.972c-0.491,1.801-0.75,3.674-0.488,5.604
		c0.261,1.928,0.214,3.895,0.39,5.836c0.148,1.634,0.098,3.253-0.031,4.881c-0.03,0.382,0.033,0.826,0.209,1.16
		c0.83,1.487,0.293,2.404,0.295,2.653c0.001,0.248,0.244,0.721,0.313,1.048c0.289,1.361,0.516,2.734,0.792,4.099
		c0.108,0.533,0.269,1.058,0.436,1.577c0.761,2.362,1.802,6.376,1.542,7.231c-0.26,0.855-1.766,1.312-2.287,1.468
		c-0.52,0.157-3.302-1.587-4.783-2.688c-0.482-0.358-1.577-0.454-1.81-0.566c-0.232-0.112-0.414-0.551-0.614-0.831
		c-0.695-0.977-1.372-1.966-2.083-2.93c-1.136-1.542-1.959-3.19-2.251-5.127c-0.243-1.614-0.372-3.241-0.504-4.855
		c-0.123-1.516,0.157-3.063,0.262-4.597c0.013-0.195,0.071-0.395,0.059-0.589c-0.15-2.347-0.188-4.709-0.503-7.034
		c-0.245-1.813,0.142-3.563,0.138-5.345c-0.003-0.877,0.15-1.754,0.246-2.63c0.102-0.93,0.178-1.867,0.341-2.788
		c0.275-1.562,0.701-3.101,0.89-4.672c0.142-1.172,0.016-2.368,0.334-3.539c0.372-1.37,0.347-2.812,0.765-4.193
		c0.269-0.893,0.648-1.988-0.078-2.941c-0.154-0.202-0.955,0.07-1.44,0.144c-0.849,0.13-1.653,0.111-2.515-0.123
		c-0.875-0.238-1.84-0.165-2.767-0.19c-0.44-0.012-0.895,0.153-1.32,0.089c-1.314-0.2-2.611-0.607-3.928-0.679
		c-1.299-0.069-2.524-0.439-3.781-0.597c-1.176-0.146-2.061-0.639-2.909-1.327c-0.691-0.562-1.369-1.146-2.002-1.771
		c-1.809-1.788-2.998-3.898-3.362-6.458C146.321,83.587,146.001,82.945,145.861,82.523"/>
	<path clip-path="url(#SVGID_2_)" fill="#FFFFFF" d="M366.617,87.659c2.231,1.016,2.468,6.482,2.68,6.768
		c0.213,0.285,1.363,1.33,2.382,1.66c0.472,0.151,0.939,0.69,1.161,1.17c0.915,1.972,1.305,4.068,1.306,6.251
		c0,1.371,0.105,2.743,0.143,3.592c-0.145,2.11-0.277,3.709-0.354,5.311c-0.059,1.256-0.052,2.516-0.068,3.773
		c-0.021,1.573-0.026,3.146-0.06,4.719c-0.027,1.356-0.143,2.713-0.116,4.067c0.039,1.974-0.315,3.924-0.167,5.913
		c0.142,1.87,0.021,3.768-0.084,5.646c-0.098,1.753-0.327,3.499-0.492,5.248c-0.021,0.202-0.019,0.41,0.004,0.612
		c0.156,1.475,0.548,2.969,0.42,4.418c-0.132,1.506,0.531,2.904,0.284,4.382c-0.029,0.174,0.099,0.37,0.137,0.561
		c0.111,0.564,0.213,1.132,0.3,1.705c0.138,0.683,0.488,1.406,0.363,2.037c-0.171,0.864,0.695,2.068-0.24,2.487
		c-0.934,0.418-1.807,0.662-2.119,0.662c-0.312,0-0.818-0.073-0.787-0.322c0.032-0.249,0.65-0.721,0.531-0.901
		c-0.118-0.181-1.57,0.919-2.111,0.732c-0.54-0.187-0.559-2.835-1.803-4.431c-0.768-1.444-3.33-2.371-3.627-2.736
		c-0.461-0.566,0.545-0.688,0.614-1.079c0.067-0.391-0.402-3.904,0.05-5.121c0.101-0.271-0.407-0.673-0.363-0.886
		c0.324-1.564-0.416-2.954,0.097-4.557c0.361-1.135,0.341-2.396,0.439-3.605c0.028-0.339-0.062-0.997-0.216-1.139
		c-0.152-0.142-0.84,0.047-1.236,0.061c-0.704,0.024-1.424,0.144-2.11,0.043c-2.621-0.383-5.233-0.831-7.847-1.271
		c-0.344-0.058-0.668-0.223-1.009-0.312c-0.806-0.214-1.91,0.095-2.13,0.812c-0.386,1.26-1.458,1.956-2.152,2.952
		c-0.444,0.64-0.739,1.317-1.096,1.989c-1.193,2.261-2.548,4.437-3.774,6.681c-0.855,1.566-1.838,3.082-2.321,4.828
		c-0.231,0.834-0.144,2.719-0.646,2.66c-0.502-0.059-3.695-0.113-4.263-0.619c-0.567-0.505-1.548-2.551-1.61-2.99
		c-0.06-0.44-0.287-3.242-0.516-3.706c-0.229-0.463-2.614-1.219-2.503-1.751c0.108-0.532,0.52-0.532,0.743-0.802
		c0.326-0.396,0.722-0.767,0.927-1.222c0.478-1.07,0.846-2.19,1.287-3.279c0.534-1.322,1.002-2.655,2.136-3.673
		c0.533-0.479,0.767-1.719,1.109-1.949c0.096-0.066,0.246-0.626,0.535-0.543c0.338,0.096,0.006,0.413,0.116,0.519
		c0.104,0.097,0.273,0.059,0.401,0.024c0.332-0.089,2.42-2.748,3.436-4.304c2.244-3.435,4.018-7.117,5.861-10.766
		c1.495-2.956,3.109-5.854,4.533-8.843c1.055-2.216,1.883-4.54,2.831-6.809c0.649-1.558,1.354-3.094,1.992-4.656
		c0.675-1.656,1.265-3.347,1.96-4.994c0.473-1.125,1.594-3.153,1.632-3.364c0.037-0.211-0.417-0.587-0.279-0.836
		c0.139-0.249,1.297-1.364,1.674-0.958c0.377,0.407,1.014,0.652,1.862,0.156C364.97,87.376,365.319,87.069,366.617,87.659
		 M365.362,127.914c0.141-0.209,0.009-22.827,0-23.016c-0.01-0.188-0.111-0.254-0.309-0.07s-1.136,2.093-1.66,3.16
		c-0.541,1.1-1.062,2.212-1.529,3.345c-0.47,1.134-0.812,2.321-1.301,3.446c-0.458,1.052-1.058,2.042-1.555,3.078
		c-0.527,1.101-0.981,2.236-1.516,3.333c-0.538,1.104-1.168,2.162-1.695,3.271c-0.506,1.066-1.411,3.025-1.243,3.254
		c0.168,0.226,2.824,0.881,4.254,1.125c1.948,0.334,3.886,0.394,5.724-0.468C364.811,128.241,365.22,128.122,365.362,127.914
		 M372.669,153.659c1.293,0.478,0.858-1.259,0.263-1.378c-0.245-0.049-0.307,0.284-0.342,0.465
		C372.555,152.927,371.736,153.313,372.669,153.659 M371.226,150.151c0.13,0.066,0.951-0.061,1.033-0.213
		c0.083-0.15,0.086-0.543-0.048-0.662c-0.133-0.118-1.116-0.179-1.18,0.237C370.984,149.816,371.095,150.084,371.226,150.151
		 M370.535,144.278c0.034,0.09,0.205,0.251,0.452,0.266c0.247,0.016,0.561-0.236,0.594-0.46c0.031-0.225-0.774-0.773-0.949-0.576
		C370.458,143.705,370.501,144.188,370.535,144.278 M371.943,155.82c0.393,0.17,1.16-0.124,0.85-0.576
		c-0.219-0.32-0.306,0.068-0.637,0.098C371.854,155.368,371.492,155.625,371.943,155.82 M362.318,91.226
		c0.043-0.276,0.031-0.685-0.143-0.815c-0.175-0.13-0.529-0.276-0.579,0.048C361.547,90.782,362.275,91.502,362.318,91.226
		 M348.646,130.944c0,0.142-0.002,0.239,0.16,0.172c0.161-0.067,0.137-0.296,0.019-0.359
		C348.551,130.605,348.646,130.778,348.646,130.944"/>
	<path clip-path="url(#SVGID_2_)" fill="#FFFFFF" d="M402.697,137.216c-0.025,0.218,2.099,2.201,2.362,2.504
		c0.265,0.302,0.586,0.979,0.711,1.266c0.629,1.434,1.584,2.679,2.185,4.149c0.731,1.798,1.848,3.436,2.738,5.172
		c1.065,2.076,2.027,4.204,3.117,6.267c0.396,0.746,1.424,1.713,1.716,1.927c0.529,0.387-0.063,0.536-0.085,1.077
		c-0.014,0.35,0.293,0.863,0.015,1.118c-0.714,0.648-1.405-0.185-2.034-0.422c-3.13-1.178-4.796-3.748-6.135-6.637
		c-0.613-1.323-1.427-2.554-2.151-3.826c-0.133-0.234-0.289-0.457-0.412-0.696c-1.326-2.6-2.614-5.219-3.991-7.791
		c-0.462-0.863-1.038-1.729-1.761-2.37c-0.801-0.711-2.364-1.589-3.104-1.766c-0.739-0.177-1.172-1.12-1.701-1.265
		c-0.531-0.146-0.961,0.968-0.926,1.601c0.185,3.14-0.636,6.172-0.86,9.263c-0.15,2.048,0.227,6.368-0.181,6.625
		s-0.383,2.779-0.738,2.856c-0.357,0.078-1.173,0.428-1.817,0.189c-0.643-0.237-2.812-3.417-4.12-3.653
		c-0.822-0.147-0.824-0.906-0.814-1.03c0.008-0.123,0.336-4.966,0.51-7.448c0.012-0.162,0.034-0.33,0.087-0.481
		c0.551-1.555,0.718-3.154,0.785-4.801c0.079-2.005,0.369-4,0.578-5.999c0.169-1.617,0.567-3.246,0.473-4.847
		c-0.104-1.777,0.245-3.458,0.453-5.177c0.272-2.254,0.62-4.501,0.831-6.761c0.134-1.445,0.559-2.874,0.204-4.368
		c-0.129-0.542,0.066-1.186,0.2-1.763c0.606-2.64,0.754-5.361,1.298-7.997c0.559-2.711,0.827-5.479,1.571-8.147
		c0.201-0.723,0.651-1.87,0.983-2.109c0.332-0.24,2.294-0.444,2.783-0.444c0.487,0,1.341,1.155,1.733,1.243
		c0.394,0.089,3.176-0.43,4.852-0.4c1.423,0.024,2.919-0.197,4.288,0.562c0.456,0.253,1.073,0.197,1.573,0.394
		c1.367,0.535,2.633,1.166,3.634,2.369c1.26,1.517,2.609,2.934,3.256,4.855c0.119,0.349,0.411,0.643,0.637,0.951
		c0.455,0.619,0.966,1.208,0.942,2.047c-0.002,0.054,0,0.127,0.032,0.159c1.196,1.199,1.11,2.921,1.728,4.358
		c0.446,1.038,0.521,2.238,0.736,3.37c0.226,1.188,0.488,2.376,0.617,3.576c0.133,1.238,0.129,2.493,0.17,3.741
		c0.021,0.708,0.156,1.448-0.001,2.116c-0.57,2.41-1.102,4.795-2.58,6.936c-1.333,1.929-2.993,3.34-4.853,4.677
		c-1.638,1.18-3.482,1.951-5.194,2.979c-0.861,0.516-1.941,0.66-2.904,1.017C403.595,136.58,402.724,136.999,402.697,137.216
		 M394.696,130.802c0.273,0.388,1.077-0.085,1.755-0.114c1.932-0.081,5.076-1.549,7.218-3.22c0.56-0.437,1.128-0.884,1.745-1.229
		c2.502-1.404,4.363-3.366,5.945-5.787c1.889-2.892,1.935-5.94,1.467-9.081c-0.319-2.143-0.637-4.292-1.382-6.385
		c-0.564-1.588-1.052-3.181-1.967-4.603c-0.378-0.589-1.009-1.055-1.254-1.683c-0.831-2.133-2.602-2.394-4.534-2.343
		c-0.842,0.022-1.728-0.35-2.105-0.463c-0.307-0.092-2.797,0.113-3.279,0.35c-0.481,0.236-0.595,0.637-0.587,0.969
		c0.427,1.875-0.392,3.749-0.489,5.631c-0.047,0.917-0.184,1.832-0.188,2.748c-0.01,1.672,0.261,3.375,0.031,5.011
		c-0.308,2.188-0.218,4.399-0.729,6.587c-0.541,2.306-0.557,4.729-0.929,7.079c-0.211,1.33-0.275,2.685-0.857,3.979
		C394.189,129.063,394.19,130.087,394.696,130.802"/>
	<path clip-path="url(#SVGID_2_)" fill="#FFFFFF" d="M328.576,94.735c0.292-2.266,0.922-6.801,1.318-6.801
		c0.399,0-0.257,2.365-0.283,3.304c-0.053,1.981-0.4,2.853-0.689,4.814c-0.027,0.178-0.095,1.106-0.252,1.074
		C328.386,97.069,328.476,95.517,328.576,94.735"/>
	<path clip-path="url(#SVGID_2_)" fill="#FFFFFF" d="M331.215,82.672c0.019,0.088,0.104,1.093-0.213,1.589
		c-0.717,1.131-0.789,3.008-0.838,3.068c-0.208,0.258-0.49-0.232-0.44-0.576c0.048-0.344,0.589-2.797,0.925-3.054
		c0.187-0.143-0.079-0.947,0.071-1.218C330.805,82.329,331.091,82.052,331.215,82.672"/>
	<path clip-path="url(#SVGID_2_)" fill="#FFFFFF" d="M340.262,130.459c-0.038,0.033-0.169,0.431-0.203,0.487
		c-0.164,0.267-0.317,0.478-0.583,0.36c-0.22-0.096-0.093-0.438,0.169-0.719c0.04-0.043,0.306-0.246,0.321-0.297
		c0.118-0.381,0.402-0.921,0.653-0.813C340.987,129.632,340.507,130.256,340.262,130.459"/>
	<path clip-path="url(#SVGID_2_)" fill="#FFFFFF" d="M353.998,102.748c0.476-0.082,0.98-1.572,0.689-1.651
		c-1.009-0.274-0.309,0.709-0.699,1.063C353.951,102.193,353.325,102.863,353.998,102.748"/>
	<path clip-path="url(#SVGID_2_)" fill="#FFFFFF" d="M329.904,83.363c0.07,0.207-0.071,0.678-0.33,0.73
		c-0.077,0.016-0.179,0.035-0.356-0.198c-0.179-0.234,0.21-0.53,0.357-0.65C329.721,83.125,329.834,83.155,329.904,83.363"/>
	<path clip-path="url(#SVGID_2_)" fill="#FFFFFF" d="M342.997,125.688c0.038-0.241,1.358-1.724,0.955-1.901
		c-0.295-0.13-1.415,1.881-1.541,2.18c-0.158,0.378-1.701,2.512-1.499,2.634C341.268,128.812,342.901,126.263,342.997,125.688"/>
	<path clip-path="url(#SVGID_2_)" fill="#FFFFFF" d="M321.689,117.87c0.062-0.425,0.354-0.484,0.331-0.212
		c-0.021,0.261-0.225,0.861-0.318,0.861C321.513,118.519,321.629,118.295,321.689,117.87"/>
	<path clip-path="url(#SVGID_2_)" fill="#FFFFFF" d="M37.114,78.661c0,0.297-0.218,0.538-0.486,0.538
		c-0.268,0-0.486-0.241-0.486-0.538c0-0.057,0-0.215,0.291-0.197c0.24,0.015-0.094-0.5,0.122-0.5c0.122,0,0.329,0.041,0.413,0.123
		C37.072,78.185,37.114,78.499,37.114,78.661"/>
	<path clip-path="url(#SVGID_2_)" fill="#FFFFFF" d="M265.762,91.516c0.054-0.219,0.829-1.004,0.844-1.208
		c0.014-0.203-0.303-0.512,0-0.632c0.302-0.119,1.503-0.105,1.643-0.042c0.142,0.063,0.155,0.183,0.232,0.352
		c0.077,0.168,0.33-0.028,0.499,0.014c0.168,0.042,0.434,0.491,0.175,0.674c-0.26,0.183-0.969,0.029-1.201,0.043
		c-0.23,0.014-1.341,0.505-1.545,0.765S265.602,92.198,265.762,91.516"/>
	<path clip-path="url(#SVGID_2_)" fill="#FFFFFF" d="M51.032,132.283c-0.124-0.703-0.386-1.385-0.479-2.09
		c-0.166-1.266,0.073-2.573-0.447-3.81c-0.12-0.285-0.014-0.662-0.029-0.996c-0.05-1.041,0.163-2.2-0.228-3.096
		c-0.553-1.265-0.858-3.443-0.964-3.771s-0.971-0.912-0.986-1.152c-0.054-0.89-0.354-1.395-0.763-2.227
		c-0.19-0.386-0.259-0.82-0.362-1.237c-0.251-1.015-0.487-2.033-0.832-3.479c0.047-1.125-0.051-2.698-0.535-4.233
		c-0.412-1.309-0.574-2.631-0.356-4c0.202-1.275,0.658-2.563,0.586-3.828c-0.068-1.19,0.395-2.327,0.195-3.54
		c-0.014-0.088,0.001-0.487-0.02-0.576c-0.14-0.578-0.689-1.457-0.652-0.964c0.023,0.309,0.14,1.024,0.007,1.202
		c-0.155,0.208-0.737-0.384-0.815-0.518c-0.104-0.18,0.301-0.387,0.477-0.605c0.139-0.174,0.454-0.379,0.459-0.487
		c0.028-0.533-0.429-0.573-0.467-0.576c-0.414-0.027-0.973-0.017-1.191-0.452c-0.062-0.124-0.239-0.34-0.244-0.363
		c-0.053-0.274-0.033-0.429-0.035-0.604c-0.003-0.287,0.02-0.392,0.005-0.677c-0.025-0.476-0.087-1.002-0.264-1.421
		c-0.154-0.364-0.189-0.448-0.206-0.715c-0.018-0.287,0.209-0.621,0.228-0.902c0.034-0.496-0.216-1.105-0.1-1.548
		c0.089-0.34,0.509-0.585,0.535-0.93c0.046-0.619-0.313-1.325-0.34-1.903c-0.007-0.152,0.237-0.536,0.234-0.685
		c-0.007-0.337,0.018-0.892,0.033-1.225c0.011-0.24-0.579-0.468-0.629-0.485c-0.356-0.129-0.538-0.2-0.501-0.495
		c0.017-0.134,0.311-0.226,0.311-0.226c0.859,0.034,0.686-0.164,1.131-0.47c0.071-0.049-0.046-0.482-0.111-0.557
		c-1.12-1.29-1.671-1.582-3.239-1.704c-0.9-0.07-1.943-0.167-2.859,0.5c-0.057,0.042-0.152,0.228-0.153,0.261
		c-0.012,0.494-0.105,1.056,0.024,1.56c0.37,1.453-0.548,3.145,0.796,4.406c0.061,0.058,0.045,0.158,0.038,0.218
		c-0.008,0.06-0.099,0.37-0.152,0.569c-0.027,0.099-0.069,0.265-0.055,0.362c0.013,0.098,0.141,0.214,0.214,0.356
		c0.804,1.564,0.966,3.227,0.854,4.925c-0.037,0.566-0.019,1.062,0.341,1.498c0.51,0.616,0.575,1.275,0.389,1.9
		c-0.031,0.105-0.079,0.168-0.082,0.298c-0.002,0.129,0.037,0.218,0.074,0.315c0.16,0.42,0.332,0.787,0.345,1.159
		c0.034,0.951-0.058,1.906-0.094,2.737c-0.127,0.956-0.163,1.814-0.365,2.634c-0.586,2.383-1.041,4.773-0.876,7.246
		c0.019,0.273-0.161,0.557-0.16,0.834c0.009,1.677-0.791,3.293-0.391,4.99c0.233,0.993-0.021,1.906-0.331,2.824
		c-0.091,0.268-0.242,0.453-0.215,0.705c0.026,0.252,0.902,1.465,0.935,1.598c0.034,0.132-0.791,0.664-0.811,0.853
		c-0.01,0.091-0.067,1.063,0.173,1.292c0.68,0.653,0.697,1.481,0.745,2.289c0.088,1.487,0.347,2.943,0.255,4.474
		c-0.15,2.486,0.109,4.997,0.176,7.498c0.028,1.015,0.035,2.957,0.005,3.047c-0.029,0.086-0.257,0.137-0.334,0.119
		c-0.103-0.023-0.428-0.488-0.574-0.78c-0.623-1.239-1.249-2.479-1.818-3.743c-0.706-1.571-1.376-3.161-2.027-4.757
		c-0.487-1.192-0.882-2.422-1.381-3.607c-0.908-2.162-2.263-4.097-2.994-6.374c-0.392-1.224-1.256-2.339-1.828-3.56
		c-0.396-0.844-0.799-1.49-0.915-2.208c-0.018-0.107,0.066-0.841-0.258-1.092c-0.385-0.298-0.7-0.812-0.955-1.35
		c-0.263-0.557-0.319-1.233-0.656-1.727c-1.126-1.642-1.739-3.526-2.607-5.287c-0.975-1.977-1.761-4.044-2.363-6.173
		c-0.507-1.79-0.939-3.607-1.565-5.354c-0.347-0.968-0.416-1.934-0.557-2.917c-0.115-0.803-0.493-1.567-0.609-2.37
		c-0.24-1.678-1.471-2.28-2.593-3.154c-0.104-0.081-0.179-0.309-0.761-0.321c-0.583-0.013-0.934-0.679-1.488-0.916
		c-0.197-0.084-0.453-0.084-0.583-0.1c-1.803-0.228-3.563-0.92-5.327-0.513c-0.145,0.033-0.479,0.123-0.887,0.038
		c-0.468-0.097-0.902-0.199-1.328-0.176c-0.717,0.04-1.225-0.072-1.833-0.409c-0.293-0.163-0.244-0.539-1.009-0.44
		c-0.766,0.098-1.034,0.824-0.906,1.773c0.176,1.297-0.314,2.701,0.6,3.887c0.038,0.049-0.052,0.18-0.047,0.271
		c0.12,2.175,0.229,4.351,0.372,6.523c0.156,2.361,0.344,4.721,0.517,7.081c0.008,0.097,0.037,0.208,0.001,0.287
		c-0.399,0.864-0.033,1.716,0.015,2.575c0.048,0.856,0.004,1.719-0.001,2.578c-0.006,0.952,0.31,1.904,0.25,2.816
		c-0.052,0.777-0.097,1.524,0.02,2.291c0.036,0.237,0.019,0.48,0.017,0.722c-0.006,0.667-0.091,1.344-0.008,1.999
		c0.132,1.037,0.196,2.083,0.288,3.118c0.122,1.366-0.134,2.761-0.097,4.14c0.053,1.969-0.199,3.894-0.533,5.642
		c0.17,0.606,0.442,1.075,0.4,1.512c-0.184,1.9-0.753,3.748-0.606,5.702c0.081,1.079-0.204,2.182-0.169,3.27
		c0.032,0.968-0.06,1.895-0.217,2.847c-0.194,1.174-0.173,2.383-0.281,3.573c-0.133,1.459,0.007,3.004-1.2,4.159
		c-0.532,0.512-0.476,1.122-0.296,1.687c0.49,0.329,0.924,0.62,1.286,0.863c0.322,1.489,0.652,2.844,0.897,4.214
		c0.155,0.858,0.369,1.655,1.055,2.176c1.278,0.725,2.591,0.612,3.886,0.237c0.699-0.921,0.973-1.899,0.909-3.017
		c-0.049-0.853,0.045-1.715,0.092-2.571c0.013-0.234,0.154-0.48,0.112-0.696c-0.289-1.484-0.001-2.95,0.119-4.419
		c0.202-2.471,0.388-4.945,0.671-7.407c0.224-1.946,0.696-3.871,0.257-5.845c-0.03-0.134,0.023-0.285,0.036-0.429
		c0.119-1.33,0.38-2.672,0.058-3.994c-0.27-1.11,0.216-2.292-0.376-3.362c-0.058-0.104,0.027-0.282,0.027-0.425
		c0-0.618,0.005-1.235-0.016-1.852c-0.012-0.368-0.083-0.734-0.102-1.104c-0.076-1.487-0.119-2.978-0.219-4.462
		c-0.071-1.067-0.415-2.158-0.267-3.185c0.153-1.055-0.096-2.007-0.169-3.007c-0.081-1.086-0.345-2.163-0.029-3.275
		c0.174-0.615,0.272-1.157,0.207-2.085c-0.002-0.029,0.036-0.123,0.053-0.14c0.324-0.341,0.451-0.525,0.719-0.837
		c0.018-0.021,0.08-0.018,0.092,0.005c0.865,1.625,1.698,3.155,2.496,4.704c0.35,0.678,0.641,1.387,0.932,2.092
		c0.473,1.148,0.703,2.367,1.277,3.503c0.923,1.826,1.372,3.9,2.948,5.371c0.1,0.094,0.141,0.249,0.185,0.33
		c-0.023,0.355-0.044,0.683-0.058,0.896c-0.004,0.074-0.025,0.118-0.011,0.178c0.015,0.059,0.052,0.09,0.077,0.134
		c0.454,0.776,0.934,1.333,1.059,1.96c0.379,1.902,1.804,3.377,2.064,5.309c0.012,0.091,0.076,0.186,0.142,0.253
		c0.645,0.665,0.857,1.483,0.9,2.314c0.006,0.103-0.011,0.238,0.009,0.31s0.231,0.284,0.323,0.404
		c0.541,0.701,0.607,0.986,0.801,2.178c0.053,0.326,0.151,0.687,0.345,0.942c1.2,1.576,1.416,3.652,2.706,5.195
		c0.573,0.686,1.151,1.491,1.358,2.333c0.34,1.38,1.309,2.462,1.592,3.848c0.083,0.404,0.377,0.767,0.575,1.147
		c0.636,1.229,1.323,2.435,1.892,3.694c0.417,0.923,0.806,1.839,1.459,2.633c0.23,0.28,0.354,0.674,0.447,1.036
		c0.278,1.083,0.589,1.987,0.371,3.141c-0.014,0.073-0.056,0.579,0.009,0.584c0.582,0.055,0.979-0.061,1.487,0.015
		c0.854,0.125,1.707,0.418,2.555,0.4c1.526-0.031,2.775,0.669,4.035,1.321c0.896,0.464,1.671,1.156,2.548,1.664
		c0.389,0.226,1.11,0.459,1.382,0.562c0.038,0.014,0.615,0.468,0.936,0.515c0.32,0.047,0.743-0.339,1.258-0.479
		c0.473-0.129,0.953-0.164,1.063-0.223c0.23-0.123,1.453-1.898,1.238-2.168c-0.214-0.269-0.632-1.544-0.44-2.168
		c0.26-0.844,0.267-1.648,0.173-2.414c-0.021-0.168-0.05-0.402-0.034-0.517c0.016-0.115,0.056-0.25,0.105-0.376
		c0.13-0.331,0.252-0.626,0.296-0.932c0.238-1.659,0.458-3.321,0.628-4.987c0.131-1.287,0.075-2.601,0.289-3.871
		c0.198-1.177-0.1-2.302-0.071-3.451c0.03-1.2,0.185-2.409,0.093-3.6c-0.129-1.648-0.058-3.256,0.269-4.876
		C51.234,133.359,51.124,132.8,51.032,132.283 M40.947,126.521c-0.271-0.002-0.204-0.235-0.018-0.347
		c0.187-0.11,0.246,0.105,0.262,0.193C41.207,126.456,41.106,126.522,40.947,126.521 M46.384,163.379
		c-0.338,0.067-0.643,0.084-0.76,0.059c-0.117-0.025-0.221-0.029-0.163-0.171c0.05-0.121,0.008-0.359-0.142-0.409
		c-0.15-0.051-0.484-0.226-0.564-0.463c-0.079-0.239-0.263-0.568,0.025-0.79c0.288-0.222,0.589-0.117,0.785,0.062
		c0.197,0.18,0.255,0.376,0.13,0.48s-0.238,0.414-0.084,0.435c0.155,0.021,0.163-0.097,0.255-0.134
		c0.092-0.038,0.321-0.025,0.468,0.188C46.48,162.849,46.722,163.313,46.384,163.379 M47.017,160.541
		c-0.494,0.189-0.94-0.013-0.693-0.585S47.511,160.35,47.017,160.541"/>
	<path clip-path="url(#SVGID_2_)" fill="#FFFFFF" d="M193.762,143.147c-0.09,0.083-0.034,0.686,0.352,0.512
		C194.499,143.486,194.194,142.75,193.762,143.147"/>
	<path clip-path="url(#SVGID_2_)" fill="#FFFFFF" d="M212.393,122.201c-0.117,0.183,0.211,0.599,0.526,0.426s0.43-0.149,0.245-0.397
		C212.98,121.982,212.566,121.93,212.393,122.201"/>
	<path clip-path="url(#SVGID_2_)" fill="#FFFFFF" d="M229.536,157.946c-0.032,0.205,0.104,0.467,0.369,0.369
		c0.264-0.098,0.443-0.461,0.264-0.604C229.991,157.566,229.571,157.727,229.536,157.946"/>
	<path clip-path="url(#SVGID_2_)" fill="#FFFFFF" d="M259.331,108.233c-0.058,0.122,0.438,0.413,0.531,0.188
		C259.957,108.198,259.603,107.654,259.331,108.233"/>
	<path clip-path="url(#SVGID_2_)" fill="#FFFFFF" d="M261.812,114.493c0.019,0.125,0.247,0.247,0.354,0.13
		c0.106-0.118,0.224-0.426,0.083-0.508C262.107,114.032,261.776,114.256,261.812,114.493"/>
	<path clip-path="url(#SVGID_2_)" fill="#FFFFFF" d="M274.224,113.536c-0.023,0.132,0.106,0.508,0.284,0.413s0.295-0.295,0.26-0.496
		C274.732,113.252,274.272,113.288,274.224,113.536"/>
	<path clip-path="url(#SVGID_2_)" fill="#FFFFFF" d="M312.238,143.262c-0.009-0.022-0.019-0.048-0.026-0.071
		c-0.005,0.012-0.008,0.02-0.014,0.032C312.213,143.236,312.225,143.25,312.238,143.262"/>
	<path clip-path="url(#SVGID_2_)" fill="#FFFFFF" d="M339.131,84.577c-0.191-0.053-0.665,0.271-0.936,0.177
		c-0.178-0.062-0.225-0.399-0.372-0.753c-0.148-0.354-1.701-1.061-2.449-1.587c-1.421-1-3.202-0.884-3.957-0.348
		c-0.222,0.157-0.055,0.496,0.033,0.548c0.237,0.14,0.333,0.397,0.274,0.713c-0.144,0.796-0.292,1.609-0.586,2.357
		c-0.509,1.29-0.646,2.653-0.92,3.988c-0.138,0.679-0.126,1.389-0.21,2.434c0.007,0.142,0.126,0.662,0.037,1.146
		c-0.329,1.784-0.719,3.559-1.109,5.332c-0.044,0.2-0.442,2.952-0.739,2.918c-0.335-0.038,0.82-4.203,0.423-4.304
		c-0.24-0.051-0.288,0.35-0.331,0.546c-0.322,1.489-0.598,2.987-0.913,4.478c-0.42,1.989-0.839,3.979-1.304,5.959
		c-0.266,1.131-0.554,2.266-0.952,3.354c-0.402,1.096-1.032,2.108-1.425,3.206c-0.879,2.452-1.669,4.936-2.508,7.403
		c-0.098,0.288-0.336,0.77-0.401,0.826c-0.067,0.056-0.17,0.015-0.206-0.089c-0.037-0.104,1.085-3.788,1.04-4.077
		c-0.046-0.29-0.178-0.023-0.296,0.248s-0.444,1.371-0.603,1.76c-0.157,0.388-0.747,2.512-1.414,4.538
		c-0.158,0.483-0.317,0.987-0.59,1.409c-0.534,0.83-0.931,1.688-1.051,2.679c-0.041,0.342-0.16,0.779-0.305,0.882
		c-0.146,0.101-0.511-0.222-0.673-0.026c-0.163,0.195-0.146,0.461-0.183,0.691c-0.185,1.16-0.343,2.646-0.714,2.691
		c-0.187,0.022-0.596-0.379-0.716-0.686c-0.129-0.33-0.1-0.726-0.245-1.043c-0.948-2.049-1.095-4.287-1.338-6.456
		c-0.206-1.847-0.158-3.737-0.393-5.599c-0.145-1.156-0.652-2.281-0.3-3.487c0.039-0.134,0.006-0.338-0.075-0.449
		c-0.996-1.361-1.1-4.333-1.543-4.593c-0.443-0.261-1-0.091-1.257-0.21c-1.839-0.858-3.511-1.028-5.509-1.233
		c-1.732-0.179-3.245,0.301-4.61,1.26c-1.325,0.932-2.503,2.059-3.598,3.253c-0.336,0.365-0.594,0.843-0.763,1.314
		c-0.695,1.947-1.656,3.736-2.845,5.431c-1.031,1.471-1.932,3.033-2.885,4.559c-0.596,0.955-1.041,2.055-1.807,2.842
		c-1.393,1.428-2.231,3.134-3.052,4.89c-0.666,1.423-1.777,4.141-2.202,4.141c-0.252,0-0.984-1.399-1.316-2.171
		c-0.501-1.166-1.381-2.179-1.516-3.487c-0.11-1.064-0.66-1.911-1.155-2.807c-0.66-1.195-1.362-2.372-1.664-3.738
		c-0.319-1.446-0.695-2.881-1.084-4.311c-0.09-0.331-0.332-0.62-0.502-0.93c-0.49-0.896-1.195-1.739-1.424-2.696
		c-0.493-2.05-1.802-3.758-2.209-5.839c-0.283-1.438-0.829-2.822-1.239-4.235c-0.069-0.239-0.134-0.532-0.059-0.75
		c0.184-0.531,0.154-0.97-0.005-1.354c-0.183-0.436-0.603-1.387-1.15-1.285c-0.546,0.102-2.9-0.093-4.452-0.153
		c-1.653-0.064-4.593,0.236-4.942,0.622c-0.351,0.386-0.396,0.465-0.284,0.791c0.11,0.326,0.97,1.988,1.399,2.967
		c0.264,0.599,0.546,1.215,0.652,1.852c0.368,2.187,1.05,4.257,1.991,6.26c0.247,0.525,0.221,1.631,0.455,1.945
		c0.232,0.314,0.521,0.316,0.707,0.654c0.758,1.377,1.413,2.809,2.172,4.185c0.687,1.246,1.105,2.633,2.07,3.74
		c0.39,0.446,0.628,1.053,0.838,1.622c0.561,1.526,1.078,3.068,1.903,4.482c0.127,0.218,0.269,0.436,0.352,0.671
		c0.682,1.939,1.009,3.959,1.394,5.971c0.308,1.598,0.387,3.24,1.107,4.776c0.37,0.79,0.598,1.79,0.204,2.712
		c-0.244,0.572-0.208,1.043,0.004,1.438c0.129,0.241,0.483,0.637,0.79,0.687c0.306,0.05,0.787,0.146,1.251,0.297
		c1.338,0.434,2.414,1.211,3.053,2.559c0.819,1.73,1.958,3.112,3.489,4.187c0.331,0.231,0.7,0.624,1.049,0.653
		c0.347,0.029,0.862-0.095,1.304-0.083c1.029,0.026,2.047,0.128,2.716-0.667c1.537-2.948,4.213-7.92,4.306-8.12
		c0.18-0.391-0.037-0.701-0.008-0.853c0.283-1.388,0.707-2.594,1.181-3.928c0.39-1.103,0.927-2.154,1.385-3.233
		c0.117-0.273,0.261-0.57,0.252-0.853c-0.034-1.018,0.361-1.962,0.912-2.681c0.561-0.731,0.772-1.617,0.734-1.961
		c-0.039-0.345,0.233-0.76,0.413-1.03c2.009-3.034,3.75-6.166,5.243-9.566c0.085-0.193,0.17-0.577,0.253-0.584
		c0.157-0.013,0.663,0.85,0.77,1.224c0.398,1.419,0.799,2.844,1.068,4.29c0.34,1.828,1.003,3.526,1.883,5.134
		c0.302,0.552,0.516,1.077,0.671,1.684c0.229,0.899,0.87,1.808,1.141,1.97c0.272,0.163,0.217,0.932,0.313,1.176
		c0.389,0.992,0.899,1.94,1.256,2.943c0.578,1.633,1.214,3.745,0.974,4.312c-0.155,0.37-0.024,1.045,0.213,1.08
		c0.239,0.035,0.468,0.082,0.686,0.141c2.229,0.596,3.414,2.355,4.346,4.221c0.123,0.247,0.335,0.885,1.081,1.139
		c0.913,0.311,1.477,1.665,3.251,1.594c1.236-0.049,2.134-0.911,2.742-1.819c0.605-0.908,0.666-2.946,0.977-4.436
		c0.052-0.243,0.001-0.517-0.046-0.768c-0.239-1.275-0.001-2.538,0.219-3.772c0.319-1.795,0.793-3.565,1.239-5.336
		c0.284-1.129,0.813-2.224,0.924-3.364c0.233-2.388,1.515-4.429,2.005-6.739c0.465-2.179,1.476-4.234,2.096-6.388
		c1.037-3.595,1.965-7.222,2.912-10.842c0.215-0.819,0.318-1.667,0.473-2.502c0.075-0.495,0.356-0.966,0.4-1.457
		c0.139-1.568,0.187-3.146,0.278-4.719c0.024-0.406,0.057-0.815,0.127-1.216c0.267-1.495,0.619-2.979,0.807-4.483
		c0.19-1.541,0.239-3.091,0.552-4.629c0.225-1.115,0.63-2.146,1.001-3.197c0.306-0.863,0.648-1.707,1.643-2.083
		c0.262-0.099,0.555-0.422,0.555-0.818C339.78,85.303,339.324,84.63,339.131,84.577 M261.659,107.016
		c-0.226,0.134-0.511,0.149-0.615-0.13c-0.104-0.284,0.243-0.686,0.579-0.52C261.847,106.477,261.882,106.882,261.659,107.016
		 M262.416,110.102c-0.055-0.066-0.136-0.261-0.229-0.452c-0.091-0.192,0.127-0.247,0.248-0.111
		c0.122,0.136,0.215,0.301,0.193,0.468C262.608,110.174,262.473,110.169,262.416,110.102 M265.147,105.642
		c-0.116,0.143-0.405,0.041-0.619,0.146c-0.344,0.17-0.623,0.476-0.68,0.199c-0.047-0.236-0.145-0.948,0.289-0.99
		c0.436-0.042,0.328,0.044,0.579,0.142C264.967,105.237,265.58,105.115,265.147,105.642 M267.493,109.52
		c-0.15,0.479-0.91,0.047-1.442,0.401c-0.312,0.21-0.859-0.267-0.695-0.519c0.162-0.254,0.417-0.607,0.644-0.541
		c0.228,0.065,0.442,0.553,0.703,0.552c0.142,0,0.279-0.61,0.554-0.473C267.421,109.024,267.609,109.147,267.493,109.52
		 M269.873,108.25c-0.402-0.136-0.645-0.053-0.721,0.177c-0.081,0.243,0.194,0.309,0.165,0.608c-0.026,0.26-0.232,0.29-0.537,0.195
		c-0.145-0.045-0.299-0.205-0.124-0.42c0.175-0.214,0.28-0.019,0.248-0.301c-0.03-0.254-0.207-0.277,0.053-0.549
		c0.349-0.366,0.984-0.011,1.196,0.054C270.364,108.079,270.106,108.33,269.873,108.25 M275.77,143.515
		c-0.055-0.02-0.136-0.136-0.075-0.256c0.059-0.12,0.482-0.194,0.607-0.112c0.125,0.081,0.161,0.217,0.084,0.288
		S275.903,143.561,275.77,143.515 M280.38,148.963c-0.09,0.071-0.407,0.213-0.786,0.019c-0.386-0.199,0.03-0.338,0.265-0.338
		C280.091,148.644,280.471,148.892,280.38,148.963 M288.81,128.205c0.192-0.111,0.359,0.185,0.331,0.281
		c-0.027,0.095,0.153,0.417-0.025,0.459c-0.182,0.044-0.396-0.277-0.453-0.372C288.604,128.478,288.619,128.316,288.81,128.205
		 M289.239,131.549c-0.264,0.108-0.453,0.233-0.709,0.168c-0.256-0.064,0.302-0.166,0.273-0.273
		c-0.044-0.178,0.212-0.448,0.452-0.355C289.496,131.182,289.496,131.444,289.239,131.549 M291.642,123.995
		c0.332,0.002,0.329,0.21,0.104,0.283c-0.227,0.071-0.16,0.663-0.44,0.672C291.025,124.958,291.311,123.994,291.642,123.995
		 M292.525,132.346c-0.115,0-0.156-0.145-0.071-0.23c0.168-0.168,0.239,0.054,0.239,0.054
		C292.74,132.294,292.711,132.346,292.525,132.346 M293.233,129.857c-0.143,0.151-0.535-0.32-0.896-0.416
		c-0.664-0.177-0.126,0.956-0.832,0.903c-0.239-0.018-0.231-0.385-0.123-0.694c0.067-0.189,0.365-0.113,0.442-0.227
		c0.229-0.339,0.062-0.638,0.461-0.797c0.158-0.063,0.1-0.924,0.445-0.521c0.432,0.504-0.357,0.504-0.101,0.742
		C292.888,129.086,293.539,129.533,293.233,129.857 M293.617,127.915c-0.326,0.113-0.919-0.807-0.934-1.068
		c-0.014-0.263,0.487-0.449,0.655-0.248C293.507,126.798,293.942,127.802,293.617,127.915 M295.991,116.972
		c0.162-0.457,0.901-0.554,0.803-0.082c-0.099,0.471,0.244,0.796-0.094,1.121C296.362,118.337,295.796,117.519,295.991,116.972
		 M296.239,118.792c0.134,0.054,0.252,0.157,0.259,0.319c0.01,0.193-0.262,0.486-0.2,0.72c0.097,0.363,0.752,0.655,0.33,1.009
		c-0.626,0.526-0.921-0.324-0.672-0.359c0.349-0.05-0.212-0.521-0.13-1.039C295.898,118.986,295.952,118.676,296.239,118.792
		 M296.662,125.225c-0.298,0.118-0.333,0.098-0.604-0.062c-0.063-0.037-0.107-0.231,0.079-0.372c0.189-0.14,0.348-0.197,0.505-0.044
		C296.937,125.031,296.775,125.179,296.662,125.225 M295.539,122.508c-0.007-0.414,0.98-0.485,1.205-0.331
		C297.361,122.603,295.545,122.922,295.539,122.508 M297.175,122.762c-0.194-0.203-0.013-0.24,0.229-0.29
		c0.24-0.051,0.119,0.196,0.347,0.29c0.346,0.142,0.299,0.317-0.026,0.292C297.399,123.03,297.341,122.936,297.175,122.762
		 M297.998,130.087c-0.126,0.012-0.249-0.566,0.006-0.596c0.256-0.029,0.349,0.141,0.296,0.307S298.125,130.076,297.998,130.087
		 M298.341,121.294c-0.351,0-0.142-0.216-0.318-0.601c-0.104-0.227-0.5-0.286-0.448-0.485c0.14-0.541,0.637-0.343,0.874,0.106
		C298.774,120.935,298.448,121.294,298.341,121.294 M298.692,119.411c-0.19-0.111-0.34-0.537-0.392-0.796
		c-0.053-0.259,0.135-0.379,0.386-0.114c0.251,0.264,0.28,0.556,0.61,0.804C299.457,119.423,299.144,119.677,298.692,119.411
		 M300.609,114.586c-0.085-0.058-0.099-0.337,0.083-0.496c0.18-0.158,0.226,0.07,0.223,0.189
		C300.914,114.397,300.832,114.74,300.609,114.586 M305.084,118.342c-0.383,0.061-0.032,0.262-0.471,0.331
		c-0.44,0.069-0.166-0.378,0.094-0.438c0.128-0.029,0.034-0.305,0.354-0.531C305.405,117.462,305.153,118.332,305.084,118.342
		 M306.844,118.059c-0.118,0.177-0.242,0.148-0.378,0.153c-0.112,0.004-0.215-0.077-0.234-0.295c-0.021-0.212,0.201-0.332,0.4-0.307
		C306.726,117.622,306.934,117.925,306.844,118.059 M307.459,132.996c-0.152-0.003-0.209-0.297-0.166-0.468
		c0.083-0.332,0.471-0.042,0.461,0.058C307.744,132.686,307.612,132.999,307.459,132.996 M307.236,118.004
		c-0.294-0.386,0.187-0.643,0.399-0.335c0.319,0.46,0.535,0.03,0.508,0.307C308.089,118.519,307.53,118.389,307.236,118.004
		 M309.738,136.4c-0.188-0.001-0.233-0.128-0.236-0.271c-0.003-0.143,0.094-0.318,0.201-0.33c0.212-0.023,0.259,0.094,0.259,0.283
		C309.962,136.24,309.925,136.403,309.738,136.4 M311.208,117.421c-0.391-0.009-0.32,0.546-0.703,0.52
		c-0.381-0.026-0.694-0.527-0.46-0.756c0.235-0.229,0.473-0.071,0.579,0.059c0.062,0.077,0.358-0.17,0.472-0.142
		C311.43,117.184,311.499,117.428,311.208,117.421 M312.039,141.921c0.584-0.053,0.819,1.161,0.273,1.161
		c-0.188,0,0.103-0.562-0.158-0.576C311.826,142.489,311.457,141.974,312.039,141.921 M314.061,132.066
		c-0.102,0.077-0.134,0.136-0.354,0.023c-0.221-0.112-0.116-0.427,0.105-0.484C314.035,131.548,314.163,131.99,314.061,132.066
		 M314.84,135.643c-0.216-0.042-0.076-0.149,0.012-0.329c0.089-0.18,0.079-0.155,0.261-0.023
		C315.292,135.421,315.056,135.684,314.84,135.643 M331.924,87.172c0.717,0.451,0.132,1.589,0.026,1.781
		c-0.106,0.193-0.816,0.134-0.845-0.104c-0.041-0.341,0.332-0.423,0.474-0.824C331.744,87.556,331.684,87.021,331.924,87.172
		 M331.331,89.767c0.476,0.038-0.188,4.035-0.392,3.875C330.639,93.408,330.854,89.73,331.331,89.767 M328.071,102.07
		c0.244,0.051-0.084,1.354-0.311,1.348C327.62,103.414,327.805,102.014,328.071,102.07 M327.562,103.987
		c0.426,0.068-0.245,2.557-0.422,2.557S327.266,103.94,327.562,103.987 M326.609,108.386c0.088-0.139,0.298-0.169,0.298-0.029
		c0,0.139-0.146,0.984-0.309,0.951C326.388,109.265,326.521,108.525,326.609,108.386 M317.661,136.571
		c-0.073-0.138,0.149-0.205,0.226-0.194c0.083,0.012,0.156,0.082,0.153,0.225C318.038,136.744,317.734,136.708,317.661,136.571
		 M318.594,148.236c-0.171-0.047-0.229-0.175-0.149-0.35c0.08-0.176,0.316-0.269,0.659-0.127c0.272,0.112,0.854,0.008,0.871,0.23
		c0.01,0.126-0.563,0.07-0.913,0.105C318.755,148.126,318.674,148.257,318.594,148.236 M320.037,131.736
		c-0.414-0.171,0.248-1.323,0.507-1.229C320.843,130.616,320.498,131.924,320.037,131.736 M320.686,130.259
		c-0.378-0.171,0.56-2.298,0.992-2.138C321.903,128.204,321.065,130.429,320.686,130.259 M322.009,126.905
		c-0.366-0.095-0.077-1.115,0.355-0.992C322.86,126.054,322.328,126.987,322.009,126.905 M322.652,119.899
		c0.088-0.18,0.648-2.205,0.928-3.34c0.061-0.248,0.897-2.108,1.003-2.339c0.786-1.705,1.09-3.851,1.725-3.625
		c0.278,0.099-0.366,1.534-0.483,1.795c-0.604,1.346-0.992,2.268-1.417,3.094c-0.508,1.76-1.241,3.473-1.324,3.874
		C322.864,120.426,322.564,120.079,322.652,119.899 M323.14,124.538c-0.495-0.1,0.031-1.599,0.416-1.507
		C323.804,123.09,323.403,124.59,323.14,124.538 M324.454,120.881c-0.107,0.473-0.321,0.938-0.686,0.83
		c-0.363-0.105,0.548-1.747,0.744-2.542c0.25-1.013,0.659-2.473,0.556-3c-0.105-0.527,0.813-1.001,0.957-0.567
		C326.167,116.037,324.725,119.677,324.454,120.881 M326.763,114.369c-0.192,0.171-0.649,0.029-0.703-0.178
		c-0.041-0.161,0.065-0.665,0.531-0.679C326.987,113.5,327.087,114.079,326.763,114.369 M326.922,112.962
		c-0.378-0.064,0.243-1.942,0.419-1.901C327.441,111.084,327.29,113.026,326.922,112.962 M327.873,107.95
		c0.203-0.839,0.667-1.472,0.792-1.441s-0.128,0.773-0.332,1.612c-0.203,0.838-0.303,2.108-0.644,2.047
		C327.442,110.123,327.67,108.788,327.873,107.95 M328.068,116.098c-0.157,0.083-0.426,0.048-0.429-0.164
		c-0.002-0.212,0.463-0.474,0.58-0.641c0.118-0.167,0.361,0.097,0.332,0.309C328.524,115.815,328.225,116.016,328.068,116.098
		 M328.761,105.875c-0.407,0-0.748-2.044-0.047-1.968C329.444,103.987,329.168,105.875,328.761,105.875 M329.094,115.585
		c-0.017-0.004-0.054-0.03-0.053-0.093c0.002-0.062,0.184-0.079,0.151,0.026C329.16,115.625,329.112,115.589,329.094,115.585
		 M330.737,115.307c-0.219,0.114-0.184,0.644-0.639,0.39c-0.282-0.158-0.076-0.727,0.331-0.886c0.357-0.139,0.986-0.177,1.033,0.118
		C331.502,115.177,330.948,115.197,330.737,115.307 M331.942,105.135c-0.125,0.054-0.345-0.029-0.468-0.174
		c-0.101-0.118-0.032-0.343,0.128-0.343c0.161,0,0.469,0.197,0.469,0.278S332.066,105.082,331.942,105.135 M332.375,102.328
		c-0.137,0.013-0.23-0.032-0.23-0.204c0-0.171,0.219-0.479,0.417-0.203C332.761,102.195,332.513,102.315,332.375,102.328
		 M332.686,86.047c-0.133,0.074-0.693,0.026-0.743-0.399c-0.051-0.425,0.416-1.036,0.965-1.204c0.19-0.059,0.186,0.487-0.124,0.842
		C332.545,85.556,332.969,85.887,332.686,86.047"/>
	<path clip-path="url(#SVGID_2_)" fill="#FFFFFF" d="M309.082,137.977c0,0.004-0.001,0.008-0.001,0.012
		c0.017,0.008,0.024,0.02,0.04,0.026C309.137,137.975,309.109,137.949,309.082,137.977"/>
	<path clip-path="url(#SVGID_2_)" fill="#FFFFFF" d="M350.498,110.317c0.115,0.279,0.55,0.417,0.691,0.106
		c0.142-0.31-0.036-0.504-0.204-0.594C350.817,109.742,350.312,109.866,350.498,110.317"/>
	<path clip-path="url(#SVGID_2_)" fill="#FFFFFF" d="M338.685,131.996c-0.013,0.099,0.207,0.295,0.344,0.159
		c0.136-0.136,0.194-0.319,0.094-0.396S338.727,131.688,338.685,131.996"/>
	<path clip-path="url(#SVGID_2_)" fill="#FFFFFF" d="M397.754,161.17c0,0.205,0.177,0.58,0.467,0.491
		c0.29-0.088,0.542-0.401,0.402-0.742C398.484,160.579,397.754,160.743,397.754,161.17"/>
</g>
</svg>
