<?xml version="1.0" encoding="utf-8"?>
<!-- Generator: Adobe Illustrator 16.0.4, SVG Export Plug-In . SVG Version: 6.00 Build 0)  -->
<!DOCTYPE svg PUBLIC "-//W3C//DTD SVG 1.1//EN" "http://www.w3.org/Graphics/SVG/1.1/DTD/svg11.dtd">
<svg version="1.1" id="Layer_1" xmlns="http://www.w3.org/2000/svg" xmlns:xlink="http://www.w3.org/1999/xlink" x="0px" y="0px"
	 width="477.798px" height="166.803px" viewBox="0 0 477.798 166.803" enable-background="new 0 0 477.798 166.803"
	 xml:space="preserve">
<metadata><?xpacket begin="﻿" id="W5M0MpCehiHzreSzNTczkc9d"?>
<x:xmpmeta xmlns:x="adobe:ns:meta/" x:xmptk="Adobe XMP Core 5.3-c011 66.145661, 2012/02/06-14:56:27        ">
   <rdf:RDF xmlns:rdf="http://www.w3.org/1999/02/22-rdf-syntax-ns#">
      <rdf:Description rdf:about=""
            xmlns:dc="http://purl.org/dc/elements/1.1/">
         <dc:format>image/svg+xml</dc:format>
         <dc:title>
            <rdf:Alt>
               <rdf:li xml:lang="x-default">Dare Northward-2line-black</rdf:li>
            </rdf:Alt>
         </dc:title>
      </rdf:Description>
      <rdf:Description rdf:about=""
            xmlns:xmp="http://ns.adobe.com/xap/1.0/"
            xmlns:xmpGImg="http://ns.adobe.com/xap/1.0/g/img/">
         <xmp:CreatorTool>Adobe Illustrator CS6 (Macintosh)</xmp:CreatorTool>
         <xmp:CreateDate>2017-09-27T17:08:52-04:00</xmp:CreateDate>
         <xmp:ModifyDate>2017-09-27T17:08:53-04:00</xmp:ModifyDate>
         <xmp:MetadataDate>2017-09-27T17:08:53-04:00</xmp:MetadataDate>
         <xmp:Thumbnails>
            <rdf:Alt>
               <rdf:li rdf:parseType="Resource">
                  <xmpGImg:width>256</xmpGImg:width>
                  <xmpGImg:height>92</xmpGImg:height>
                  <xmpGImg:format>JPEG</xmpGImg:format>
                  <xmpGImg:image>/9j/4AAQSkZJRgABAgEASABIAAD/7QAsUGhvdG9zaG9wIDMuMAA4QklNA+0AAAAAABAASAAAAAEA&#xA;AQBIAAAAAQAB/+4ADkFkb2JlAGTAAAAAAf/bAIQABgQEBAUEBgUFBgkGBQYJCwgGBggLDAoKCwoK&#xA;DBAMDAwMDAwQDA4PEA8ODBMTFBQTExwbGxscHx8fHx8fHx8fHwEHBwcNDA0YEBAYGhURFRofHx8f&#xA;Hx8fHx8fHx8fHx8fHx8fHx8fHx8fHx8fHx8fHx8fHx8fHx8fHx8fHx8fHx8f/8AAEQgAXAEAAwER&#xA;AAIRAQMRAf/EAaIAAAAHAQEBAQEAAAAAAAAAAAQFAwIGAQAHCAkKCwEAAgIDAQEBAQEAAAAAAAAA&#xA;AQACAwQFBgcICQoLEAACAQMDAgQCBgcDBAIGAnMBAgMRBAAFIRIxQVEGE2EicYEUMpGhBxWxQiPB&#xA;UtHhMxZi8CRygvElQzRTkqKyY3PCNUQnk6OzNhdUZHTD0uIIJoMJChgZhJRFRqS0VtNVKBry4/PE&#xA;1OT0ZXWFlaW1xdXl9WZ2hpamtsbW5vY3R1dnd4eXp7fH1+f3OEhYaHiImKi4yNjo+Ck5SVlpeYmZ&#xA;qbnJ2en5KjpKWmp6ipqqusra6voRAAICAQIDBQUEBQYECAMDbQEAAhEDBCESMUEFURNhIgZxgZEy&#xA;obHwFMHR4SNCFVJicvEzJDRDghaSUyWiY7LCB3PSNeJEgxdUkwgJChgZJjZFGidkdFU38qOzwygp&#xA;0+PzhJSktMTU5PRldYWVpbXF1eX1RlZmdoaWprbG1ub2R1dnd4eXp7fH1+f3OEhYaHiImKi4yNjo&#xA;+DlJWWl5iZmpucnZ6fkqOkpaanqKmqq6ytrq+v/aAAwDAQACEQMRAD8A9U4q7FXYq7FXYq7FXYq7&#xA;FXYq86/5yDvtSsPyj1y60+5e0nT6spmiYo/CS6ijYKy0IqGofbFQ8C/In8n7Lzzpup6o+s3ulahY&#xA;XCRQS2nEfaUPyJ2atR2IxSXocmu/nd+VEhfXgfOnkyI/vNSUk3UMfTk7EtIpHf1Oa9uQxV7H5O87&#xA;eW/OGjpqug3a3Nu3wyxn4ZYXpUxyp1Vh+PUVGKE6kkjijaSRgkaAs7saAACpJOKvjvVv+cnPzOl8&#xA;xXd9pV3HFoqTMbbTntoXQQ8qIJJCnq1YUr8Y36Ypp9W+TfM9l5p8rab5gsxxg1CFZeHUo4qskZPi&#xA;kisv0YoRHmPzDpHlzRLvWtXnFtp1kgeeUgtSrBVAAqSWZgoHicVeWxf85T/l48frSWGsQWhfgl5J&#xA;ax+ixBoaMszdPlXFNPR/KHnfyx5v039I+X75LyBSBMgqssTH9mWNqMh22qN+2KFPz55vi8n+V7rz&#xA;DPaSXtrZGP6xDCVEgSSRY+S8tjxLg0qNsVefS/8AOVX5VpZR3CnUJZnBLWa2wEqezFnWL/gXOKaY&#xA;/wD9DheWvrqJ/h+9+pE/vJ/Vi9UD2i+yf+RgxWnu+lalbanplnqVryNrfQR3MBdSjenMgdeSndTR&#xA;twcUIrFXYq7FXYq7FXYq7FXYq7FXYq7FXYq7FXYq7FXYq7FXYqwT89bN7z8pPMsSAEraiYhulIJU&#xA;lY79wE2xUPKP+cOb2qeabE12NnOnhv6yt+pcUl9IsqupRwGVhRlO4IPUEYofFv5ceYpfKH57G3sH&#xA;9DTLrVptKuLcH92beW4MSAj/AIrbiwPtiyfR/wDzkB5jk0L8qtalhbjcXyLp8J/5iW4SfT6XMjFA&#xA;eOfk1+WNj5l/JLzZJRP0rqUxitJnoAhsUSeEcj9kPI5DnwxUsk/5xI83evpGq+UblqXGnyfXbRG+&#xA;16MpCSqB4JIAfm+Klnv/ADkTDJN+TfmJIxVgtq5H+Sl5C7fguKhKv+cZJILr8n7SCRFeOK5uopVa&#xA;jKayl/iB9n74qXnnlPzFpyf85UXEXlVUi0O+MlldQ2ihYZPQs6yOFX4aC4h5cl69e+Kvb/zf0xtS&#xA;/LDzNaqKt9QmmUeJgX1gPvjxQ+OPyetNDvfzJ0Oy1y2jvNLu5nt57eX7DGWJ0jr06SFTiyfZehfl&#xA;5+WVi3q6RoWliSM09eOGKWRTU/tkOw+/FiyvFXYq7FXYq7FXYq7FXYq7FXYq7FXYq7FXYq7FXYq7&#xA;FXYq7FWOfmVG0v5deaY0HJ30i/VV8SbaSmKvnf8A5w/n4+bNdgp/eWCPX/UmUf8AG+KS+ivPfnfR&#xA;PJnl251rVZlRY1Itrev7yeahKRRjuWP3Dc7YofE35a2V9r/5o6CiqZJ7jVIbq4K9kjlE8z9+iKxx&#xA;ZPdv+cwNbjj8v6DoYf8Ae3N1JeOgPRIIzGCfmZzT5YoDHfy0/wCcbofNfkrSda1PXLqzt731Jzps&#xA;SKygeoyK6sx4qXRFP2Ditsf8t2P/ACrz/nI+00XT3lFml/Fp49dgXkt75FVeZVVBr6qsNutMVfTH&#xA;5vIH/K7zSCvKmm3LUpX7MZNfopXFD4m0vUPOY8uT21pqN3aeV1uUivuEsy2iS3KmhmSLkW5LEf2T&#xA;0+WLJ9Q/kL+Sel+U418zz6jBrOo30IFjc2tTbRQSCpMTNRnZx1YqKDanXFBL2C9tYryzntJa+lcR&#xA;vFJTY8XUqfwOKH50SWRttWaxuFMhhuDBKsfVij8WC/Om2LJ9v+QPyT8keRr5tQ0cXcl86NGbi5nZ&#xA;vgc14lIxHGadqrXFjbPsVdirsVdirsVdirsVdirsVdirsVdirsVdirsVdirsVdirsVSjzhZ6tfeV&#xA;NXstI9L9J3VpNDaeuSI+ciFRyI6dcVfFvlHTvzo8na1cz+XdE1W01R4XtZiunyT/ALssrH4XikT7&#xA;SKQ1MWSdL+T357+eNSW61u2uuTEg3urz8FjBNSFjYtIF9kjpir6I/KP8k9B/L62Nzz/SHmC4Thc6&#xA;iy8QqncxwLvwTxPVu/gFFpR+c35GXn5heYtI1SDU47OC1jW1vYZEYt6Pql2eJhUF6OQFYAe+K29S&#xA;0fSrPSNJstKslKWdhBHbW6nciOJQi1O1TQb4oYd59/J7QfN2vaRr5uJNM1jSZUlF5aqnOURsrxiQ&#xA;sDuhT4T2qcVZrqFhaajYXOn3kYms7yJ7e5hPR45VKOpp4qaYq8x/Ln8irHyvp/mrRNUli1bQdekj&#xA;FvC6kSLDGHoJD09ReYoydxUUxTbE4NS8y/kPqB06+in1z8tbyXlY3q0NxZO5q0bfZWp68dg32loe&#xA;S4q9z0LXtI17SbbV9IuUvNPu15wTpWhFaEEGhVgRQqRUHY4ofIP5g/kN580zz5Na+X9NutU0+9m9&#xA;fTr+NaqvM8uM8v2I2RqirkV698WVvTdH/L3/AJyfaSK4uvOdvZgGrRySG4dfnH6DRN/wWKHtflmy&#xA;8w2ekRQa/qUeq6kpb1LyGAWysCfhHphmFR4inyxQmuKuxV2KuxV2KuxV2KuxV2KuxV2KuxV2KuxV&#xA;2KuxV2KuxV2KuxV2KuxV2KuxV2KuxV2KqF9YWOoWc1lfW8d1Z3ClJ7eZQ8bqeoZWBBGKqek6PpWj&#xA;2MdhpVnDYWUVfTtreNYowSakhVAFSdye+KovFXYq7FXYq7FXYq7FXYq7FXYq7FXYq+fLv/nLW303&#xA;Wb7TNR8syVsbqa2eaC7ViRFIyV4NEu/w/wA2Kae3eVfM+k+aNAs9d0mQyWF8nOIsKOpBKujgE0ZG&#xA;BU79cUPOP+cltf8ANXl7yZp+r+XtQm0+aLUY47loSByjeORhyBBqvNBt74pD1TTpzcafazlg5liR&#xA;y4pRuSg1FNt8UJT58822nlHylqXmG6AdbGLlFCTT1JWISKOv+U7AYq+ffLf/ADlzrkmp2Fvr2lWc&#xA;djJMiX93b+qrJG3wmRUZn+z9o7+2KafUAIIBBqDuCMUPm/8AOz89PPuhfmAfLnlcG1ito4o2WW2W&#xA;WS5nl+KsXNWJSjKq8Rua9dsUgJdd/wDOQX51eUZ7BvOHl+3W2vUaSKGaJ7WaRVIDUZXbgwqNmj+j&#xA;FaetWP5kXHnb8sb/AMy+S3az1ixWRvqNxGkx9e3X1Gt3UH4llXZWUg7j3GKvNtJ/5zEtzHGur+Wn&#xA;WUACWa0uQyse5WORFK/IufnitMos/wDnLH8spgnr2+p2rHZ/UgjYL71jlckfR9GK0ncP/OSX5NyL&#xA;VtdaI1pxe0vK/P4YWH44rTItA/Nb8udfuBbaV5gtJ7ljRLdn9GRj4IkoRm+gYoZUzKqlmICgVJOw&#xA;AGKpF5Z8+eT/ADRJcx6Bq1vqMloaXEcTfEu9OXEgEqT0Ybe+KpjqWuaLpZtxqd/b2Ju5PRtRcSpF&#xA;6kh3CJzI5N7DFUbirsVdirsVdiry+x/PK1u/zYufy/j0aaT0ZWgTU4JRIOcaB5DJEUTgiHkC3Nun&#xA;TfFNPUMUJYnmjy4+uvoCanbNrca8300Sp9YC8Q9THXl9khvlviqZ4q7FXYq7FXYq7FXYq/P780bc&#xA;wfmV5qj2A/S16yhegV7h2A+44sn0N/ziN5mS68qap5ekcevplyLiFCd/QuR2HfjJG1f9YYoLLP8A&#xA;nJWO1b8ntZaf7cclo1v4+obmNdv9gzYqGRflLcX1x+WXlma+YvcPp8FWNKlQgEZNP8imKHj/APzl&#xA;75tVLLR/KcL/ALyZzqV4o/kTlFCD/rMXP+xGKQlv5Rflxa6h+Qnmy/uLWOW91dLh9PeRQxH1CJvR&#xA;ZCfsn1/UFRir3b8rdbGt/l15d1LcvLYwpKT3lhX0pP8Ah0OKHi/53Sk/85Gfl/FQUVtKYN3PLU5B&#xA;Q/8AA4pCSf8AOX2uC5816Joq7rp1m9wx8Hu5OJX/AIG3U/TioTn/AJw3Fzw81mv+jVsaA1/vP9Ir&#xA;Tt06/RipZ75s/wCcafy18w6hPqCx3Ok3VwS8osJESJnPVvSkSRRXuFpitvn/APPb8qdA/Ly70e20&#xA;q+ubyTUI55Lhbn0/gWMosZUoqfa5NWvhikPQvy2/5xl8neYvI+ka5q99qUV/qMPryR20kCRKrMfT&#xA;4rJBI32KV+LFFshuP+cQ/wAv2jpb6rq0cnZpJLaRen8ogQ9ffFbVPzB0uT8rvyG1PR7XVbnULi9l&#xA;FpDd3J+JRdECSOMAngghR6AHqScVYH/ziL5ZvbjzPqnmTm0dlY231Og2EstwwfifFUWOpHiVxUqn&#xA;/OYOrXD+ZNB0jmPq9vZvdiMdec8pjJP0QbfTiofQflC9TTvI3l0a1epHd/o60FxNcygM83oJ6hLy&#xA;EFjyrihkUUsU0SSwuskUgDJIhDKyncEEbEHFV2KuxVZNNFDC80rBIolLyOegVRUk/IYq+Z/+cYHf&#xA;XfzJ83eaZhWSWN2PLchr659bxp/ummKS+jNf1qy0PRL/AFm+bjaafBJcTEdSsalqD3NKD3xQ+DdO&#xA;/MPX7H8wP8cxlJdX+tSXbLLyaMmbkrxmhB4cHKih2GLJ94+XtXj1rQNM1iJDHHqVpBeJGTUqs8ay&#xA;AV26csWL56vdc86eb/8AnITVvLOl+Z7/AEbSYBJAVtZCUjW2hUScYy3AO0wPxdcUskuvNnnf8q/O&#xA;Okad5t1tvMXlDXKxR6pPCsU9rOpAPIqTVRyUnkT8NafZ3VT7/nJLzVqnlz8tXm0u7msb2+vILSK6&#xA;t3aOVAQ0zcXUhlqsJGxxUPCfy3/Nj8+b65l0jy9dSeYJ44GnaC9CXEiRqyqZPVlKyGjOooXPXpir&#xA;0Wx/5yK89eWplt/zJ8o3FrCxol9axPDX5JMTFJ/sZBitPbPKnm3QPNejQ6xod0t1ZS/CSNnjcfaj&#xA;kQ7qy16H59MUPmHUfIdn5t/NT8z9IROWpw21xf6UdywuI54XIHb95z9P/ZYpYD+UHnh/Jfn7TtWd&#xA;iti7fVdSWpANtMQrk0/32aP81xS+kP8AnKq5I/KpPTo8dxqFspYUI48JHBBr4qMUBP8A/nH7X7fW&#xA;fyp0UxH97p6HT7hf5XtzQDbxjKN9OKl80fnPNe+bPzv1PT7I+tPJeQ6TZRk/CHjCQce9B6vIn5nF&#xA;IfX2jaFpvlbyVBo8QrY6XZGNz9nmEQmRz4F25MfnixYh/wA44araX/5R6PHA4aWxM9rdIDUpIszu&#xA;Afmkit9OKS8a/P7zVbad+felam6G5Xy5HYSPbowUs8MrXapyoaV9QYqHj3mrzNqvmfzBe67qsgkv&#xA;r5+cnHZVAAVEQEmiooCr7YpfXX/OM3lGbQPy3iu7uFob3W5mvWVxRhDQJBt4Mi8x/rYoL1nFD5C/&#xA;5yz1F7j8yLW05fu7LToVC77PJJI7H6QVxSH09+X9mbLyH5ctCKNb6XZxtsB8S26A9PfFCf4q8B/5&#xA;zB1JI/Keg6YWo9zfvcqm24t4WQnx2+sDFIZH/wA4u6N+j/ypt7krxbVbu4uzXrRWFuv4QVGKl4R/&#xA;zkbqUmufnFeWVrWZrRLbToFHd+IdlH/PWVhikPXf+cpPJj3n5fadrEEXq3fl+REuJFG4tZlEbn3A&#xA;lWM+wqfHFATX/nF3zTDq35bR6UWH1zQZnt5V7mKZmmif5fEyD/VxUvSvNnmbTfK/l2/17UiRZ2EZ&#xA;kkVacmJIVEWpA5OxCj3OKHzPB/zl15wbXY5ZtLsE0UyASWqrMZxCW3Im50Lhe/Cn+Timntf56edb&#xA;Ty3+WWp3CSqbvVYTY6coIqzXKlWdev2Iyz/QPHFAYP8A84haE9r5T1nWnBX9JXiQR17x2iEhh/s5&#xA;2H0YpKH/AOcsfP62ej2vkuzkH1jUSt1qYB3W3jasSH/jJIvL/Y++Kh4t528jjy3+Xvkq/uIuGpa+&#xA;dQvZyftCClsLZPlwPP8A2ZxS+yfy3jeL8u/K0Ugo6aRYKw60ItowemLF89f84+TT6l+fPmTUdnEs&#xA;eo3Esi/Z/e3kZqPmWxSXo/8AzlVa2k35WGWZlWW2v7eS2r1Z25xlR/sHY/RioYH+eOtXGsfkJ5Fv&#xA;5nZpbmS2a4JJ+KWO0kR3PzYMfpxULf8AnDvTA+q+ZdUI3ggtrZG339d3dgP+RK1xUvpm9srO+tJb&#xA;O9gjubSdSk1vMoeN1PVWVgQRih80aNqZ/J/89rjyzblj5T8wSW/GBjX0hcmkUi1P+6ZSyE9096Yp&#xA;TH8ursD/AJym82rG1Vmiu4moKj4HgYg+FGjxV5j/AM5EeSR5X/Ma7e3jEem6wv1+zCiiqXJEyeHw&#xA;yAmngRikMl1jzmPNP/OM0dtdyctS8uaha2cm/wATRBWW3dh7xsU9ypOKE3/5xb8z/ojyn57mmPKH&#xA;SII9UWGvXhDOZCAN+kKg4qWC/wDOPtnPrn5z6Zd3RMzxPc6hdSHqXEbkMf8Anq64pL6d/O/zXH5a&#xA;/LPWbzmFubuI2FmO5lugY/h90Qs/+xxYhhX/ADiTaXMH5dahczKEgudTleByACypDEjNX+XkpHzB&#xA;xSXjf5YaDafmd+bOp/px2lhv4r+8lcGjAyAxxslehjaVWUEU+EYpTRPy30r8rfzO0v8Ax3bLq/lO&#xA;8YrZ6mAywpLUcXmiBNfTP20JI4mo5Upih9ewSwzQxzQOskEih4pEIZGRhVWUjYgjpihfir45/wCc&#xA;rI41/NMMn2n0+3aTevxcpF/4iBikPq7ybMZ/KGhzEUMun2rkDtyhU4oTjFXyh/zl9fSP520WwP8A&#xA;d2+m+uv+tPPIjf8AJgYpCceRfze8+eXvJmjeXNH/AC71K9e3tx6d463HCUSlpRIqLbn4G58gedKf&#xA;firx+y1HzJrv5tQ6pb6akvmC51gXi6U59OP10n9UwuXK8VBXi3I4pfb9va3OveVvqnmXT0tZtRtn&#xA;h1PTklEyKJAUdRKoWtQeo6YsXzJ+U8k/5Yfnvd+VdSc/VL9m01Zm2DCUrLZzeFX+FfbmcUtf85P/&#xA;AJnnW9dHlDTZa6Xo8lb91O0t6AVK/wCrCCV/1q+AxUMJ8+flTqflHyb5Y1y9V1uNaWU3sLCggf4X&#xA;t4z4M0RJIPQgjtilHfnR+Y0Hm1fLGnWR5Wmj6XbiUjYG7uIY2nUCp/u+Kp/rBsVD6d8uHRfys/KP&#xA;TzrL/VodMtFku12Mj3c1ZZIoxX4naVyqj+GLF8gan5hvPN3nu48zavZT39tNdpcX9pbciVtVYAQq&#xA;4B4gRKEVjiyZb+e35t+X/wAwV0CPRbG5sotIS5Ei3KxqD64hCrGI2cUX0fbFQ+rfK12LP8uNIuzS&#xA;lvo9vKagkfBaq3QfLFi+Wf8AnHz8w/J/ki78w6x5huJRdzQQw2NtDE0sk9Xd5aNTgpBRPtuK1xSV&#xA;Lzd5z8+fnf5otdI0mwaOwgctaafGS0cQb4WuLqWlKgftUoBsoqTVS9A/5yS8vw+Xfyi8o6FC3qR6&#xA;dcxW/q0pzZLWQM9P8tqtigIz/nDyNB5e8xSAfG13CpbxCxEgf8McVL6DxQ+TP+csG9P8ztHe1BF6&#xA;NMgYEUoWF1P6f+yqP1YpCZ/kjw1L/nI3zbqETEwodUuI27FZL1EUbbfZkxUvRv8AnJPyA/mjyI2o&#xA;2ic9U8v87uIDq9uVH1hB/sVDj/Vp3xUPj201a8tdPvrCNv8ARdQWMXEZrTlDIJEcUP2l3HyY4pe2&#xA;/wDOLOiwazF5306U0F9pqWTN2CXIlRsUFBf84vf7ifzevNM1BBFfGxu7MRPsyzxSxu6ivcLC+KlP&#xA;v+ckfMd55z82aX5B8rRNqlxYO0t3FbfHW7YcOBP2R6KV5kmg5GvQ4qHuWk+TpNC/LFPKumsBd2+m&#xA;SWscq7BrqSJucm/TlM5bFD55/wCcRtNdvP2r3brQWmmvEVYUYSSzx0/CNhikvpvzZ5U0TzVoVzom&#xA;swCezuVpXbnG4HwyRt+y6ncH+GKHlX5ZeYL38vPML/lf5vui0DMJPKeryfDFPBIafVySfhYN9lSe&#xA;tV6cKqXtmKHzP/zlh+X+sT6lZecbCB7mxW2FnqKxqWMJjd3SVqVojB+JPQEe+KQ9Y/IXXv01+VGg&#xA;TMf3tpCbCUeBtGMSffGqnFBegYq+Rv8AnLsH/lZGmGmx0eEA/K6ucUh9UeWpYpfLmlSwgCGSzt2j&#xA;C/Z4mJSKddqYofHn5ERNdfnxpjyAycZ7+WRiTWotpyGP+zpiyL7UxYvlP/nLjTDZeddE1q3YxS3d&#xA;mY+aEqwktJSwcEb1pMo+jFIec/k/5Vfzf+ZWk2FyDNb+ubzUWf4uUMH71w5Nf7xgE+bYpfXv5y+U&#xA;F81/lzrGmpCZ72KE3enIg5SfWbcF0VB/NIKx/wCyxYh8bflxoLah+ZWgaPextFy1GFLuCVSrBYpA&#xA;0kbKdwaIV3xZPVP+cutT16TzNpGmTx+losVu01kVcN60zGkrso+yU+FQD7kdcUB7L+RX5cR+SfJF&#xA;vHcRBdb1MLdao5HxKzCscNfCJTT/AFuR74qXkv8AzmIiJqXlnioXlFeM1ABUloRU+PTFQ9i8yahF&#xA;p/5HXt1Dx9NPLxWCn2avaBI6U7VYYoeG/k5+TGh+evyp1e5uoxDrn16WPSdQBIKGOCIhXANGjZ2I&#xA;IIqOoxTb1X/nHDX9PvPJ0+iNYwabr+gTm01m2hiSFndSVSaQIBV24FWJ35KcVLFv+cw5VHl7y7ET&#xA;8bXczBfELEAT9HIYqED/AM4bSuYfNsR+wjWDj5sLkH/iIxUvpHFD40/MXWofPP5/20WmkXVot9Z6&#xA;bbOoDq6QyKJXHYpzLmvTjvil7B+Tf5Q695K/MjzPfzQLH5fuI3h0eUSrIzxPcCRFYcjIGREAbkNz&#xA;3OKvamVXUo4DKwoyncEHqCMUPhb85fy2vfJfnK/t4baUaFM/r6bdcG9L0pdxFz6cozVKVrtXviyD&#xA;1r/nDmxUW/mi+JBZns4FFdwFEzNtXvyHbtigsy82/wDOOeja752m802etXeiz3R53MVkoVzKVKSS&#xA;Ry1BT1F+1sd6+OK2zvyT+XvlTyXp31LQbNYSw/0i8ej3Mx61lloC3y+yOwGKGR4qlGkeUfLWj6pq&#xA;Oq6Xp8Vpf6syvqM0dR6rKSQSteINWJNAKnc4qm+Ksc88/l95Y87aWun67bGQRMXtbqI8J4HNKtFJ&#xA;Q0rQVHQ9xiqfWdstraQWyu8iwRrGskrF5GCALydzuzGm5PXFVUgEEEVB2IOKqFjp9hYW4trG2itL&#xA;dSWWGBFjQFjyYhVAG5NTiqviry787/yXT8w7OzubCeOy12xPpxXE3L0pIGNWjfgGIo3xKaeI77KQ&#xA;XoWgaa2l6Fp2mMwdrG1hti46MYY1SvbrxxQ8u0P8k73y7+dR836K1tF5auo5jc2ZdxNHLNGQyxrw&#xA;ZSrS0YfGKCo7Cqm3sGKEo81+VND81aHcaLrVutxZ3C032eNx9mSNuqup6H+GKsL/ACh/JHTPy5l1&#xA;C6W/OqahfBYluWhEHpQKeXpqoeT7TULGu9Btim3peKGKt+V/ko+d086iwC6+gb9+rsqM7J6fqtGD&#xA;xL8CRWnv1ocVR/mTyT5W8yy2E2uael7Lpkvr2Lszq0b8laoKMtQSi1U7Gm+Kp3irz/8AOb8qrb8w&#xA;fLYtofSg12zPLS72YuETky+qj8Ax4uq/ymhocVCc2XkuO4/Lm08n6/ILpRpsOn30sBZeRjiVCyMd&#xA;+q1BI+jtiqG/Kv8ALmHyB5ak0OG+fUFkupbr13QREeoFUIFDP0VBvXc77YqxjWPI3mTy/wDm7a+e&#xA;PK1qLvTNYC2fmfTkdImAcgfWlDkK1OKu1PiqD/MaKWKf85gaTdz+X9A1OKN3t7G4niuHUEqn1hY+&#xA;BemwqYqAn+OKh5p+Rnmz8xtBsddHkvy5Hrhla3a+kZXcxcVl9IBI3jZuXxfd74pLMdZu/wDnKrzr&#xA;ayWH6LOj2FwpWeOARWVUbYqXnkaem+4Vt++KGY/kp/zj0vky/TzFr9xHea6iMtpbwVMNt6ilXbmw&#xA;BeQqSvQAb9euKkva8UOxVQv/AKh9Rn/SHpfUeDfWfrHH0vTp8Xqc/h4061xVIPIv/Kuvql3/AII/&#xA;Rv1X1R9c/RfpcPVptz9Lb7PTFWTYq7FXYq7FXYq7FXYq7FXYq7FXYq7FXYq7FXYq7FXYq7FXYq7F&#xA;XYq7FXYq7FUJq/6I/Rlz+mPq/wCi/Tb659c4fV/S/a9X1Pg4+PLbFUq8n/4A+qz/AODf0V9V5j61&#xA;+h/q3p86bep9W25U6VxVkGKuxV//2Q==</xmpGImg:image>
               </rdf:li>
            </rdf:Alt>
         </xmp:Thumbnails>
      </rdf:Description>
      <rdf:Description rdf:about=""
            xmlns:xmpMM="http://ns.adobe.com/xap/1.0/mm/"
            xmlns:stRef="http://ns.adobe.com/xap/1.0/sType/ResourceRef#"
            xmlns:stEvt="http://ns.adobe.com/xap/1.0/sType/ResourceEvent#">
         <xmpMM:RenditionClass>proof:pdf</xmpMM:RenditionClass>
         <xmpMM:OriginalDocumentID>uuid:65E6390686CF11DBA6E2D887CEACB407</xmpMM:OriginalDocumentID>
         <xmpMM:DocumentID>xmp.did:E3C104490E2068118083D2E7312FE8C2</xmpMM:DocumentID>
         <xmpMM:InstanceID>xmp.iid:E3C104490E2068118083D2E7312FE8C2</xmpMM:InstanceID>
         <xmpMM:DerivedFrom rdf:parseType="Resource">
            <stRef:instanceID>uuid:8c6df922-ee9f-d94c-a7f9-a3fb4b87519c</stRef:instanceID>
            <stRef:documentID>xmp.did:6a75d7f0-d835-4ffd-a893-71f53d8512a7</stRef:documentID>
            <stRef:originalDocumentID>uuid:65E6390686CF11DBA6E2D887CEACB407</stRef:originalDocumentID>
            <stRef:renditionClass>proof:pdf</stRef:renditionClass>
         </xmpMM:DerivedFrom>
         <xmpMM:History>
            <rdf:Seq>
               <rdf:li rdf:parseType="Resource">
                  <stEvt:action>saved</stEvt:action>
                  <stEvt:instanceID>xmp.iid:6a75d7f0-d835-4ffd-a893-71f53d8512a7</stEvt:instanceID>
                  <stEvt:when>2017-09-19T15:51:43-04:00</stEvt:when>
                  <stEvt:softwareAgent>Adobe Illustrator CC 2017 (Macintosh)</stEvt:softwareAgent>
                  <stEvt:changed>/</stEvt:changed>
               </rdf:li>
               <rdf:li rdf:parseType="Resource">
                  <stEvt:action>saved</stEvt:action>
                  <stEvt:instanceID>xmp.iid:E3C104490E2068118083D2E7312FE8C2</stEvt:instanceID>
                  <stEvt:when>2017-09-27T17:08:53-04:00</stEvt:when>
                  <stEvt:softwareAgent>Adobe Illustrator CS6 (Macintosh)</stEvt:softwareAgent>
                  <stEvt:changed>/</stEvt:changed>
               </rdf:li>
            </rdf:Seq>
         </xmpMM:History>
      </rdf:Description>
      <rdf:Description rdf:about=""
            xmlns:illustrator="http://ns.adobe.com/illustrator/1.0/">
         <illustrator:StartupProfile>Web</illustrator:StartupProfile>
      </rdf:Description>
      <rdf:Description rdf:about=""
            xmlns:xmpTPg="http://ns.adobe.com/xap/1.0/t/pg/"
            xmlns:stDim="http://ns.adobe.com/xap/1.0/sType/Dimensions#"
            xmlns:xmpG="http://ns.adobe.com/xap/1.0/g/">
         <xmpTPg:NPages>1</xmpTPg:NPages>
         <xmpTPg:HasVisibleTransparency>False</xmpTPg:HasVisibleTransparency>
         <xmpTPg:HasVisibleOverprint>False</xmpTPg:HasVisibleOverprint>
         <xmpTPg:MaxPageSize rdf:parseType="Resource">
            <stDim:w>477.797852</stDim:w>
            <stDim:h>166.803223</stDim:h>
            <stDim:unit>Points</stDim:unit>
         </xmpTPg:MaxPageSize>
         <xmpTPg:PlateNames>
            <rdf:Seq>
               <rdf:li>Cyan</rdf:li>
               <rdf:li>Magenta</rdf:li>
               <rdf:li>Yellow</rdf:li>
               <rdf:li>Black</rdf:li>
            </rdf:Seq>
         </xmpTPg:PlateNames>
         <xmpTPg:SwatchGroups>
            <rdf:Seq>
               <rdf:li rdf:parseType="Resource">
                  <xmpG:groupName>Default Swatch Group</xmpG:groupName>
                  <xmpG:groupType>0</xmpG:groupType>
               </rdf:li>
            </rdf:Seq>
         </xmpTPg:SwatchGroups>
      </rdf:Description>
      <rdf:Description rdf:about=""
            xmlns:pdf="http://ns.adobe.com/pdf/1.3/">
         <pdf:Producer>Adobe PDF library 15.00</pdf:Producer>
      </rdf:Description>
   </rdf:RDF>
</x:xmpmeta>
                                                                                                    
                                                                                                    
                                                                                                    
                                                                                                    
                                                                                                    
                                                                                                    
                                                                                                    
                                                                                                    
                                                                                                    
                                                                                                    
                                                                                                    
                                                                                                    
                                                                                                    
                                                                                                    
                                                                                                    
                                                                                                    
                                                                                                    
                                                                                                    
                                                                                                    
                                                                                                    
                           
<?xpacket end="w"?>
	</metadata>
<g>
	<defs>
		<rect id="SVGID_1_" width="477.798" height="166.803"/>
	</defs>
	<clipPath id="SVGID_2_">
		<use xlink:href="#SVGID_1_"  overflow="visible"/>
	</clipPath>
	<path clip-path="url(#SVGID_2_)" fill="#231F20" d="M110.432,89.285c-0.097-0.151-1.238-1.03-1.892-1.384
		c-0.729-0.396-1.06-1.051-0.957-1.652c0.103-0.604,1.256-2.315,2.321-3.162c0.945-0.752,0.722-2.089,0.795-3.024
		c0.074-0.936,0.966-1.436,1.962-0.993c0.171,0.076,0.666,0.017,0.864,0.012c1.289-0.039,2.291-0.066,3.574,0.004
		c1.181,0.065,2.349,0.357,3.526,0.528c0.538,0.078,4.316,0.453,4.706,0.431c2.036-0.115,3.911,0.364,5.731,1.29
		c1.2,0.61,2.513,1.002,3.787,1.461c1.24,0.446,2.385,1.04,3.203,1.818c0.923,1.742,1.784,3.307,2.578,4.903
		c0.326,0.657,0.668,1.373,0.726,2.085c0.196,2.397,1.028,4.781,0.215,7.218c-0.139,0.416-0.144,0.89-0.139,1.337
		c0.02,2.052-0.433,4.035-0.869,6.018c-0.203,0.92-0.449,1.834-0.742,2.73c-0.151,0.462-0.447,0.877-0.513,1.002
		c-0.648,2.581-1.039,4.883-2.521,6.807c-0.604,0.785-1.072,1.677-1.706,2.434c-0.702,0.84-1.536,1.565-2.288,2.364
		c-0.729,0.776-1.481,1.387-2.612,1.611c-0.728,0.143-1.35,0.815-2.003,1.241c-0.131,1.166,0.733,1.812,1.287,2.472
		c1.054,1.255,2.065,2.54,2.999,3.878c0.582,0.833,1.157,1.649,2.014,2.198c1.26,0.807,2.134,1.938,2.927,3.176
		c0.619,0.967,1.372,1.849,1.989,2.818c0.851,1.338,1.652,2.709,2.431,4.09c0.644,1.138,1.397,2.046,2.568,2.8
		c1.605,1.034,3.089,2.344,4.099,4.069c0.296,0.506,0.76,0.912,1.127,1.379c0.387,0.493,1.183,1.047,1.183,1.59
		c0,0.542-0.949,1.375-1.38,1.499c-0.431,0.123-1.324,0.123-1.465,0.123s-0.332-0.161-0.445-0.254
		c-1.523-1.251-3.093-2.444-4.649-3.652c-0.938-0.728-1.631-1.582-2.081-2.688c-0.589-1.453-1.508-2.694-2.705-3.729
		c-0.289-0.25-0.488-0.611-0.705-0.936c-0.855-1.286-1.78-2.498-3.128-3.323c-0.244-0.15-0.413-0.417-0.616-0.631
		c-1.541-1.629-3.1-3.241-4.615-4.894c-1.309-1.426-2.574-2.892-3.846-4.353c-0.555-0.638-0.99-1.419-1.643-1.926
		c-0.648-0.505-1.469-0.87-2.271-1.073c-1.124-0.286-1.893-0.779-2.571-1.804c-0.706-1.07-1.473-2.09-2.047-3.25
		c-0.33-0.67-0.997-0.69-1.187-0.603c-0.19,0.089-0.175,0.769-0.165,1.157c0.007,0.249,0.091,0.505,0.049,0.742
		c-0.406,2.295-0.835,4.586-1.246,6.88c-0.052,0.291-0.108,0.609-0.042,0.887c0.371,1.545,0.159,3.065-0.086,4.597
		c-0.155,0.972-0.292,1.96-0.273,2.938c0.044,2.413-0.529,4.727-0.956,7.069c-0.14,0.767-0.272,1.571-0.192,2.337
		c0.107,1.032-0.185,1.978-0.376,2.948c-0.09,0.463-0.184,1.148-0.487,1.383c-0.302,0.233-2.714,0.238-3.051,0
		s-1.371-1.591-1.742-1.654c-0.234-0.041-1.698-2.403-1.762-2.499c-0.127-0.346-0.196-0.884-0.242-1.014
		c-0.464-1.316-0.783-2.278-1.157-3.662c-0.284-1.047-0.523-2.182-0.419-3.241c0.186-1.9,0.532-3.784,1.008-5.659
		c0.555-2.188,0.665-4.492,0.961-6.747c0.137-1.033,0.213-2.077,0.396-3.102c0.249-1.396,0.706-2.704,1.753-3.746
		c0.837-0.832,1.327-1.844,1.472-3.039c0.095-0.788,0.36-1.554,0.478-2.34c0.176-1.18,0.301-2.367,0.427-3.554
		c0.209-1.964,0.451-3.928,0.582-5.897c0.085-1.287-0.023-2.584-0.001-3.876c0.021-1.283,0.205-2.572,0.123-3.844
		c-0.168-2.615,0.595-5.207,0.136-7.821C110.566,90.189,110.529,89.433,110.432,89.285 M117.394,104.437
		c0.125,0.325,0.016,0.995,0.004,1.395c-0.063,2.268-0.484,4.485-0.486,6.873c0,0.487-0.022,1.163,0.125,1.221
		c0.147,0.06,0.502-0.244,0.725-0.461c0.543-0.525,0.924-0.941,1.321-1.421c1.296-1.563,2.379-3.341,3.852-4.707
		c1.156-1.072,1.522-2.285,1.706-3.663c0.546-4.102,1.767-8.048,2.806-12.032c0.434-1.665-0.298-2.981-0.819-4.392
		c-0.093-0.251-0.386-0.475-0.641-0.613c-0.651-0.353-1.491-0.764-1.868-0.797c-0.377-0.031-3.432,1.1-5.043,1.75
		c-0.713,0.288-1.578,0.471-1.788,1.354c0,1.16-0.061,2.263,0.016,3.354C117.382,93.409,117.268,104.112,117.394,104.437"/>
	<path clip-path="url(#SVGID_2_)" fill="#231F20" d="M224.563,157.917c-0.29,0.336-2.164,0.434-2.613,0.338
		c-0.449-0.098-0.663-0.254-1-0.35c-0.886-0.252-1.462-0.822-1.828-1.655c-0.178-0.404-0.425-0.781-0.659-1.159
		c-0.568-0.917-1.238-1.729-2.048-2.47c-0.547-0.5-0.941-1.297-1.13-2.03c-0.325-1.264-0.558-2.536-0.299-3.905
		c0.217-1.144,0.041-2.362,0.019-3.547c-0.023-1.238,0-2.481-0.122-3.709c-0.177-1.786-0.195-3.562,0.021-5.34
		c0.013-0.099-0.006-0.2-0.015-0.302c-0.306-3.184,0.287-6.29,0.71-9.427c0.319-2.371,0.895-4.655,1.489-6.956
		c0.452-1.753,0.682-3.562,1.006-5.347c0.027-0.147,0.182-3.694,0.422-5.287c0.261-1.744,0.584-3.49,0.858-5.226
		c0.451-2.862,1.308-5.598,2.153-8.332c0.434-1.402,1.255-2.707,2.038-3.972c0.514-0.828,1.056-2.375,1.836-2.393
		c0.781-0.02,1.896-0.281,2.517-0.281c0.622,0,1.308,0.319,1.839,0.556c0.439,0.197,2.065,1.271,2.323,1.478
		c0.34,0.272,0.264,0.509,0.556,0.835c0.194,0.216,1.74,2.685,1.543,3.947c-0.204,1.3-0.59,2.51-1.414,3.566
		c-0.271,0.348-0.424,0.786-0.623,1.188c-0.287,0.58-0.593,1.152-0.841,1.75c-0.209,0.501-0.308,1.048-0.523,1.546
		c-1.295,2.991-1.549,6.243-2.222,9.376c-0.549,2.548-1.134,5.111-1.511,7.703c-0.035,0.242-0.036,0.507,0.021,0.743
		c0.277,1.144,0.005,2.268-0.152,3.383c-0.208,1.463-0.801,4.177-0.767,4.454c0.035,0.274,0.717,0.809,0.976,0.829
		c0.259,0.02,3.284-0.52,4.987-0.855c1.119-0.22,6.97-0.851,8.27-0.981c0.82-0.394,1.013-1.05,0.952-1.697
		c-0.314-3.272,0.611-6.347,1.462-9.424c0.52-1.872,0.759-3.786,1.098-5.687c0.253-1.417,0.465-2.842,0.683-4.266
		c0.291-1.9,0.757-3.776,0.508-5.736c-0.098-0.771-0.047-2.223,0.103-2.562c0.133-0.298,1.659-3.999,2.178-6.916
		c0.074-0.423,0.079-0.645,0.153-1.205c0.075-0.562,1.009-0.962,1.639-0.941c0.357,0.012,0.727,0.166,1.112,0.286
		c0.607,0.187,1.599,0.342,2,0.645c0.402,0.305,3.33,3.928,3.459,4.251c0.13,0.323,0.257,3.119-0.217,4.794
		c-0.158,0.561-0.403,1.105-0.481,1.677c-0.352,2.586-0.934,5.131-1.027,7.767c-0.083,2.306,0.105,4.641-0.445,6.927
		c-0.531,2.212-1.028,4.434-1.487,6.66c-0.248,1.203-0.429,2.425-0.546,3.647c-0.047,0.472,0.081,1.447,0.373,1.487
		c0.266,0.036,2.128,0.351,3.529,1.104c0.821,0.439,1.493,1.282,1.723,1.79c0.229,0.506-0.721,1.059-1.474,1.152
		c-0.998,0.122-1.995,0.269-2.998,0.341c-0.747,0.052-1.647,0.541-1.775,1.009c-0.13,0.466-0.331,2.148-0.447,3.285
		c-0.205,2.01-0.431,4.02-0.569,6.036c-0.14,2.071-0.116,4.157-0.299,6.225c-0.118,1.316-0.801,3.712-0.797,4.215
		c0.002,0.284,0.635,4.355,0.922,6.747c0.007,0.056,0.061,0.529-0.284,0.713c-0.933,0.498-1.352,0.54-1.934,0.565
		c-0.627,0.024-1.404-0.41-2.763-0.812c-0.069-0.021-0.289-0.088-0.438-0.398c-0.635-1.318-1.438-4.049-2.111-4.324
		c-0.673-0.274-1.633-1.416-2.25-2.542c-0.261-0.479-0.224-1.153-0.217-1.736c0.015-0.982,0.385-2.047,0.12-2.93
		c-0.501-1.664-0.133-3.305-0.297-4.924c-0.151-1.482,0.225-2.854,0.28-4.278c0.053-1.372,0.804-4.064,0.744-4.285
		c-0.059-0.219-0.599-0.718-1.001-0.808c-0.606-0.136-1.368-0.201-1.896,0.053c-1.411,0.678-2.932,0.394-4.379,0.679
		c-0.506,0.101-1.044,0.091-1.576,0.238c-1.2,0.333-2.359,0.12-3.499-0.396c-0.722-0.327-1.463-0.747-2.365-0.487
		c-0.106,0.032-0.274,0.201-0.404,0.381c-0.13,0.181-0.871,1.672-0.719,2.925c0.091,0.75-0.207,1.554-0.36,2.326
		c-0.237,1.203,0.151,2.4,0.086,3.571c-0.181,3.289,0.683,6.47,0.785,9.715c0.048,1.52-0.202,3.051-0.345,4.575
		C224.814,156.289,224.853,157.581,224.563,157.917"/>
	<path clip-path="url(#SVGID_2_)" fill="#231F20" d="M429.122,94.439c0.065-0.537-0.584-1.269,0.4-2.479
		c0.983-1.209,3.635,0.069,5.225-0.174c1.591-0.243,7.683,2.744,9.027,2.959c0.482,0.078,0.994,0.14,1.471,0.064
		c3.051-0.49,5.924,0.293,8.705,1.435c2.421,0.996,4.792,2.091,7.304,2.863c2.597,0.797,4.653,2.604,6.622,4.523
		c1.448,1.409,3.049,4.348,3.336,4.901c0.288,0.552,2.213,3.478,3.45,4.796c0.339,0.363,0.687,0.822,0.797,1.297
		c0.608,2.585,1.353,5.164,1.633,7.794c0.218,2.032,0.882,4.268,0.661,5.747c-0.219,1.482-1.082,8.488-1.277,12.877
		c-0.036,0.823-0.605,4.524-0.612,4.743c-0.048,1.708-1.105,2.821-1.798,4.38c-0.419,0.943-0.961,1.993-1.569,2.807
		c-0.709,0.951-1.647,1.927-2.583,2.598c-2.592,1.863-5.008,3.084-7.986,4.14c-1.071,0.381-7.401,1.235-8.396,1.356
		c-1.261,0.152-2.546,0.146-3.79,0.386c-1.056,0.203-2.063,0.204-3.117,0.035c-1.788-0.287-3.588-0.503-5.39-0.662
		c-0.434-0.039-0.947,0.209-1.081,0.509c-0.134,0.301,0.114,2.634-0.204,3.148c-0.137,0.22-1.049,0.977-1.193,1.01
		c-0.143,0.032-2.921,0.583-3.19,0.583c-0.272,0-2.324,0.298-3.421-0.35c-0.154-0.092-4.24-2.351-5.282-5.091
		c-0.157-0.412-0.509-2.326-0.477-3.761c0.027-1.204-0.55-4.464-0.512-4.856c0.236-2.384,0.575-4.76,0.721-7.147
		c0.154-2.512,0.11-5.037,0.195-7.553c0.047-1.363,0.166-2.724,0.29-4.079c0.099-1.094-0.277-2.124-0.141-3.271
		c0.24-2.041,0.087-4.134,0.105-6.204c0.024-2.53-0.021-5.065,0.113-7.592c0.088-1.657,0.208-6.572,0.14-7.366
		c-0.133-1.561,0.257-3.098,0.251-4.619c-0.011-2.867,0.81-5.55,1.248-8.313C428.832,95.648,429.059,94.976,429.122,94.439
		 M441.434,107.473c-0.039,0.353-0.64,4.137-0.887,5.534c-0.309,1.753-0.497,3.53-0.699,5.304c-0.178,1.543-0.47,3.101-0.414,4.641
		c0.12,3.438-0.032,6.874-0.009,10.309c0.012,1.43,0.055,2.884,0.315,4.277c0.598,3.197,0.85,6.396,0.511,9.635
		c-0.124,1.188-0.138,2.27-0.265,3.455c-0.091,0.854-0.109,2.344-0.145,2.698c-0.034,0.352-0.061,2.509,0.156,2.627
		c0.217,0.12,2.867-0.142,4.237-0.237c1.043-0.071,2.173,0.046,3.101-0.345c1.082-0.456,2.149-0.292,3.193-0.489
		c2.163-0.41,4.345-0.678,6.467-1.476c3.292-1.24,5.841-3.322,7.656-6.359c1.408-2.354,2.359-4.923,2.937-7.688
		c0.66-3.157,1.063-6.33,1.303-9.537c0.105-1.427,0.322-2.876,0.186-4.283c-0.323-3.283-0.815-6.547-1.269-9.815
		c-0.191-1.369-0.62-2.644-1.177-3.932c-0.745-1.73-1.946-3.065-2.916-4.596c-0.657-1.039-5.343-3.284-4.414-2.868
		s-3.443-0.852-4.661-1.531c-1.18-0.657-2.428-1.013-3.791-1.124c-2.565-0.208-8.385-1.33-8.389-0.337
		C442.458,101.757,441.659,105.469,441.434,107.473"/>
	<path clip-path="url(#SVGID_2_)" fill="#231F20" d="M92.646,111.504c-0.317,1.054-0.083,2.201,0.549,3.171
		c0.498,0.766,0.943,1.528,0.891,2.491c-0.036,0.653,0.351,1.045,0.78,1.376c0.107,0.082,0.557,0.663,0.569,0.893
		c0.065,1.312-0.699,2.984-0.559,3.76c0.098,0.541,0.575,1.425,0.67,1.672c0.096,0.245-0.123,1.751-0.087,2.669
		c0.047,1.222-0.482,2.5-0.915,3.698c-0.611,1.688-1.357,3.326-2.055,4.982c-0.561,1.33-1.02,2.681-1.393,4.086
		c-0.444,1.671-1.243,3.247-1.895,4.862c-0.035,0.086-0.122,0.156-0.197,0.219c-1.002,0.836-4.723,3.48-4.961,3.567
		c-1.398,0.504-2.579,1.34-3.772,2.158c-2.059,1.414-4.074,2.933-6.349,3.962c-1.579,0.716-3.343,0.976-5.089,1.088
		c-0.746,0.047-1.496,0.026-2.266,0.016c-0.737-0.012-1.034-0.569-1.232-0.854c-1.231-1.773-2.269-3.654-3.133-5.618
		c-0.914-2.076-1.675-4.224-2.425-6.366c-0.307-0.879-0.364-1.828-0.629-2.744c-0.58-2.002-0.94-4.084-1.197-6.157
		c-0.131-1.05,0.12-2.156,0.265-3.227c0.165-1.229,1.208-4.943,1.405-5.606c0.379-1.285,0.781-2.565,1.249-3.821
		c0.169-0.453,0.818-2.42,1.067-2.894c0.358-0.678,0.529-1.304,0.547-2.103c0.028-1.262,0.395-2.514,0.61-3.771
		c0.076-0.438,0.109-0.885,0.196-1.322c0.323-1.63,0.638-3.263,1.01-4.883c0.097-0.424,0.418-0.791,0.58-1.206
		c0.534-1.373,1.344-3.979,1.36-4.219c0.015-0.238,0.875-2.056,0.983-2.32c0.112-0.272,0.498-0.646,0.57-0.975
		c0.287-1.312,1.167-4.278,1.222-4.358c0.144-0.205,1.29-3.663,1.731-4.996c0.092-0.28,0.337-0.53,0.368-0.81
		c0.16-1.445,1.17-2.527,1.592-3.854c0.394-1.242,2.151-3.962,2.698-4.009c0.588-0.049,1.387,0.903,1.484,0.867
		c1.464-0.536,5.844,0.665,6.012,0.627c0.17-0.037,1.048-0.64,1.5-0.767c0.788-0.221,1.591,0.113,1.895,0.854
		c0.7,1.709,1.591,3.303,2.489,4.911c0.637,1.14,0.824,2.527,1.25,3.79c0.304,0.905,0.891,5.196,1.02,5.923
		c0.25,1.406,0.685,2.778,1.038,4.164c0.061,0.243,0.434,0.915,0.429,1.159C92.484,102.969,92.975,110.41,92.646,111.504
		 M72.503,151.445c0.148-0.048,0.288-0.098,0.421-0.159c3.465-1.62,6.164-4.067,7.809-7.542c0.678-1.433,1.438-2.819,2.012-4.321
		c0.608-1.59,1.183-3.144,1.419-4.831c0.067-0.48,0.302-0.943,0.498-1.398c0.395-0.919,0.934-1.794,1.2-2.746
		c0.625-2.228,1.404-4.392,2.336-6.557c0.05-0.114,0.189-0.408,0.148-0.759c-0.063-0.543,0.044-1.109,0.261-1.711
		c0.372-1.028,0.778-5.403,0.752-6.568c-0.005-0.249,0.083-1.424,0.127-1.549c0.22-0.626,0.013-1.131,0.22-1.734
		c0.223-0.646-0.095-5.39-0.237-5.801c-0.186-0.539-0.453-3.22-0.763-4.31c-0.405-1.425-1.118-5.122-1.113-5.302
		c0.016-0.553-0.013-1.104-0.093-1.649c-0.079-0.531-0.274-1.043-0.414-1.566c-0.102-0.378-0.191-0.761-0.3-1.137
		c-0.494-1.712-3.112-2.831-3.363-2.797c-0.25,0.033-0.759,0.455-0.891,0.79c-0.728,1.844-1.45,3.696-2.061,5.582
		c-0.457,1.409-0.726,2.877-1.109,4.31c-0.332,1.243-0.618,2.509-1.093,3.697c-0.351,0.879-0.37,1.912-0.815,2.652
		c-1.581,2.629-2.192,5.667-3.76,8.313c-0.941,1.59-1.365,3.522-1.829,5.35c-0.459,1.81-0.673,3.683-0.999,5.528
		c-0.121,0.684-1.621,10.125-1.847,10.861c-0.503,1.64-0.406,3.244-0.221,4.889c0.082,0.728,0.87,4.945,1.05,6.355
		c0.189,1.473,0.934,2.605,1.702,3.792C71.926,151.707,72.312,151.507,72.503,151.445"/>
	<path clip-path="url(#SVGID_2_)" fill="#231F20" d="M147.242,82.873c-0.984-1.361-3.065-2.938-2.688-3.791s2.178,0.154,3.12,0.493
		c0.687,0.247,1.323,0.718,1.89,1.197c0.896,0.758,1.86,1.334,3.018,1.554c0.339,0.064,0.684,0.101,1.028,0.132
		c0.491,0.044,0.984,0.068,1.475,0.106c0.836,0.065,2.52,0.108,2.838,0.227c0.317,0.119,4.158,0.598,4.71,0.772
		c1.079,0.333,6.341,0.902,6.549,0.893c0.207-0.009,4.335,0.555,6.212,0.354c0.268-0.027,1.24,0.291,1.639,0.346
		c0.398,0.052,2.561,0.388,3.094,0.526c0.435,0.113,4.946,0.198,5.265,0.225c0.32,0.025,2.505,0.406,3.964,0.142
		c0.556-0.1,4.033,0.271,4.189,0.281c0.268,0.017,5.554,0.385,5.959,0.527c0.866,0.304,1.616,0.487,2.462,0.531
		c0.352,0.02,1.815,0.631,2.246,0.858c0.243,0.128,3.306,1.214,3.643,1.32c0.337,0.104,4.902,1.345,5.15,1.58
		c0.344,0.324,1.244,1.145,1.295,1.7c0.05,0.556-0.447,2.11-0.708,2.369c-0.261,0.259-1.957,1.072-2.767,1.075
		c-0.811,0.004-2.95-0.605-3.97-0.814c-1.308-0.123-3.269-0.394-3.5-0.331c-0.232,0.062-1.699-0.063-2.217-0.092
		c-0.958-0.052-3.638-0.304-4.045-0.343c-0.704-0.065-3.878,0.117-4.417,0.056c-0.348-0.037-0.701-0.048-1.069-0.033
		c-0.826,0.029-1.411-0.126-2.199,0.154c-0.154,0.056-1.355,0.192-1.701,0.181c-1.133-0.037-2.27-0.12-3.401-0.073
		c-0.524,0.021-1.215,0.43-1.61,0.48c-0.395,0.052-0.795,1.437-0.656,1.716c0.14,0.278-0.078,2.108-0.149,3.033
		c-0.034,0.439-0.097,0.896-0.251,1.306c-0.373,0.993-0.487,2.003-0.488,3.055c-0.001,0.468-0.212,2.447-0.287,2.973
		c-0.174,1.222-0.179,2.497-0.292,3.765c-0.118,1.315,0.034,2.63-0.331,3.97c-0.49,1.801-0.75,3.674-0.488,5.605
		c0.261,1.927,0.214,3.893,0.39,5.836c0.148,1.634,0.098,3.252-0.031,4.88c-0.03,0.383,0.502,3.564,0.504,3.812
		c0.001,0.249,0.829,3.783,1.105,5.147c0.108,0.533,0.269,1.058,0.436,1.577c0.762,2.361,1.803,6.377,1.542,7.231
		c-0.259,0.856-1.766,1.312-2.286,1.468c-0.521,0.156-3.303-1.587-4.784-2.688c-0.482-0.36-2.224-1.119-2.424-1.399
		c-0.694-0.976-1.372-1.966-2.083-2.93c-1.136-1.542-1.958-3.191-2.251-5.127c-0.243-1.613-0.372-3.24-0.504-4.855
		c-0.123-1.516,0.157-3.062,0.262-4.596c0.013-0.197,0.071-0.395,0.059-0.59c-0.149-2.346-0.188-4.709-0.502-7.034
		c-0.246-1.812,0.141-3.562,0.137-5.344c-0.003-0.876,0.15-1.754,0.246-2.629c0.102-0.932,0.178-1.868,0.341-2.788
		c0.276-1.562,0.701-3.104,0.891-4.672c0.141-1.172,0.015-2.368,0.333-3.54c0.372-1.37,0.348-2.812,0.765-4.194
		c0.269-0.891,0.648-1.988-0.078-2.94c-0.154-0.202-0.955,0.069-1.44,0.144c-0.849,0.129-1.653,0.111-2.515-0.124
		c-0.875-0.237-3.661-0.037-4.086-0.101c-1.315-0.2-2.611-0.608-3.929-0.679c-1.299-0.069-2.524-0.439-3.781-0.597
		c-1.175-0.146-2.06-0.638-2.909-1.328c-0.691-0.56-1.369-1.145-2.002-1.77c-1.808-1.789-2.998-3.9-3.361-6.458
		C147.702,83.936,147.382,83.294,147.242,82.873"/>
	<path clip-path="url(#SVGID_2_)" fill="#231F20" d="M367.445,87.607c2.226,1.014,2.462,6.463,2.673,6.747
		c0.212,0.284,1.357,1.326,2.375,1.656c0.469,0.15,0.935,0.688,1.155,1.166c0.913,1.965,1.303,4.056,1.303,6.23
		c0,1.368,0.104,2.736,0.141,3.582c-0.142,2.104-0.275,3.698-0.351,5.295c-0.061,1.252-0.053,2.509-0.068,3.763
		c-0.022,1.566-0.026,3.136-0.059,4.704c-0.028,1.352-0.145,2.705-0.116,4.055c0.039,1.968-0.316,3.913-0.166,5.896
		c0.14,1.864,0.02,3.757-0.084,5.631c-0.098,1.746-0.327,3.486-0.492,5.23c-0.019,0.201-0.017,0.409,0.004,0.611
		c0.157,1.47,0.545,2.96,0.418,4.404c-0.131,1.502,0.531,2.895,0.284,4.368c-0.03,0.173,0.099,0.369,0.136,0.56
		c0.112,0.562,0.213,1.128,0.3,1.7c0.139,0.681,0.485,1.401,0.361,2.029c-0.169,0.862,0.693,2.063-0.239,2.481
		c-0.931,0.417-1.802,0.66-2.111,0.66c-0.312,0-1.82-0.305-2.36-0.489c-0.539-0.188-0.556-2.828-1.797-4.417
		c-0.767-1.442-2.546-1.967-2.842-2.332c-0.46-0.565-0.232-1.084-0.163-1.473c0.067-0.391-0.356-5.777-0.312-5.988
		c0.324-1.562-0.415-2.947,0.097-4.544c0.36-1.131,0.34-2.39,0.438-3.595c0.029-0.338-0.062-0.993-0.214-1.136
		c-0.152-0.141-0.838,0.047-1.233,0.062c-0.701,0.023-1.42,0.142-2.104,0.043c-2.614-0.382-5.218-0.829-7.823-1.269
		c-0.342-0.058-0.666-0.222-1.005-0.311c-0.805-0.214-1.905,0.094-2.124,0.808c-0.385,1.257-1.454,1.95-2.146,2.943
		c-0.444,0.638-0.738,1.313-1.093,1.984c-1.189,2.255-2.541,4.423-3.763,6.659c-0.854,1.563-1.832,3.073-2.315,4.814
		c-0.229,0.832-0.142,2.71-0.644,2.653c-0.501-0.06-3.685-0.113-4.25-0.617c-0.566-0.505-1.544-2.544-1.604-2.983
		c-0.062-0.438-0.287-3.231-0.517-3.693c-0.227-0.463-2.604-1.216-2.495-1.745c0.11-0.531,0.52-0.531,0.742-0.801
		c0.325-0.395,0.72-0.765,0.922-1.218c0.479-1.066,0.845-2.183,1.284-3.269c0.533-1.319,1-2.648,2.13-3.662
		c0.532-0.479,2.028-1.91,2.156-1.944c0.331-0.089,2.413-2.74,3.425-4.291c2.237-3.424,4.005-7.096,5.844-10.732
		c1.49-2.947,3.1-5.836,4.52-8.816c1.053-2.21,1.878-4.526,2.821-6.788c0.648-1.553,1.351-3.085,1.985-4.642
		c0.674-1.651,1.262-3.337,1.955-4.98c0.472-1.121,1.589-3.142,1.626-3.353c0.039-0.211,0.684-1.433,1.393-1.788
		C364.15,87.109,366.15,87.019,367.445,87.607 M366.194,127.741c0.142-0.208,0.009-22.759,0-22.945
		c-0.01-0.188-0.11-0.254-0.308-0.071c-0.196,0.184-1.132,2.086-1.655,3.151c-0.54,1.096-1.059,2.206-1.525,3.335
		c-0.467,1.131-0.809,2.313-1.296,3.435c-0.456,1.049-1.055,2.036-1.549,3.07c-0.526,1.097-0.979,2.229-1.514,3.323
		c-0.536,1.099-1.165,2.154-1.688,3.261c-0.505,1.062-1.406,3.016-1.238,3.243c0.167,0.226,2.815,0.88,4.24,1.123
		c1.941,0.333,3.873,0.392,5.705-0.468C365.644,128.067,366.052,127.948,366.194,127.741"/>
	<path clip-path="url(#SVGID_2_)" fill="#231F20" d="M403.567,137.394c-0.026,0.219,2.105,2.209,2.37,2.513
		c0.267,0.305,0.589,0.984,0.714,1.271c0.632,1.438,1.591,2.688,2.193,4.166c0.735,1.803,1.854,3.448,2.75,5.191
		c1.068,2.083,2.034,4.221,3.129,6.289c0.397,0.75,1.429,1.722,1.722,1.936c0.531,0.389-0.063,0.539-0.085,1.081
		c-0.014,0.351,0.294,0.867,0.014,1.123c-0.716,0.649-1.409-0.187-2.041-0.423c-3.144-1.185-4.815-3.764-6.159-6.663
		c-0.616-1.328-1.433-2.564-2.159-3.841c-0.133-0.235-0.29-0.459-0.413-0.699c-1.332-2.61-2.625-5.238-4.006-7.82
		c-0.464-0.867-1.042-1.737-1.768-2.38c-0.806-0.713-2.373-1.595-3.116-1.772s-1.177-1.125-1.71-1.27
		c-0.532-0.146-0.965,0.972-0.929,1.606c0.185,3.151-0.639,6.195-0.864,9.299c-0.15,2.056,0.199,5.854,0.164,6.338
		c-0.06,0.796-0.729,3.102-1.086,3.18c-0.358,0.079-1.178,0.429-1.823,0.191c-0.647-0.238-2.824-3.433-4.137-3.668
		c-0.824-0.15-0.826-0.91-0.818-1.034c0.007-0.124,0.337-4.985,0.513-7.478c0.011-0.163,0.033-0.331,0.087-0.483
		c0.554-1.561,0.722-3.166,0.786-4.82c0.08-2.011,0.371-4.015,0.581-6.021c0.17-1.624,0.572-3.259,0.477-4.865
		c-0.106-1.783,0.244-3.472,0.453-5.196c0.275-2.262,0.622-4.518,0.834-6.787c0.137-1.451,0.273-5.575,0.406-6.154
		c0.61-2.65,0.757-5.383,1.303-8.027c0.562-2.723,0.83-5.5,1.577-8.18c0.203-0.726,0.655-1.877,0.988-2.117
		c0.334-0.24,2.303-0.445,2.792-0.445c0.491,0,1.348,1.159,1.743,1.248c0.393,0.088,3.186-0.433,4.87-0.403
		c1.429,0.025,5.381,0.762,5.883,0.958c1.373,0.538,2.642,1.171,3.646,2.38c1.268,1.523,4.072,5.523,4.301,5.832
		c0.457,0.62,1.702,5.143,2.32,6.586c0.447,1.042,0.522,2.247,0.738,3.385c0.229,1.191,0.493,2.384,0.621,3.589
		c0.132,1.244,0.128,2.503,0.169,3.756c0.024,0.71,0.158,1.454-0.001,2.125c-0.571,2.419-1.104,4.812-2.589,6.962
		c-1.339,1.936-3.005,3.352-4.87,4.695c-1.646,1.183-3.498,1.959-5.215,2.988c-0.866,0.52-1.949,0.664-2.916,1.022
		C404.469,136.755,403.595,137.176,403.567,137.394 M395.535,130.955c0.274,0.39,1.363,0.218,2.171,0.017
		c1.882-0.471,4.686-1.687,6.836-3.363c0.562-0.438,1.132-0.886,1.752-1.234c2.512-1.407,4.381-3.378,5.969-5.809
		c1.895-2.902,1.941-5.963,1.471-9.115c-0.319-2.15-0.637-4.308-1.386-6.41c-0.567-1.595-1.055-3.192-1.973-4.619
		c-0.381-0.592-1.015-1.06-1.261-1.69c-0.834-2.14-2.612-2.402-4.552-2.351c-0.844,0.021-1.734-0.352-2.114-0.466
		c-0.307-0.092-2.808,0.114-3.291,0.353c-0.482,0.236-0.598,0.638-0.589,0.971c0.429,1.883-0.394,3.765-0.49,5.654
		c-0.048,0.919-0.187,1.838-0.189,2.757c-0.009,1.68,0.262,3.389,0.032,5.031c-0.31,2.196-0.219,4.417-0.734,6.612
		c-0.542,2.313-0.558,4.746-0.932,7.106c-0.212,1.335-0.275,2.694-0.86,3.994C395.026,129.21,395.027,130.237,395.535,130.955"/>
	<path clip-path="url(#SVGID_2_)" fill="#231F20" d="M146.268,52.281c-0.013-0.017,0-0.047,0.006-0.065
		c0.323-1.103,1.409-1.177,1.998-1.855c0.728-1.429,0.551-2.898,0.187-4.432c-0.274-1.153-0.272-2.371-0.399-3.559
		c-0.058-0.548-0.092-1.104-0.204-1.642c-0.335-1.614-0.297-3.238-0.211-4.869c0.042-0.786-0.502-1.014-0.039-2.359
		c0.208-0.607,0.045-1.082-0.038-2.269c-0.101-1.444-0.178-3.669-0.509-4.998c-0.515-2.07-0.795-4.252-0.779-6.381
		c0.011-1.336-0.266-4.671-0.325-5.017c-0.081-0.475-0.223-0.954-0.211-1.428c0.064-2.475-0.156-4.936-0.28-7.403
		c-0.027-0.536,0.092-0.784,0.155-1.545c0.063-0.76,0.852-2.219,1.002-2.459c0.394-0.633,2.595-0.998,3.331-1.295
		c0.546-0.22,1.099-0.602,1.648-0.599c1.322,0.009,2.632-0.246,3.974,0.008c1.749,0.331,4.735,0.634,4.982,0.597
		c0.247-0.037,0.874,0.026,1.251,0.278c0.156,0.103,0.414,0.218,0.857,0.361c1.735,0.559,3.255,0.705,4.895,1.601
		c1.747,0.955,3.591,1.731,5.387,2.595c0.315,0.152,0.62,0.33,0.913,0.521c1.797,1.171,3.624,2.301,5.375,3.538
		c1.702,1.201,3.33,2.507,4.979,3.782c0.989,0.764,2.058,1.459,2.912,2.356c1.57,1.65,2.877,3.495,3.758,5.642
		c0.715,1.744,0.825,3.591,1.219,5.389c0.454,2.074,0.249,4.167,0.239,6.26c-0.007,1.585-0.051,3.157-0.188,4.742
		c-0.129,1.493-0.609,2.834-1.202,4.143c-0.505,1.117-1.303,2.102-1.802,3.221c-0.416,0.933-1.104,1.505-1.863,2.096
		c-0.785,0.611-1.574,1.253-2.218,2.005c-1.334,1.556-3.149,2.413-4.818,3.475c-1.087,0.691-2.246,1.282-3.416,1.822
		c-1.027,0.474-2.074,0.895-3.221,1.086c-1.718,0.287-3.329,1.057-5.096,1.181c-1.312,0.092-2.623,0.229-3.927,0.395
		c-1.097,0.14-2.18,0.386-3.277,0.521c-0.837,0.102-1.686,0.135-2.531,0.145c-1.424,0.017-2.827,0.072-4.253,0.292
		c-1.108,0.171-2.349-0.211-3.464-0.56c-0.481-0.15-0.933-0.779-1.152-1.295c-0.48-1.136-1.096-2.069-2.209-2.695
		c-0.533-0.3-0.886-0.798-1.366-1.261C146.325,52.334,146.28,52.298,146.268,52.281 M156.591,23.702
		c0.109,1.047,0.367,2.079,0.455,3.127c0.124,1.478,0.087,2.971,0.238,4.446c0.154,1.491,0.492,2.951,0.393,4.478
		c-0.086,1.329,0.014,2.671,0.06,4.007c0.032,0.894,0.24,1.8,0.141,2.676c-0.117,1.017,0.021,1.981,0.176,2.962
		c0.087,0.546,0.189,1.09,0.284,1.636c0.162,0.931,0.322,1.863,0.975,2.488c1.476,0.142,4.477-1.003,4.576-1.018
		c1.605-0.241,2.753-0.827,4.158-1.607c0.559-0.31,1.2-0.474,1.809-0.691c0.28-0.1,0.601-0.118,0.854-0.26
		c2.735-1.547,5.041-3.577,6.857-6.149c0.319-0.451,0.661-0.895,0.91-1.384c1.234-2.426,1.563-5.101,1.948-7.734
		c0.305-2.084,0.437-4.208,0.463-6.316c0.037-3.051-0.106-6.1-1.866-8.736c-1.751-0.896-2.799-1.74-3.751-2.95
		c-0.754-0.455-1.316-0.903-1.954-1.162c-3.433-1.393-6.486-3.521-9.852-5.03c-1.223-0.548-2.468-0.956-3.915-0.632
		c-1.392,0.312-2.952,0.712-4.294,0.453c-0.358-0.069-0.455,0.384-0.435,0.45c0.247,0.835,0.54,1.377,0.639,2.125
		c0.117,0.877-0.093,1.834-0.026,2.72c0.17,2.256,0.383,4.508,0.553,6.764c0.03,0.4,0.027,0.497,0,0.931
		c-0.022,0.351-0.025,0.36,0.023,0.53C156.062,20.008,156.485,22.671,156.591,23.702"/>
	<path clip-path="url(#SVGID_2_)" fill="#231F20" d="M321.686,8.045c0.983-0.242,1.883-0.066,2.778,0.294
		c0.778,0.313,1.544,0.654,2.328,0.947c0.272,0.101,0.636,0.055,0.818,0.129c0.545,0.219,1.375,1.161,2.196,1.837
		c0.357,0.293,0.418,0.94,0.393,1.048c-0.192,0.766,0.001,1.309-0.507,1.986c-0.155,0.207-0.6,0.35-0.759,0.384
		c-0.727,0.152-1.039,0.562-1.753,0.716c-0.696,0.15-3.01,0.701-3.27,0.783c-2.192,0.685-4.427,0.661-6.665,1.059
		c-1.664,0.295-3.363,0.483-5.049,0.507c-0.955,0.014-1.915-0.344-3.027-0.593c-0.056-0.013-0.157,0.072-0.148,0.127
		c0.061,0.423,0.265,0.978,0.322,1.381c0.068,0.464,0.185,1.117,0.248,1.572c0.231,1.623,0.699,2.887,0.616,4.572
		c-0.034,0.688,0.278,0.988,0.506,1.681c0.343,1.037,0.519,2.403,0.248,3.598c-0.01,0.047,0.122,0.171,0.185,0.162
		c0.896-0.125,1.554-0.106,2.3-0.5c0.694-0.366,1.458-0.484,2.31-0.358c1.472,0.215,2.975,0.205,4.459,0.333
		c1.249,0.107,2.257,0.77,3.111,1.62c0.474,0.473,1.03,1.107,0.451,1.913c-0.015,0.02-0.096,0.151-0.284,0.099
		c-0.392-0.107-1.287,0.294-1.828,0.406c-0.162,0.034-0.809,0.078-0.978,0.089c-0.445,0.03-0.888,0.111-1.336,0.211
		c-0.516,0.115-1.05,0.369-1.305,0.43c-0.163,0.038-1.191,0.401-1.269,0.47c-0.021,0.018-0.739,0.091-0.825,0.091
		c-0.41,0-0.38-0.103-0.79-0.103c-0.499,0-0.712,0.06-1.227,0.06c-0.428,0-0.936-0.069-1.383-0.084
		c-0.089-0.002-0.157,0.107-0.135,0.239c0.488,2.764,1.142,5.415,0.4,7.811c-0.029,0.093-0.114,0.692-0.021,1.125
		c0.241,1.105-0.091,1.271-0.056,1.993c0.032,0.694,0.188,1.739,0.292,1.813c0.103,0.074,2.451,0.471,3.743,0.172
		c2.305-0.533,4.666-0.526,7.001-0.189c1.52,0.219,3.077,0.716,4.559,1.002c1.216,0.233,2.244,0.608,3.452,0.859
		c0.462,0.097,1.213,0.348,1.307,0.473c0.147,0.193,0.188,1.673-0.095,1.833c-0.31,0.176-2.368,0.467-3.635,0.496
		c-1.184,0.028-6.043,1.148-6.584,1.271c-0.541,0.122-3.544-0.413-5.172,0.384c-1.269,0.621-2.611,0.679-3.908,1.028
		c-1.133,0.303-2.23,0.646-3.004,1.464c-0.148,0.156-0.264,0.404-0.406,0.524c-0.142,0.119-0.512,0.212-0.778,0.277
		c-2.648,0.647-5.827-1.393-6.684-3.637c-0.792-2.072-1.031-2.06-2.555-3.275c-0.454-0.362-0.893-1.341-0.909-2.21
		c-0.011-0.547,0.648-4.925,0.516-6.331c-0.152-1.628-0.608-3.227-0.938-4.837c-0.271-1.322-0.61-2.634-0.806-3.966
		c-0.268-1.828-0.405-3.674-0.648-5.505c-0.071-0.532-0.407-1.033-0.451-1.562c-0.134-1.616-0.9-3.107-0.772-4.792
		c0.078-1.026-0.196-2.092-0.396-3.123c-0.326-1.666-0.275-3.34-0.247-5.019c0.006-0.343,0.055-0.818-0.348-1.129
		c-1.598-1.233-1.848-2.109-0.902-3.705c0.139-0.233,0.476-0.165,0.537-0.138c0.497,0.224,0.743,0.438,1.323,0.699
		c0.104,0.047,0.465,0.141,0.542,0.143c1.207,0.031,3.188,0.628,6.407,1.976c0.097,0.041,0.481,0.091,0.577,0.074
		c1.638-0.282,3.368-0.575,5.097-0.883c1.779-0.316,3.568-0.596,5.332-0.991C315.95,8.881,321.029,8.207,321.686,8.045"/>
	<path clip-path="url(#SVGID_2_)" fill="#231F20" d="M210.558,7.82c0.287-0.656,0.944-0.817,1.036-1.312
		c0.093-0.496,0.28-1.165,0.61-1.443c0.819-0.691,1.47-0.623,2.372-0.964c0.902-0.341,2.392-0.252,3.271-0.195
		c0.985,0.064,1.51,0.229,2.458,0.477c0.948,0.248,2.121,0.755,2.93,1.192c0.876,0.472,3.347,6.328,3.524,6.61
		c0.89,1.413,0.822,2.727,1.437,4.242c0.576,1.417,0.928,2.924,1.403,4.382c0.136,0.419,0.38,0.801,0.536,1.214
		c0.625,1.662,1.196,3.345,1.862,4.991c0.665,1.645,1.38,3.274,2.144,4.876c1.21,2.536,1.931,5.201,2.328,7.972
		c0.233,1.621,0.305,3.239,0.219,4.877c-0.033,0.636,0.232,1.234,0.423,1.852c0.308,0.995,1.065,2.761,0.985,3.144
		c-0.079,0.384-0.562,1.228-0.869,1.393c-0.308,0.166-3.325,0.137-3.674,0.104c-0.348-0.033-0.863-0.639-1.071-1.001
		c-0.539-0.941-0.705-1.514-1.278-2.43c-0.305-0.488-0.284-0.981-0.76-1.324c-0.439-0.317-1.487-0.674-1.831-0.991
		c-0.608-0.561-0.855-1.932-1.121-3.547c-0.507-3.083-0.667-6.861-0.749-7.367c-0.041-0.256-1.017,0.266-1.527,0.389
		c-0.621,0.15-1.198,0.39-1.819,0.541c-1.891,0.462-3.645,0.917-5.55,1.313c-1.592,0.332-2.982,0.052-3.374-0.438
		c-0.392-0.489-0.417-1.194-0.599-1.366c-0.183-0.172-0.805,0.151-0.826,0.59c-0.05,1.028-0.028,2.064-0.144,3.084
		c-0.059,0.527-0.37,1.023-0.531,1.545c-0.605,1.958-0.902,3.72-1.493,5.682c-0.257,0.855-0.478,1.883-0.76,2.729
		c-0.122,0.368-0.461,1.022-0.737,1.209c-0.276,0.187-1.233,0.669-1.463,1.14c-0.185,0.381-0.69,0.749-0.748,1.002
		c-0.057,0.254-0.005,1.091-0.242,1.44c-0.236,0.348-1.984,0.383-2.842,0.074c-0.752-0.271-1.565-0.567-2.166-1.249
		c-0.362-0.411-1.419-0.44-1.555-0.922c-0.136-0.48-0.178-0.902-0.174-1.424c0.006-0.797-0.006-1.595,0.034-2.389
		c0.03-0.595,0.047-1.213,0.218-1.774c0.527-1.722,1.08-3.439,1.718-5.121c0.253-0.667,0.485-1.281,0.476-2.015
		c-0.007-0.524,0.262-1.047,0.345-1.58c0.097-0.623,0.082-1.263,0.187-1.884c0.35-2.06,0.712-4.118,1.106-6.17
		c0.427-2.221,0.873-4.437,1.363-6.644c0.121-0.548,0.374-1.094,0.681-1.567c0.928-1.432,0.972-3.138,1.534-4.679
		c0.359-0.987,0.748-1.967,1.054-2.971C209.441,11.363,210.284,8.445,210.558,7.82 M224.585,29.523
		c0.446-0.584,0.165-1.413-0.176-2.143c-0.941-2.018-1.944-4.014-2.765-6.081c-0.787-1.98-1.673-3.931-2.088-6.052
		c-0.155-0.791-0.877-2.529-0.971-2.565c-0.095-0.037-0.489,0.805-0.637,1.13c-0.515,1.132-0.969,2.294-1.523,3.407
		c-1.407,2.827-2.288,5.807-2.645,8.938c-0.067,0.585,0.211,1.253,0.022,1.771c-0.437,1.191,0.015,3.361,0.405,3.36
		c0.2,0,2.724-0.543,5.262-1.025C222.198,29.746,224.369,29.808,224.585,29.523"/>
	<path clip-path="url(#SVGID_2_)" fill="#231F20" d="M285.756,57.064c0.697,0.427,1.967,2.367,2.078,2.698
		c0.11,0.331-0.068,1.259-0.258,1.425c-0.353,0.305-2.643,0.678-3.547,0.68s-2.195-1.017-4.129-2.471
		c-1.539-1.158-3.147-2.672-4.243-3.744c-2.241-2.195-4.432-4.461-6.842-6.457c-1.462-1.212-2.579-2.592-3.646-4.119
		c-1.243-1.78-3.469-4.869-4.013-5.145c-0.544-0.277-0.21,0.684-0.229,1.231c-0.007,0.224-0.312,3.628-0.467,5.985
		c-0.084,1.286-0.425,2.643,0.05,3.952c0.162,0.448,0.584,1.054,0.452,1.52c-0.319,1.117-1.242,0.808-1.808,0.755
		c-0.227-0.022-1.533-0.359-1.722-0.398c-0.429-0.087-0.604-0.053-0.768-0.263c-0.355-0.456-1.432-2.144-2.179-3.189
		c-0.259-0.361-0.657-0.62-0.92-0.978c-0.375-0.509-0.707-1.054-1.016-1.607c-0.762-1.37-1.135-2.745-0.795-4.396
		c0.199-0.959-0.109-3.813,0.029-4.599c0.14-0.804,0.004-1.998,0.045-2.708c0.174-3.038-0.844-5.935-1.186-8.914
		c-0.11-0.982-0.282-1.992-0.16-2.955c0.098-0.772,0.073-1.491-0.104-2.211c-0.346-1.402,0.004-2.769,0.18-4.135
		c0.13-1.007-0.291-1.891-0.308-3.236c-0.019-1.344,1.437-2.291,1.827-2.47c0.389-0.178,2.044-0.718,3.128-1.391
		c0.438-0.273,1.051-0.457,1.555-0.402c1.335,0.146,2.908,0.158,4.258,0.239c1.849,0.11,3.475,0.283,5.294,0.487
		c2.065,0.232,4.246,0.472,5.958,2.014c0.617,0.557,1.445,0.877,2.17,1.317c1.171,0.712,2.15,1.637,2.919,2.766
		c0.582,0.856,1.155,1.736,1.675,2.633c0.171,0.294,0.383,0.713,0.427,1.048c0.291,2.225,0.638,4.381,0.724,6.615
		c0.069,1.789-0.526,3.543-1.591,5.055c-0.978,1.388-1.869,2.856-2.983,4.126c-1.062,1.208-2.545,1.922-4.017,2.566
		c-0.946,0.415-4.047,0.807-4.566,0.654c-0.767-0.225-1.345,0.023-1.373,0.162c-0.047,0.22,0.621,0.524,1.357,0.904
		c0.657,0.339,0.799,0.837,1.276,1.136c1.812,1.137,3.119,2.674,4.169,4.532c1.334,2.357,3.289,4.233,5.342,5.95
		c1.33,1.112,2.89,1.947,4.342,2.914C282.351,54.778,285.059,56.639,285.756,57.064 M258.443,28.371
		c0.084,0.335,0.182,3.012,0.431,3.955c2.178,0.316,2.178,0.316,4.207-0.237c0.096-0.027,0.196-0.044,0.294-0.068
		c2.668-0.664,5.266-1.51,7.03-3.788c0.94-1.216,1.919-2.501,2.44-3.917c0.515-1.391,0.21-5.111,0.223-5.408
		c0.036-0.961-0.377-1.734-0.872-2.527c-0.645-1.029-6.242-1.917-8.021-1.998c-0.683-0.032-1.526,0.039-2.002-0.324
		c-0.682-0.521-1.251-0.414-1.917-0.444c-0.404-0.018-0.449-0.085-0.896,0.112c-0.088,0.038-1.479,0.614-1.661,0.75
		c-0.1,0.074-0.127,0.276-0.125,0.309C257.755,17.874,258.256,27.625,258.443,28.371"/>
	<path clip-path="url(#SVGID_2_)" fill="#231F20" d="M52.774,134.523c-0.129-0.728-0.4-1.433-0.496-2.161
		c-0.172-1.309-0.324-7.245-0.728-8.172c-0.572-1.308-0.887-3.561-0.997-3.897c-0.11-0.338-2.687-6.877-3.043-8.372
		c0.049-1.163-0.053-2.792-0.553-4.377c-0.427-1.354-0.594-2.722-0.369-4.137c0.21-1.319,0.681-2.652,0.606-3.959
		c-0.07-1.232,0.409-2.406,0.203-3.661c-0.015-0.091,0-0.504-0.022-0.597c-0.144-0.598-0.682-1.609-1.025-2.015
		c-0.342-0.403-1.275-5.533-1.315-7.871c-0.011-0.641-0.107-2.522-0.11-2.677c-0.006-0.349,0.019-0.921,0.035-1.267
		c0.011-0.247-0.138-1.416,0.322-1.733c0.074-0.05-0.048-0.498-0.115-0.575c-1.158-1.334-1.728-1.636-3.349-1.763
		c-0.931-0.072-2.01-0.172-2.956,0.518c-0.06,0.043-0.158,0.236-0.159,0.27c-0.012,0.51-0.109,1.091,0.025,1.613
		c0.382,1.502,1.868,9.45,1.753,11.206c-0.039,0.587,0.673,3.689,0.67,3.822c-0.002,0.133,0.039,0.227,0.077,0.326
		c0.165,0.435,0.342,0.814,0.356,1.199c0.036,0.983-0.06,1.972-0.097,2.832c-0.131,0.987-0.169,1.876-0.377,2.722
		c-0.606,2.465-1.076,4.938-0.906,7.495c0.019,0.282-0.167,0.575-0.165,0.862c0.009,1.732-0.819,3.404-0.406,5.16
		c0.242,1.026,0.369,5.164,0.403,5.302c0.035,0.136,0.061,3.75,0.111,4.584c0.09,1.54,0.359,3.045,0.263,4.628
		c-0.155,2.571,0.113,5.167,0.183,7.754c0.028,1.049,0.035,3.057,0.004,3.15c-0.03,0.09-0.264,0.142-0.345,0.122
		c-0.106-0.023-0.442-0.504-0.594-0.806c-0.643-1.282-1.291-2.562-1.879-3.872c-0.731-1.625-1.424-3.268-2.097-4.919
		c-0.503-1.231-0.911-2.505-1.428-3.73c-0.939-2.235-2.34-4.235-3.096-6.592c-0.405-1.265-1.298-2.419-1.89-3.681
		c-0.41-0.873-0.827-1.541-0.947-2.283c-0.018-0.11,0.069-0.87-0.266-1.129c-0.398-0.308-0.724-0.841-0.989-1.396
		c-0.271-0.574-0.328-1.275-0.678-1.783c-1.164-1.699-1.798-3.648-2.696-5.469c-1.008-2.044-1.82-4.183-2.443-6.384
		c-0.524-1.851-0.971-3.729-1.619-5.536c-0.359-1.003-0.43-2-0.575-3.018c-0.119-0.83-0.511-1.621-0.63-2.451
		c-0.249-1.734-1.522-2.357-2.682-3.262c-0.108-0.084-1.753-1.034-2.326-1.28c-0.203-0.087-0.468-0.086-0.602-0.103
		c-1.865-0.235-3.685-0.951-5.51-0.531c-0.149,0.035-3.557-0.217-4.186-0.566c-0.303-0.168-0.251-0.556-1.043-0.455
		c-0.792,0.102-1.07,0.853-0.936,1.834c0.182,1.342-0.325,2.793,0.62,4.02c0.038,0.051-0.054,0.188-0.049,0.281
		c0.124,2.249,0.237,4.498,0.385,6.746c0.161,2.44,0.501,9.393,0.551,10.281c0.05,0.887,0.004,1.777-0.001,2.666
		c-0.006,0.985,0.32,1.971,0.258,2.913c-0.053,0.804-0.1,1.576,0.021,2.369c0.037,0.244,0.02,0.497,0.018,0.746
		c-0.006,0.69-0.094,1.39-0.008,2.068c0.136,1.071,0.202,2.153,0.297,3.224c0.127,1.412-0.139,2.855-0.1,4.282
		c0.055,2.035-0.094,6.944-0.138,7.396c-0.19,1.966-0.778,3.876-0.626,5.897c0.084,1.116-0.212,2.256-0.175,3.38
		c0.033,1.001-0.062,1.959-0.225,2.945c-0.2,1.214-0.178,2.464-0.29,3.693c-0.137,1.511,0.007,3.107-1.241,4.303
		c-0.55,0.526-0.493,1.159-0.306,1.744c0.506,0.34,0.955,0.642,1.33,0.894c0.333,1.539,0.674,2.94,0.928,4.357
		c0.159,0.888,0.381,1.711,1.09,2.25c1.322,0.749,2.68,0.633,4.019,0.243c0.723-0.951,1.006-1.963,0.94-3.118
		c-0.051-0.883,0.047-1.773,0.095-2.659c0.013-0.242,0.159-0.496,0.116-0.721c-0.299-1.534-0.001-3.051,0.123-4.568
		c0.209-2.557,0.401-5.115,0.694-7.66c0.232-2.013,0.72-4.004,0.266-6.045c-0.031-0.138,0.024-0.295,0.037-0.443
		c0.124-1.377,0.393-2.763,0.06-4.131c-0.279-1.147-0.356-5.193-0.377-5.831c-0.013-0.381-0.087-0.759-0.106-1.141
		c-0.078-1.538-0.123-3.079-0.226-4.616c-0.074-1.102-0.43-2.23-0.276-3.291c0.158-1.091-0.099-2.076-0.176-3.11
		c-0.083-1.123-0.356-2.236-0.03-3.388c0.181-0.635,0.282-1.196,0.215-2.156c-0.002-0.029,0.037-0.127,0.054-0.144
		c0.336-0.354,0.468-0.543,0.744-0.866c0.019-0.021,0.082-0.017,0.095,0.006c0.895,1.681,1.756,3.264,2.582,4.865
		c0.361,0.7,0.663,1.433,0.964,2.163c0.488,1.187,0.727,2.448,1.32,3.622c0.954,1.888,1.419,4.033,3.049,5.555
		c0.103,0.096,0.146,0.257,0.191,0.34c-0.024,0.368-0.045,0.707-0.059,0.928c-0.005,0.076-0.027,0.121-0.012,0.184
		c0.015,0.061,0.053,0.092,0.079,0.138c0.469,0.804,0.966,1.378,1.095,2.028c0.393,1.966,1.866,3.492,2.135,5.489
		c0.013,0.093,0.078,0.19,0.146,0.262c0.667,0.687,2.26,6.093,2.46,6.357c1.241,1.631,1.465,3.777,2.798,5.372
		c0.593,0.709,1.19,1.542,1.405,2.413c0.351,1.429,1.353,2.545,1.646,3.979c0.086,0.419,0.39,0.793,0.594,1.187
		c0.658,1.271,1.369,2.519,1.957,3.819c0.431,0.956,0.834,1.903,1.509,2.724c0.237,0.29,0.366,0.696,0.462,1.071
		c0.287,1.12,1.406,3.789,1.931,3.867c0.883,0.129,1.764,0.432,2.642,0.415c1.578-0.034,2.869,0.69,4.173,1.366
		c0.927,0.478,1.728,1.194,2.635,1.721c0.402,0.232,1.147,0.474,1.429,0.581c0.039,0.014,1.736,0.182,2.269,0.038
		c0.489-0.133,0.985-0.17,1.099-0.231c0.238-0.127,1.503-1.963,1.281-2.241c-0.222-0.277-0.654-1.598-0.455-2.242
		c0.269-0.872,1.031-7.817,1.207-9.54c0.135-1.331,0.078-2.69,0.299-4.003c0.205-1.218-0.103-2.382-0.074-3.568
		c0.032-1.243,0.192-2.493,0.096-3.724c-0.132-1.705-0.059-3.368,0.279-5.042C52.982,135.636,52.87,135.058,52.774,134.523"/>
	<path clip-path="url(#SVGID_2_)" fill="#231F20" d="M313.231,143.043c-0.011-0.022-0.02-0.048-0.027-0.071
		c-0.005,0.012-0.008,0.02-0.013,0.033C313.205,143.018,313.217,143.03,313.231,143.043"/>
	<path clip-path="url(#SVGID_2_)" fill="#231F20" d="M340.043,84.535c-0.191-0.054-3.002-1.632-3.745-2.157
		c-1.418-0.997-3.781-0.908-4.021-0.017c-0.204,0.768-1.25,7.319-1.422,8.317c-0.171,0.998-1.581,6.788-1.624,6.984
		c-0.32,1.483-0.595,2.978-0.909,4.464c-0.419,1.982-0.837,3.968-1.301,5.939c-0.264,1.128-0.55,2.259-0.949,3.345
		c-0.399,1.093-1.027,2.102-1.421,3.195c-0.876,2.446-2.245,4.029-2.363,4.299c-0.116,0.271-0.441,1.367-0.6,1.754
		c-0.158,0.389-0.745,2.506-1.41,4.525c-0.158,0.483-0.316,0.984-0.588,1.405c-0.532,0.828-1.86,3.329-2.022,3.522
		c-0.162,0.195-0.146,0.46-0.183,0.69c-0.184,1.157-0.341,2.639-0.711,2.683c-0.187,0.023-0.595-0.378-0.714-0.683
		c-0.128-0.329-0.099-0.724-0.246-1.04c-0.943-2.042-1.09-4.274-1.333-6.438c-0.206-1.841-0.156-3.726-0.389-5.581
		c-0.146-1.153-1.438-6.638-1.722-7.223c-0.225-0.461-1.188-1.372-1.444-1.491c-1.834-0.854-3.5-1.023-5.492-1.229
		c-1.729-0.178-3.236,0.3-4.597,1.256c-1.322,0.928-2.495,2.052-3.588,3.243c-0.335,0.365-0.593,0.84-0.761,1.31
		c-0.691,1.942-1.65,3.727-2.836,5.415c-1.028,1.466-1.924,3.025-2.875,4.545c-0.595,0.951-1.039,2.048-1.803,2.833
		c-1.387,1.423-2.223,3.124-3.042,4.875c-0.664,1.418-1.772,4.128-2.196,4.128c-0.251,0-0.979-1.395-1.311-2.165
		c-0.5-1.161-1.377-2.172-1.513-3.476c-0.108-1.061-0.657-1.905-1.15-2.798c-0.658-1.192-1.359-2.365-1.659-3.728
		c-0.319-1.441-0.693-2.873-1.081-4.298c-0.089-0.33-0.331-0.618-0.501-0.927c-0.488-0.892-1.191-1.734-1.419-2.688
		c-0.492-2.044-1.796-3.745-2.204-5.82c-0.28-1.434-0.824-2.814-1.234-4.224c-0.067-0.237-0.135-0.529-0.059-0.748
		c0.184-0.528,0.156-0.967-0.004-1.35c-0.181-0.434-0.6-1.382-1.146-1.281c-0.546,0.103-2.893-0.093-4.438-0.152
		c-1.649-0.065-4.58,0.234-4.929,0.62c-0.349,0.385-0.395,0.463-0.283,0.788c0.109,0.325,0.967,1.981,1.396,2.957
		c0.263,0.599,0.544,1.213,0.651,1.848c0.365,2.179,1.046,4.243,1.984,6.241c0.245,0.522,2.566,5.392,3.322,6.763
		c0.687,1.242,1.104,2.625,2.066,3.729c0.387,0.445,0.625,1.051,0.835,1.617c0.559,1.523,1.075,3.061,1.896,4.469
		c0.128,0.219,0.269,0.436,0.352,0.671c0.679,1.933,1.005,3.945,1.389,5.95c0.307,1.595,0.387,3.232,1.104,4.764
		c0.369,0.787,0.596,1.783,0.204,2.704c-0.244,0.569-0.208,1.039,0.004,1.434c0.129,0.24,0.482,0.634,0.788,0.684
		c0.305,0.05,0.783,0.146,1.247,0.296c1.334,0.434,2.405,1.208,3.043,2.552c0.816,1.725,1.952,3.102,3.479,4.174
		c0.331,0.23,0.699,0.623,1.045,0.65c0.347,0.029,0.861-0.095,1.301-0.082c1.026,0.026,2.041,0.128,2.708-0.664
		c1.532-2.941,4.256-8.797,4.285-8.945c0.282-1.384,0.704-2.587,1.176-3.916c0.39-1.102,0.926-2.148,1.383-3.225
		c0.114-0.272,0.609-2.807,1.159-3.522c0.561-0.729,0.966-2.713,1.144-2.982c2.004-3.024,3.739-6.146,5.228-9.538
		c0.085-0.191,0.17-0.574,0.252-0.581c0.157-0.014,0.661,0.847,0.768,1.221c0.397,1.414,0.797,2.834,1.064,4.275
		c0.339,1.822,1,3.517,1.877,5.119c0.302,0.549,0.517,1.073,0.671,1.678c0.229,0.896,1.353,2.893,1.447,3.137
		c0.39,0.99,0.898,1.934,1.252,2.934c0.577,1.628,1.212,3.733,0.974,4.3c-0.156,0.369-0.026,1.042,0.212,1.077
		c0.237,0.034,0.465,0.082,0.682,0.141c2.224,0.595,3.405,2.347,4.334,4.208c0.123,0.246,0.334,0.882,1.078,1.135
		c0.91,0.309,1.472,1.66,3.241,1.589c1.23-0.048,2.127-0.909,2.731-1.813c0.606-0.905,0.664-2.938,0.977-4.424
		c0.05-0.24,0.001-0.514-0.046-0.765c-0.239-1.271-0.001-2.53,0.218-3.76c0.318-1.79,0.791-3.556,1.235-5.321
		c0.282-1.126,0.811-2.216,0.922-3.353c0.23-2.382,1.509-4.416,1.999-6.72c0.462-2.173,1.47-4.222,2.088-6.369
		c1.033-3.584,1.959-7.198,2.902-10.809c0.215-0.817,0.317-1.662,0.474-2.495c0.073-0.493,0.353-0.962,0.396-1.452
		c0.141-1.563,0.188-3.137,0.279-4.705c0.024-0.404,0.055-0.812,0.126-1.212c0.265-1.49,0.618-2.97,0.804-4.47
		c0.191-1.536,0.239-3.081,0.55-4.614c0.226-1.111,0.629-2.139,0.999-3.188c0.305-0.861,0.646-1.701,1.639-2.076
		c0.259-0.099,0.551-0.421,0.551-0.817C340.688,85.259,340.234,84.589,340.043,84.535"/>
	<path clip-path="url(#SVGID_2_)" fill="#231F20" d="M310.085,137.774c0,0.005-0.001,0.009-0.003,0.013
		c0.018,0.007,0.024,0.019,0.041,0.025C310.138,137.771,310.11,137.747,310.085,137.774"/>
</g>
</svg>
