<svg class="play-button-solid-line" xmlns="http://www.w3.org/2000/svg" viewBox="0 0 1206.338 1206.338"><title>Play</title>
<style>
.play-button-solid-line {
	height: 200px;
	width: 200px;
	max-height: 100%;
	max-width: 100%;
}

.play-button-solid-line * {
	color: white;
	fill: white;
}

</style>
<path d="M618.169,35a580.356,580.356,0,0,1,326.042,99.584,584.926,584.926,0,0,1,211.307,256.6,582.377,582.377,0,0,1-53.764,553.031,584.925,584.925,0,0,1-256.6,211.307,582.377,582.377,0,0,1-553.031-53.764A584.928,584.928,0,0,1,80.82,845.159a582.376,582.376,0,0,1,53.764-553.031A584.928,584.928,0,0,1,391.179,80.82,579.5,579.5,0,0,1,618.169,35m0-20C285.048,15,15,285.048,15,618.169s270.048,603.169,603.169,603.169,603.169-270.048,603.169-603.169S951.29,15,618.169,15Z" transform="translate(-15 -15)"/><path d="M949.983,596.785,490.191,357.99a31.984,31.984,0,0,0-46.726,28.384v477.59a31.984,31.984,0,0,0,46.726,28.384l459.793-238.8C972.973,641.614,972.973,608.725,949.983,596.785Z" transform="translate(-15 -15)"/></svg>
